<svg viewBox="0 0 878 564" fill="none" stroke-linecap="square" stroke-miterlimit="10" xmlns="http://www.w3.org/2000/svg"><clipPath id="a"><path d="M0 0h878v564H0V0z"/></clipPath><g clip-path="url(#a)"><path d="M0 0h878v564H0z"/><path fill="#fbbc05" fill-opacity=".377" d="M639.19 38.64c0-11.416 9.256-20.671 20.673-20.671H833.73a20.672 20.672 0 0 1 20.672 20.672v82.687c0 11.417-9.255 20.672-20.672 20.672H659.863c-11.417 0-20.673-9.255-20.673-20.672z" fill-rule="evenodd"/><path stroke="#666" stroke-linejoin="round" stroke-linecap="butt" d="M639.19 38.64h0c0-11.416 9.256-20.671 20.673-20.671H833.73a20.672 20.672 0 0 1 20.672 20.672v82.687c0 11.417-9.255 20.672-20.672 20.672H659.863c-11.417 0-20.673-9.255-20.673-20.672z"/><path fill="#000" d="M657.042 35.316v3.468h-1.828v-9.468h3.234q.781 0 1.406.218.625.219 1.063.625.437.407.672.969.25.547.25 1.234 0 .641-.25 1.188-.235.531-.672.922-.438.39-1.063.625-.625.219-1.406.219h-1.406zm0-1.485h1.406q.39 0 .672-.11.297-.124.484-.327.204-.203.297-.47.094-.265.094-.546 0-.328-.094-.61-.093-.296-.297-.515-.187-.219-.484-.328-.281-.125-.672-.125h-1.406v3.031zm11.17-2.219q.422 0 .766.063.343.047.562.11l-.266 1.812q-.359-.094-.734-.125-.375-.047-.719-.047-.75 0-1.218.297-.454.281-.688.828v4.234h-1.797v-7.047h1.672l.094 1.157q.422-.594 1.015-.938.61-.344 1.313-.344zm2.701 3.594q0-.781.219-1.422.219-.656.64-1.14.438-.485 1.048-.75.625-.282 1.406-.282.797 0 1.406.282.625.265 1.047.75.437.484.656 1.14.219.64.219 1.422v.125q0 .781-.219 1.438-.219.656-.64 1.14-.422.469-1.047.75-.61.266-1.407.266-.796 0-1.421-.266-.61-.281-1.047-.75-.422-.484-.641-1.14-.219-.657-.219-1.438v-.125zm1.813.125q0 .453.078.844.094.375.266.672.187.281.468.453.297.172.703.172.407 0 .688-.172.281-.172.453-.453.188-.297.266-.672.093-.39.093-.844v-.125q0-.437-.093-.812-.078-.391-.266-.688-.172-.297-.453-.453-.281-.172-.703-.172-.406 0-.688.172-.281.156-.468.453-.172.297-.266.688-.078.375-.078.812v.125zm12.764 0q0 .766-.188 1.422-.172.656-.531 1.14-.344.47-.86.75-.515.266-1.171.266-.563 0-1-.187-.422-.203-.75-.547v3.312h-1.813v-9.75h1.672l.078.688q.313-.375.75-.594.453-.219 1.047-.219.672 0 1.187.266.516.25.86.719.36.469.531 1.14.188.657.188 1.454v.14zm-1.813-.14q0-.438-.094-.829-.078-.39-.25-.671-.172-.282-.437-.438-.266-.172-.656-.172-.47 0-.782.188-.297.187-.468.53v2.938q.171.329.468.532.313.187.797.187.39 0 .656-.156.266-.172.438-.469t.25-.672q.078-.39.078-.828v-.14zm6.889 3.718q-.813 0-1.484-.265-.657-.266-1.125-.72-.47-.468-.735-1.077-.25-.625-.25-1.344v-.25q0-.812.25-1.469.25-.672.703-1.156.453-.484 1.078-.75t1.36-.266q.765 0 1.36.25.593.25 1 .704.421.453.64 1.093.219.64.219 1.422v.766H688.8q.047.36.203.656.172.297.407.516.25.203.562.328.328.11.703.11.282 0 .532-.048.265-.047.5-.14.25-.11.453-.25.218-.157.375-.36l.906.969q-.172.25-.453.484-.266.22-.64.407-.36.172-.813.28-.438.11-.97.11zm-.203-5.828q-.313 0-.563.11-.25.093-.453.296-.187.204-.328.485-.125.281-.187.625h2.968v-.14q-.015-.282-.11-.532-.093-.266-.28-.453-.188-.188-.453-.281-.25-.11-.594-.11zm9.842-1.469q.422 0 .765.063.344.047.563.11l-.266 1.812q-.36-.094-.734-.125-.375-.047-.719-.047-.75 0-1.219.297-.453.281-.687.828v4.234h-1.797v-7.047h1.672l.094 1.157q.421-.594 1.015-.938.61-.344 1.313-.344zm6.264-1.593v1.718h2.625v1.344h-2.625v3.016q0 .39.078.656.093.25.25.406.172.14.406.219.234.063.516.063.203 0 .421-.016.22-.031.422-.047.203-.031.375-.062.172-.047.297-.079l.172 1.25q-.187.11-.453.188-.25.078-.531.125-.282.062-.594.094-.313.03-.61.03-.578 0-1.046-.155-.47-.157-.813-.47-.328-.327-.515-.827-.188-.5-.188-1.188v-3.203h-1.61v-1.344h1.61V30.02h1.813zm7.685 5.812l.203.75 1.875-4.844h2l-3.578 8.094q-.11.281-.297.594-.187.312-.468.578-.282.266-.688.438-.39.187-.937.187-.125 0-.25-.016-.11 0-.22-.015-.093-.016-.202-.047-.094-.016-.203-.047l.218-1.39q.11 0 .282.015.171.016.28.016.204 0 .376-.141.172-.125.281-.281.125-.156.188-.297.078-.125.109-.125l.422-.813-2.969-6.75h1.969l1.61 4.094zm13.48-4.094h3.829v5.579h1.906v1.468h-5.734v-1.468h2v-4.094h-2v-1.485zm1.876-1.796q0-.204.062-.375.079-.188.22-.313.14-.14.327-.203.188-.078.422-.078.485 0 .766.281.281.266.281.688 0 .421-.281.703-.281.265-.766.265-.234 0-.422-.078-.187-.078-.328-.203-.14-.125-.219-.297-.062-.187-.062-.39zm7.28 1.796l.109.985q.375-.531.906-.813.547-.297 1.203-.297.531 0 .969.157.453.156.766.5.328.343.5.875.187.53.187 1.312v4.328h-1.812v-4.312q0-.406-.094-.672-.094-.281-.266-.438-.172-.156-.422-.218-.25-.063-.562-.063-.469 0-.797.188-.313.187-.516.515v5h-1.812v-7.047h1.64zm8.107 7.047v-5.703h-1.86v-1.344h1.86v-.375q0-.703.219-1.234.218-.531.625-.89.422-.376 1-.547.593-.188 1.312-.188.219 0 .422.016.219.015.422.047.203.015.406.046.203.032.438.079l-.125 1.406q-.25-.047-.563-.078-.312-.047-.734-.047-.844 0-1.235.36-.375.359-.375 1.03v.375h2.532v1.344h-2.532v5.703h-1.812zm5.998-3.578q0-.781.219-1.422.219-.656.64-1.14.438-.485 1.047-.75.625-.282 1.407-.282.796 0 1.406.282.625.265 1.047.75.437.484.656 1.14.219.64.219 1.422v.125q0 .781-.219 1.438-.219.656-.64 1.14-.423.469-1.048.75-.609.266-1.406.266-.797 0-1.422-.266-.609-.281-1.047-.75-.421-.484-.64-1.14-.219-.657-.219-1.438v-.125zm1.813.125q0 .453.078.844.093.375.265.672.188.281.47.453.296.172.702.172.406 0 .688-.172.281-.172.453-.453.187-.297.265-.672.094-.39.094-.844v-.125q0-.437-.094-.812-.078-.391-.265-.688-.172-.297-.453-.453-.282-.172-.703-.172-.407 0-.688.172-.281.156-.469.453-.172.297-.265.688-.078.375-.078.812v.125zm11.482-3.719q.422 0 .766.063.344.047.562.11l-.265 1.812q-.36-.094-.735-.125-.375-.047-.718-.047-.75 0-1.22.297-.452.281-.687.828v4.234h-1.797v-7.047h1.672l.094 1.157q.422-.594 1.016-.938.609-.344 1.312-.344zm4.077.125l.046.86q.204-.453.547-.719.36-.266.875-.266.844 0 1.11.75.203-.359.53-.546.329-.204.782-.204.313 0 .594.125.281.11.484.375.203.25.313.657.11.406.11.984v5.031h-1.641v-5.031q0-.203-.047-.328-.032-.14-.11-.203-.062-.078-.172-.11-.093-.03-.187-.03-.188 0-.328.093-.125.078-.188.234v5.375h-1.593v-5.031q0-.203-.047-.328-.032-.14-.11-.203-.062-.078-.156-.11-.094-.03-.187-.03-.22 0-.344.124-.125.11-.188.313v5.265h-1.656v-7.047h1.563zm11.263 7.047q-.062-.125-.11-.297-.046-.171-.077-.359-.14.156-.344.313-.187.14-.437.25-.235.093-.516.156-.281.062-.625.062-.531 0-.984-.156-.454-.156-.782-.422-.328-.281-.515-.672-.172-.39-.172-.843 0-1.11.828-1.72.828-.609 2.469-.609h1.015v-.421q0-.5-.328-.797-.328-.297-.953-.297-.562 0-.812.234-.25.235-.25.625h-1.813q0-.437.188-.844.203-.406.578-.703.39-.312.937-.484.547-.188 1.266-.188.64 0 1.187.157.547.156.953.468.407.297.625.766.235.469.235 1.078v3.016q0 .562.062.937.078.375.22.64v.11h-1.845zm-1.718-1.265q.265 0 .5-.063.234-.078.421-.172.204-.11.329-.234.14-.14.218-.281v-1.203h-.922q-.421 0-.718.078t-.5.234q-.188.14-.282.344-.078.203-.078.453 0 .36.25.61.266.234.782.234zm8.638-7.5v1.718h2.625v1.344h-2.625v3.016q0 .39.078.656.094.25.25.406.172.14.407.219.234.063.515.063.203 0 .422-.016.219-.031.422-.047.203-.031.375-.062.172-.047.297-.079l.172 1.25q-.188.11-.453.188-.25.078-.532.125-.28.062-.593.094-.313.03-.61.03-.578 0-1.047-.155-.468-.157-.812-.47-.328-.327-.516-.827-.187-.5-.187-1.188v-3.203h-1.61v-1.344h1.61V30.02h1.812zm5.17 1.718h3.829v5.579h1.906v1.468h-5.735v-1.468h2v-4.094h-2v-1.485zm1.875-1.796q0-.204.063-.375.078-.188.219-.313.14-.14.328-.203.187-.078.422-.078.484 0 .765.281.282.266.282.688 0 .421-.282.703-.281.265-.765.265-.235 0-.422-.078-.188-.078-.328-.203-.141-.125-.22-.297-.062-.187-.062-.39zm5.39 5.265q0-.781.218-1.422.219-.656.64-1.14.438-.485 1.047-.75.625-.282 1.407-.282.797 0 1.406.282.625.265 1.047.75.437.484.656 1.14.219.64.219 1.422v.125q0 .781-.219 1.438-.219.656-.64 1.14-.422.469-1.047.75-.61.266-1.407.266t-1.422-.266q-.609-.281-1.046-.75-.422-.484-.641-1.14-.219-.657-.219-1.438v-.125zm1.812.125q0 .453.078.844.094.375.265.672.188.281.47.453.296.172.702.172.407 0 .688-.172.281-.172.453-.453.187-.297.266-.672.093-.39.093-.844v-.125q0-.437-.093-.812-.079-.391-.266-.688-.172-.297-.453-.453-.281-.172-.703-.172-.407 0-.688.172-.281.156-.469.453-.171.297-.265.688-.078.375-.078.812v.125zm8.076-3.594l.11.985q.374-.531.906-.813.547-.297 1.203-.297.531 0 .969.157.453.156.765.5.328.343.5.875.188.53.188 1.312v4.328H811.6v-4.312q0-.406-.094-.672-.093-.281-.265-.438-.172-.156-.422-.218-.25-.063-.563-.063-.468 0-.796.188-.313.187-.516.515v5h-1.813v-7.047h1.641z"/><path fill="#673ab7" d="M661.542 70.597q-.016.5-.094 1.015-.078.516-.25 1-.172.485-.437.907-.25.406-.625.718-.36.313-.828.5-.47.172-1.063.172-.578 0-1.062-.172-.47-.187-.829-.5-.359-.312-.64-.718-.266-.422-.438-.907-.172-.484-.25-1-.078-.515-.093-1.015v-1.078q.015-.516.093-1.032.078-.515.25-1 .172-.484.438-.89.265-.422.625-.735.36-.328.828-.5.484-.187 1.062-.187.594 0 1.063.187.484.172.844.485.359.312.625.734.265.422.437.906.172.485.25 1 .078.516.094 1.032v1.078zm-1.188-1.094q-.015-.344-.062-.703-.031-.375-.125-.734-.094-.36-.25-.688-.156-.328-.39-.578-.235-.25-.563-.39-.313-.157-.735-.157-.406 0-.734.156-.312.14-.547.39-.234.25-.39.579-.157.328-.25.688-.094.359-.141.734-.047.375-.047.703v1.094q0 .328.047.703.047.36.14.734.094.36.25.688.157.328.391.578.235.25.547.406.328.14.75.14t.734-.14q.329-.156.563-.406.234-.25.39-.578.157-.328.25-.688.094-.36.126-.734.03-.375.046-.703v-1.094zm4.811 5.281v-6.11h-1.937v-.937h1.937v-.484q0-.688.203-1.188.203-.515.563-.859.36-.344.86-.516.515-.187 1.14-.187.437 0 .843.078.407.078.829.188l-.141.984q-.266-.094-.625-.156-.36-.063-.75-.063-.86 0-1.281.422-.422.422-.422 1.297v.484h2.719v.938h-2.72v6.11h-1.218zm8.005 0v-6.11h-1.938v-.937h1.938v-.484q0-.688.203-1.188.203-.515.562-.859.36-.344.86-.516.515-.187 1.14-.187.438 0 .844.078.406.078.828.188l-.14.984q-.266-.094-.625-.156-.36-.063-.75-.063-.86 0-1.282.422-.421.422-.421 1.297v.484h2.718v.938h-2.718v6.11h-1.22zm10.895-1.875q0-.203-.094-.375-.078-.172-.28-.312-.204-.156-.532-.266-.328-.125-.828-.219-.61-.125-1.11-.296-.484-.188-.843-.422-.36-.25-.563-.579-.187-.328-.187-.765 0-.422.203-.797.203-.375.562-.656.375-.281.875-.438.5-.172 1.11-.172.656 0 1.171.172.516.172.875.469.375.297.563.703.203.39.203.86h-1.203q0-.235-.125-.454-.11-.218-.313-.375-.203-.171-.5-.28-.296-.11-.671-.11-.391 0-.688.094-.281.078-.469.218-.187.14-.297.344-.093.188-.093.39 0 .204.078.376.078.156.265.28.204.126.516.235.328.11.828.203.64.141 1.156.329.516.171.86.421.36.25.547.579.187.328.187.765 0 .469-.219.86-.203.374-.578.656-.375.265-.906.422-.531.14-1.156.14-.719 0-1.281-.187-.547-.188-.938-.5-.39-.328-.594-.735-.203-.421-.203-.875h1.203q.032.375.203.641.172.25.422.406.266.156.578.219.313.063.61.063.765 0 1.203-.282.453-.281.453-.75zm6.436 2q-.75 0-1.375-.25-.61-.25-1.063-.703-.437-.453-.687-1.078-.25-.625-.25-1.375v-.266q0-.859.265-1.53.282-.673.735-1.126.453-.469 1.031-.719.578-.25 1.188-.25.75 0 1.312.266.578.266.953.734.375.454.563 1.094.187.625.187 1.36v.546h-5.031q.031.485.187.907.172.421.454.734.296.313.687.5.406.172.906.172.64 0 1.14-.25.5-.266.829-.688l.734.563q-.171.266-.437.516t-.61.437q-.343.188-.78.297-.438.11-.938.11zm-.156-6.312q-.375 0-.704.14-.312.125-.578.391-.265.25-.453.625-.172.375-.234.86h3.781v-.079q-.016-.36-.14-.703-.11-.344-.329-.61-.218-.28-.562-.452-.328-.172-.781-.172zm7.888-2.563v1.703h2.688v.938h-2.688v3.828q0 .406.094.672.11.266.297.437.187.157.422.22.234.062.5.062.203 0 .406-.016l.406-.063q.203-.03.375-.062.172-.047.282-.063l.171.844q-.156.094-.375.172-.203.063-.468.11-.25.046-.532.062-.28.031-.562.031-.469 0-.875-.125-.406-.14-.703-.422-.297-.296-.485-.75-.171-.468-.171-1.109v-3.828h-1.844v-.938h1.844v-1.703h1.218z"/><path fill="#e67c73" d="M705.481 74.003q0-.188.047-.36.063-.171.172-.296.125-.125.297-.203.188-.079.422-.079.234 0 .406.079.188.078.297.203.125.125.188.297.062.171.062.359 0 .188-.062.36-.063.156-.188.28-.11.126-.297.188-.172.078-.406.078-.234 0-.422-.078-.172-.062-.297-.187-.11-.125-.172-.282-.047-.171-.047-.359zm0-6q0-.188.047-.36.063-.171.172-.296.125-.125.297-.203.188-.079.422-.079.234 0 .406.079.188.078.297.203.125.125.188.297.062.171.062.359 0 .188-.062.36-.063.156-.188.28-.11.126-.297.204-.172.062-.406.062-.234 0-.422-.062-.172-.078-.297-.203-.11-.125-.172-.282-.047-.171-.047-.359z"/><path fill="#db4437" d="M725.322 71.16q0 .906-.204 1.609-.203.687-.593 1.171-.39.485-.969.735-.563.234-1.297.234-.719 0-1.297-.234-.562-.25-.969-.734-.39-.485-.609-1.172-.203-.704-.203-1.61V68.94q0-.906.203-1.593.219-.703.61-1.188.39-.484.953-.734.578-.25 1.312-.25.719 0 1.281.25.578.25.97.734.405.485.608 1.188.204.687.204 1.594v2.218zm-4.922-.235l3.687-2.844q-.11-.937-.562-1.422-.438-.5-1.266-.5-.953 0-1.406.64-.453.641-.453 1.876v2.25zm3.718-1.688l-3.687 2.813q.11.922.562 1.406.454.484 1.266.484.969 0 1.406-.64.453-.656.453-1.89v-2.173z"/><path fill="#e67c73" d="M659.589 82.94h-1.438v10.891h1.438v.985h-2.578v-12.86h2.578v.985zm7.998 0h-1.438v10.891h1.438v.985h-2.578v-12.86h2.578v.985z"/><path fill="#673ab7" d="M676.07 90.222l.718-6.906h1.14l-1.14 9.468h-1.234l-1.219-7.14-1.234 7.14h-1.235l-1.156-9.468h1.156l.72 6.906 1.218-6.906h1.047l1.218 6.906zm7.92-4.61q.171 0 .343.016.188 0 .344.031.172.016.313.047.14.031.234.078l-.172 1.172q-.344-.078-.656-.11-.313-.03-.656-.03-.86 0-1.391.39-.516.375-.766 1.063v4.515h-1.203v-7.047h1.14l.063 1.125q.438-.578 1.032-.906.609-.344 1.375-.344zm3.576.125h3.594v6h2.296v1.047h-5.89v-1.047h2.39v-4.953h-2.39v-1.047zm2.234-1.843q0-.297.172-.5.188-.203.547-.203.36 0 .531.203.188.203.188.5t-.188.5q-.172.187-.531.187-.36 0-.547-.187-.172-.203-.172-.5zm8.42.14v1.703h2.688v.938h-2.688v3.828q0 .406.094.672.11.266.297.437.187.157.422.22.234.062.5.062.203 0 .406-.016l.406-.062q.203-.032.375-.063.172-.047.282-.062l.171.843q-.156.094-.375.172-.203.063-.468.11-.25.046-.532.062-.28.031-.562.031-.469 0-.875-.125-.406-.14-.703-.422-.297-.296-.485-.75-.171-.468-.171-1.109v-3.828h-1.844v-.938h1.844v-1.703h1.218zm9.78 8.75q-.078-.14-.125-.343-.032-.204-.063-.422-.172.187-.406.343-.219.157-.5.282-.266.125-.578.187-.297.078-.64.078-.563 0-1.016-.156-.454-.156-.766-.437-.313-.282-.484-.657-.172-.39-.172-.828 0-.578.234-1.015.234-.438.656-.72.422-.296 1.016-.437.594-.14 1.328-.14h1.313v-.563q0-.312-.125-.562-.11-.266-.329-.438-.203-.172-.515-.265-.313-.11-.703-.11-.344 0-.64.094-.282.094-.485.25-.188.14-.297.344-.094.203-.094.422h-1.219q.016-.375.203-.75.188-.375.547-.672.36-.297.875-.47.532-.187 1.188-.187.594 0 1.11.157.515.14.89.437t.578.735q.219.437.219 1.03v3.282q0 .344.062.75.063.39.188.672v.11H708zm-2.14-.922q.358 0 .655-.078.313-.093.563-.25.25-.156.422-.343.187-.188.297-.391v-1.438h-1.125q-1.047 0-1.641.313-.578.312-.578.984 0 .266.078.485.094.218.266.39.187.157.453.25.265.078.61.078zm11.466-2.515q0 .75-.187 1.406-.172.656-.532 1.14-.343.47-.86.75-.515.266-1.187.266-.671 0-1.171-.234t-.86-.688l-.047.797h-1.11v-10h1.204v3.719q.344-.437.828-.656.485-.235 1.14-.235.673 0 1.188.266.532.266.875.75.36.469.532 1.14.187.657.187 1.438v.14zm-1.203-.14q0-.516-.11-.985-.093-.469-.312-.813-.219-.36-.578-.562-.36-.219-.875-.219-.313 0-.578.094-.25.078-.469.234-.203.14-.36.344-.156.187-.265.422V90.8q.11.234.266.437.172.188.375.344.218.156.468.235.266.078.579.078.484 0 .843-.203.36-.204.578-.547.235-.36.329-.813.109-.469.109-.984v-.14zm3.436-6.423h3.593v8.953h2.297v1.047h-5.89v-1.047h2.39v-7.906h-2.39v-1.047zm10.92 10.125q-.75 0-1.375-.25-.61-.25-1.063-.703-.437-.453-.687-1.078-.25-.625-.25-1.375v-.266q0-.859.265-1.53.281-.673.735-1.126.453-.469 1.03-.719.579-.25 1.188-.25.75 0 1.313.266.578.266.953.734.375.454.562 1.094.188.625.188 1.36v.546h-5.031q.031.485.187.907.172.422.453.734.297.313.688.5.406.172.906.172.64 0 1.14-.25.5-.266.829-.688l.734.563q-.172.266-.437.516-.266.25-.61.437-.343.188-.78.297-.438.11-.938.11zm-.157-6.312q-.375 0-.703.14-.312.125-.578.391-.266.25-.453.625-.172.375-.234.86h3.78v-.079q-.015-.36-.14-.703-.11-.344-.328-.61-.219-.28-.562-.452-.329-.172-.782-.172z"/><path fill="#e67c73" d="M736.867 81.956h2.579v12.86h-2.579v-.985h1.438v-10.89h-1.438v-.985zm7.999 0h2.578v12.86h-2.578v-.985h1.437v-10.89h-1.437v-.985zm8.592 10.047q0-.187.046-.36.063-.171.172-.296.125-.125.297-.203.188-.078.422-.078.234 0 .406.078.188.078.297.203.125.125.188.297.062.172.062.359 0 .188-.062.36-.063.156-.188.28-.11.126-.297.188-.172.078-.406.078-.234 0-.422-.078-.172-.062-.297-.187-.109-.125-.172-.282-.046-.171-.046-.359zm0-6q0-.187.046-.36.063-.171.172-.296.125-.125.297-.203.188-.078.422-.078.234 0 .406.078.188.078.297.203.125.125.188.297.062.172.062.359 0 .188-.062.36-.063.156-.188.28-.11.126-.297.204-.172.062-.406.062-.234 0-.422-.062-.172-.078-.297-.203-.109-.125-.172-.282-.046-.171-.046-.359z"/><path fill="#4285f4" d="M770.204 84.034v1.703h2.688v.938h-2.688v3.828q0 .406.094.672.11.266.297.437.187.157.421.22.235.062.5.062.204 0 .407-.016l.406-.062q.203-.032.375-.063.172-.047.281-.062l.172.843q-.156.094-.375.172-.203.063-.469.11-.25.046-.53.062-.282.031-.563.031-.47 0-.875-.125-.407-.14-.704-.422-.296-.296-.484-.75-.172-.468-.172-1.109v-3.828h-1.844v-.938h1.844v-1.703h1.219zm9.764 1.578q.172 0 .344.016.187 0 .343.031.172.016.313.047.14.031.234.078l-.172 1.172q-.343-.078-.656-.11-.312-.03-.656-.03-.86 0-1.39.39-.516.375-.766 1.063v4.515h-1.204v-7.047h1.141l.063 1.125q.437-.578 1.03-.906.61-.344 1.376-.344zm7.951 6.204q-.36.515-.89.812-.516.281-1.204.281-.562 0-1.015-.172-.438-.171-.766-.53-.312-.36-.484-.923-.172-.562-.172-1.36v-4.187h1.203v4.204q0 .578.094.953.093.375.265.609.188.219.453.313.266.078.61.078.734 0 1.187-.297.453-.297.672-.797v-5.063h1.203v7.047h-1.093l-.063-.968zm6.545 1.093q-.75 0-1.375-.25-.61-.25-1.062-.703-.438-.453-.688-1.078-.25-.625-.25-1.375v-.266q0-.859.266-1.53.281-.673.734-1.126.453-.469 1.031-.719.579-.25 1.188-.25.75 0 1.312.266.579.266.954.734.375.454.562 1.094.188.625.188 1.36v.546h-5.032q.032.485.188.907.172.422.453.734.297.313.687.5.407.172.907.172.64 0 1.14-.25.5-.266.828-.688l.735.563q-.172.266-.438.516-.265.25-.61.437-.343.188-.78.297-.438.11-.938.11zm-.156-6.312q-.375 0-.703.14-.313.125-.578.391-.266.25-.453.625-.172.375-.235.86h3.781v-.079q-.015-.36-.14-.703-.11-.344-.328-.61-.22-.28-.563-.452-.328-.172-.781-.172z"/><path fill="#e67c73" d="M659.589 100.94h-1.438v10.891h1.438v.985h-2.578v-12.86h2.578v.985zm7.998 0h-1.438v10.891h1.438v.985h-2.578v-12.86h2.578v.985z"/><path fill="#673ab7" d="M676.585 106.41h-3.953v3.359h4.61v1.015h-5.813v-9.468h5.75v1.015h-4.547v3.047h3.953v1.031zm3.873-2.673l.078 1.047q.391-.547.938-.86.562-.312 1.25-.312.562 0 1.016.157.453.156.765.484.328.328.5.844.172.515.172 1.219v4.468h-1.203v-4.437q0-.469-.11-.797-.109-.328-.312-.531t-.5-.297q-.297-.094-.687-.094-.594 0-1.063.313-.453.296-.719.796v5.047h-1.218v-7.047h1.093zm11.483 6.079q-.36.515-.89.812-.516.281-1.204.281-.562 0-1.016-.172-.437-.171-.765-.53-.313-.36-.485-.923-.171-.562-.171-1.36v-4.187h1.203v4.204q0 .578.093.953.094.375.266.609.188.219.453.313.266.078.61.078.734 0 1.187-.297.453-.297.672-.797v-5.063h1.203v7.047h-1.094l-.062-.968zm3.982-6.079l.032.672q.218-.375.562-.578.344-.219.844-.219.969 0 1.297.75.203-.328.547-.53.343-.22.828-.22.781 0 1.187.485.422.469.422 1.422v5.265h-1.14v-5.265q0-.891-.813-.891-.219 0-.375.063-.156.062-.266.171-.093.094-.156.235-.062.125-.078.265v5.422h-1.156v-5.281q0-.422-.188-.64-.187-.235-.593-.235-.375 0-.594.156-.203.157-.297.39v5.61h-1.14v-7.047h1.077zm10.561 7.172q-.75 0-1.375-.25-.61-.25-1.062-.703-.438-.453-.688-1.078-.25-.625-.25-1.375v-.266q0-.859.266-1.53.281-.673.734-1.126.453-.469 1.031-.719.579-.25 1.188-.25.75 0 1.312.266.579.266.954.734.375.454.562 1.094.188.625.188 1.36v.546h-5.032q.032.485.188.907.172.422.453.734.297.313.687.5.407.172.907.172.64 0 1.14-.25.5-.266.828-.688l.735.563q-.172.266-.438.516-.265.25-.61.437-.343.188-.78.297-.438.11-.938.11zm-.156-6.312q-.375 0-.703.14-.313.125-.578.391-.266.25-.453.625-.172.375-.235.86h3.781v-.079q-.015-.36-.14-.703-.11-.344-.328-.61-.22-.28-.563-.452-.328-.172-.781-.172zm9.654-.985q.172 0 .344.016.188 0 .344.031.172.016.312.047t.235.078l-.172 1.172q-.344-.078-.656-.11-.313-.03-.657-.03-.86 0-1.39.39-.516.375-.766 1.063v4.515h-1.203v-7.047h1.14l.063 1.125q.438-.578 1.031-.906.61-.344 1.375-.344zm8.014 7.172q-.078-.14-.125-.343-.031-.204-.062-.422-.172.187-.407.343-.218.157-.5.282-.265.125-.578.187-.297.078-.64.078-.563 0-1.016-.156-.453-.156-.766-.437-.312-.282-.484-.657-.172-.39-.172-.828 0-.578.234-1.015.235-.438.657-.72.422-.296 1.015-.437.594-.14 1.328-.14h1.313v-.563q0-.312-.125-.562-.11-.266-.328-.438-.203-.172-.516-.265-.312-.11-.703-.11-.344 0-.64.094-.282.094-.485.25-.187.14-.297.344-.094.203-.094.422h-1.218q.015-.375.203-.75.187-.375.547-.672.36-.297.875-.47.531-.187 1.187-.187.594 0 1.11.157.515.14.89.437t.578.735q.22.437.22 1.03v3.282q0 .344.062.75.062.39.187.672v.11h-1.25zm-2.14-.922q.359 0 .656-.078.312-.093.562-.25.25-.156.422-.343.188-.188.297-.391v-1.438h-1.125q-1.047 0-1.64.313-.579.312-.579.984 0 .266.078.485.094.218.266.39.187.157.453.25.266.078.61.078zm11.466-2.515q0 .75-.187 1.406-.172.656-.531 1.14-.344.47-.86.75-.515.266-1.187.266t-1.172-.234q-.5-.234-.86-.688l-.046.797h-1.11v-10h1.203v3.719q.344-.437.829-.656.484-.235 1.14-.235.672 0 1.188.266.53.266.875.75.359.469.53 1.14.188.657.188 1.438v.14zm-1.203-.14q0-.516-.11-.985-.093-.469-.312-.813-.218-.36-.578-.562-.36-.219-.875-.219-.312 0-.578.094-.25.078-.469.234-.203.14-.359.344-.156.187-.266.422v3.078q.11.234.266.437.172.188.375.344.219.156.469.235.265.078.578.078.484 0 .844-.203.359-.204.578-.547.234-.36.328-.813.11-.469.11-.984v-.14zm3.436-6.423h3.594v8.953h2.297v1.047h-5.891v-1.047h2.39v-7.906h-2.39v-1.047zm10.92 10.125q-.75 0-1.375-.25-.61-.25-1.062-.703-.438-.453-.688-1.078-.25-.625-.25-1.375v-.266q0-.859.266-1.53.28-.673.734-1.126.453-.469 1.031-.719.578-.25 1.188-.25.75 0 1.312.266.578.266.953.734.375.454.563 1.094.187.625.187 1.36v.546h-5.03q.03.485.187.907.172.422.453.734.297.313.687.5.407.172.907.172.64 0 1.14-.25.5-.266.828-.688l.735.563q-.172.266-.438.516-.265.25-.61.437-.343.188-.78.297-.438.11-.938.11zm-.156-6.312q-.375 0-.703.14-.313.125-.578.391-.266.25-.454.625-.171.375-.234.86h3.781v-.079q-.015-.36-.14-.703-.11-.344-.328-.61-.22-.28-.563-.452-.328-.172-.781-.172z"/><path fill="#e67c73" d="M752.864 99.956h2.578v12.86h-2.578v-.985h1.437v-10.89h-1.437v-.985zm7.998 0h2.578v12.86h-2.578v-.985h1.437v-10.89h-1.437v-.985zm8.592 10.047q0-.187.047-.36.062-.171.172-.296.125-.125.297-.203.187-.078.421-.078.235 0 .407.078.187.078.297.203.125.125.187.297.063.172.063.359 0 .188-.063.36-.062.156-.187.28-.11.126-.297.188-.172.078-.407.078-.234 0-.421-.078-.172-.062-.297-.187-.11-.125-.172-.282-.047-.171-.047-.359zm0-6q0-.187.047-.36.062-.171.172-.296.125-.125.297-.203.187-.078.421-.078.235 0 .407.078.187.078.297.203.125.125.187.297.063.172.063.359 0 .188-.063.36-.062.156-.187.28-.11.126-.297.204-.172.062-.407.062-.234 0-.421-.062-.172-.078-.297-.203-.11-.125-.172-.282-.047-.171-.047-.359z"/><path fill="#4285f4" d="M786.2 102.034v1.703h2.688v.938H786.2v3.828q0 .406.094.672.11.266.297.437.187.157.422.22.234.062.5.062.203 0 .406-.016l.406-.062q.203-.032.375-.063.172-.047.282-.062l.171.843q-.156.094-.375.172-.203.063-.468.11-.25.046-.532.062-.28.031-.562.031-.469 0-.875-.125-.406-.14-.703-.422-.297-.296-.485-.75-.171-.468-.171-1.109v-3.828h-1.844v-.938h1.844v-1.703h1.218zm9.764 1.578q.172 0 .344.016.187 0 .344.031.171.016.312.047.14.031.234.078l-.171 1.172q-.344-.078-.657-.11-.312-.03-.656-.03-.86 0-1.39.39-.516.375-.766 1.063v4.515h-1.203v-7.047h1.14l.063 1.125q.437-.578 1.031-.906.61-.344 1.375-.344zm7.951 6.204q-.359.515-.89.812-.516.281-1.203.281-.563 0-1.016-.172-.437-.171-.766-.53-.312-.36-.484-.923-.172-.562-.172-1.36v-4.187h1.203v4.204q0 .578.094.953t.266.609q.187.219.453.313.265.078.61.078.734 0 1.187-.297.453-.297.672-.797v-5.063h1.203v7.047h-1.094l-.063-.968zm6.545 1.093q-.75 0-1.375-.25-.609-.25-1.062-.703-.438-.453-.688-1.078-.25-.625-.25-1.375v-.266q0-.859.266-1.53.281-.673.734-1.126.454-.469 1.032-.719.578-.25 1.187-.25.75 0 1.313.266.578.266.953.734.375.454.562 1.094.188.625.188 1.36v.546h-5.031q.03.485.187.907.172.422.453.734.297.313.688.5.406.172.906.172.64 0 1.14-.25.5-.266.829-.688l.734.563q-.172.266-.437.516-.266.25-.61.437-.344.188-.781.297-.438.11-.938.11zm-.156-6.312q-.375 0-.703.14-.312.125-.578.391-.266.25-.453.625-.172.375-.235.86h3.782v-.079q-.016-.36-.14-.703-.11-.344-.329-.61-.219-.28-.563-.452-.328-.172-.78-.172z"/><path fill="#e67c73" d="M659.589 118.94h-1.438v10.891h1.438v.985h-2.578v-12.86h2.578v.985zm7.998 0h-1.438v10.891h1.438v.985h-2.578v-12.86h2.578v.985z"/><path fill="#673ab7" d="M677.507 125.94q-.078.657-.344 1.204-.25.547-.656.937t-.969.61q-.547.218-1.234.218-.578 0-1.063-.156-.468-.172-.843-.453-.375-.297-.657-.688-.265-.406-.453-.875-.172-.468-.265-.984-.079-.516-.079-1.047v-1.312q0-.532.079-1.047.093-.516.265-.985.188-.468.453-.859.282-.406.657-.703.375-.297.843-.453.47-.172 1.063-.172.719 0 1.265.219.563.218.97.625.405.39.64.953.25.562.328 1.234h-1.203q-.063-.422-.203-.797-.14-.375-.39-.64-.235-.282-.579-.438-.344-.172-.828-.172-.422 0-.75.14-.328.142-.578.392-.235.234-.39.562-.157.313-.267.672-.093.344-.14.719-.031.375-.031.734v1.328q0 .36.03.735.048.375.141.734.11.36.266.687.156.313.39.563.25.234.563.375.328.14.766.14.484 0 .828-.14.344-.156.578-.422.25-.281.39-.64.141-.376.204-.797h1.203zm1.53-.734q0-.765.218-1.422.219-.656.625-1.14.422-.485 1.016-.75.594-.282 1.328-.282.75 0 1.344.282.593.265 1 .75.422.484.64 1.14.235.657.235 1.422v.14q0 .75-.235 1.407-.218.656-.64 1.14-.407.47-1 .75-.578.266-1.328.266-.75 0-1.344-.265-.594-.282-1.016-.75-.406-.485-.625-1.141-.219-.656-.219-1.406v-.14zm1.203.14q0 .516.125.985t.375.828q.25.36.625.578.375.204.875.204t.875-.204q.375-.218.625-.578t.375-.828q.125-.469.125-.984v-.14q0-.516-.141-.985-.125-.485-.375-.844-.25-.36-.625-.562-.375-.22-.875-.22t-.875.22q-.36.203-.61.562-.25.36-.374.844-.125.469-.125.984v.14zm8.216-3.609l.079 1.047q.39-.547.937-.86.563-.312 1.25-.312.563 0 1.016.157.453.156.765.484.328.328.5.844.172.515.172 1.219v4.468h-1.203v-4.437q0-.469-.11-.797-.109-.328-.312-.531t-.5-.297q-.297-.094-.687-.094-.594 0-1.063.313-.453.296-.719.796v5.047h-1.218v-7.047h1.093zm8.702 7.047v-6.11h-1.938v-.937h1.938v-.484q0-.687.203-1.187.203-.516.562-.86.36-.344.86-.515.515-.188 1.14-.188.438 0 .844.078.406.078.828.188l-.14.984q-.266-.094-.625-.156-.36-.063-.75-.063-.86 0-1.282.422-.421.422-.421 1.297v.484h2.718v.938h-2.718v6.11h-1.22zm6.41-7.047h3.594v6h2.297v1.047h-5.89v-1.047h2.39v-4.953h-2.39v-1.047zm2.235-1.843q0-.297.172-.5.187-.203.547-.203.36 0 .531.203.188.203.188.5t-.188.5q-.172.187-.531.187-.36 0-.547-.187-.172-.203-.172-.5zm5.342 5.312q0-.781.188-1.437.203-.672.562-1.141.375-.484.89-.75.516-.266 1.173-.266.656 0 1.14.235.5.234.844.656l.062-.766h1.094v6.891q0 .703-.219 1.234-.218.547-.625.922-.39.375-.937.563-.547.203-1.203.203-.281 0-.64-.063-.345-.046-.704-.187-.36-.14-.703-.375-.328-.234-.563-.578l.625-.735q.22.266.454.454.234.187.468.296.25.11.485.157.25.062.484.062.422 0 .766-.125.359-.125.593-.375.25-.234.375-.594.141-.343.141-.796v-.61q-.36.406-.844.625-.468.203-1.11.203-.64 0-1.155-.265-.516-.282-.891-.75-.36-.485-.562-1.141-.188-.656-.188-1.406v-.14zm1.203.14q0 .516.11.985.109.453.343.813.235.343.578.547.36.203.875.203.313 0 .563-.078.25-.079.437-.204.204-.14.36-.328.156-.187.281-.422v-3.218q-.125-.235-.281-.407-.156-.187-.36-.312-.203-.14-.453-.219-.234-.078-.547-.078-.5 0-.859.219-.36.203-.594.562-.234.344-.343.813-.11.469-.11.984v.14zm11.592 2.47q-.36.515-.89.812-.516.281-1.204.281-.562 0-1.015-.172-.438-.171-.766-.53-.312-.36-.484-.923-.172-.562-.172-1.36v-4.187h1.203v4.204q0 .578.094.953.093.375.265.609.188.219.453.313.266.078.61.078.734 0 1.187-.297.453-.297.672-.797v-5.063h1.203v7.047h-1.093l-.063-.968zm8.045-6.204q.172 0 .344.016.187 0 .344.031.172.016.312.047t.235.078l-.172 1.172q-.344-.078-.657-.11-.312-.03-.656-.03-.86 0-1.39.39-.516.375-.766 1.063v4.515h-1.203v-7.047h1.14l.063 1.125q.437-.578 1.031-.906.61-.344 1.375-.344zm8.014 7.172q-.078-.14-.125-.343l-.063-.422q-.171.187-.406.343-.219.157-.5.282-.265.125-.578.187-.297.078-.64.078-.563 0-1.016-.156-.453-.156-.766-.437-.312-.282-.484-.657-.172-.39-.172-.828 0-.578.234-1.015.235-.438.657-.72.421-.296 1.015-.437.594-.14 1.328-.14h1.313v-.563q0-.312-.125-.562-.11-.266-.328-.438-.203-.172-.516-.265-.312-.11-.703-.11-.344 0-.64.094-.282.094-.485.25-.188.14-.297.344-.094.203-.094.422h-1.218q.015-.375.203-.75.187-.375.547-.672.359-.297.875-.47.53-.187 1.187-.187.594 0 1.11.157.515.14.89.437t.578.735q.219.437.219 1.03v3.282q0 .344.062.75.063.39.188.672v.11h-1.25zm-2.14-.922q.359 0 .656-.078.312-.093.562-.25.25-.156.422-.343.187-.188.297-.391v-1.438h-1.125q-1.047 0-1.64.313-.579.312-.579.984 0 .266.078.485.094.218.266.39.187.157.453.25.266.078.61.078zm11.466-2.515q0 .75-.187 1.406-.172.656-.532 1.14-.343.47-.859.75-.516.266-1.187.266-.672 0-1.172-.234-.5-.234-.86-.688l-.047.797h-1.109v-10h1.203v3.719q.344-.437.828-.656.485-.235 1.141-.235.672 0 1.187.266.532.266.875.75.36.469.532 1.14.187.657.187 1.438v.14zm-1.203-.14q0-.516-.11-.985-.093-.469-.312-.813-.219-.36-.578-.562-.36-.219-.875-.219-.312 0-.578.094-.25.078-.469.234-.203.14-.36.344-.155.187-.265.422v3.078q.11.234.266.437.172.188.375.344.219.156.469.235.265.078.578.078.484 0 .843-.203.36-.204.579-.547.234-.36.328-.813.11-.469.11-.984v-.14zm3.436-6.423h3.594v8.953h2.296v1.047h-5.89v-1.047h2.39v-7.906h-2.39v-1.047zm10.92 10.125q-.75 0-1.375-.25-.61-.25-1.063-.703-.437-.453-.687-1.078-.25-.625-.25-1.375v-.266q0-.859.266-1.53.28-.673.734-1.126.453-.469 1.031-.719.578-.25 1.188-.25.75 0 1.312.266.578.266.953.734.375.454.563 1.094.187.625.187 1.36v.546h-5.031q.031.485.188.907.171.422.453.734.297.313.687.5.406.172.906.172.641 0 1.141-.25.5-.266.828-.688l.735.563q-.172.266-.438.516t-.61.437q-.343.188-.78.297-.438.11-.938.11zm-.156-6.312q-.375 0-.703.14-.313.125-.579.391-.265.25-.453.625-.172.375-.234.86h3.781v-.079q-.015-.36-.14-.703-.11-.344-.329-.61-.218-.28-.562-.452-.328-.172-.781-.172z"/><path fill="#e67c73" d="M768.867 117.956h2.578v12.86h-2.578v-.985h1.437v-10.89h-1.437v-.985zm7.998 0h2.578v12.86h-2.578v-.985h1.437v-10.89h-1.437v-.985zm8.592 10.047q0-.187.047-.36.062-.171.172-.296.125-.125.296-.203.188-.078.422-.078.235 0 .407.078.187.078.296.203.125.125.188.297.062.172.062.359 0 .188-.062.36-.063.156-.188.28-.109.126-.296.188-.172.078-.407.078-.234 0-.422-.078-.171-.062-.296-.187-.11-.125-.172-.282-.047-.171-.047-.359zm0-6q0-.187.047-.36.062-.171.172-.296.125-.125.296-.203.188-.078.422-.078.235 0 .407.078.187.078.296.203.125.125.188.297.062.172.062.359 0 .188-.062.36-.063.156-.188.28-.109.126-.296.204-.172.062-.407.062-.234 0-.422-.062-.171-.078-.296-.203-.11-.125-.172-.282-.047-.171-.047-.359z"/><path fill="#4285f4" d="M802.203 120.034v1.703h2.688v.938h-2.688v3.828q0 .406.094.672.11.266.297.437.187.157.422.22.234.062.5.062.203 0 .406-.016l.406-.062q.203-.032.375-.063.172-.047.281-.062l.172.843q-.156.094-.375.172-.203.063-.468.11-.25.046-.532.062-.28.031-.562.031-.469 0-.875-.125-.406-.14-.703-.422-.297-.296-.485-.75-.172-.468-.172-1.109v-3.828h-1.843v-.938h1.843v-1.703h1.22zm9.764 1.578q.172 0 .344.016.187 0 .343.031.172.016.313.047.14.031.234.078l-.172 1.172q-.343-.078-.656-.11-.312-.03-.656-.03-.86 0-1.39.39-.516.375-.766 1.063v4.515h-1.203v-7.047h1.14l.063 1.125q.437-.578 1.031-.906.61-.344 1.375-.344zm7.951 6.204q-.359.515-.89.812-.516.281-1.203.281-.563 0-1.016-.172-.438-.171-.766-.53-.312-.36-.484-.923-.172-.562-.172-1.36v-4.187h1.203v4.204q0 .578.094.953t.266.609q.187.219.453.313.265.078.61.078.733 0 1.187-.297.453-.297.671-.797v-5.063h1.204v7.047h-1.094l-.063-.968zm6.545 1.093q-.75 0-1.375-.25-.609-.25-1.062-.703-.438-.453-.688-1.078-.25-.625-.25-1.375v-.266q0-.859.266-1.53.281-.673.734-1.126.454-.469 1.032-.719.578-.25 1.187-.25.75 0 1.313.266.578.266.953.734.375.454.562 1.094.188.625.188 1.36v.546h-5.031q.03.485.187.907.172.422.453.734.297.313.688.5.406.172.906.172.64 0 1.14-.25.5-.266.829-.688l.734.563q-.172.266-.437.516-.266.25-.61.437-.344.188-.781.297-.438.11-.938.11zm-.156-6.312q-.375 0-.703.14-.312.125-.578.391-.266.25-.453.625-.172.375-.235.86h3.782v-.079q-.016-.36-.141-.703-.11-.344-.328-.61-.219-.28-.563-.452-.328-.172-.78-.172z"/><path fill="#ff9800" d="M424.55 32.634c0-6.282 5.093-11.375 11.375-11.375h142.068a11.375 11.375 0 0 1 11.376 11.375v45.5c0 6.283-5.093 11.376-11.376 11.376H435.925c-6.282 0-11.375-5.093-11.375-11.375z" fill-rule="evenodd"/><path stroke="#666" stroke-linejoin="round" stroke-linecap="butt" d="M424.55 32.634h0c0-6.282 5.093-11.375 11.375-11.375h142.068a11.375 11.375 0 0 1 11.376 11.375v45.5c0 6.283-5.093 11.376-11.376 11.376H435.925c-6.282 0-11.375-5.093-11.375-11.375z"/><path fill="#fff" d="M478.515 60.031q0-.5-.187-.937-.172-.453-.594-.828-.422-.39-1.11-.703-.671-.328-1.687-.594-1.234-.344-2.36-.844-1.124-.515-1.984-1.219-.859-.718-1.375-1.671-.515-.954-.515-2.188 0-1.203.5-2.172.515-.984 1.406-1.672.906-.687 2.125-1.062 1.219-.375 2.656-.375 1.485 0 2.703.437 1.235.422 2.125 1.203.891.782 1.375 1.844.5 1.063.5 2.344h-3.562q-.031-.64-.234-1.172-.204-.531-.61-.906-.39-.39-.984-.61-.578-.218-1.375-.218-.735 0-1.297.187-.563.172-.953.485-.39.312-.594.75-.203.437-.203.953 0 .53.266.968.265.422.765.766.516.344 1.235.64.718.282 1.64.516 1.297.39 2.39.938 1.095.547 1.876 1.297.797.734 1.234 1.703.438.953.438 2.125 0 1.25-.516 2.219-.5.968-1.39 1.64-.876.672-2.094 1.016-1.22.344-2.672.344-.89 0-1.781-.172-.891-.157-1.72-.485-.812-.343-1.515-.843-.703-.516-1.219-1.188-.5-.687-.796-1.547-.297-.86-.297-1.906h3.593q.032.86.297 1.484.282.61.766 1 .484.39 1.172.578.687.172 1.5.172.734 0 1.297-.172.562-.171.953-.468.39-.297.594-.72.218-.421.218-.937zm9.903-7.187q.703-1.031 1.703-1.61 1.016-.593 2.266-.593 1.109 0 2.03.344.923.328 1.579 1.03.672.688 1.047 1.798.375 1.093.375 2.64v8.532h-3.625v-8.547q0-.766-.188-1.313-.187-.547-.546-.875-.344-.344-.844-.5-.485-.172-1.11-.172-.921 0-1.593.328-.657.329-1.094.907v10.172h-3.625v-20h3.625v7.859zm21.184 12.14q-.14-.265-.235-.593-.078-.344-.156-.719-.297.328-.687.61-.391.28-.875.5-.47.218-1.047.343-.563.125-1.219.125-1.078 0-1.984-.312-.907-.313-1.563-.875-.656-.563-1.015-1.328-.36-.782-.36-1.688 0-2.234 1.656-3.453 1.657-1.219 4.954-1.219h2.015v-.828q0-1.016-.672-1.61-.656-.593-1.906-.593-1.11 0-1.625.484-.5.469-.5 1.266h-3.61q0-.906.391-1.703.407-.813 1.157-1.422.765-.61 1.859-.969 1.11-.36 2.531-.36 1.266 0 2.36.313 1.109.313 1.906.922.812.61 1.265 1.547.47.922.47 2.156v6.032q0 1.14.14 1.89.14.735.406 1.266v.219h-3.656zm-3.453-2.53q.547 0 1.015-.126.469-.14.844-.343.375-.22.64-.485.282-.265.438-.531v-2.422h-1.844q-.843 0-1.453.156-.593.157-.968.453-.375.297-.563.704-.187.406-.187.89 0 .735.515 1.219.516.484 1.563.484zm23.293-4.376q0 1.532-.36 2.844-.359 1.313-1.062 2.281-.687.953-1.719 1.5-1.015.547-2.343.547-1.141 0-2-.39-.86-.391-1.5-1.094v6.64h-3.61v-19.5h3.344l.125 1.375q.656-.78 1.531-1.203.89-.437 2.078-.437 1.344 0 2.36.515 1.03.516 1.734 1.47.703.937 1.063 2.265.359 1.312.359 2.906v.281zm-3.61-.281q0-.875-.171-1.656-.157-.781-.5-1.344-.344-.562-.891-.89-.547-.329-1.312-.329-.954 0-1.563.375-.594.375-.937 1.047v5.89q.343.657.937 1.063.61.39 1.594.39.765 0 1.297-.327.547-.344.89-.922.344-.594.5-1.375.157-.781.157-1.64v-.282zm13.794 7.453q-1.625 0-2.953-.531-1.329-.547-2.282-1.453-.953-.922-1.468-2.156-.516-1.25-.516-2.672v-.516q0-1.625.5-2.953.516-1.328 1.422-2.297.922-.969 2.172-1.5t2.718-.531q1.516 0 2.704.5 1.203.5 2.03 1.422.829.906 1.25 2.187.438 1.281.438 2.828v1.532h-9.562q.11.718.422 1.312.328.594.812 1.031.5.422 1.14.657.641.234 1.391.234.532 0 1.063-.094.531-.11 1-.312.484-.203.906-.5.422-.313.735-.703l1.796 1.953q-.328.468-.875.937-.53.469-1.28.828-.735.344-1.641.563-.891.234-1.922.234zm-.438-11.687q-.61 0-1.125.218-.5.22-.89.625-.375.407-.641.97-.25.546-.39 1.234h5.937v-.282q-.016-.578-.219-1.078-.187-.515-.562-.875-.36-.375-.891-.594-.531-.218-1.219-.218z"/><path fill="#bdbdbd" d="M435.557 89.689H578.14v59.716H435.557z" fill-rule="evenodd"/><path stroke="#666" stroke-linejoin="round" stroke-linecap="butt" d="M435.557 89.689H578.14v59.716H435.557z"/><path fill="#000" d="M492.902 111.384l-.25 4.312h-1.61v-5.609h1.86v1.297zm14.027 8.719l3.39-4.703h2.532l-4.719 6.28 4.86 6.407h-2.516l-3.5-4.828-3.5 4.828h-2.532l4.844-6.406-4.719-6.281h2.5l3.36 4.703zm14.777-8.719l-.25 4.312h-1.61v-5.609h1.86v1.297z"/><path fill="#bdbdbd" d="M435.557 149.392H578.14v59.717H435.557z" fill-rule="evenodd"/><path stroke="#666" stroke-linejoin="round" stroke-linecap="butt" d="M435.557 149.392H578.14v59.717H435.557z"/><path fill="#000" d="M492.902 171.087l-.25 4.313h-1.61v-5.609h1.86v1.296zm13.449 12.204l.562 1.53 3.875-9.718h2.422l-6.437 14.64q-.22.5-.563 1.048-.344.546-.844 1.015-.484.469-1.14.781-.657.329-1.516.329-.156 0-.344-.016-.187-.016-.375-.047-.187-.031-.359-.078-.156-.031-.266-.047l.36-1.766h.218l.297.032q.157.015.297.015h.219q.437 0 .812-.25.375-.234.657-.578.281-.344.484-.703.219-.36.328-.594l.875-1.687-5.469-12.094h2.422l3.485 8.188zm15.355-12.204l-.25 4.313h-1.61v-5.609h1.86v1.296z"/><path d="M550.403 126l88.787-46.016"/><path stroke="#666" stroke-width="4" stroke-linejoin="round" stroke-linecap="butt" d="M563.863 119.024l54.019-27.996"/><path fill="#666" stroke="#666" stroke-width="4" stroke-linecap="butt" d="M552.179 125.08a6.58 6.58 0 1 1 11.684-6.056 6.58 6.58 0 0 1-11.684 6.056z"/><path fill="#666" stroke="#666" stroke-width="4" stroke-linecap="butt" d="M620.922 96.894L634 82.675l-19.157 2.487z" fill-rule="evenodd"/><path fill="#fbbc05" fill-opacity=".377" d="M639.19 174.843c0-11.394 9.237-20.63 20.63-20.63h173.953a20.63 20.63 0 0 1 20.63 20.63v82.519c0 11.394-9.237 20.63-20.63 20.63H659.82c-11.394 0-20.63-9.236-20.63-20.63z" fill-rule="evenodd"/><path stroke="#666" stroke-linejoin="round" stroke-linecap="butt" d="M639.19 174.843h0c0-11.394 9.237-20.63 20.63-20.63h173.953a20.63 20.63 0 0 1 20.63 20.63v82.519c0 11.394-9.237 20.63-20.63 20.63H659.82c-11.394 0-20.63-9.236-20.63-20.63z"/><path fill="#000" d="M657.03 171.434v3.468h-1.83v-9.468h3.235q.781 0 1.406.218.625.22 1.063.625.437.407.671.97.25.546.25 1.233 0 .641-.25 1.188-.234.531-.671.922-.438.39-1.063.625-.625.219-1.406.219h-1.406zm0-1.485h1.406q.39 0 .672-.11.297-.124.484-.327.203-.203.297-.469.094-.266.094-.547 0-.328-.094-.61-.094-.296-.297-.515-.187-.219-.484-.328-.282-.125-.672-.125h-1.406v3.031zm11.17-2.219q.422 0 .765.063.344.047.563.11l-.266 1.812q-.36-.094-.734-.125-.375-.047-.719-.047-.75 0-1.219.297-.453.281-.687.828v4.234h-1.797v-7.047h1.672l.094 1.157q.421-.594 1.015-.938.61-.344 1.313-.344zm2.7 3.594q0-.781.22-1.422.218-.656.64-1.14.438-.485 1.047-.75.625-.282 1.406-.282.797 0 1.407.282.625.265 1.047.75.437.484.656 1.14.219.641.219 1.422v.125q0 .781-.22 1.438-.218.656-.64 1.14-.422.47-1.047.75-.61.266-1.406.266-.797 0-1.422-.266-.61-.28-1.047-.75-.422-.484-.64-1.14-.22-.657-.22-1.438v-.125zm1.813.125q0 .453.079.844.093.375.265.672.188.281.469.453.297.172.703.172.406 0 .688-.172.28-.172.453-.453.187-.297.265-.672.094-.39.094-.844v-.125q0-.437-.094-.812-.078-.39-.265-.688-.172-.297-.453-.453-.282-.172-.704-.172-.406 0-.687.172-.281.156-.469.453-.172.297-.265.688-.079.375-.079.812v.125zm12.764 0q0 .766-.187 1.422-.172.656-.532 1.14-.343.47-.859.75-.516.266-1.172.266-.562 0-1-.187-.422-.203-.75-.547v3.312h-1.812v-9.75h1.672l.078.688q.312-.375.75-.594.453-.219 1.047-.219.671 0 1.187.266.516.25.86.719.359.469.53 1.14.188.657.188 1.454v.14zm-1.812-.14q0-.438-.094-.829-.078-.39-.25-.671-.172-.282-.438-.438-.265-.172-.656-.172-.469 0-.781.188-.297.187-.469.531v2.937q.172.329.469.532.312.187.797.187.39 0 .656-.156.266-.172.438-.469.171-.297.25-.672.078-.39.078-.828v-.14zm6.889 3.718q-.813 0-1.485-.265-.656-.266-1.125-.719-.469-.469-.734-1.078-.25-.625-.25-1.344v-.25q0-.812.25-1.469.25-.672.703-1.156.453-.484 1.078-.75t1.36-.266q.765 0 1.359.25t1 .704q.422.453.64 1.093.22.641.22 1.422v.766h-4.782q.047.36.203.656.172.297.406.516.25.203.563.328.328.11.703.11.281 0 .531-.048.266-.047.5-.14.25-.11.453-.25.22-.157.375-.36l.907.97q-.172.25-.454.483-.265.22-.64.407-.36.172-.813.281-.437.11-.968.11zm-.204-5.828q-.312 0-.562.11-.25.093-.453.296-.188.204-.328.485-.125.281-.188.625h2.969v-.14q-.016-.282-.11-.532-.093-.266-.28-.453-.188-.188-.454-.281-.25-.11-.594-.11zm9.842-1.469q.422 0 .766.063.344.047.563.11l-.266 1.812q-.36-.094-.734-.125-.375-.047-.72-.047-.75 0-1.218.297-.453.281-.687.828v4.234h-1.797v-7.047h1.672l.093 1.157q.422-.594 1.016-.938.61-.344 1.312-.344zm6.264-1.593v1.718h2.625v1.344h-2.625v3.016q0 .39.078.656.094.25.25.406.172.141.407.22.234.062.515.062.203 0 .422-.016.219-.031.422-.047.203-.031.375-.062.172-.047.297-.079l.172 1.25q-.188.11-.453.188-.25.078-.532.125-.281.062-.593.094-.313.031-.61.031-.578 0-1.047-.156-.468-.157-.812-.469-.328-.328-.516-.828-.187-.5-.187-1.188V169.2h-1.61v-1.344h1.61v-1.718h1.812zm7.686 5.812l.203.75 1.875-4.844h2l-3.578 8.094q-.11.281-.297.594-.188.312-.469.578-.281.266-.687.438-.39.187-.938.187-.125 0-.25-.016-.11 0-.219-.015-.093-.016-.203-.047-.093-.016-.203-.047l.219-1.39q.11 0 .281.015.172.016.281.016.204 0 .375-.14.172-.126.282-.282.125-.156.187-.297.078-.125.11-.125l.421-.813-2.968-6.75h1.968l1.61 4.094zm13.48-4.094h3.829v5.579h1.906v1.468h-5.734v-1.468h2v-4.094h-2v-1.485zm1.876-1.796q0-.204.062-.375.078-.188.219-.313.14-.14.328-.203.187-.078.422-.078.484 0 .765.281.282.266.282.688 0 .421-.282.703-.28.265-.765.265-.235 0-.422-.078-.188-.078-.328-.203t-.219-.297q-.062-.187-.062-.39zm7.279 1.796l.11.985q.374-.531.906-.813.547-.297 1.203-.297.531 0 .969.157.453.156.765.5.328.343.5.875.188.531.188 1.312v4.328h-1.813v-4.312q0-.406-.094-.672-.093-.281-.265-.438-.172-.156-.422-.218-.25-.063-.563-.063-.468 0-.796.188-.313.187-.516.515v5h-1.813v-7.047h1.641zm8.108 7.047V169.2h-1.86v-1.344h1.86v-.375q0-.703.218-1.234.22-.531.625-.89.422-.376 1-.547.594-.188 1.313-.188.219 0 .422.016.218.015.422.047.203.015.406.046.203.032.437.079l-.125 1.406q-.25-.047-.562-.078-.313-.047-.735-.047-.843 0-1.234.36-.375.359-.375 1.03v.375h2.531v1.344h-2.53v5.703h-1.813zm5.998-3.578q0-.781.219-1.422.218-.656.64-1.14.438-.485 1.047-.75.625-.282 1.406-.282.797 0 1.407.282.625.265 1.046.75.438.484.657 1.14.218.641.218 1.422v.125q0 .781-.218 1.438-.22.656-.64 1.14-.423.47-1.048.75-.61.266-1.406.266-.797 0-1.422-.266-.61-.28-1.047-.75-.422-.484-.64-1.14-.22-.657-.22-1.438v-.125zm1.812.125q0 .453.078.844.094.375.266.672.188.281.469.453.297.172.703.172.406 0 .687-.172.282-.172.454-.453.187-.297.265-.672.094-.39.094-.844v-.125q0-.437-.094-.812-.078-.39-.265-.688-.172-.297-.454-.453-.28-.172-.703-.172-.406 0-.687.172-.281.156-.469.453-.172.297-.266.688-.078.375-.078.812v.125zm11.483-3.719q.422 0 .765.063.344.047.563.11l-.266 1.812q-.359-.094-.734-.125-.375-.047-.719-.047-.75 0-1.219.297-.453.281-.687.828v4.234h-1.797v-7.047h1.672l.094 1.157q.422-.594 1.015-.938.61-.344 1.313-.344zm4.076.125l.047.86q.203-.453.547-.719.36-.266.875-.266.844 0 1.11.75.202-.359.53-.546.329-.204.782-.204.312 0 .594.125.28.11.484.375.203.25.312.657.11.406.11.984v5.031h-1.64v-5.03q0-.204-.048-.329-.031-.14-.11-.203-.062-.078-.171-.11-.094-.03-.187-.03-.188 0-.329.093-.125.078-.187.234v5.375h-1.594v-5.03q0-.204-.047-.329-.031-.14-.11-.203-.062-.078-.155-.11-.094-.03-.188-.03-.219 0-.344.124-.125.11-.187.313v5.265h-1.656v-7.047h1.562zm11.264 7.047q-.063-.125-.11-.297-.046-.171-.078-.359-.14.156-.343.313-.188.14-.438.25-.234.093-.515.156-.282.062-.625.062-.532 0-.985-.156-.453-.156-.781-.422-.328-.281-.516-.672-.172-.39-.172-.843 0-1.11.829-1.72.828-.609 2.468-.609h1.016v-.421q0-.5-.328-.797-.328-.297-.953-.297-.563 0-.813.234-.25.235-.25.625h-1.812q0-.437.187-.844.203-.406.578-.703.39-.312.938-.484.547-.188 1.265-.188.641 0 1.188.157.547.156.953.468.406.297.625.766.234.469.234 1.078v3.016q0 .562.063.937.078.375.219.641v.11h-1.844zm-1.719-1.265q.266 0 .5-.063.235-.078.422-.172.203-.109.328-.234.14-.14.219-.281v-1.203h-.922q-.422 0-.719.078t-.5.234q-.187.14-.28.344-.08.203-.08.453 0 .36.25.61.267.234.782.234zm8.639-7.5v1.718h2.625v1.344h-2.625v3.016q0 .39.078.656.094.25.25.406.172.141.406.22.235.062.516.062.203 0 .422-.016.219-.031.422-.047.203-.031.375-.062.172-.047.297-.079l.172 1.25q-.188.11-.454.188-.25.078-.53.125-.282.062-.595.094-.312.031-.609.031-.578 0-1.047-.156-.469-.157-.812-.469-.328-.328-.516-.828-.187-.5-.187-1.188V169.2h-1.61v-1.344h1.61v-1.718h1.812zm5.17 1.718h3.828v5.579h1.906v1.468h-5.734v-1.468h2v-4.094h-2v-1.485zm1.875-1.796q0-.204.063-.375.078-.188.218-.313.141-.14.328-.203.188-.078.422-.078.485 0 .766.281.281.266.281.688 0 .421-.281.703-.281.265-.766.265-.234 0-.422-.078-.187-.078-.328-.203-.14-.125-.218-.297-.063-.187-.063-.39zm5.389 5.265q0-.781.219-1.422.218-.656.64-1.14.438-.485 1.047-.75.625-.282 1.406-.282.797 0 1.407.282.625.265 1.047.75.437.484.656 1.14.219.641.219 1.422v.125q0 .781-.22 1.438-.218.656-.64 1.14-.422.47-1.047.75-.61.266-1.406.266-.797 0-1.422-.266-.61-.28-1.047-.75-.422-.484-.64-1.14-.22-.657-.22-1.438v-.125zm1.812.125q0 .453.079.844.093.375.265.672.188.281.469.453.297.172.703.172.406 0 .688-.172.28-.172.453-.453.187-.297.265-.672.094-.39.094-.844v-.125q0-.437-.094-.812-.078-.39-.265-.688-.172-.297-.453-.453-.282-.172-.704-.172-.406 0-.687.172-.281.156-.469.453-.172.297-.265.688-.079.375-.079.812v.125zm8.077-3.594l.11.985q.374-.531.905-.813.547-.297 1.203-.297.532 0 .97.157.452.156.765.5.328.343.5.875.187.531.187 1.312v4.328h-1.812v-4.312q0-.406-.094-.672-.094-.281-.266-.438-.171-.156-.421-.218-.25-.063-.563-.063-.469 0-.797.188-.312.187-.515.515v5h-1.813v-7.047h1.64z"/><path fill="#673ab7" d="M661.53 206.715q-.016.5-.094 1.015-.078.516-.25 1-.172.485-.438.907-.25.406-.625.718-.359.313-.828.5-.469.172-1.062.172-.578 0-1.063-.172-.469-.187-.828-.5-.36-.312-.64-.718-.266-.422-.438-.907-.172-.484-.25-1-.078-.515-.094-1.015v-1.078q.016-.516.094-1.032.078-.515.25-1 .172-.484.437-.89.266-.422.625-.735.36-.328.829-.5.484-.187 1.062-.187.594 0 1.063.187.484.172.843.485.36.312.625.734.266.422.438.906.172.485.25 1 .078.516.094 1.032v1.078zm-1.188-1.094q-.016-.344-.062-.703-.032-.375-.125-.734-.094-.36-.25-.688-.157-.328-.391-.578-.234-.25-.563-.39-.312-.157-.734-.157-.406 0-.734.156-.313.141-.547.391-.235.25-.39.578-.157.328-.25.688-.095.359-.141.734-.047.375-.047.703v1.094q0 .328.047.703.046.36.14.734.094.36.25.688.156.328.39.578.235.25.548.406.328.14.75.14t.734-.14q.328-.156.563-.406.234-.25.39-.578.156-.328.25-.688.094-.359.125-.734t.047-.703v-1.094zm4.81 5.281v-6.109h-1.937v-.938h1.938v-.484q0-.687.203-1.187.203-.516.562-.86.36-.344.86-.515.515-.188 1.14-.188.438 0 .844.078.406.078.828.188l-.14.984q-.266-.094-.625-.156-.36-.063-.75-.063-.86 0-1.282.422-.421.422-.421 1.297v.484h2.718v.938h-2.718v6.11h-1.22zm8.005 0v-6.109h-1.937v-.938h1.937v-.484q0-.687.204-1.187.203-.516.562-.86.36-.344.86-.515.515-.188 1.14-.188.438 0 .844.078.406.078.828.188l-.14.984q-.266-.094-.626-.156-.359-.063-.75-.063-.859 0-1.28.422-.423.422-.423 1.297v.484h2.719v.938h-2.719v6.11h-1.219zm10.896-1.875q0-.203-.094-.375-.078-.172-.281-.312-.203-.156-.532-.266-.328-.125-.828-.219-.609-.125-1.109-.296-.484-.188-.844-.422-.36-.25-.562-.578-.188-.329-.188-.766 0-.422.203-.797.203-.375.563-.656.375-.281.875-.438.5-.172 1.11-.172.655 0 1.171.172t.875.47q.375.296.563.702.203.39.203.86h-1.203q0-.235-.125-.454-.11-.218-.313-.375-.203-.171-.5-.28-.297-.11-.672-.11-.39 0-.687.094-.282.078-.469.218-.188.141-.297.344-.094.188-.094.39 0 .204.078.376.079.156.266.281.203.125.516.234.328.11.828.203.64.141 1.156.329.516.171.86.421.359.25.546.579.188.328.188.765 0 .469-.219.86-.203.375-.578.656-.375.265-.906.422-.532.14-1.157.14-.718 0-1.28-.187-.548-.188-.938-.5-.39-.328-.594-.735-.203-.421-.203-.875h1.203q.031.375.203.641.172.25.422.406.266.157.578.22.313.062.61.062.765 0 1.203-.282.453-.28.453-.75zm6.435 2q-.75 0-1.375-.25-.609-.25-1.062-.703-.438-.453-.688-1.078-.25-.625-.25-1.375v-.266q0-.859.266-1.53.281-.673.734-1.126.454-.469 1.032-.719.578-.25 1.187-.25.75 0 1.313.266.578.266.953.734.375.454.562 1.094.188.625.188 1.36v.546h-5.031q.03.485.187.907.172.422.453.734.297.313.688.5.406.172.906.172.64 0 1.14-.25.5-.266.829-.688l.734.563q-.172.266-.437.516-.266.25-.61.437-.344.188-.781.297-.438.11-.938.11zm-.156-6.312q-.375 0-.703.14-.312.125-.578.391-.266.25-.453.625-.172.375-.235.86h3.782v-.079q-.016-.359-.14-.703-.11-.344-.329-.61-.219-.28-.563-.452-.328-.172-.78-.172zm7.889-2.563v1.703h2.688v.938h-2.688v3.828q0 .406.094.672.11.266.297.437.187.157.422.22.234.062.5.062.203 0 .406-.016l.406-.062q.203-.032.375-.063.172-.047.281-.062l.172.843q-.156.094-.375.172-.203.063-.469.11-.25.046-.53.062-.282.031-.563.031-.47 0-.875-.125-.407-.14-.703-.422-.297-.296-.485-.75-.172-.468-.172-1.109v-3.828h-1.843v-.938h1.843v-1.703h1.219z"/><path fill="#e67c73" d="M705.47 210.121q0-.187.046-.36.063-.171.172-.296.125-.125.297-.203.187-.078.422-.078.234 0 .406.078.187.078.297.203.125.125.187.297.063.172.063.36 0 .187-.063.358-.062.157-.187.282-.11.125-.297.187-.172.078-.406.078-.235 0-.422-.078-.172-.062-.297-.187-.11-.125-.172-.282-.047-.171-.047-.359zm0-6q0-.187.046-.36.063-.171.172-.296.125-.125.297-.203.187-.078.422-.078.234 0 .406.078.187.078.297.203.125.125.187.297.063.172.063.36 0 .187-.063.358-.062.157-.187.282-.11.125-.297.203-.172.062-.406.062-.235 0-.422-.062-.172-.078-.297-.203-.11-.125-.172-.282-.047-.171-.047-.359z"/><path fill="#db4437" d="M723.262 210.902h-1.203v-7.937l-2.468.937v-1.093l3.578-1.375h.093v9.468z"/><path fill="#e67c73" d="M659.577 219.059h-1.438v10.89h1.438v.985h-2.579v-12.86h2.578v.985zm7.998 0h-1.438v10.89h1.438v.985h-2.578v-12.86h2.578v.985z"/><path fill="#673ab7" d="M676.057 226.34l.719-6.906h1.14l-1.14 9.468h-1.234l-1.22-7.14-1.234 7.14h-1.234l-1.156-9.468h1.156l.719 6.906 1.219-6.906h1.046l1.22 6.906zm7.92-4.61q.172 0 .344.016.187 0 .344.031.172.016.312.047t.235.078l-.172 1.172q-.344-.078-.657-.11-.312-.03-.656-.03-.86 0-1.39.39-.516.375-.766 1.063v4.515h-1.203v-7.047h1.14l.063 1.125q.437-.578 1.031-.906.61-.344 1.375-.344zm3.577.125h3.593v6h2.297v1.047h-5.89v-1.047h2.39v-4.953h-2.39v-1.047zm2.234-1.843q0-.297.172-.5.187-.203.547-.203.36 0 .531.203.187.203.187.5t-.187.5q-.172.187-.531.187-.36 0-.547-.187-.172-.203-.172-.5zm8.42.14v1.703h2.688v.938h-2.688v3.828q0 .406.094.672.11.266.297.437.187.157.422.22.234.062.5.062.203 0 .406-.016l.406-.062q.203-.032.375-.063.172-.047.281-.062l.172.843q-.156.094-.375.172-.203.063-.469.11-.25.046-.53.062-.282.031-.563.031-.47 0-.875-.125-.407-.14-.703-.422-.297-.296-.485-.75-.172-.468-.172-1.109v-3.828h-1.843v-.938h1.843v-1.703h1.219zm9.78 8.75q-.079-.14-.126-.343l-.062-.422q-.172.187-.406.343-.22.157-.5.282-.266.125-.578.187-.297.078-.641.078-.563 0-1.016-.156-.453-.156-.765-.437-.313-.282-.485-.657-.172-.39-.172-.828 0-.578.235-1.015.234-.438.656-.72.422-.296 1.016-.437.593-.14 1.328-.14h1.312v-.563q0-.312-.125-.562-.11-.266-.328-.438-.203-.172-.515-.265-.313-.11-.704-.11-.343 0-.64.094-.281.094-.485.25-.187.14-.296.344-.094.203-.094.422h-1.219q.016-.375.203-.75.188-.375.547-.672.36-.297.875-.469.531-.188 1.188-.188.593 0 1.109.157.516.14.89.437.376.297.579.735.218.437.218 1.03v3.282q0 .344.063.75.062.39.187.672v.11h-1.25zm-2.141-.922q.36 0 .656-.078.313-.093.563-.25.25-.156.421-.343.188-.188.297-.391v-1.438h-1.125q-1.047 0-1.64.313-.578.312-.578.984 0 .266.078.485.093.218.265.39.188.157.453.25.266.078.61.078zm11.467-2.515q0 .75-.188 1.406-.172.656-.531 1.14-.344.47-.86.75-.515.266-1.187.266t-1.172-.234q-.5-.234-.86-.688l-.046.797h-1.11v-10h1.204v3.72q.343-.438.828-.657.484-.235 1.14-.235.672 0 1.188.266.531.266.875.75.36.469.531 1.14.188.657.188 1.438v.14zm-1.203-.14q0-.516-.11-.985-.094-.469-.312-.813-.219-.359-.578-.562-.36-.219-.875-.219-.313 0-.579.094-.25.078-.468.234-.203.14-.36.344-.156.187-.265.422v3.078q.11.234.265.437.172.188.375.344.22.156.47.235.265.078.577.078.485 0 .844-.203.36-.204.578-.547.234-.36.328-.813.11-.469.11-.984v-.14zm3.435-6.423h3.594v8.953h2.297v1.047h-5.89v-1.047h2.39v-7.906h-2.39v-1.047zm10.92 10.125q-.75 0-1.375-.25-.609-.25-1.062-.703-.438-.453-.688-1.078-.25-.625-.25-1.375v-.266q0-.859.266-1.53.281-.673.734-1.126.454-.469 1.032-.719.578-.25 1.187-.25.75 0 1.313.266.578.266.953.734.375.454.562 1.094.188.625.188 1.36v.546h-5.031q.03.485.187.907.172.422.453.734.297.313.688.5.406.172.906.172.64 0 1.14-.25.5-.266.829-.688l.734.563q-.172.266-.437.516-.266.25-.61.437-.344.188-.781.297-.438.11-.938.11zm-.156-6.312q-.375 0-.703.14-.312.125-.578.391-.266.25-.453.625-.172.375-.235.86h3.782v-.079q-.016-.359-.141-.703-.11-.344-.328-.61-.219-.28-.563-.452-.328-.172-.78-.172z"/><path fill="#e67c73" d="M736.855 218.074h2.578v12.86h-2.578v-.985h1.438v-10.89h-1.438v-.985zm7.998 0h2.578v12.86h-2.578v-.985h1.438v-10.89h-1.438v-.985zm8.592 10.047q0-.187.047-.36.063-.171.172-.296.125-.125.297-.203.187-.078.422-.078.234 0 .406.078.188.078.297.203.125.125.187.297.063.172.063.36 0 .187-.063.358-.062.157-.187.282-.11.125-.297.187-.172.078-.406.078-.235 0-.422-.078-.172-.062-.297-.187-.11-.125-.172-.282-.047-.171-.047-.359zm0-6q0-.187.047-.36.063-.171.172-.296.125-.125.297-.203.187-.078.422-.078.234 0 .406.078.188.078.297.203.125.125.187.297.063.172.063.36 0 .187-.063.358-.062.157-.187.282-.11.125-.297.203-.172.062-.406.062-.235 0-.422-.062-.172-.078-.297-.203-.11-.125-.172-.282-.047-.171-.047-.359z"/><path fill="#4285f4" d="M770.192 220.152v1.703h2.687v.938h-2.687v3.828q0 .406.093.672.11.266.297.437.188.157.422.22.235.062.5.062.203 0 .406-.016l.407-.062q.203-.032.375-.063.172-.047.28-.062l.173.843q-.156.094-.375.172-.203.063-.469.11-.25.046-.531.062-.281.031-.563.031-.468 0-.875-.125-.406-.14-.703-.422-.297-.296-.484-.75-.172-.468-.172-1.109v-3.828h-1.844v-.938h1.844v-1.703h1.219zm9.763 1.578q.172 0 .344.016.188 0 .344.031.172.016.312.047.141.031.235.078l-.172 1.172q-.344-.078-.656-.11-.313-.03-.657-.03-.859 0-1.39.39-.516.375-.766 1.063v4.515h-1.203v-7.047h1.14l.063 1.125q.438-.578 1.031-.906.61-.344 1.375-.344zm7.952 6.204q-.36.515-.89.812-.516.281-1.204.281-.562 0-1.016-.172-.437-.171-.765-.53-.313-.36-.485-.923-.171-.562-.171-1.359v-4.188h1.203v4.204q0 .578.093.953.094.375.266.61.188.218.453.312.266.078.61.078.734 0 1.187-.297.453-.297.672-.797v-5.063h1.203v7.047h-1.094l-.062-.968zm6.545 1.093q-.75 0-1.375-.25-.61-.25-1.063-.703-.437-.453-.687-1.078-.25-.625-.25-1.375v-.266q0-.859.265-1.53.282-.673.735-1.126.453-.469 1.031-.719.578-.25 1.188-.25.75 0 1.312.266.578.266.953.734.375.454.563 1.094.187.625.187 1.36v.546h-5.031q.031.485.187.907.172.422.454.734.296.313.687.5.406.172.906.172.641 0 1.141-.25.5-.266.828-.688l.734.563q-.171.266-.437.516t-.61.437q-.343.188-.78.297-.438.11-.938.11zm-.156-6.312q-.375 0-.704.14-.312.125-.578.391-.265.25-.453.625-.172.375-.234.86h3.781v-.079q-.016-.359-.14-.703-.11-.344-.329-.61-.218-.28-.562-.452-.328-.172-.781-.172z"/><path fill="#e67c73" d="M659.577 237.059h-1.438v10.89h1.438v.985h-2.579v-12.86h2.578v.985zm7.998 0h-1.438v10.89h1.438v.985h-2.578v-12.86h2.578v.985z"/><path fill="#673ab7" d="M676.573 242.527h-3.953v3.36h4.61v1.015h-5.813v-9.468h5.75v1.015h-4.547v3.047h3.953v1.031zm3.873-2.672l.078 1.047q.39-.547.938-.859.562-.313 1.25-.313.562 0 1.015.157.453.156.766.484.328.328.5.844.172.515.172 1.219v4.468h-1.203v-4.437q0-.469-.11-.797-.11-.328-.312-.531-.203-.203-.5-.297-.297-.094-.688-.094-.594 0-1.062.313-.453.296-.719.796v5.047h-1.219v-7.047h1.094zm11.483 6.079q-.36.515-.891.812-.516.281-1.203.281-.563 0-1.016-.172-.437-.171-.765-.53-.313-.36-.485-.923-.172-.562-.172-1.359v-4.188h1.203v4.204q0 .578.094.953t.266.61q.187.218.453.312.266.078.61.078.734 0 1.187-.297.453-.297.672-.797v-5.063h1.203v7.047h-1.094l-.062-.968zm3.982-6.079l.031.672q.22-.375.563-.578.344-.219.844-.219.968 0 1.296.75.204-.328.547-.53.344-.22.828-.22.782 0 1.188.485.422.469.422 1.422v5.265h-1.14v-5.265q0-.89-.813-.89-.219 0-.375.062-.157.062-.266.171-.094.094-.156.235-.063.125-.078.265v5.422h-1.157v-5.28q0-.423-.187-.642-.188-.234-.594-.234-.375 0-.594.156-.203.157-.296.391v5.61h-1.141v-7.048h1.078zm10.56 7.172q-.75 0-1.374-.25-.61-.25-1.063-.703-.437-.453-.687-1.078-.25-.625-.25-1.375v-.266q0-.859.265-1.53.282-.673.735-1.126.453-.469 1.031-.719.578-.25 1.188-.25.75 0 1.312.266.578.266.953.734.375.454.563 1.094.187.625.187 1.36v.546H704.3q.031.485.187.907.172.422.454.734.296.313.687.5.406.172.906.172.64 0 1.14-.25.5-.266.829-.688l.734.563q-.171.266-.437.516t-.61.437q-.343.188-.78.297-.438.11-.938.11zm-.155-6.312q-.375 0-.704.14-.312.125-.578.391-.265.25-.453.625-.172.375-.234.86h3.781v-.079q-.016-.359-.14-.703-.11-.344-.329-.61-.218-.28-.562-.452-.328-.172-.781-.172zm9.654-.985q.172 0 .344.016.187 0 .343.031.172.016.313.047.14.031.234.078l-.172 1.172q-.343-.078-.656-.11-.312-.03-.656-.03-.86 0-1.39.39-.516.375-.766 1.063v4.515h-1.203v-7.047h1.14l.063 1.125q.437-.578 1.031-.906.61-.344 1.375-.344zm8.014 7.172q-.078-.14-.125-.343l-.063-.422q-.172.187-.406.343-.219.157-.5.282-.266.125-.578.187-.297.078-.64.078-.563 0-1.016-.156-.453-.156-.766-.437-.312-.282-.484-.657-.172-.39-.172-.828 0-.578.234-1.015.235-.438.656-.72.422-.296 1.016-.437.594-.14 1.328-.14h1.313v-.563q0-.312-.125-.562-.11-.266-.328-.438-.204-.172-.516-.265-.313-.11-.703-.11-.344 0-.64.094-.282.094-.485.25-.188.14-.297.344-.094.203-.094.422h-1.219q.016-.375.204-.75.187-.375.546-.672.36-.297.875-.469.532-.188 1.188-.188.594 0 1.11.157.515.14.89.437t.578.735q.219.437.219 1.03v3.282q0 .344.062.75.063.39.188.672v.11h-1.25zm-2.14-.922q.359 0 .655-.078.313-.093.563-.25.25-.156.422-.343.187-.188.297-.391v-1.438h-1.125q-1.047 0-1.64.313-.58.312-.58.984 0 .266.08.485.093.218.265.39.187.157.453.25.265.078.61.078zm11.466-2.515q0 .75-.187 1.406-.172.656-.532 1.14-.343.47-.859.75-.516.266-1.188.266-.671 0-1.171-.234t-.86-.688l-.047.797h-1.109v-10h1.203v3.72q.344-.438.828-.657.485-.235 1.14-.235.673 0 1.188.266.532.266.875.75.36.469.532 1.14.187.657.187 1.438v.14zm-1.203-.14q0-.516-.11-.985-.093-.469-.312-.813-.219-.359-.578-.562-.36-.219-.875-.219-.313 0-.578.094-.25.078-.469.234-.203.14-.36.344-.156.187-.265.422v3.078q.11.234.266.437.172.188.375.344.218.156.468.235.266.078.579.078.484 0 .843-.203.36-.204.578-.547.235-.36.329-.813.109-.469.109-.984v-.14zm3.436-6.423h3.593v8.953h2.297v1.047h-5.89v-1.047h2.39v-7.906h-2.39v-1.047zm10.92 10.125q-.75 0-1.375-.25-.61-.25-1.063-.703-.437-.453-.687-1.078-.25-.625-.25-1.375v-.266q0-.859.265-1.53.282-.673.735-1.126.453-.469 1.03-.719.58-.25 1.188-.25.75 0 1.313.266.578.266.953.734.375.454.563 1.094.187.625.187 1.36v.546h-5.031q.031.485.187.907.172.422.453.734.297.313.688.5.406.172.906.172.64 0 1.14-.25.5-.266.829-.688l.734.563q-.172.266-.437.516-.266.25-.61.437-.343.188-.78.297-.438.11-.938.11zm-.157-6.312q-.375 0-.703.14-.312.125-.578.391-.265.25-.453.625-.172.375-.234.86h3.78v-.079q-.015-.359-.14-.703-.11-.344-.328-.61-.219-.28-.562-.452-.328-.172-.782-.172z"/><path fill="#e67c73" d="M752.852 236.074h2.578v12.86h-2.578v-.985h1.437v-10.89h-1.437v-.985zm7.998 0h2.578v12.86h-2.578v-.985h1.437v-10.89h-1.437v-.985zm8.592 10.047q0-.187.047-.36.062-.171.171-.296.125-.125.297-.203.188-.078.422-.078.235 0 .406.078.188.078.297.203.125.125.188.297.062.172.062.36 0 .187-.062.358-.063.157-.188.282-.11.125-.297.187-.171.078-.406.078-.234 0-.422-.078-.172-.062-.297-.187-.109-.125-.171-.282-.047-.171-.047-.359zm0-6q0-.187.047-.36.062-.171.171-.296.125-.125.297-.203.188-.078.422-.078.235 0 .406.078.188.078.297.203.125.125.188.297.062.172.062.36 0 .187-.062.358-.063.157-.188.282-.11.125-.297.203-.171.062-.406.062-.234 0-.422-.062-.172-.078-.297-.203-.109-.125-.171-.282-.047-.171-.047-.359z"/><path fill="#4285f4" d="M786.188 238.152v1.703h2.688v.938h-2.688v3.828q0 .406.094.672.11.266.297.437.187.157.422.22.234.062.5.062.203 0 .406-.016l.406-.062q.203-.032.375-.063.172-.047.281-.062l.172.843q-.156.094-.375.172-.203.063-.469.11-.25.046-.53.062-.282.031-.563.031-.47 0-.875-.125-.407-.14-.703-.422-.297-.296-.485-.75-.172-.468-.172-1.109v-3.828h-1.843v-.938h1.843v-1.703h1.219zm9.764 1.578q.172 0 .344.016.187 0 .343.031.172.016.313.047.14.031.234.078l-.172 1.172q-.343-.078-.656-.11-.312-.03-.656-.03-.86 0-1.39.39-.516.375-.766 1.063v4.515h-1.204v-7.047h1.141l.063 1.125q.437-.578 1.03-.906.61-.344 1.376-.344zm7.951 6.204q-.36.515-.89.812-.516.281-1.204.281-.562 0-1.015-.172-.438-.171-.766-.53-.312-.36-.484-.923-.172-.562-.172-1.359v-4.188h1.203v4.204q0 .578.094.953t.265.61q.188.218.454.312.265.078.609.078.734 0 1.187-.297.454-.297.672-.797v-5.063h1.203v7.047h-1.093l-.063-.968zm6.545 1.093q-.75 0-1.375-.25-.61-.25-1.062-.703-.438-.453-.688-1.078-.25-.625-.25-1.375v-.266q0-.859.266-1.53.281-.673.734-1.126.453-.469 1.031-.719.579-.25 1.188-.25.75 0 1.312.266.579.266.954.734.375.454.562 1.094.188.625.188 1.36v.546h-5.032q.032.485.188.907.172.422.453.734.297.313.687.5.407.172.907.172.64 0 1.14-.25.5-.266.828-.688l.735.563q-.172.266-.438.516-.265.25-.61.437-.343.188-.78.297-.438.11-.938.11zm-.156-6.312q-.375 0-.703.14-.313.125-.578.391-.266.25-.453.625-.172.375-.235.86h3.781v-.079q-.015-.359-.14-.703-.11-.344-.328-.61-.22-.28-.563-.452-.328-.172-.781-.172z"/><path fill="#e67c73" d="M659.577 255.059h-1.438v10.89h1.438v.985h-2.579v-12.86h2.578v.985zm7.998 0h-1.438v10.89h1.438v.985h-2.578v-12.86h2.578v.985z"/><path fill="#673ab7" d="M677.495 262.059q-.078.656-.344 1.203-.25.547-.656.937-.407.39-.97.61-.546.218-1.233.218-.579 0-1.063-.156-.469-.172-.844-.453-.375-.297-.656-.688-.266-.406-.453-.875-.172-.468-.266-.984-.078-.516-.078-1.047v-1.312q0-.532.078-1.047.094-.516.266-.985.187-.468.453-.859.281-.406.656-.703.375-.297.844-.453.469-.172 1.063-.172.718 0 1.265.219.563.218.969.625.406.39.64.953.25.562.329 1.234h-1.203q-.063-.422-.204-.797-.14-.375-.39-.64-.235-.282-.578-.438-.344-.172-.828-.172-.422 0-.75.141-.329.14-.579.39-.234.235-.39.563-.156.313-.266.672-.094.344-.14.719-.032.375-.032.734v1.328q0 .36.032.735.046.375.14.734.11.36.266.687.156.313.39.563.25.234.563.375.328.14.766.14.484 0 .828-.14.343-.156.578-.422.25-.281.39-.64.141-.376.204-.797h1.203zm1.53-.735q0-.765.218-1.422.219-.656.625-1.14.422-.485 1.015-.75.594-.282 1.329-.282.75 0 1.343.282.594.265 1 .75.422.484.641 1.14.234.657.234 1.422v.14q0 .75-.234 1.407-.219.656-.64 1.14-.407.47-1 .75-.579.266-1.329.266t-1.344-.265q-.593-.282-1.015-.75-.406-.485-.625-1.14-.219-.657-.219-1.407v-.14zm1.202.14q0 .516.125.985t.375.828q.25.36.625.578.375.204.875.204t.875-.204q.375-.218.625-.578.25-.359.375-.828t.125-.984v-.14q0-.516-.14-.985-.125-.485-.375-.844-.25-.36-.625-.562-.375-.22-.875-.22t-.875.22q-.36.203-.61.562-.25.36-.375.844-.125.469-.125.984v.14zm8.217-3.609l.078 1.047q.391-.547.938-.859.562-.313 1.25-.313.562 0 1.015.157.454.156.766.484.328.328.5.844.172.515.172 1.219v4.468h-1.203v-4.437q0-.469-.11-.797-.109-.328-.312-.531t-.5-.297q-.297-.094-.688-.094-.593 0-1.062.313-.453.296-.719.796v5.047h-1.219v-7.047h1.094zm8.702 7.047v-6.109h-1.938v-.938h1.938v-.484q0-.687.203-1.187.203-.516.562-.86.36-.344.86-.515.515-.188 1.14-.188.438 0 .844.078.406.078.828.188l-.14.984q-.266-.094-.626-.156-.359-.063-.75-.063-.859 0-1.28.422-.423.422-.423 1.297v.484h2.719v.938h-2.719v6.11h-1.218zm6.41-7.047h3.594v6h2.297v1.047h-5.89v-1.047h2.39v-4.953h-2.39v-1.047zm2.235-1.843q0-.297.172-.5.187-.203.547-.203.359 0 .53.203.188.203.188.5t-.187.5q-.172.187-.531.187-.36 0-.547-.187-.172-.203-.172-.5zm5.342 5.312q0-.781.187-1.437.203-.672.563-1.14.375-.485.89-.75.516-.267 1.172-.267.657 0 1.14.235.5.234.845.656l.062-.766h1.094v6.891q0 .703-.219 1.234-.219.547-.625.922-.39.375-.937.563-.547.203-1.203.203-.282 0-.641-.063-.344-.046-.703-.187-.36-.14-.703-.375-.328-.234-.563-.578l.625-.735q.219.266.453.454.235.187.469.296.25.11.484.157.25.062.485.062.422 0 .765-.125.36-.125.594-.375.25-.234.375-.594.14-.343.14-.796v-.61q-.359.406-.843.625-.469.203-1.11.203-.64 0-1.156-.265-.515-.282-.89-.75-.36-.485-.563-1.14-.187-.657-.187-1.407v-.14zm1.203.14q0 .516.11.985.109.453.343.813.234.343.578.547.36.203.875.203.313 0 .563-.078.25-.079.437-.204.203-.14.36-.328.156-.187.28-.422v-3.218q-.124-.235-.28-.407-.157-.187-.36-.312-.203-.14-.453-.219-.234-.078-.547-.078-.5 0-.86.219-.359.203-.593.562-.234.344-.344.813-.11.469-.11.984v.14zm11.592 2.47q-.36.515-.89.812-.516.281-1.204.281-.562 0-1.016-.172-.437-.171-.765-.53-.313-.36-.485-.923-.171-.562-.171-1.359v-4.188h1.203v4.204q0 .578.093.953.094.375.266.61.188.218.453.312.266.078.61.078.734 0 1.187-.297.453-.297.672-.797v-5.063h1.203v7.047h-1.094l-.062-.968zm8.045-6.204q.172 0 .344.016.187 0 .343.031.172.016.313.047.14.031.234.078l-.172 1.172q-.343-.078-.656-.11-.312-.03-.656-.03-.86 0-1.39.39-.516.375-.766 1.063v4.515h-1.204v-7.047h1.141l.063 1.125q.437-.578 1.03-.906.61-.344 1.376-.344zm8.014 7.172q-.078-.14-.125-.343-.032-.204-.063-.422-.172.187-.406.343-.219.157-.5.282-.266.125-.578.187-.297.078-.64.078-.563 0-1.016-.156-.454-.156-.766-.437-.313-.282-.484-.657-.172-.39-.172-.828 0-.578.234-1.015.234-.438.656-.72.422-.296 1.016-.437.594-.14 1.328-.14h1.313v-.563q0-.312-.125-.562-.11-.266-.329-.438-.203-.172-.515-.265-.313-.11-.703-.11-.344 0-.64.094-.282.094-.485.25-.188.14-.297.344-.094.203-.094.422h-1.219q.016-.375.203-.75.188-.375.547-.672.36-.297.875-.469.532-.188 1.188-.188.594 0 1.11.157.515.14.89.437t.578.735q.219.437.219 1.03v3.282q0 .344.062.75.063.39.188.672v.11h-1.25zm-2.14-.922q.358 0 .655-.078.313-.093.563-.25.25-.156.422-.343.187-.188.297-.391v-1.438h-1.125q-1.047 0-1.641.313-.578.312-.578.984 0 .266.078.485.094.218.266.39.187.157.453.25.265.078.61.078zm11.466-2.515q0 .75-.188 1.406-.171.656-.53 1.14-.345.47-.86.75-.516.266-1.188.266-.672 0-1.172-.234-.5-.234-.859-.688l-.047.797h-1.11v-10h1.204v3.72q.344-.438.828-.657.484-.235 1.14-.235.673 0 1.188.266.531.266.875.75.36.469.531 1.14.188.657.188 1.438v.14zm-1.203-.14q0-.516-.11-.985-.093-.469-.312-.813-.219-.359-.578-.562-.36-.219-.875-.219-.313 0-.578.094-.25.078-.469.234-.203.14-.36.344-.156.187-.265.422v3.078q.11.234.266.437.171.188.375.344.218.156.468.235.266.078.578.078.485 0 .844-.203.36-.204.578-.547.235-.36.328-.813.11-.469.11-.984v-.14zm3.436-6.423h3.593v8.953h2.297v1.047h-5.89v-1.047h2.39v-7.906h-2.39v-1.047zm10.92 10.125q-.75 0-1.375-.25-.61-.25-1.063-.703-.437-.453-.687-1.078-.25-.625-.25-1.375v-.266q0-.859.265-1.53.281-.673.735-1.126.453-.469 1.03-.719.579-.25 1.188-.25.75 0 1.313.266.578.266.953.734.375.454.562 1.094.188.625.188 1.36v.546h-5.031q.031.485.187.907.172.422.453.734.297.313.688.5.406.172.906.172.64 0 1.14-.25.5-.266.829-.688l.734.563q-.172.266-.437.516-.266.25-.61.437-.343.188-.78.297-.438.11-.938.11zm-.157-6.312q-.375 0-.703.14-.312.125-.578.391-.266.25-.453.625-.172.375-.234.86h3.78v-.079q-.015-.359-.14-.703-.11-.344-.328-.61-.219-.28-.562-.452-.329-.172-.782-.172z"/><path fill="#e67c73" d="M768.854 254.074h2.579v12.86h-2.579v-.985h1.438v-10.89h-1.438v-.985zm7.999 0h2.578v12.86h-2.578v-.985h1.437v-10.89h-1.437v-.985zm8.592 10.047q0-.187.046-.36.063-.171.172-.296.125-.125.297-.203.188-.078.422-.078.234 0 .406.078.188.078.297.203.125.125.188.297.062.172.062.36 0 .187-.062.358-.063.157-.188.282-.11.125-.297.187-.172.078-.406.078-.234 0-.422-.078-.172-.062-.297-.187-.11-.125-.172-.282-.046-.171-.046-.359zm0-6q0-.187.046-.36.063-.171.172-.296.125-.125.297-.203.188-.078.422-.078.234 0 .406.078.188.078.297.203.125.125.188.297.062.172.062.36 0 .187-.062.358-.063.157-.188.282-.11.125-.297.203-.172.062-.406.062-.234 0-.422-.062-.172-.078-.297-.203-.11-.125-.172-.282-.046-.171-.046-.359z"/><path fill="#4285f4" d="M802.19 256.152v1.703h2.688v.938h-2.687v3.828q0 .406.094.672.109.266.297.437.187.157.421.22.235.062.5.062.204 0 .407-.016l.406-.062q.203-.032.375-.063.172-.047.281-.062l.172.843q-.156.094-.375.172-.203.063-.469.11-.25.046-.531.062-.281.031-.562.031-.47 0-.875-.125-.407-.14-.704-.422-.296-.296-.484-.75-.172-.468-.172-1.109v-3.828h-1.844v-.938h1.844v-1.703h1.219zm9.765 1.578q.172 0 .343.016.188 0 .344.031.172.016.313.047.14.031.234.078l-.172 1.172q-.344-.078-.656-.11-.313-.03-.656-.03-.86 0-1.39.39-.517.375-.767 1.063v4.515h-1.203v-7.047h1.14l.063 1.125q.438-.578 1.032-.906.61-.344 1.375-.344zm7.951 6.204q-.36.515-.89.812-.516.281-1.204.281-.562 0-1.015-.172-.438-.171-.766-.53-.313-.36-.484-.923-.172-.562-.172-1.359v-4.188h1.203v4.204q0 .578.094.953.093.375.265.61.188.218.453.312.266.078.61.078.734 0 1.187-.297.453-.297.672-.797v-5.063h1.203v7.047h-1.094l-.062-.968zm6.545 1.093q-.75 0-1.375-.25-.61-.25-1.062-.703-.438-.453-.688-1.078-.25-.625-.25-1.375v-.266q0-.859.266-1.53.28-.673.734-1.126.453-.469 1.031-.719.578-.25 1.188-.25.75 0 1.312.266.578.266.953.734.375.454.563 1.094.187.625.187 1.36v.546h-5.03q.03.485.187.907.172.422.453.734.297.313.687.5.407.172.907.172.64 0 1.14-.25.5-.266.828-.688l.735.563q-.172.266-.438.516-.265.25-.61.437-.343.188-.78.297-.438.11-.938.11zm-.156-6.312q-.375 0-.703.14-.313.125-.578.391-.266.25-.454.625-.171.375-.234.86h3.781v-.079q-.015-.359-.14-.703-.11-.344-.328-.61-.22-.28-.563-.452-.328-.172-.781-.172z"/><path fill="#34a853" d="M21.597 121.019c0-6.283 5.093-11.376 11.376-11.376h166.225a11.376 11.376 0 0 1 11.375 11.376v45.5c0 6.283-5.093 11.376-11.375 11.376H32.973c-6.283 0-11.376-5.093-11.376-11.376z" fill-rule="evenodd"/><path stroke="#666" stroke-linejoin="round" stroke-linecap="butt" d="M21.597 121.019h0c0-6.283 5.093-11.376 11.376-11.376h166.225a11.376 11.376 0 0 1 11.375 11.376v45.5c0 6.283-5.093 11.376-11.375 11.376H32.973c-6.283 0-11.376-5.093-11.376-11.376z"/><path fill="#fff" d="M51.545 134.416H55.2l.016 13.14q-.016 1.344-.516 2.47-.5 1.109-1.375 1.921-.86.797-2.047 1.25-1.172.438-2.53.438-1.423 0-2.595-.36-1.172-.375-2.015-1.093-.844-.72-1.313-1.813-.469-1.094-.484-2.578h3.672q.015 1.531.672 2.219.671.672 2.062.672.625 0 1.14-.235.532-.234.891-.656.375-.422.563-1 .203-.578.203-1.234v-13.141zm16.903 14q0-.5-.188-.938-.172-.453-.594-.828-.422-.39-1.11-.703-.671-.328-1.687-.594-1.234-.343-2.359-.843-1.125-.516-1.984-1.22-.86-.718-1.375-1.671-.516-.953-.516-2.187 0-1.204.5-2.172.516-.985 1.406-1.672.907-.688 2.125-1.063 1.219-.375 2.657-.375 1.484 0 2.703.438 1.234.422 2.125 1.203.89.781 1.375 1.844.5 1.062.5 2.343h-3.563q-.031-.64-.234-1.171-.203-.532-.61-.907-.39-.39-.984-.61-.578-.218-1.375-.218-.734 0-1.297.188-.562.172-.953.484-.39.313-.594.75-.203.438-.203.953 0 .531.266.969.265.422.765.766.516.343 1.235.64.719.281 1.64.516 1.297.39 2.391.937t1.875 1.297q.797.735 1.234 1.703.438.953.438 2.125 0 1.25-.516 2.219-.5.969-1.39 1.64-.875.673-2.094 1.016-1.219.344-2.672.344-.89 0-1.781-.172-.89-.156-1.719-.484-.812-.344-1.516-.844-.703-.516-1.218-1.187-.5-.688-.797-1.547-.297-.86-.297-1.907h3.594q.03.86.297 1.485.28.61.765 1t1.172.578q.688.172 1.5.172.734 0 1.297-.172.562-.172.953-.469.39-.297.594-.719.219-.421.219-.937zm19.37-3.125q0 1.812-.483 3.36-.47 1.53-1.391 2.64-.906 1.11-2.219 1.734-1.297.61-2.937.61-1.641 0-2.922-.61-1.266-.625-2.14-1.734-.876-1.125-1.329-2.656-.453-1.532-.453-3.344v-2.766q0-1.828.453-3.36.453-1.53 1.328-2.64.875-1.125 2.14-1.75 1.266-.625 2.907-.625 1.656 0 2.953.625 1.313.625 2.219 1.75.922 1.11 1.39 2.64.485 1.532.485 3.36v2.766zm-3.702-2.797q0-1.156-.188-2.125-.187-.984-.593-1.687-.407-.704-1.047-1.094-.625-.39-1.516-.39-.89 0-1.484.39t-.97 1.094q-.358.703-.515 1.687-.156.969-.156 2.125v2.797q0 1.14.156 2.125.157.969.516 1.687.375.72.969 1.125.593.391 1.5.391.875 0 1.5-.39.64-.407 1.03-1.11.407-.719.595-1.687.203-.985.203-2.141v-2.797zm19.309 3.984q0 1.563-.36 2.891-.343 1.313-1.031 2.266-.687.937-1.719 1.468-1.015.532-2.39.532-1.235 0-2.141-.453-.906-.47-1.547-1.313l-.172 1.5H90.8v-20h3.625v7.188q.625-.72 1.468-1.125.86-.407 2-.407 1.391 0 2.422.532 1.032.53 1.719 1.484.688.953 1.031 2.281.36 1.313.36 2.875v.281zm-3.625-.28q0-.86-.141-1.626-.125-.765-.437-1.344-.313-.578-.86-.921-.547-.344-1.375-.344-.984 0-1.61.422-.609.422-.952 1.14v5.61q.343.734.953 1.156.625.406 1.64.406.813 0 1.344-.312.547-.328.86-.891.312-.562.437-1.328.14-.781.14-1.688v-.28zm9.09-6.907h7.203v14.406q0 1.406-.406 2.406-.391 1.016-1.172 1.672-.766.657-1.875.969-1.094.313-2.516.313-.594 0-1.187-.047-.594-.047-1.141-.172l.172-2.938q.156.032.437.063.282.031.578.047.297.03.563.03.266.017.39.017.532 0 .985-.125.469-.11.797-.391.328-.266.515-.719.204-.453.204-1.125v-11.453h-3.547v-2.953zm3.297-3.61q0-.421.14-.78.156-.36.422-.61.281-.25.656-.39.391-.141.86-.141.953 0 1.515.547.578.53.578 1.375 0 .843-.578 1.39-.562.531-1.515.531-.469 0-.86-.14-.375-.14-.656-.39-.266-.266-.422-.61-.14-.36-.14-.781zm17.371 17.954q-1.625 0-2.953-.532-1.328-.546-2.281-1.453-.954-.922-1.47-2.156-.515-1.25-.515-2.672v-.515q0-1.625.5-2.954.516-1.328 1.422-2.296.922-.97 2.172-1.5 1.25-.532 2.719-.532 1.515 0 2.703.5 1.203.5 2.031 1.422.828.906 1.25 2.188.438 1.28.438 2.828v1.531h-9.563q.11.719.422 1.313.328.593.812 1.03.5.423 1.141.657.64.234 1.39.234.532 0 1.063-.093.531-.11 1-.313.485-.203.906-.5.422-.312.735-.703l1.797 1.953q-.328.469-.875.938-.532.468-1.282.828-.734.344-1.64.562-.89.235-1.922.235zm-.438-11.688q-.609 0-1.125.219-.5.219-.89.625-.375.406-.64.969-.25.547-.391 1.234h5.937v-.281q-.016-.578-.219-1.078-.187-.516-.562-.875-.36-.375-.89-.594-.532-.219-1.22-.219zm15.825 8.797q.547 0 1.016-.156.484-.156.843-.438.375-.297.578-.703.204-.406.172-.89h3.407q.03 1.093-.454 2.03-.468.938-1.296 1.61-.813.672-1.907 1.063-1.078.375-2.28.375-1.642 0-2.892-.547-1.234-.547-2.062-1.516-.813-.969-1.25-2.25-.422-1.297-.422-2.781v-.39q0-1.485.422-2.782t1.25-2.25q.828-.969 2.062-1.531 1.235-.563 2.86-.563 1.297 0 2.406.39 1.11.392 1.906 1.11.797.703 1.235 1.719.453 1 .422 2.25h-3.407q.032-.516-.156-.984-.187-.47-.547-.813-.344-.344-.844-.547-.484-.203-1.062-.203-.86 0-1.422.36-.562.343-.89.937-.329.578-.47 1.344-.14.75-.14 1.562v.39q0 .813.125 1.579.14.766.469 1.344.328.578.89.937.579.344 1.438.344zm16.403-14.906v3.453h5.265v2.656h-5.265v6.063q0 .765.171 1.28.188.517.5.829.329.297.797.438.469.125 1.032.125.421 0 .859-.032.437-.047.828-.11.406-.062.75-.124.344-.063.578-.125l.36 2.484q-.375.219-.891.39-.5.157-1.078.25-.563.11-1.188.157-.625.063-1.218.063-1.157 0-2.11-.297-.937-.313-1.61-.953-.671-.641-1.03-1.641-.36-1-.36-2.39v-6.407h-3.219v-2.656h3.22v-3.453h3.609zm28.895 12.702q0 1.11-.25 2.032-.235.906-.72 1.578-.484.657-1.202 1.032-.719.375-1.672.375-.875 0-1.516-.329-.625-.328-1.078-.906l-.125 1.047h-2.266v-14h2.532v5.031q.437-.5 1.031-.781.594-.281 1.39-.281.97 0 1.688.375.734.36 1.219 1.031.484.656.719 1.594.25.922.25 2.015v.188zm-2.532-.187q0-.609-.093-1.14-.094-.547-.329-.938-.218-.406-.609-.64-.375-.25-.937-.25-.704 0-1.141.297-.422.296-.656.796v3.938q.234.5.656.797.437.281 1.156.281.578 0 .938-.219.375-.218.593-.61.235-.405.329-.937.093-.546.093-1.187v-.188z"/><path fill="#bdbdbd" d="M34.218 178.072h163.496v59.717H34.218z" fill-rule="evenodd"/><path stroke="#666" stroke-linejoin="round" stroke-linecap="butt" d="M34.218 178.072h163.496v59.717H34.218z"/><path fill="#bdbdbd" d="M34.218 237.775h163.496v59.717H34.218z" fill-rule="evenodd"/><path stroke="#666" stroke-linejoin="round" stroke-linecap="butt" d="M34.218 237.775h163.496v59.717H34.218z"/><path d="M550.403 173.992l88.787 42.11"/><path stroke="#666" stroke-width="4" stroke-linejoin="round" stroke-linecap="butt" d="M564.1 180.489l53.406 25.329"/><path fill="#666" stroke="#666" stroke-width="4" stroke-linecap="butt" d="M552.21 174.85a6.58 6.58 0 1 1 11.89 5.638 6.58 6.58 0 0 1-11.89-5.639z"/><path fill="#666" stroke="#666" stroke-width="4" stroke-linecap="butt" d="M614.674 211.787l19.233 1.81-13.57-13.749z" fill-rule="evenodd"/><path d="M210.573 143.769c53.494 0 80.24-22.094 106.988-44.189 26.748-22.094 53.499-44.189 106.997-44.189"/><path stroke="#595959" stroke-width="4" stroke-linejoin="round" stroke-linecap="butt" d="M210.573 143.769c53.494 0 80.24-22.094 106.988-44.189 13.374-11.047 26.749-22.094 43.467-30.38 8.36-4.143 17.555-7.595 28.003-10.011a137.767 137.767 0 0 1 10.176-1.952l1.061-.16.346-.049"/><path fill="#595959" stroke="#595959" stroke-width="4" stroke-linecap="butt" d="M401.064 63.62l17.66-7.83-18.561-5.353z" fill-rule="evenodd"/><path fill="#673ab7" d="M374.403 257.376c0-6.283 5.093-11.376 11.375-11.376h166.226a11.375 11.375 0 0 1 11.375 11.376v45.5c0 6.283-5.093 11.376-11.375 11.376H385.778c-6.282 0-11.375-5.093-11.375-11.376z" fill-rule="evenodd"/><path stroke="#666" stroke-linejoin="round" stroke-linecap="butt" d="M374.403 257.376h0c0-6.283 5.093-11.376 11.375-11.376h166.226a11.375 11.375 0 0 1 11.375 11.376v45.5c0 6.283-5.093 11.376-11.375 11.376H385.778c-6.282 0-11.375-5.093-11.375-11.376z"/><path fill="#fff" d="M403.128 289.726h-3.625v-8.219h-5.36v8.219h-3.64v-18.953h3.64v7.765h5.36v-7.765h3.625v18.953zm10.45.266q-1.625 0-2.954-.532-1.328-.547-2.28-1.453-.954-.922-1.47-2.156-.515-1.25-.515-2.672v-.516q0-1.625.5-2.953.515-1.328 1.422-2.297.922-.968 2.172-1.5 1.25-.53 2.718-.53 1.516 0 2.703.5 1.204.5 2.032 1.421.828.906 1.25 2.188.437 1.28.437 2.828v1.531h-9.562q.109.719.422 1.312.328.594.812 1.032.5.422 1.14.656.641.234 1.391.234.532 0 1.063-.093.531-.11 1-.313.484-.203.906-.5.422-.312.734-.703l1.797 1.953q-.328.469-.875.938-.531.468-1.281.828-.734.343-1.64.562-.891.235-1.922.235zm-.438-11.688q-.61 0-1.125.219-.5.219-.89.625-.376.406-.641.969-.25.546-.39 1.234h5.937v-.281q-.016-.578-.22-1.078-.187-.516-.562-.875-.359-.375-.89-.594-.531-.219-1.219-.219zm18.403 11.422q-.141-.266-.235-.594-.078-.344-.156-.719-.297.329-.687.61-.391.281-.875.5-.47.219-1.047.344-.563.125-1.22.125-1.077 0-1.983-.313-.907-.312-1.563-.875-.656-.562-1.016-1.328-.359-.781-.359-1.688 0-2.234 1.656-3.453 1.657-1.218 4.953-1.218h2.016v-.829q0-1.015-.672-1.609-.656-.594-1.906-.594-1.11 0-1.625.485-.5.468-.5 1.265h-3.61q0-.906.391-1.703.406-.812 1.156-1.422.766-.609 1.86-.968 1.11-.36 2.531-.36 1.266 0 2.36.313 1.109.312 1.906.922.812.609 1.265 1.546.469.922.469 2.157v6.031q0 1.14.14 1.89.141.735.407 1.266v.219h-3.656zm-3.453-2.531q.546 0 1.015-.125.469-.14.844-.344.375-.219.64-.484.282-.266.438-.532v-2.422h-1.844q-.843 0-1.453.157-.594.156-.969.453-.375.297-.562.703-.188.406-.188.89 0 .735.516 1.22.516.484 1.563.484zm23.293-4.375q0 1.531-.36 2.843-.359 1.313-1.062 2.282-.688.953-1.719 1.5-1.016.547-2.344.547-1.14 0-2-.391-.859-.39-1.5-1.094v6.64h-3.609v-19.5h3.344l.125 1.376q.656-.781 1.531-1.203.89-.438 2.078-.438 1.344 0 2.36.516 1.03.515 1.734 1.469.703.937 1.062 2.265.36 1.313.36 2.906v.282zm-3.61-.282q0-.875-.172-1.656-.156-.781-.5-1.344-.343-.562-.89-.89-.547-.328-1.313-.328-.953 0-1.562.375-.594.375-.938 1.047v5.89q.344.656.938 1.063.61.39 1.594.39.765 0 1.296-.328.547-.344.891-.922.344-.593.5-1.375.156-.78.156-1.64v-.282zm19.325 7.188h-3.64l-5.282-12.219v12.219h-3.688v-18.953h3.688l5.234 12.172.016-12.172h3.672v18.953zm12.606-1.984q-.72 1.062-1.735 1.656-1 .594-2.187.594-1.094 0-2.016-.329-.906-.343-1.562-1.078-.641-.734-1-1.875-.36-1.14-.36-2.734v-8.328h3.625v8.344q0 .859.11 1.453.125.578.39.937.281.36.719.516.453.156 1.094.156 1.078 0 1.75-.406.687-.406 1.031-1.125v-9.875h3.625v14.078h-3.266l-.218-1.984zm9.277-12.094l.094 1.703q.406-.922 1.11-1.438.718-.53 1.734-.53 1.703 0 2.218 1.5.422-.704 1.063-1.095.64-.406 1.562-.406.641 0 1.188.235.547.234.953.75.422.515.64 1.328.235.812.235 1.984v10.047h-3.297v-10.063q0-.406-.094-.656-.078-.265-.218-.406-.141-.156-.328-.219-.188-.062-.391-.062-.375 0-.64.187-.25.172-.391.469v10.75h-3.188v-10.078q0-.406-.078-.656-.078-.266-.219-.407-.14-.14-.328-.203-.172-.062-.375-.062-.422 0-.687.234-.25.234-.391.625v10.547h-3.297v-14.078h3.125zm26.434 7.187q0 1.563-.36 2.891-.343 1.312-1.03 2.266-.688.937-1.72 1.468-1.015.532-2.39.532-1.234 0-2.14-.454-.907-.468-1.547-1.312l-.172 1.5h-3.266v-20h3.625v7.187q.625-.718 1.469-1.125.86-.406 2-.406 1.39 0 2.422.531 1.03.532 1.718 1.485.688.953 1.032 2.281.359 1.313.359 2.875v.281zm-3.625-.28q0-.86-.14-1.626-.126-.766-.438-1.344-.313-.578-.86-.922-.546-.343-1.374-.343-.985 0-1.61.422-.61.421-.953 1.14v5.61q.344.734.953 1.156.625.406 1.64.406.813 0 1.345-.312.546-.329.859-.891.312-.563.437-1.328.141-.781.141-1.688v-.28zm13.762 7.437q-1.625 0-2.953-.532-1.328-.547-2.281-1.453-.954-.922-1.47-2.156-.515-1.25-.515-2.672v-.516q0-1.625.5-2.953.516-1.328 1.422-2.297.922-.968 2.172-1.5 1.25-.53 2.719-.53 1.515 0 2.703.5 1.203.5 2.031 1.421.828.906 1.25 2.188.438 1.28.438 2.828v1.531h-9.563q.11.719.422 1.312.328.594.812 1.032.5.422 1.141.656.64.234 1.39.234.532 0 1.063-.093.531-.11 1-.313.485-.203.906-.5.422-.312.735-.703l1.797 1.953q-.328.469-.875.938-.532.468-1.282.828-.734.343-1.64.562-.89.235-1.922.235zm-.438-11.688q-.609 0-1.125.219-.5.219-.89.625-.375.406-.64.969-.25.546-.391 1.234h5.937v-.281q-.016-.578-.219-1.078-.187-.516-.562-.875-.36-.375-.89-.594-.532-.219-1.22-.219zm19.716-2.922q.812 0 1.5.11.703.109 1.14.25l-.531 3.593q-.719-.172-1.469-.25-.75-.078-1.422-.078-1.53 0-2.453.594-.906.578-1.36 1.672v8.453h-3.624v-14.078h3.375l.172 2.297q.86-1.203 2.047-1.875 1.203-.688 2.625-.688z"/><path fill="#bdbdbd" d="M387.38 314.283h163.495V374H387.38z" fill-rule="evenodd"/><path stroke="#666" stroke-linejoin="round" stroke-linecap="butt" d="M387.38 314.283h163.495V374H387.38z"/><path fill="#000" d="M407.944 346.947h2.375v1.766h-2.375v3.969h-2.172v-3.969h-7.781v-1.266l7.64-11.828h2.313v11.328zm-7.547 0h5.375v-8.453l-.344.656-5.031 7.797zm23.62 5.735h-11.171v-1.563l5.594-6.203q.75-.844 1.25-1.484t.797-1.188q.312-.547.437-1.031.14-.484.14-1 0-.64-.218-1.188-.203-.562-.594-.968-.39-.407-.953-.64-.547-.25-1.25-.25-.86 0-1.484.25-.625.233-1.047.687-.406.453-.625 1.109-.203.64-.203 1.437h-2.172q0-1.078.375-2.03.375-.97 1.078-1.673.719-.718 1.734-1.14 1.032-.422 2.344-.422 1.203 0 2.172.36.969.359 1.625 1 .672.624 1.031 1.5.36.859.36 1.874 0 .766-.266 1.516-.25.734-.687 1.469-.438.718-1.016 1.437-.578.703-1.234 1.406l-4.579 4.97h8.563v1.765zm6.278-1.922q1.157 0 2.032-.203.89-.203 1.53-.578.657-.375 1.079-.891.437-.516.719-1.125.28-.61.406-1.297.125-.687.156-1.406-.281.36-.64.672-.36.297-.829.531-.453.234-1.015.375-.547.14-1.203.14-1.266 0-2.188-.5-.922-.5-1.515-1.312-.594-.812-.875-1.828-.282-1.016-.282-2.047 0-1.203.328-2.281.344-1.078 1-1.875.657-.797 1.641-1.266 1-.484 2.313-.484.984 0 1.765.281.797.266 1.406.75.61.484 1.032 1.156.437.657.703 1.422.281.766.406 1.61.14.843.14 1.687v.781q0 1.094-.109 2.235-.11 1.14-.422 2.203-.296 1.062-.859 2.015-.562.938-1.469 1.641-.906.703-2.203 1.125-1.281.406-3.047.406h-.218v-1.937h.218zm2.594-5.578q.547 0 1.063-.172.53-.188.968-.516.438-.344.782-.797.343-.453.546-1v-.703q0-1.14-.265-2.031-.266-.89-.719-1.5-.453-.625-1.047-.953-.578-.328-1.25-.328-.765 0-1.36.312-.577.297-.984.844-.406.531-.625 1.266-.203.718-.203 1.562 0 .75.188 1.484.187.72.562 1.282.39.562.969.906.578.344 1.375.344zm18.262 1.765h2.375v1.766h-2.375v3.969h-2.172v-3.969h-7.781v-1.266l7.64-11.828h2.313v11.328zm-7.547 0h5.375v-8.453l-.344.656-5.031 7.797zm15.496 3.813q1.156 0 2.031-.203.89-.203 1.531-.578.657-.375 1.079-.891.437-.516.718-1.125.282-.61.407-1.297.125-.687.156-1.406-.281.36-.64.672-.36.297-.829.531-.453.234-1.016.375-.546.14-1.203.14-1.265 0-2.187-.5-.922-.5-1.516-1.312t-.875-1.828q-.281-1.016-.281-2.047 0-1.203.328-2.281.344-1.078 1-1.875.656-.797 1.64-1.266 1-.484 2.313-.484.985 0 1.766.281.797.266 1.406.75.61.484 1.031 1.156.438.657.703 1.422.282.766.407 1.61.14.843.14 1.687v.781q0 1.094-.109 2.235-.11 1.14-.422 2.203-.297 1.062-.86 2.015-.562.938-1.468 1.641-.906.703-2.203 1.125-1.281.406-3.047.406h-.219v-1.937h.219zm2.594-5.578q.547 0 1.062-.172.531-.188.969-.516.437-.344.781-.797.344-.453.547-1v-.703q0-1.14-.266-2.031-.265-.89-.718-1.5-.453-.625-1.047-.953-.578-.328-1.25-.328-.766 0-1.36.312-.578.297-.984.844-.406.531-.625 1.266-.203.718-.203 1.562 0 .75.187 1.484.188.72.563 1.282.39.562.969.906.578.344 1.375.344zm17.465-9.578v1.953h-.188q-1.078 0-1.937.218-.844.22-1.485.61-.64.39-1.11.922-.452.531-.765 1.172-.297.625-.469 1.312-.156.688-.203 1.406.297-.359.688-.672.406-.312.86-.53.468-.235 1-.36.546-.14 1.124-.14 1.281 0 2.203.484.922.484 1.516 1.28.61.798.89 1.813.282 1 .282 2.047 0 1.188-.344 2.25-.328 1.047-1 1.844-.656.781-1.656 1.25-.985.453-2.281.453-.938 0-1.704-.266-.765-.28-1.375-.734-.609-.469-1.062-1.094-.453-.64-.766-1.359-.297-.734-.453-1.516-.14-.78-.14-1.578v-1.015q0-1.172.14-2.344.156-1.188.5-2.266.36-1.078.953-2.015.594-.938 1.5-1.625.907-.704 2.157-1.094 1.265-.406 2.937-.406h.188zm-2.829 7.687q-.562 0-1.078.188-.515.171-.968.484-.438.312-.782.766-.328.437-.531.984v.719q0 1.125.266 2 .28.875.734 1.468.453.594 1.047.907.61.312 1.266.312.75 0 1.328-.281.593-.297 1-.813.406-.515.609-1.234.203-.734.203-1.578 0-.75-.187-1.453-.188-.703-.578-1.25-.375-.563-.97-.89-.577-.329-1.359-.329zm20.043-6.453l-7.062 15.844h-2.281l7.047-15.172h-9.235v-1.89h11.531v1.218zm14.059 15.844H499.26v-1.563l5.594-6.203q.75-.844 1.25-1.484t.797-1.188q.312-.547.437-1.031.14-.484.14-1 0-.64-.218-1.188-.203-.562-.594-.968-.39-.407-.953-.64-.547-.25-1.25-.25-.86 0-1.484.25-.625.233-1.047.687-.406.453-.625 1.109-.203.64-.203 1.437h-2.172q0-1.078.375-2.03.375-.97 1.078-1.673.719-.718 1.734-1.14 1.032-.422 2.344-.422 1.203 0 2.172.36.969.359 1.625 1 .672.624 1.031 1.5.36.859.36 1.874 0 .766-.266 1.516-.25.734-.687 1.469-.438.718-1.016 1.437-.578.703-1.234 1.406l-4.579 4.97h8.563v1.765zm6.277-1.922q1.157 0 2.032-.203.89-.203 1.53-.578.657-.375 1.079-.891.437-.516.719-1.125.281-.61.406-1.297.125-.687.156-1.406-.281.36-.64.672-.36.297-.829.531-.453.234-1.015.375-.547.14-1.203.14-1.266 0-2.188-.5-.922-.5-1.515-1.312-.594-.812-.875-1.828-.282-1.016-.282-2.047 0-1.203.328-2.281.344-1.078 1-1.875.657-.797 1.641-1.266 1-.484 2.313-.484.984 0 1.765.281.797.266 1.406.75.61.484 1.032 1.156.437.657.703 1.422.281.766.406 1.61.14.843.14 1.687v.781q0 1.094-.109 2.235-.109 1.14-.422 2.203-.296 1.062-.859 2.015-.562.938-1.469 1.641-.906.703-2.203 1.125-1.281.406-3.047.406h-.218v-1.937h.218zm2.594-5.578q.547 0 1.063-.172.53-.188.968-.516.438-.344.782-.797.343-.453.546-1v-.703q0-1.14-.265-2.031-.266-.89-.719-1.5-.453-.625-1.047-.953-.578-.328-1.25-.328-.765 0-1.36.312-.577.297-.984.844-.406.531-.625 1.266-.203.718-.203 1.562 0 .75.188 1.484.187.72.562 1.282.391.562.97.906.577.344 1.374.344zm17.465-9.578v1.953h-.188q-1.078 0-1.937.218-.844.22-1.484.61-.641.39-1.11.922-.453.531-.765 1.172-.297.625-.47 1.312-.155.688-.202 1.406.297-.359.687-.672.406-.312.86-.53.468-.235 1-.36.546-.14 1.125-.14 1.28 0 2.203.484.922.484 1.515 1.28.61.798.891 1.813.281 1 .281 2.047 0 1.188-.344 2.25-.328 1.047-1 1.844-.656.781-1.656 1.25-.984.453-2.281.453-.938 0-1.703-.266-.766-.28-1.375-.734-.61-.469-1.063-1.094-.453-.64-.765-1.359-.297-.734-.453-1.516-.141-.78-.141-1.578v-1.015q0-1.172.14-2.344.157-1.188.5-2.266.36-1.078.954-2.015.593-.938 1.5-1.625.906-.704 2.156-1.094 1.266-.406 2.937-.406h.188zm-2.828 7.687q-.563 0-1.078.188-.516.171-.969.484-.438.312-.781.766-.328.437-.532.984v.719q0 1.125.266 2 .281.875.734 1.468.454.594 1.047.907.61.312 1.266.312.75 0 1.328-.281.594-.297 1-.813.406-.515.61-1.234.203-.734.203-1.578 0-.75-.188-1.453-.187-.703-.578-1.25-.375-.563-.969-.89-.578-.329-1.36-.329z"/><path d="M110.403 205.984c66 0 99 18.536 132 37.071 33 18.536 66 37.071 132 37.071"/><path stroke="#666" stroke-width="4" stroke-linejoin="round" stroke-linecap="butt" d="M125.559 206.328l1.15.055a295.005 295.005 0 0 1 6.961.434c7.284.543 14.116 1.34 20.561 2.353 12.89 2.027 24.234 4.924 34.547 8.399 20.625 6.95 37.125 16.218 53.625 25.486s33 18.536 53.625 25.486c10.312 3.476 21.656 6.372 34.547 8.4 3.222.506 6.542.959 9.966 1.352a259.477 259.477 0 0 0 9.234.896l.644.05"/><path fill="#666" stroke="#666" stroke-width="4" stroke-linecap="butt" d="M112.402 206.03a6.58 6.58 0 1 1 13.157.298 6.58 6.58 0 0 1-13.157-.298z"/><path fill="#666" stroke="#666" stroke-width="4" stroke-linecap="butt" d="M350.175 285.84l18.384-5.93-17.895-7.274z" fill-rule="evenodd"/><path fill="#673ab7" d="M374.403 417.376c0-6.283 5.093-11.376 11.375-11.376h166.226a11.375 11.375 0 0 1 11.375 11.376v45.5c0 6.283-5.093 11.376-11.375 11.376H385.778c-6.282 0-11.375-5.093-11.375-11.376z" fill-rule="evenodd"/><path stroke="#666" stroke-linejoin="round" stroke-linecap="butt" d="M374.403 417.376h0c0-6.283 5.093-11.376 11.375-11.376h166.226a11.375 11.375 0 0 1 11.375 11.376v45.5c0 6.283-5.093 11.376-11.375 11.376H385.778c-6.282 0-11.375-5.093-11.375-11.376z"/><path fill="#fff" d="M403.128 449.726h-3.625v-8.219h-5.36v8.219h-3.64v-18.953h3.64v7.765h5.36v-7.765h3.625v18.953zm10.45.266q-1.625 0-2.954-.532-1.328-.547-2.28-1.453-.954-.922-1.47-2.156-.515-1.25-.515-2.672v-.516q0-1.625.5-2.953.515-1.328 1.422-2.297.922-.968 2.172-1.5 1.25-.53 2.718-.53 1.516 0 2.703.5 1.204.5 2.032 1.421.828.906 1.25 2.188.437 1.28.437 2.828v1.531h-9.562q.109.719.422 1.312.328.594.812 1.032.5.422 1.14.656.641.234 1.391.234.532 0 1.063-.093.531-.11 1-.313.484-.203.906-.5.422-.312.734-.703l1.797 1.953q-.328.469-.875.938-.531.468-1.281.828-.734.343-1.64.562-.891.235-1.922.235zm-.438-11.688q-.61 0-1.125.219-.5.219-.89.625-.376.406-.641.969-.25.546-.39 1.234h5.937v-.281q-.016-.578-.22-1.078-.187-.516-.562-.875-.359-.375-.89-.594-.531-.219-1.219-.219zm18.403 11.422q-.141-.266-.235-.594-.078-.344-.156-.719-.297.329-.687.61-.391.281-.875.5-.47.219-1.047.344-.563.125-1.22.125-1.077 0-1.983-.313-.907-.312-1.563-.875-.656-.562-1.016-1.328-.359-.781-.359-1.688 0-2.234 1.656-3.453 1.657-1.218 4.953-1.218h2.016v-.829q0-1.015-.672-1.609-.656-.594-1.906-.594-1.11 0-1.625.485-.5.468-.5 1.265h-3.61q0-.906.391-1.703.406-.812 1.156-1.422.766-.609 1.86-.968 1.11-.36 2.531-.36 1.266 0 2.36.313 1.109.312 1.906.922.812.609 1.265 1.546.469.922.469 2.157v6.031q0 1.14.14 1.89.141.735.407 1.266v.219h-3.656zm-3.453-2.531q.546 0 1.015-.125.469-.14.844-.344.375-.219.64-.484.282-.266.438-.532v-2.422h-1.844q-.843 0-1.453.157-.594.156-.969.453-.375.297-.562.703-.188.406-.188.89 0 .735.516 1.22.516.484 1.563.484zm23.293-4.375q0 1.531-.36 2.843-.359 1.313-1.062 2.282-.688.953-1.719 1.5-1.016.547-2.344.547-1.14 0-2-.391-.859-.39-1.5-1.094v6.64h-3.609v-19.5h3.344l.125 1.376q.656-.781 1.531-1.203.89-.438 2.078-.438 1.344 0 2.36.516 1.03.515 1.734 1.469.703.937 1.062 2.265.36 1.313.36 2.906v.282zm-3.61-.282q0-.875-.172-1.656-.156-.781-.5-1.344-.343-.562-.89-.89-.547-.328-1.313-.328-.953 0-1.562.375-.594.375-.938 1.047v5.89q.344.656.938 1.063.61.39 1.594.39.765 0 1.296-.328.547-.344.891-.922.344-.593.5-1.375.156-.78.156-1.64v-.282zm19.325 7.188h-3.64l-5.282-12.219v12.219h-3.688v-18.953h3.688l5.234 12.172.016-12.172h3.672v18.953zm12.606-1.984q-.72 1.062-1.735 1.656-1 .594-2.187.594-1.094 0-2.016-.329-.906-.343-1.562-1.078-.641-.734-1-1.875-.36-1.14-.36-2.734v-8.328h3.625v8.344q0 .859.11 1.453.125.578.39.937.281.36.719.516.453.156 1.094.156 1.078 0 1.75-.406.687-.406 1.031-1.125v-9.875h3.625v14.078h-3.266l-.218-1.984zm9.277-12.094l.094 1.703q.406-.922 1.11-1.438.718-.53 1.734-.53 1.703 0 2.218 1.5.422-.704 1.063-1.095.64-.406 1.562-.406.641 0 1.188.235.547.234.953.75.422.515.64 1.328.235.812.235 1.984v10.047h-3.297v-10.063q0-.406-.094-.656-.078-.265-.218-.406-.141-.156-.328-.219-.188-.062-.391-.062-.375 0-.64.187-.25.172-.391.469v10.75h-3.188v-10.078q0-.406-.078-.656-.078-.266-.219-.407-.14-.14-.328-.203-.172-.062-.375-.062-.422 0-.687.234-.25.234-.391.625v10.547h-3.297v-14.078h3.125zm26.434 7.187q0 1.563-.36 2.891-.343 1.312-1.03 2.266-.688.937-1.72 1.468-1.015.532-2.39.532-1.234 0-2.14-.454-.907-.468-1.547-1.312l-.172 1.5h-3.266v-20h3.625v7.187q.625-.718 1.469-1.125.86-.406 2-.406 1.39 0 2.422.531 1.03.532 1.718 1.485.688.953 1.032 2.281.359 1.313.359 2.875v.281zm-3.625-.28q0-.86-.14-1.626-.126-.766-.438-1.344-.313-.578-.86-.922-.546-.343-1.374-.343-.985 0-1.61.422-.61.421-.953 1.14v5.61q.344.734.953 1.156.625.406 1.64.406.813 0 1.345-.312.546-.329.859-.891.312-.563.437-1.328.141-.781.141-1.688v-.28zm13.762 7.437q-1.625 0-2.953-.532-1.328-.547-2.281-1.453-.954-.922-1.47-2.156-.515-1.25-.515-2.672v-.516q0-1.625.5-2.953.516-1.328 1.422-2.297.922-.968 2.172-1.5 1.25-.53 2.719-.53 1.515 0 2.703.5 1.203.5 2.031 1.421.828.906 1.25 2.188.438 1.28.438 2.828v1.531h-9.563q.11.719.422 1.312.328.594.812 1.032.5.422 1.141.656.64.234 1.39.234.532 0 1.063-.093.531-.11 1-.313.485-.203.906-.5.422-.312.735-.703l1.797 1.953q-.328.469-.875.938-.532.468-1.282.828-.734.343-1.64.562-.89.235-1.922.235zm-.438-11.688q-.609 0-1.125.219-.5.219-.89.625-.375.406-.64.969-.25.546-.391 1.234h5.937v-.281q-.016-.578-.219-1.078-.187-.516-.562-.875-.36-.375-.89-.594-.532-.219-1.22-.219zm19.716-2.922q.812 0 1.5.11.703.109 1.14.25l-.531 3.593q-.719-.172-1.469-.25-.75-.078-1.422-.078-1.53 0-2.453.594-.906.578-1.36 1.672v8.453h-3.624v-14.078h3.375l.172 2.297q.86-1.203 2.047-1.875 1.203-.688 2.625-.688z"/><path fill="#bdbdbd" d="M387.38 474.283h163.495V534H387.38z" fill-rule="evenodd"/><path stroke="#666" stroke-linejoin="round" stroke-linecap="butt" d="M387.38 474.283h163.495V534H387.38z"/><path fill="#000" d="M456.602 512.682h-2.172v-14.297l-4.469 1.703v-1.984l6.453-2.485h.188v17.063zm11.137-1.407q0-.359.109-.656.11-.312.312-.531.22-.234.532-.36.328-.124.75-.124t.734.125q.328.125.547.359.219.219.328.531.11.297.11.656 0 .344-.11.641-.11.297-.328.516-.219.218-.547.343-.312.125-.734.125t-.75-.125q-.313-.125-.532-.343-.203-.22-.312-.516-.11-.297-.11-.64zm11.402-7.156l.86-8.5h8.75v2.11h-6.923l-.484 4.546q.5-.296 1.203-.515.703-.219 1.64-.219 1.173 0 2.11.406.938.407 1.594 1.157.656.734 1 1.796.36 1.047.36 2.344 0 1.219-.329 2.266-.328 1.031-.984 1.797-.656.75-1.672 1.187-1 .422-2.36.422-1.046 0-1.984-.297-.922-.297-1.64-.875-.72-.594-1.188-1.484-.453-.89-.578-2.063h2.062q.204 1.453 1.079 2.203.875.75 2.25.75.765 0 1.359-.28.61-.282 1-.782.406-.516.61-1.219.218-.719.218-1.61 0-.796-.234-1.484-.235-.687-.672-1.187-.422-.516-1.063-.813-.625-.296-1.453-.296-.531 0-.922.078-.39.078-.718.218-.313.141-.594.344-.266.188-.563.453l-1.734-.453z"/><path d="M110.403 267.843c66 0 99 43.07 132 86.141 33 43.071 66 86.142 132 86.142"/><path stroke="#666" stroke-width="4" stroke-linejoin="round" stroke-linecap="butt" d="M125.542 268.64l1.166.13a129.293 129.293 0 0 1 6.962 1.007 118.793 118.793 0 0 1 20.561 5.468c12.89 4.711 24.234 11.441 34.547 19.517 20.625 16.151 37.125 37.687 53.625 59.222 16.5 21.536 33 43.071 53.625 59.223 10.312 8.075 21.656 14.805 34.547 19.516a116.975 116.975 0 0 0 9.966 3.144 119.606 119.606 0 0 0 9.234 2.08l.716.129"/><path fill="#666" stroke="#666" stroke-width="4" stroke-linecap="butt" d="M112.4 267.948a6.58 6.58 0 1 1 13.142.691 6.58 6.58 0 0 1-13.142-.691z"/><path fill="#666" stroke="#666" stroke-width="4" stroke-linecap="butt" d="M349.926 444.659l18.65-5.033-17.521-8.133z" fill-rule="evenodd"/></g></svg>