<svg viewBox="0 0 880 408" fill="none" stroke-linecap="square" stroke-miterlimit="10" xmlns="http://www.w3.org/2000/svg"><clipPath id="a"><path d="M0 0h880v408H0V0z"/></clipPath><g clip-path="url(#a)"><path d="M0 0h880v408H0z"/><path fill="#fbbc05" fill-opacity=".377" d="M640.787 47.308c0-12.89 10.45-23.34 23.34-23.34H832.66A23.339 23.339 0 0 1 856 47.309v93.353C856 153.55 845.55 164 832.66 164H664.127c-12.89 0-23.339-10.45-23.339-23.34z" fill-rule="evenodd"/><path stroke="#666" stroke-linejoin="round" stroke-linecap="butt" d="M640.787 47.308h0c0-12.89 10.45-23.34 23.34-23.34H832.66A23.339 23.339 0 0 1 856 47.309v93.353C856 153.55 845.55 164 832.66 164H664.127c-12.89 0-23.339-10.45-23.339-23.34z"/><path fill="#000" d="M659.42 40.316v3.468h-1.828v-9.468h3.234q.782 0 1.407.218.625.219 1.062.625.438.407.672.969.25.547.25 1.234 0 .641-.25 1.188-.234.531-.672.922-.437.39-1.062.625-.625.219-1.407.219h-1.406zm0-1.485h1.406q.39 0 .672-.11.297-.124.485-.327.203-.203.296-.47.094-.265.094-.546 0-.328-.094-.61-.093-.296-.296-.515-.188-.219-.485-.328-.281-.125-.672-.125h-1.406v3.031zm11.17-2.219q.422 0 .766.063.343.047.562.11l-.265 1.812q-.36-.094-.735-.125-.375-.047-.719-.047-.75 0-1.218.297-.453.281-.688.828v4.234h-1.797v-7.047h1.672l.094 1.157q.422-.594 1.016-.938.609-.344 1.312-.344zm2.701 3.594q0-.781.22-1.422.218-.656.64-1.14.437-.485 1.047-.75.625-.282 1.406-.282.797 0 1.406.282.625.265 1.047.75.438.484.656 1.14.22.64.22 1.422v.125q0 .781-.22 1.438-.218.656-.64 1.14-.422.469-1.047.75-.61.266-1.406.266-.797 0-1.422-.266-.61-.281-1.047-.75-.422-.484-.64-1.14-.22-.657-.22-1.438v-.125zm1.813.125q0 .453.078.844.094.375.266.672.187.281.468.453.297.172.704.172.406 0 .687-.172t.453-.453q.188-.297.266-.672.094-.39.094-.844v-.125q0-.437-.094-.812-.078-.391-.266-.688-.172-.297-.453-.453-.281-.172-.703-.172-.406 0-.688.172-.28.156-.468.453-.172.297-.266.688-.078.375-.078.812v.125zm12.764 0q0 .766-.188 1.422-.172.656-.531 1.14-.344.47-.86.75-.515.266-1.171.266-.563 0-1-.187-.422-.203-.75-.547v3.312h-1.813v-9.75h1.672l.078.688q.313-.375.75-.594.453-.219 1.047-.219.672 0 1.188.266.515.25.859.719.36.469.531 1.14.188.657.188 1.454v.14zm-1.813-.14q0-.438-.094-.829-.078-.39-.25-.671-.171-.282-.437-.438-.266-.172-.656-.172-.469 0-.782.188-.296.187-.468.53v2.938q.172.329.468.532.313.187.797.187.391 0 .657-.156.265-.172.437-.469t.25-.672q.078-.39.078-.828v-.14zm6.889 3.718q-.812 0-1.484-.265-.657-.266-1.125-.72-.47-.468-.735-1.077-.25-.625-.25-1.344v-.25q0-.812.25-1.469.25-.672.703-1.156.454-.484 1.079-.75t1.359-.266q.766 0 1.36.25.593.25 1 .704.421.453.64 1.093.219.64.219 1.422v.766h-4.782q.047.36.204.656.171.297.406.516.25.203.562.328.328.11.703.11.282 0 .532-.048.265-.047.5-.14.25-.11.453-.25.219-.157.375-.36l.906.969q-.172.25-.453.484-.266.22-.64.407-.36.172-.813.28-.438.11-.969.11zm-.203-5.828q-.313 0-.563.11-.25.093-.453.296-.187.204-.328.485-.125.281-.187.625h2.968v-.14q-.015-.282-.109-.532-.094-.266-.281-.453-.188-.188-.453-.281-.25-.11-.594-.11zm9.842-1.469q.422 0 .765.063.344.047.563.11l-.266 1.812q-.36-.094-.734-.125-.375-.047-.719-.047-.75 0-1.219.297-.453.281-.687.828v4.234h-1.797v-7.047h1.672l.094 1.157q.422-.594 1.015-.938.61-.344 1.313-.344zm6.264-1.593v1.718h2.625v1.344h-2.625v3.016q0 .39.078.656.094.25.25.406.172.14.406.219.234.063.516.063.203 0 .422-.016.218-.031.421-.047.204-.031.375-.062.172-.047.297-.079l.172 1.25q-.187.11-.453.188-.25.078-.531.125-.281.062-.594.094-.312.03-.61.03-.577 0-1.046-.155-.469-.157-.813-.47-.328-.327-.515-.827-.188-.5-.188-1.188v-3.203h-1.61v-1.344h1.61V35.02h1.813zm7.685 5.812l.203.75 1.875-4.844h2l-3.578 8.094q-.109.281-.297.594-.187.312-.468.578-.282.266-.688.438-.39.187-.937.187-.125 0-.25-.016-.11 0-.219-.015-.094-.016-.203-.047-.094-.016-.203-.047l.218-1.39q.11 0 .282.015.172.016.281.016.203 0 .375-.141.172-.125.281-.281.125-.156.188-.297.078-.125.11-.125l.421-.813-2.969-6.75h1.969l1.61 4.094zm13.481-4.094h3.828v5.579h1.906v1.468h-5.734v-1.468h2v-4.094h-2v-1.485zm1.875-1.796q0-.204.063-.375.078-.188.218-.313.14-.14.328-.203.188-.078.422-.078.485 0 .766.281.281.266.281.688 0 .421-.281.703-.281.265-.766.265-.234 0-.422-.078-.187-.078-.328-.203-.14-.125-.218-.297-.063-.187-.063-.39zm7.28 1.796l.109.985q.375-.531.906-.813.547-.297 1.203-.297.532 0 .969.157.453.156.766.5.328.343.5.875.187.53.187 1.312v4.328h-1.812v-4.312q0-.406-.094-.672-.094-.281-.266-.438-.172-.156-.422-.218-.25-.063-.562-.063-.469 0-.797.188-.312.187-.516.515v5h-1.812v-7.047h1.64zm8.107 7.047v-5.703h-1.86v-1.344h1.86v-.375q0-.703.219-1.234t.625-.89q.422-.376 1-.547.594-.188 1.312-.188.22 0 .422.016.219.015.422.047.203.015.406.046.203.032.438.079l-.125 1.406q-.25-.047-.563-.078-.312-.047-.734-.047-.844 0-1.234.36-.375.359-.375 1.03v.375h2.53v1.344h-2.53v5.703h-1.813zm5.998-3.578q0-.781.219-1.422.219-.656.64-1.14.438-.485 1.048-.75.625-.282 1.406-.282.797 0 1.406.282.625.265 1.047.75.437.484.656 1.14.219.64.219 1.422v.125q0 .781-.219 1.438-.219.656-.64 1.14-.422.469-1.047.75-.61.266-1.407.266-.796 0-1.421-.266-.61-.281-1.047-.75-.422-.484-.641-1.14-.219-.657-.219-1.438v-.125zm1.813.125q0 .453.078.844.094.375.266.672.187.281.468.453.297.172.703.172.407 0 .688-.172.281-.172.453-.453.188-.297.266-.672.093-.39.093-.844v-.125q0-.437-.093-.812-.078-.391-.266-.688-.172-.297-.453-.453-.281-.172-.703-.172-.406 0-.688.172-.281.156-.468.453-.172.297-.266.688-.078.375-.078.812v.125zm11.482-3.719q.422 0 .766.063.344.047.562.11l-.265 1.812q-.36-.094-.735-.125-.375-.047-.718-.047-.75 0-1.22.297-.452.281-.687.828v4.234h-1.796v-7.047h1.671l.094 1.157q.422-.594 1.016-.938.61-.344 1.312-.344zm4.077.125l.047.86q.203-.453.546-.719.36-.266.875-.266.844 0 1.11.75.203-.359.531-.546.328-.204.781-.204.313 0 .594.125.281.11.484.375.204.25.313.657.11.406.11.984v5.031h-1.641v-5.031q0-.203-.047-.328-.031-.14-.11-.203-.062-.078-.171-.11-.094-.03-.188-.03-.187 0-.328.093-.125.078-.188.234v5.375h-1.593v-5.031q0-.203-.047-.328-.031-.14-.11-.203-.062-.078-.156-.11-.094-.03-.187-.03-.22 0-.344.124-.125.11-.188.313v5.265h-1.656v-7.047h1.563zm11.263 7.047q-.062-.125-.109-.297-.047-.171-.078-.359-.14.156-.344.313-.187.14-.437.25-.235.093-.516.156-.281.062-.625.062-.531 0-.984-.156-.453-.156-.782-.422-.328-.281-.515-.672-.172-.39-.172-.843 0-1.11.828-1.72.828-.609 2.469-.609h1.015v-.421q0-.5-.328-.797-.328-.297-.953-.297-.562 0-.812.234-.25.235-.25.625h-1.813q0-.437.188-.844.203-.406.578-.703.39-.312.937-.484.547-.188 1.266-.188.64 0 1.187.157.547.156.954.468.406.297.625.766.234.469.234 1.078v3.016q0 .562.062.937.079.375.22.64v.11h-1.845zm-1.718-1.265q.265 0 .5-.063.234-.078.422-.172.203-.11.328-.234.14-.14.218-.281v-1.203h-.921q-.422 0-.72.078-.296.078-.5.234-.187.14-.28.344-.079.203-.079.453 0 .36.25.61.266.234.782.234zm8.638-7.5v1.718h2.625v1.344h-2.625v3.016q0 .39.079.656.093.25.25.406.171.14.406.219.234.063.515.063.204 0 .422-.016.22-.031.422-.047.203-.031.375-.062.172-.047.297-.079l.172 1.25q-.188.11-.453.188-.25.078-.531.125-.282.062-.594.094-.313.03-.61.03-.578 0-1.046-.155-.47-.157-.813-.47-.328-.327-.516-.827-.187-.5-.187-1.188v-3.203h-1.61v-1.344h1.61V35.02h1.812zm5.17 1.718h3.829v5.579h1.906v1.468h-5.734v-1.468h2v-4.094h-2v-1.485zm1.876-1.796q0-.204.062-.375.078-.188.219-.313.14-.14.328-.203.187-.078.422-.078.484 0 .765.281.282.266.282.688 0 .421-.282.703-.28.265-.765.265-.235 0-.422-.078-.188-.078-.328-.203t-.219-.297q-.062-.187-.062-.39zm5.388 5.265q0-.781.22-1.422.218-.656.64-1.14.437-.485 1.047-.75.625-.282 1.406-.282.797 0 1.406.282.625.265 1.047.75.438.484.656 1.14.219.64.219 1.422v.125q0 .781-.219 1.438-.218.656-.64 1.14-.422.469-1.047.75-.61.266-1.406.266-.797 0-1.422-.266-.61-.281-1.047-.75-.422-.484-.64-1.14-.22-.657-.22-1.438v-.125zm1.813.125q0 .453.078.844.094.375.266.672.187.281.468.453.297.172.704.172.406 0 .687-.172t.453-.453q.188-.297.266-.672.094-.39.094-.844v-.125q0-.437-.094-.812-.078-.391-.266-.688-.172-.297-.453-.453-.281-.172-.703-.172-.406 0-.688.172-.28.156-.468.453-.172.297-.266.688-.078.375-.078.812v.125zm8.076-3.594l.11.985q.375-.531.906-.813.547-.297 1.203-.297.531 0 .969.157.453.156.765.5.328.343.5.875.188.53.188 1.312v4.328h-1.813v-4.312q0-.406-.093-.672-.094-.281-.266-.438-.172-.156-.422-.218-.25-.063-.562-.063-.47 0-.797.188-.313.187-.516.515v5h-1.812v-7.047h1.64z"/><path fill="#673ab7" d="M663.92 75.597q-.016.5-.094 1.015-.078.516-.25 1-.172.485-.437.907-.25.406-.625.718-.36.313-.828.5-.47.172-1.063.172-.578 0-1.062-.172-.47-.187-.828-.5-.36-.312-.641-.718-.266-.422-.438-.907-.171-.484-.25-1-.078-.515-.093-1.015v-1.078q.015-.516.093-1.032.079-.515.25-1 .172-.484.438-.89.266-.422.625-.735.36-.328.828-.5.484-.187 1.063-.187.593 0 1.062.187.484.172.844.485.36.312.625.734t.437.906q.172.485.25 1 .078.516.094 1.032v1.078zm-1.187-1.094q-.016-.344-.063-.703-.031-.375-.125-.734-.094-.36-.25-.688-.156-.328-.39-.578-.235-.25-.563-.39-.313-.157-.734-.157-.407 0-.735.156-.312.14-.547.39-.234.25-.39.579-.157.328-.25.688-.094.359-.141.734-.047.375-.047.703v1.094q0 .328.047.703.047.36.14.734.094.36.25.688.157.328.391.578.235.25.547.406.328.14.75.14t.735-.14q.328-.156.562-.406.234-.25.39-.578.157-.328.25-.688.094-.36.126-.734.03-.375.047-.703v-1.094zm4.81 5.281v-6.11h-1.937v-.937h1.937v-.484q0-.688.203-1.188.203-.515.563-.859.36-.344.86-.516.515-.187 1.14-.187.437 0 .844.078.406.078.828.188l-.14.984q-.267-.094-.626-.156-.36-.063-.75-.063-.86 0-1.281.422-.422.422-.422 1.297v.484h2.719v.938h-2.719v6.11h-1.219zm8.005 0v-6.11h-1.938v-.937h1.938v-.484q0-.688.203-1.188.203-.515.563-.859.359-.344.859-.516.516-.187 1.14-.187.438 0 .844.078.407.078.828.188l-.14.984q-.266-.094-.625-.156-.36-.063-.75-.063-.86 0-1.281.422-.422.422-.422 1.297v.484h2.718v.938h-2.718v6.11h-1.22zm10.895-1.875q0-.203-.094-.375-.078-.172-.28-.312-.204-.156-.532-.266-.328-.125-.828-.219-.61-.125-1.11-.296-.484-.188-.843-.422-.36-.25-.563-.579-.187-.328-.187-.765 0-.422.203-.797.203-.375.562-.656.375-.281.875-.438.5-.172 1.11-.172.656 0 1.172.172.515.172.875.469.375.297.562.703.203.39.203.86h-1.203q0-.235-.125-.454-.11-.218-.312-.375-.204-.171-.5-.28-.297-.11-.672-.11-.39 0-.688.094-.281.078-.469.218-.187.14-.296.344-.094.188-.094.39 0 .204.078.376.078.156.266.28.203.126.515.235.328.11.828.203.641.141 1.157.329.515.171.859.421.36.25.547.579.187.328.187.765 0 .469-.218.86-.204.374-.579.656-.375.265-.906.422-.531.14-1.156.14-.719 0-1.281-.187-.547-.188-.938-.5-.39-.328-.594-.735-.203-.421-.203-.875h1.203q.032.375.204.641.171.25.421.406.266.156.579.219.312.063.609.063.766 0 1.203-.282.453-.281.453-.75zm6.436 2q-.75 0-1.375-.25-.61-.25-1.063-.703-.437-.453-.687-1.078-.25-.625-.25-1.375v-.266q0-.859.266-1.53.28-.673.734-1.126.453-.469 1.031-.719.578-.25 1.188-.25.75 0 1.312.266.578.266.953.734.375.454.563 1.094.187.625.187 1.36v.546h-5.031q.031.485.188.907.171.421.453.734.297.313.687.5.406.172.906.172.641 0 1.141-.25.5-.266.828-.688l.735.563q-.172.266-.438.516t-.61.437q-.343.188-.78.297-.438.11-.938.11zm-.156-6.312q-.375 0-.703.14-.313.125-.579.391-.265.25-.453.625-.172.375-.234.86h3.781v-.079q-.015-.36-.14-.703-.11-.344-.329-.61-.218-.28-.562-.452-.328-.172-.781-.172zm7.888-2.563v1.703h2.688v.938h-2.688v3.828q0 .406.094.672.11.266.297.437.188.157.422.22.234.062.5.062.203 0 .406-.016l.406-.063q.204-.03.375-.062.172-.047.282-.063l.172.844q-.157.094-.375.172-.204.063-.47.11-.25.046-.53.062-.282.031-.563.031-.469 0-.875-.125-.406-.14-.703-.422-.297-.296-.484-.75-.172-.468-.172-1.109v-3.828h-1.844v-.938h1.844v-1.703h1.218z"/><path fill="#e67c73" d="M707.86 79.003q0-.188.047-.36.062-.171.171-.296.125-.125.297-.203.188-.079.422-.079.235 0 .406.079.188.078.297.203.125.125.188.297.062.171.062.359 0 .188-.062.36-.063.156-.188.28-.11.126-.297.188-.171.078-.406.078-.234 0-.422-.078-.172-.062-.297-.187-.109-.125-.171-.282-.047-.171-.047-.359zm0-6q0-.188.047-.36.062-.171.171-.296.125-.125.297-.203.188-.079.422-.079.235 0 .406.079.188.078.297.203.125.125.188.297.062.171.062.359 0 .188-.062.36-.063.156-.188.28-.11.126-.297.204-.171.062-.406.062-.234 0-.422-.062-.172-.078-.297-.203-.109-.125-.171-.282-.047-.171-.047-.359z"/><path fill="#db4437" d="M727.7 76.16q0 .906-.203 1.609-.203.687-.594 1.171-.39.485-.969.735-.562.234-1.297.234-.718 0-1.297-.234-.562-.25-.968-.734-.391-.485-.61-1.172-.203-.704-.203-1.61V73.94q0-.906.203-1.593.219-.703.61-1.188.39-.484.953-.734.578-.25 1.312-.25.719 0 1.282.25.578.25.968.734.407.485.61 1.188.203.687.203 1.594v2.218zm-4.922-.235l3.687-2.844q-.109-.937-.562-1.422-.438-.5-1.266-.5-.953 0-1.406.64-.453.641-.453 1.876v2.25zm3.719-1.688l-3.688 2.813q.11.922.563 1.406.453.484 1.265.484.969 0 1.407-.64.453-.656.453-1.89v-2.173z"/><path fill="#ff0" d="M784.594 84.984h47.99v16h-47.99v-16z"/><path fill="#673ab7" d="M660.889 93.925h-1.89v3.86h-1.204v-9.47h2.781q.672 0 1.25.188.594.172 1.032.531.437.344.687.875.25.531.25 1.25 0 .453-.14.844-.126.375-.36.687-.234.313-.562.563-.329.234-.72.406l2.016 4.047v.078h-1.28l-1.86-3.86zm-1.89-1h1.609q.406 0 .765-.125.36-.125.625-.344.281-.234.438-.562.156-.329.156-.75 0-.454-.156-.797-.157-.344-.422-.578-.266-.235-.64-.344-.36-.125-.798-.125h-1.578v3.625zm9.872 4.984q-.75 0-1.375-.25-.609-.25-1.062-.703-.438-.453-.688-1.078-.25-.625-.25-1.375v-.266q0-.859.266-1.53.281-.673.734-1.126.453-.469 1.032-.719.578-.25 1.187-.25.75 0 1.313.266.578.266.953.734.375.453.562 1.094.188.625.188 1.36v.546h-5.032q.032.485.188.907.172.421.453.734.297.312.688.5.406.172.906.172.64 0 1.14-.25.5-.266.829-.688l.734.563q-.172.265-.438.515-.265.25-.609.438-.344.187-.781.297-.438.11-.938.11zm-.156-6.312q-.375 0-.703.14-.313.125-.578.391-.266.25-.453.625-.172.375-.235.86h3.782v-.079q-.016-.36-.141-.703-.11-.344-.328-.61-.219-.28-.563-.452-.328-.172-.78-.172zm10.983 2.75q0 .75-.188 1.406-.187.656-.547 1.14-.343.47-.86.75-.515.266-1.17.266-.657 0-1.142-.203-.484-.203-.843-.594v3.375h-1.203v-9.75h1.093l.063.766q.36-.422.844-.656.5-.235 1.156-.235.687 0 1.203.266t.86.75q.359.469.546 1.14.188.657.188 1.438v.14zm-1.203-.14q0-.517-.125-.985-.11-.469-.344-.813-.235-.36-.61-.562-.359-.219-.859-.219-.594 0-.984.281-.39.266-.625.688v3.39q.234.422.625.688.39.25.984.25.5 0 .86-.203.374-.219.609-.563.234-.36.344-.828.125-.469.125-.984v-.14zm7.873-3.595q.172 0 .343.016.188 0 .344.031.172.016.313.047.14.031.234.078l-.172 1.172q-.344-.078-.656-.11-.313-.03-.656-.03-.86 0-1.39.39-.517.375-.767 1.063v4.515h-1.203v-7.047h1.141l.062 1.125q.438-.578 1.032-.906.61-.344 1.375-.344zm6.498 7.297q-.75 0-1.375-.25-.61-.25-1.063-.703-.437-.453-.687-1.078-.25-.625-.25-1.375v-.266q0-.859.266-1.53.28-.673.734-1.126.453-.469 1.031-.719.578-.25 1.188-.25.75 0 1.312.266.578.266.953.734.375.453.563 1.094.187.625.187 1.36v.546h-5.031q.031.485.188.907.171.421.453.734.297.312.687.5.406.172.906.172.641 0 1.141-.25.5-.266.828-.688l.735.563q-.172.265-.438.515t-.61.438q-.343.187-.78.297-.438.11-.938.11zm-.156-6.312q-.375 0-.703.14-.313.125-.579.391-.265.25-.453.625-.172.375-.234.86h3.781v-.079q-.015-.36-.14-.703-.11-.344-.329-.61-.218-.28-.562-.452-.328-.172-.781-.172zm9.717 4.312q0-.203-.094-.375-.078-.172-.281-.312-.204-.157-.532-.266-.328-.125-.828-.219-.61-.125-1.11-.297-.484-.187-.843-.421-.36-.25-.562-.579-.188-.328-.188-.765 0-.422.203-.797.203-.375.563-.656.375-.282.875-.438.5-.172 1.11-.172.655 0 1.171.172t.875.469q.375.297.562.703.204.39.204.86h-1.204q0-.235-.125-.454-.109-.218-.312-.375-.203-.172-.5-.28-.297-.11-.672-.11-.39 0-.687.093-.282.079-.47.22-.187.14-.296.343-.094.187-.094.39 0 .204.078.376.078.156.266.28.203.126.516.235.328.11.828.203.64.141 1.156.328.516.172.86.422.359.25.546.578.188.329.188.766 0 .469-.219.86-.203.374-.578.656-.375.265-.906.422-.532.14-1.157.14-.718 0-1.28-.187-.548-.188-.938-.5-.391-.328-.594-.735-.203-.422-.203-.875h1.203q.031.375.203.641.172.25.422.406.265.156.578.219.312.062.61.062.765 0 1.202-.28.454-.282.454-.75zm6.435 2q-.75 0-1.375-.25-.61-.25-1.062-.703-.438-.453-.688-1.078-.25-.625-.25-1.375v-.266q0-.859.266-1.53.281-.673.734-1.126.453-.469 1.032-.719.578-.25 1.187-.25.75 0 1.313.266.578.266.953.734.375.453.562 1.094.188.625.188 1.36v.546h-5.032q.032.485.188.907.172.421.453.734.297.312.688.5.406.172.906.172.64 0 1.14-.25.5-.266.829-.688l.734.563q-.172.265-.438.515-.265.25-.609.438-.344.187-.781.297-.438.11-.938.11zm-.156-6.312q-.375 0-.703.14-.313.125-.578.391-.266.25-.453.625-.172.375-.235.86h3.782v-.079q-.016-.36-.141-.703-.11-.344-.328-.61-.219-.28-.563-.452-.328-.172-.78-.172zm6.123-.86l.078 1.047q.391-.547.938-.86.562-.312 1.25-.312.562 0 1.015.157.454.156.766.484.328.328.5.844.172.515.172 1.218v4.47h-1.203v-4.438q0-.469-.11-.797-.109-.328-.312-.531-.203-.204-.5-.297-.297-.094-.688-.094-.593 0-1.062.312-.453.297-.719.797v5.047h-1.219v-7.047h1.094zm9.764-1.703v1.703h2.688v.938h-2.688v3.828q0 .406.094.672.11.265.297.437.187.157.422.22.234.062.5.062.203 0 .406-.016l.406-.063q.203-.03.375-.062.172-.047.281-.063l.172.844q-.156.094-.375.172-.203.063-.469.11-.25.046-.53.062-.282.031-.563.031-.47 0-.875-.125-.407-.14-.703-.422-.297-.297-.485-.75-.172-.468-.172-1.109v-3.828h-1.843v-.938h1.843v-1.703h1.219zm9.78 8.75q-.079-.14-.126-.344l-.062-.421q-.172.187-.406.343-.22.157-.5.282-.266.125-.578.187-.297.078-.641.078-.563 0-1.016-.156-.453-.156-.765-.438-.313-.28-.485-.656-.172-.39-.172-.828 0-.578.235-1.016.234-.437.656-.718.422-.297 1.016-.438.593-.14 1.328-.14h1.312v-.563q0-.312-.125-.562-.11-.266-.328-.438-.203-.172-.515-.266-.313-.109-.704-.109-.343 0-.64.094-.281.094-.485.25-.187.14-.296.344-.094.203-.094.421h-1.219q.016-.375.203-.75.188-.375.547-.671.36-.297.875-.47.531-.187 1.188-.187.593 0 1.109.157.516.14.89.437.376.297.579.734.218.438.218 1.032v3.281q0 .344.063.75.062.39.187.672v.11h-1.25zm-2.141-.922q.36 0 .656-.078.313-.094.563-.25.25-.156.421-.344.188-.187.297-.39v-1.438h-1.125q-1.047 0-1.64.313-.578.312-.578.984 0 .266.078.485.093.218.265.39.188.156.453.25.266.078.61.078zm8.357-7.828v1.703h2.688v.938h-2.688v3.828q0 .406.094.672.11.265.297.437.188.157.422.22.234.062.5.062.203 0 .406-.016l.406-.063q.204-.03.375-.062.172-.047.282-.063l.172.844q-.157.094-.375.172-.204.063-.47.11-.25.046-.53.062-.282.031-.563.031-.469 0-.875-.125-.406-.14-.703-.422-.297-.297-.484-.75-.172-.468-.172-1.109v-3.828h-1.844v-.938h1.844v-1.703h1.218zm5.342 1.703h3.594v6h2.297v1.047h-5.89v-1.047h2.39v-4.953h-2.39v-1.047zm2.235-1.843q0-.297.172-.5.187-.204.546-.204.36 0 .532.204.187.203.187.5 0 .296-.187.5-.172.187-.532.187-.359 0-.546-.187-.172-.204-.172-.5zm5.232 5.312q0-.766.219-1.422.219-.656.625-1.14.422-.485 1.016-.75.593-.282 1.328-.282.75 0 1.344.282.593.265 1 .75.421.484.64 1.14.235.656.235 1.422v.14q0 .75-.235 1.407-.219.656-.64 1.14-.407.47-1 .75-.579.266-1.329.266t-1.343-.265q-.594-.282-1.016-.75-.406-.485-.625-1.141-.219-.656-.219-1.406v-.14zm1.203.14q0 .516.125.985t.375.828q.25.36.625.578.375.203.875.203t.875-.203q.375-.218.625-.578t.375-.828q.125-.469.125-.984v-.14q0-.517-.14-.985-.125-.485-.375-.844-.25-.36-.625-.563-.375-.218-.875-.218t-.875.218q-.36.204-.61.563-.25.36-.375.844-.125.468-.125.984v.14zm8.217-3.609l.078 1.047q.391-.547.938-.86.562-.312 1.25-.312.562 0 1.016.157.453.156.765.484.328.328.5.844.172.515.172 1.218v4.47h-1.203v-4.438q0-.469-.11-.797-.109-.328-.312-.531-.203-.204-.5-.297-.297-.094-.687-.094-.594 0-1.063.312-.453.297-.719.797v5.047h-1.218v-7.047h1.093z"/><path fill="#e67c73" d="M771.832 97.003q0-.188.047-.36.063-.171.172-.296.125-.125.297-.203.187-.079.422-.079.234 0 .406.079.187.078.297.203.125.125.187.297.063.171.063.359 0 .188-.063.36-.062.156-.187.28-.11.126-.297.188-.172.078-.406.078-.235 0-.422-.078-.172-.062-.297-.187-.11-.125-.172-.282-.047-.171-.047-.359zm0-6q0-.188.047-.36.063-.171.172-.296.125-.125.297-.203.187-.079.422-.079.234 0 .406.079.187.078.297.203.125.125.187.297.063.171.063.359 0 .188-.063.36-.062.156-.187.28-.11.126-.297.204-.172.062-.406.062-.235 0-.422-.062-.172-.078-.297-.203-.11-.125-.172-.282-.047-.171-.047-.359z"/><path fill="#4285f4" d="M785.61 97.784v-9.469h2.187q.985 0 1.766.329.781.328 1.312.906.532.562.813 1.375.297.797.297 1.781v.688q0 .984-.297 1.796-.281.797-.813 1.376-.53.562-1.312.89-.781.328-1.766.328h-2.187zm1.218-8.484v7.5h.97q.765 0 1.327-.266.563-.265.922-.719.375-.453.547-1.062.188-.625.188-1.36v-.703q0-.718-.188-1.328-.187-.625-.547-1.078-.36-.453-.922-.703-.562-.266-1.328-.281h-.969zm6.561 4.906q0-.766.219-1.422.219-.656.625-1.14.422-.485 1.016-.75.593-.282 1.328-.282.75 0 1.343.282.594.265 1 .75.422.484.641 1.14.234.656.234 1.422v.14q0 .75-.234 1.407-.219.656-.64 1.14-.407.47-1 .75-.579.266-1.329.266t-1.343-.265q-.594-.282-1.016-.75-.406-.485-.625-1.141-.219-.656-.219-1.406v-.14zm1.203.14q0 .516.125.985t.375.828q.25.36.625.578.375.204.875.204t.875-.204q.375-.218.625-.578t.375-.828q.125-.469.125-.984v-.14q0-.516-.14-.985-.125-.485-.375-.844-.25-.36-.625-.563-.375-.218-.875-.218t-.875.219q-.36.203-.61.562-.25.36-.375.844-.125.469-.125.984v.14zm11.702 2.47q-.36.515-.891.812-.516.281-1.203.281-.563 0-1.016-.172-.437-.171-.765-.53-.313-.36-.485-.923-.172-.562-.172-1.36v-4.187h1.204v4.204q0 .578.093.953.094.375.266.609.187.219.453.313.266.078.61.078.734 0 1.187-.297.453-.297.672-.797v-5.063h1.203v7.047h-1.094l-.062-.969zm9.388-2.47q0 .75-.187 1.407-.172.656-.531 1.14-.344.47-.86.75-.515.266-1.187.266t-1.172-.234q-.5-.234-.86-.688l-.046.797h-1.11v-10h1.203v3.719q.344-.438.829-.656.484-.235 1.14-.235.672 0 1.188.266.53.266.875.75.36.469.53 1.14.188.657.188 1.438v.14zm-1.203-.14q0-.516-.11-.984-.093-.469-.312-.813-.218-.36-.578-.562-.36-.219-.875-.219-.312 0-.578.094-.25.078-.469.234-.203.14-.359.344-.156.187-.266.422V95.8q.11.234.266.437.172.188.375.344.219.156.469.234.265.079.578.079.484 0 .844-.204.36-.203.578-.546.234-.36.328-.813.11-.469.11-.984v-.14zm3.436-6.422h3.594v8.953h2.297v1.047h-5.891v-1.047h2.39v-7.906h-2.39v-1.047zm10.92 10.125q-.75 0-1.375-.25-.61-.25-1.062-.703-.438-.453-.688-1.078-.25-.625-.25-1.375v-.266q0-.859.266-1.53.28-.673.734-1.126.453-.469 1.031-.719.578-.25 1.188-.25.75 0 1.312.266.578.266.953.734.375.454.563 1.094.187.625.187 1.36v.546h-5.03q.03.485.187.907.172.421.453.734.297.313.687.5.407.172.907.172.64 0 1.14-.25.5-.266.828-.688l.735.563q-.172.266-.438.516-.265.25-.61.437-.343.188-.78.297-.438.11-.938.11zm-.156-6.312q-.375 0-.703.14-.313.125-.578.391-.266.25-.454.625-.171.375-.234.86h3.781v-.079q-.015-.36-.14-.703-.11-.344-.328-.61-.22-.28-.563-.452-.328-.172-.781-.172z"/><path fill="#e67c73" d="M661.967 105.94h-1.438v10.891h1.438v.985h-2.578v-12.86h2.578v.985zm7.998 0h-1.437v10.891h1.437v.985h-2.578v-12.86h2.578v.985z"/><path fill="#673ab7" d="M678.448 113.222l.718-6.906h1.141l-1.14 9.468h-1.235l-1.219-7.14-1.234 7.14h-1.234l-1.157-9.468h1.157l.718 6.906 1.22-6.906h1.046l1.219 6.906zm7.92-4.61q.172 0 .343.016.188 0 .344.031.172.016.313.047.14.031.234.078l-.172 1.172q-.344-.078-.656-.11-.313-.03-.656-.03-.86 0-1.39.39-.517.375-.767 1.063v4.515h-1.203v-7.047h1.141l.062 1.125q.438-.578 1.032-.906.61-.344 1.375-.344zm3.576.125h3.594v6h2.297v1.047h-5.891v-1.047h2.39v-4.953h-2.39v-1.047zm2.234-1.843q0-.297.172-.5.188-.203.547-.203.36 0 .531.203.188.203.188.5t-.188.5q-.171.187-.53.187-.36 0-.548-.187-.172-.203-.172-.5zm8.42.14v1.703h2.688v.938h-2.688v3.828q0 .406.094.672.11.266.297.437.188.157.422.22.234.062.5.062.203 0 .406-.016l.406-.062q.204-.032.375-.063.172-.047.282-.062l.172.843q-.157.094-.375.172-.204.063-.47.11-.25.046-.53.062-.282.031-.563.031-.469 0-.875-.125-.406-.14-.703-.422-.297-.296-.484-.75-.172-.468-.172-1.109v-3.828h-1.844v-.938h1.844v-1.703h1.218zm9.78 8.75q-.078-.14-.125-.343l-.063-.422q-.171.187-.406.343-.219.157-.5.282-.265.125-.578.187-.297.078-.64.078-.563 0-1.016-.156-.453-.156-.766-.437-.312-.282-.484-.657-.172-.39-.172-.828 0-.578.234-1.015.235-.438.657-.72.421-.296 1.015-.437.594-.14 1.328-.14h1.313v-.563q0-.312-.125-.562-.11-.266-.328-.438-.203-.172-.516-.265-.312-.11-.703-.11-.344 0-.64.094-.282.094-.485.25-.188.14-.297.344-.094.203-.094.422h-1.218q.015-.375.203-.75.187-.375.547-.672.359-.297.875-.47.53-.187 1.187-.187.594 0 1.11.157.515.14.89.437t.578.735q.219.437.219 1.03v3.282q0 .344.062.75.063.39.188.672v.11h-1.25zm-2.14-.922q.359 0 .656-.078.312-.093.562-.25.25-.156.422-.343.187-.188.297-.391v-1.438h-1.125q-1.047 0-1.64.313-.579.312-.579.984 0 .266.078.485.094.218.266.39.187.157.453.25.266.078.61.078zm11.466-2.515q0 .75-.187 1.406-.172.656-.532 1.14-.343.47-.859.75-.516.266-1.187.266-.672 0-1.172-.234-.5-.234-.86-.688l-.047.797h-1.109v-10h1.203v3.719q.344-.437.828-.656.485-.235 1.141-.235.672 0 1.187.266.532.266.875.75.36.469.532 1.14.187.657.187 1.438v.14zm-1.203-.14q0-.516-.11-.985-.093-.469-.312-.813-.219-.36-.578-.562-.36-.219-.875-.219-.312 0-.578.094-.25.078-.469.234-.203.14-.36.344-.155.187-.265.422v3.078q.11.234.266.437.172.188.375.344.219.156.469.235.265.078.578.078.484 0 .843-.203.36-.204.579-.547.234-.36.328-.813.11-.469.11-.984v-.14zm3.436-6.423h3.594v8.953h2.296v1.047h-5.89v-1.047h2.39v-7.906h-2.39v-1.047zm10.92 10.125q-.75 0-1.375-.25-.61-.25-1.063-.703-.437-.453-.687-1.078-.25-.625-.25-1.375v-.266q0-.859.265-1.53.282-.673.735-1.126.453-.469 1.031-.719.578-.25 1.188-.25.75 0 1.312.266.578.266.953.734.375.454.563 1.094.187.625.187 1.36v.546h-5.031q.031.485.187.907.172.422.454.734.296.313.687.5.406.172.906.172.64 0 1.14-.25.5-.266.83-.688l.733.563q-.171.266-.437.516t-.61.437q-.343.188-.78.297-.438.11-.938.11zm-.156-6.312q-.375 0-.704.14-.312.125-.578.391-.265.25-.453.625-.172.375-.234.86h3.781v-.079q-.016-.36-.14-.703-.11-.344-.329-.61-.218-.28-.562-.452-.328-.172-.781-.172z"/><path fill="#e67c73" d="M739.246 104.956h2.578v12.86h-2.578v-.985h1.437v-10.89h-1.437v-.985zm7.998 0h2.578v12.86h-2.578v-.985h1.437v-10.89h-1.437v-.985zm8.592 10.047q0-.187.047-.36.062-.171.172-.296.125-.125.296-.203.188-.078.422-.078.235 0 .407.078.187.078.296.203.125.125.188.297.062.172.062.359 0 .188-.062.36-.063.156-.188.28-.109.126-.296.188-.172.078-.407.078-.234 0-.422-.078-.171-.062-.296-.187-.11-.125-.172-.282-.047-.171-.047-.359zm0-6q0-.187.047-.36.062-.171.172-.296.125-.125.296-.203.188-.078.422-.078.235 0 .407.078.187.078.296.203.125.125.188.297.062.172.062.359 0 .188-.062.36-.063.156-.188.28-.109.126-.296.204-.172.062-.407.062-.234 0-.422-.062-.171-.078-.296-.203-.11-.125-.172-.282-.047-.171-.047-.359z"/><path fill="#4285f4" d="M772.582 107.034v1.703h2.688v.938h-2.688v3.828q0 .406.094.672.11.266.297.437.187.157.422.22.234.062.5.062.203 0 .406-.016l.406-.062q.203-.032.375-.063.172-.047.281-.062l.172.843q-.156.094-.375.172-.203.063-.468.11-.25.046-.532.062-.281.031-.562.031-.469 0-.875-.125-.406-.14-.703-.422-.297-.296-.485-.75-.172-.468-.172-1.109v-3.828h-1.843v-.938h1.843v-1.703h1.22zm9.764 1.578q.172 0 .344.016.187 0 .343.031.172.016.313.047.14.031.234.078l-.172 1.172q-.343-.078-.656-.11-.312-.03-.656-.03-.86 0-1.39.39-.516.375-.766 1.063v4.515h-1.203v-7.047h1.14l.063 1.125q.437-.578 1.03-.906.61-.344 1.376-.344zm7.951 6.204q-.36.515-.89.812-.516.281-1.204.281-.562 0-1.015-.172-.438-.171-.766-.53-.312-.36-.484-.923-.172-.562-.172-1.36v-4.187h1.203v4.204q0 .578.094.953t.265.609q.188.219.454.313.265.078.609.078.734 0 1.187-.297.454-.297.672-.797v-5.063h1.203v7.047h-1.093l-.063-.968zm6.545 1.093q-.75 0-1.375-.25-.61-.25-1.062-.703-.438-.453-.688-1.078-.25-.625-.25-1.375v-.266q0-.859.266-1.53.281-.673.734-1.126.453-.469 1.032-.719.578-.25 1.187-.25.75 0 1.313.266.578.266.953.734.375.454.562 1.094.188.625.188 1.36v.546h-5.032q.032.485.188.907.172.422.453.734.297.313.688.5.406.172.906.172.64 0 1.14-.25.5-.266.829-.688l.734.563q-.172.266-.438.516-.265.25-.609.437-.344.188-.781.297-.438.11-.938.11zm-.156-6.312q-.375 0-.703.14-.313.125-.578.391-.266.25-.453.625-.172.375-.235.86h3.782v-.079q-.016-.36-.141-.703-.11-.344-.328-.61-.219-.28-.563-.452-.328-.172-.781-.172z"/><path fill="#e67c73" d="M661.967 123.94h-1.438v10.891h1.438v.985h-2.578v-12.86h2.578v.985zm7.998 0h-1.437v10.891h1.437v.985h-2.578v-12.86h2.578v.985z"/><path fill="#673ab7" d="M678.963 129.41h-3.953v3.359h4.61v1.015h-5.813v-9.468h5.75v1.015h-4.547v3.047h3.953v1.031zm3.873-2.673l.079 1.047q.39-.547.937-.86.563-.312 1.25-.312.563 0 1.016.157.453.156.765.484.328.328.5.844.172.515.172 1.219v4.468h-1.203v-4.437q0-.469-.11-.797-.109-.328-.312-.531t-.5-.297q-.297-.094-.687-.094-.594 0-1.063.313-.453.296-.719.796v5.047h-1.218v-7.047h1.093zm11.483 6.079q-.36.515-.89.812-.516.281-1.204.281-.562 0-1.015-.172-.438-.171-.766-.53-.312-.36-.484-.923-.172-.562-.172-1.36v-4.187h1.203v4.204q0 .578.094.953.093.375.265.609.188.219.453.313.266.078.61.078.734 0 1.187-.297.453-.297.672-.797v-5.063h1.203v7.047h-1.093l-.063-.968zm3.983-6.079l.03.672q.22-.375.563-.578.344-.219.844-.219.969 0 1.297.75.203-.328.547-.53.344-.22.828-.22.781 0 1.187.485.422.469.422 1.422v5.265h-1.14v-5.265q0-.891-.813-.891-.219 0-.375.063-.156.062-.265.171-.094.094-.157.235-.062.125-.078.265v5.422h-1.156v-5.281q0-.422-.188-.64-.187-.235-.593-.235-.375 0-.594.156-.203.157-.297.39v5.61h-1.14v-7.047h1.078zm10.56 7.172q-.75 0-1.375-.25-.61-.25-1.062-.703-.438-.453-.688-1.078-.25-.625-.25-1.375v-.266q0-.859.266-1.53.281-.673.734-1.126.453-.469 1.032-.719.578-.25 1.187-.25.75 0 1.313.266.578.266.953.734.375.454.562 1.094.188.625.188 1.36v.546h-5.032q.032.485.188.907.172.422.453.734.297.313.688.5.406.172.906.172.64 0 1.14-.25.5-.266.829-.688l.734.563q-.172.266-.438.516-.265.25-.609.437-.344.188-.781.297-.438.11-.938.11zm-.156-6.312q-.375 0-.703.14-.313.125-.578.391-.266.25-.453.625-.172.375-.235.86h3.782v-.079q-.016-.36-.141-.703-.11-.344-.328-.61-.219-.28-.563-.452-.328-.172-.781-.172zm9.654-.985q.172 0 .344.016.188 0 .344.031.172.016.312.047.141.031.235.078l-.172 1.172q-.344-.078-.656-.11-.313-.03-.657-.03-.859 0-1.39.39-.516.375-.766 1.063v4.515h-1.203v-7.047h1.14l.063 1.125q.438-.578 1.031-.906.61-.344 1.375-.344zm8.014 7.172q-.078-.14-.125-.343-.031-.204-.062-.422-.172.187-.407.343-.218.157-.5.282-.265.125-.578.187-.297.078-.64.078-.563 0-1.016-.156-.453-.156-.766-.437-.312-.282-.484-.657-.172-.39-.172-.828 0-.578.235-1.015.234-.438.656-.72.422-.296 1.015-.437.594-.14 1.329-.14h1.312v-.563q0-.312-.125-.562-.11-.266-.328-.438-.203-.172-.516-.265-.312-.11-.703-.11-.344 0-.64.094-.282.094-.485.25-.187.14-.297.344-.093.203-.093.422h-1.22q.016-.375.204-.75.187-.375.547-.672.36-.297.875-.47.531-.187 1.187-.187.594 0 1.11.157.515.14.89.437t.578.735q.22.437.22 1.03v3.282q0 .344.062.75.062.39.187.672v.11h-1.25zm-2.14-.922q.359 0 .656-.078.312-.093.562-.25.25-.156.422-.343.188-.188.297-.391v-1.438h-1.125q-1.047 0-1.64.313-.579.312-.579.984 0 .266.078.485.094.218.266.39.188.157.453.25.266.078.61.078zm11.467-2.515q0 .75-.188 1.406-.172.656-.531 1.14-.344.47-.86.75-.515.266-1.187.266t-1.172-.234q-.5-.234-.86-.688l-.046.797h-1.11v-10h1.204v3.719q.343-.437.828-.656.484-.235 1.14-.235.672 0 1.188.266.531.266.875.75.36.469.531 1.14.188.657.188 1.438v.14zm-1.204-.14q0-.516-.109-.985-.094-.469-.312-.813-.22-.36-.579-.562-.359-.219-.875-.219-.312 0-.578.094-.25.078-.468.234-.204.14-.36.344-.156.187-.265.422v3.078q.109.234.265.437.172.188.375.344.219.156.469.235.266.078.578.078.484 0 .844-.203.36-.204.578-.547.234-.36.328-.813.11-.469.11-.984v-.14zm3.436-6.423h3.594v8.953h2.297v1.047h-5.89v-1.047h2.39v-7.906h-2.39v-1.047zm10.92 10.125q-.75 0-1.375-.25-.61-.25-1.062-.703-.438-.453-.688-1.078-.25-.625-.25-1.375v-.266q0-.859.266-1.53.281-.673.734-1.126.453-.469 1.031-.719.579-.25 1.188-.25.75 0 1.312.266.579.266.954.734.375.454.562 1.094.188.625.188 1.36v.546h-5.032q.032.485.188.907.172.422.453.734.297.313.687.5.407.172.907.172.64 0 1.14-.25.5-.266.828-.688l.735.563q-.172.266-.438.516-.265.25-.61.437-.343.188-.78.297-.438.11-.938.11zm-.156-6.312q-.375 0-.703.14-.313.125-.578.391-.266.25-.453.625-.172.375-.235.86h3.781v-.079q-.015-.36-.14-.703-.11-.344-.328-.61-.22-.28-.563-.452-.328-.172-.781-.172z"/><path fill="#e67c73" d="M755.242 122.956h2.578v12.86h-2.578v-.985h1.438v-10.89h-1.438v-.985zm7.998 0h2.578v12.86h-2.578v-.985h1.438v-10.89h-1.438v-.985zm8.592 10.047q0-.187.047-.36.063-.171.172-.296.125-.125.297-.203.187-.078.422-.078.234 0 .406.078.187.078.297.203.125.125.187.297.063.172.063.359 0 .188-.063.36-.062.156-.187.28-.11.126-.297.188-.172.078-.406.078-.235 0-.422-.078-.172-.062-.297-.187-.11-.125-.172-.282-.047-.171-.047-.359zm0-6q0-.187.047-.36.063-.171.172-.296.125-.125.297-.203.187-.078.422-.078.234 0 .406.078.187.078.297.203.125.125.187.297.063.172.063.359 0 .188-.063.36-.062.156-.187.28-.11.126-.297.204-.172.062-.406.062-.235 0-.422-.062-.172-.078-.297-.203-.11-.125-.172-.282-.047-.171-.047-.359z"/><path fill="#4285f4" d="M788.578 125.034v1.703h2.688v.938h-2.688v3.828q0 .406.094.672.11.266.297.437.188.157.422.22.234.062.5.062.203 0 .406-.016l.406-.062q.204-.032.375-.063.172-.047.282-.062l.172.843q-.157.094-.375.172-.204.063-.47.11-.25.046-.53.062-.282.031-.563.031-.469 0-.875-.125-.406-.14-.703-.422-.297-.296-.484-.75-.172-.468-.172-1.109v-3.828h-1.844v-.938h1.844v-1.703h1.218zm9.764 1.578q.172 0 .344.016.188 0 .344.031.172.016.312.047t.235.078l-.172 1.172q-.344-.078-.656-.11-.313-.03-.657-.03-.86 0-1.39.39-.516.375-.766 1.063v4.515h-1.203v-7.047h1.14l.063 1.125q.438-.578 1.031-.906.61-.344 1.375-.344zm7.952 6.204q-.36.515-.891.812-.516.281-1.203.281-.563 0-1.016-.172-.437-.171-.765-.53-.313-.36-.485-.923-.172-.562-.172-1.36v-4.187h1.204v4.204q0 .578.093.953.094.375.266.609.187.219.453.313.266.078.61.078.734 0 1.187-.297.453-.297.672-.797v-5.063h1.203v7.047h-1.094l-.062-.968zm6.545 1.093q-.75 0-1.375-.25-.61-.25-1.063-.703-.437-.453-.687-1.078-.25-.625-.25-1.375v-.266q0-.859.265-1.53.282-.673.735-1.126.453-.469 1.03-.719.58-.25 1.188-.25.75 0 1.313.266.578.266.953.734.375.454.563 1.094.187.625.187 1.36v.546h-5.031q.031.485.187.907.172.422.453.734.297.313.688.5.406.172.906.172.64 0 1.14-.25.5-.266.829-.688l.734.563q-.172.266-.437.516-.266.25-.61.437-.343.188-.78.297-.438.11-.938.11zm-.157-6.312q-.375 0-.703.14-.312.125-.578.391-.265.25-.453.625-.172.375-.234.86h3.78v-.079q-.015-.36-.14-.703-.11-.344-.328-.61-.219-.28-.562-.452-.328-.172-.782-.172z"/><path fill="#e67c73" d="M661.967 141.94h-1.438v10.891h1.438v.984h-2.578v-12.859h2.578v.984zm7.998 0h-1.437v10.891h1.437v.984h-2.578v-12.859h2.578v.984z"/><path fill="#673ab7" d="M679.885 148.94q-.078.657-.344 1.204-.25.546-.656.937-.406.39-.969.61-.546.218-1.234.218-.578 0-1.062-.156-.47-.172-.844-.453-.375-.297-.656-.688-.266-.406-.454-.875-.171-.468-.265-.984-.078-.516-.078-1.047v-1.312q0-.532.078-1.047.094-.516.265-.985.188-.468.454-.859.28-.406.656-.703.375-.297.844-.453.468-.172 1.062-.172.719 0 1.266.219.562.218.968.625.407.39.641.953.25.562.328 1.234h-1.203q-.062-.422-.203-.797-.14-.375-.39-.64-.235-.282-.579-.438-.344-.172-.828-.172-.422 0-.75.14-.328.141-.578.391-.234.235-.39.563-.157.313-.266.672-.094.344-.14.719-.032.375-.032.734v1.328q0 .36.031.734.047.375.14.735.11.36.266.687.157.313.391.563.25.234.562.375.329.14.766.14.484 0 .828-.14.344-.156.578-.422.25-.281.391-.64.14-.376.203-.798h1.203zm1.53-.734q0-.766.218-1.422.22-.656.625-1.14.422-.485 1.016-.75.594-.282 1.328-.282.75 0 1.344.282.594.265 1 .75.422.484.64 1.14.235.656.235 1.422v.14q0 .75-.235 1.407-.218.656-.64 1.14-.406.47-1 .75-.578.266-1.328.266-.75 0-1.344-.265-.594-.282-1.016-.75-.406-.485-.625-1.141-.218-.656-.218-1.406v-.14zm1.203.14q0 .516.125.985t.375.828q.25.36.625.578.375.203.875.203t.875-.203q.375-.218.625-.578t.375-.828q.125-.469.125-.984v-.14q0-.517-.14-.985-.126-.485-.376-.844-.25-.36-.625-.563-.375-.218-.875-.218t-.875.218q-.36.204-.61.563-.25.36-.374.844-.125.468-.125.984v.14zm8.217-3.609l.078 1.047q.39-.547.937-.86.563-.312 1.25-.312.563 0 1.016.157.453.156.766.484.328.328.5.844.171.515.171 1.218v4.47h-1.203v-4.438q0-.469-.11-.797-.108-.328-.312-.531-.203-.204-.5-.297-.296-.094-.687-.094-.594 0-1.063.313-.453.296-.718.796v5.047h-1.22v-7.047h1.095zm8.701 7.047v-6.11h-1.938v-.937h1.938v-.484q0-.688.203-1.188.203-.515.563-.859.359-.344.859-.516.516-.187 1.14-.187.438 0 .844.078.407.078.828.188l-.14.984q-.266-.094-.625-.156-.36-.063-.75-.063-.86 0-1.281.422-.422.422-.422 1.297v.484h2.718v.938h-2.718v6.11h-1.219zm6.41-7.047h3.595v6h2.297v1.047h-5.891v-1.047h2.39v-4.953h-2.39v-1.047zm2.235-1.843q0-.297.172-.5.188-.204.547-.204.36 0 .531.204.188.203.188.5 0 .296-.188.5-.172.187-.531.187-.36 0-.547-.187-.172-.204-.172-.5zm5.342 5.312q0-.781.188-1.437.203-.672.562-1.141.375-.484.89-.75.516-.266 1.173-.266.656 0 1.14.235.5.234.844.656l.063-.766h1.093v6.891q0 .703-.218 1.234-.22.547-.625.922-.391.375-.938.563-.547.203-1.203.203-.281 0-.64-.063-.344-.047-.704-.187t-.703-.375q-.328-.235-.562-.578l.625-.735q.218.266.453.453.234.188.468.297.25.11.485.157.25.062.484.062.422 0 .766-.125.36-.125.594-.375.25-.234.375-.594.14-.343.14-.797v-.609q-.36.406-.844.625-.468.203-1.109.203-.64 0-1.156-.265-.516-.282-.89-.75-.36-.485-.563-1.141-.188-.656-.188-1.406v-.14zm1.203.14q0 .516.11.985.11.453.343.813.235.343.579.546.359.204.875.204.312 0 .562-.079.25-.078.438-.203.203-.14.359-.328.156-.187.281-.422v-3.218q-.125-.235-.281-.407-.156-.187-.36-.312-.203-.14-.453-.219-.234-.078-.546-.078-.5 0-.86.219-.36.203-.594.562-.234.344-.343.813-.11.468-.11.984v.14zm11.592 2.47q-.36.515-.89.812-.516.281-1.203.281-.563 0-1.016-.172-.438-.172-.766-.53-.312-.36-.484-.923-.172-.562-.172-1.36v-4.187h1.203v4.203q0 .579.094.954t.266.609q.187.219.453.313.265.078.61.078.733 0 1.187-.297.453-.297.671-.797v-5.063h1.204v7.047h-1.094l-.063-.969zm8.045-6.204q.172 0 .344.016.188 0 .344.031.172.016.312.047.141.031.235.078l-.172 1.172q-.344-.078-.656-.11-.313-.03-.657-.03-.859 0-1.39.39-.516.375-.766 1.063v4.515h-1.203v-7.047h1.14l.063 1.125q.438-.578 1.031-.906.61-.344 1.375-.344zm8.014 7.172q-.078-.14-.125-.344-.031-.203-.062-.421-.172.187-.407.343-.218.157-.5.282-.265.125-.578.187-.297.078-.64.078-.563 0-1.016-.156-.453-.156-.766-.438-.312-.28-.484-.656-.172-.39-.172-.828 0-.578.235-1.016.234-.437.656-.718.422-.297 1.015-.438.594-.14 1.329-.14h1.312v-.563q0-.312-.125-.562-.11-.266-.328-.438-.203-.172-.516-.266-.312-.109-.703-.109-.344 0-.64.094-.282.094-.485.25-.187.14-.297.344-.093.203-.093.421h-1.22q.016-.375.204-.75.187-.375.547-.671.36-.297.875-.47.531-.187 1.187-.187.594 0 1.11.157.515.14.89.437t.578.734q.22.438.22 1.032v3.281q0 .344.062.75.062.39.187.672v.11h-1.25zm-2.14-.922q.359 0 .656-.078.312-.094.562-.25.25-.156.422-.344.188-.187.297-.39v-1.438h-1.125q-1.047 0-1.64.313-.579.312-.579.984 0 .266.078.485.094.218.266.39.188.156.453.25.266.078.61.078zm11.466-2.515q0 .75-.187 1.406-.172.656-.531 1.14-.344.47-.86.75-.515.266-1.187.266t-1.172-.234q-.5-.235-.86-.688l-.046.797h-1.11v-10h1.203v3.719q.344-.438.829-.656.484-.235 1.14-.235.672 0 1.188.266.53.266.875.75.36.469.53 1.14.188.657.188 1.438v.14zm-1.203-.14q0-.517-.11-.985-.093-.469-.312-.813-.218-.36-.578-.562-.36-.219-.875-.219-.312 0-.578.094-.25.078-.469.234-.203.14-.359.344-.156.187-.266.422v3.078q.11.234.266.437.172.188.375.344.219.156.469.234.265.079.578.079.484 0 .844-.204.36-.203.578-.546.234-.36.328-.813.11-.469.11-.984v-.14zm3.436-6.423h3.594v8.953h2.297v1.047h-5.891v-1.047h2.39v-7.906h-2.39v-1.047zm10.92 10.125q-.75 0-1.375-.25-.61-.25-1.062-.703-.438-.453-.688-1.078-.25-.625-.25-1.375v-.266q0-.859.266-1.53.281-.673.734-1.126.453-.469 1.031-.719.578-.25 1.188-.25.75 0 1.312.266.578.266.953.734.375.453.563 1.094.187.625.187 1.36v.546h-5.03q.03.485.187.907.172.421.453.734.297.313.687.5.407.172.907.172.64 0 1.14-.25.5-.266.828-.688l.735.563q-.172.265-.438.515-.265.25-.61.438-.343.188-.78.297-.438.11-.938.11zm-.156-6.312q-.375 0-.703.14-.313.125-.578.391-.266.25-.454.625-.171.375-.234.86h3.781v-.079q-.015-.36-.14-.703-.11-.344-.328-.61-.22-.28-.563-.452-.328-.172-.781-.172z"/><path fill="#e67c73" d="M771.245 140.956h2.578v12.86h-2.578v-.985h1.437v-10.89h-1.437v-.985zm7.998 0h2.578v12.86h-2.578v-.985h1.438v-10.89h-1.438v-.985zm8.592 10.047q0-.187.047-.36.062-.171.172-.296.125-.125.297-.203.187-.078.422-.078.234 0 .406.078.187.078.297.203.125.125.187.297.063.172.063.359 0 .188-.063.36-.062.156-.187.28-.11.126-.297.188-.172.078-.406.078-.235 0-.422-.078-.172-.062-.297-.187-.11-.125-.172-.282-.047-.171-.047-.359zm0-6q0-.187.047-.36.062-.171.172-.296.125-.125.297-.203.187-.078.422-.078.234 0 .406.078.187.078.297.203.125.125.187.297.063.172.063.359 0 .188-.063.36-.062.156-.187.28-.11.126-.297.204-.172.062-.406.062-.235 0-.422-.062-.172-.078-.297-.203-.11-.125-.172-.282-.047-.171-.047-.359z"/><path fill="#4285f4" d="M804.581 143.034v1.703h2.688v.938h-2.688v3.828q0 .406.094.672.11.266.297.437.187.157.422.22.234.062.5.062.203 0 .406-.016l.406-.062q.203-.032.375-.063.172-.047.282-.062l.171.843q-.156.094-.375.172-.203.063-.468.11-.25.046-.532.062-.28.031-.562.031-.469 0-.875-.125-.406-.14-.703-.422-.297-.296-.485-.75-.171-.468-.171-1.109v-3.828h-1.844v-.938h1.844v-1.703h1.218zm9.764 1.578q.172 0 .344.016.187 0 .344.031.172.016.312.047t.235.078l-.172 1.172q-.344-.078-.657-.11-.312-.03-.656-.03-.86 0-1.39.39-.516.375-.766 1.063v4.515h-1.203v-7.047h1.14l.063 1.125q.437-.578 1.031-.906.61-.344 1.375-.344zm7.952 6.204q-.36.515-.891.812-.516.281-1.203.281-.563 0-1.016-.172-.437-.171-.765-.53-.313-.36-.485-.923-.172-.562-.172-1.36v-4.187h1.203v4.204q0 .578.094.953t.266.609q.187.219.453.313.266.078.61.078.734 0 1.187-.297.453-.297.672-.797v-5.063h1.203v7.047h-1.094l-.062-.968zm6.545 1.093q-.75 0-1.375-.25-.61-.25-1.063-.703-.437-.453-.687-1.078-.25-.625-.25-1.375v-.266q0-.859.265-1.53.281-.673.735-1.126.453-.469 1.03-.719.579-.25 1.188-.25.75 0 1.313.266.578.266.953.734.375.454.562 1.094.188.625.188 1.36v.546h-5.031q.03.485.187.907.172.422.453.734.297.313.688.5.406.172.906.172.64 0 1.14-.25.5-.266.829-.688l.734.563q-.172.266-.437.516-.266.25-.61.437-.343.188-.78.297-.438.11-.938.11zm-.157-6.312q-.375 0-.703.14-.312.125-.578.391-.266.25-.453.625-.172.375-.234.86h3.78v-.079q-.015-.36-.14-.703-.11-.344-.328-.61-.219-.28-.562-.452-.329-.172-.782-.172z"/><path fill="#ff9800" d="M426.147 46.634c0-6.282 5.093-11.375 11.376-11.375H579.59a11.375 11.375 0 0 1 11.376 11.375v45.5c0 6.283-5.093 11.376-11.376 11.376H437.523c-6.283 0-11.376-5.093-11.376-11.375z" fill-rule="evenodd"/><path stroke="#666" stroke-linejoin="round" stroke-linecap="butt" d="M426.147 46.634h0c0-6.282 5.093-11.375 11.376-11.375H579.59a11.375 11.375 0 0 1 11.376 11.375v45.5c0 6.283-5.093 11.376-11.376 11.376H437.523c-6.283 0-11.376-5.093-11.376-11.375z"/><path fill="#fff" d="M480.112 74.031q0-.5-.187-.937-.172-.453-.594-.828-.422-.39-1.11-.703-.671-.328-1.687-.594-1.234-.344-2.36-.844-1.124-.515-1.983-1.219-.86-.718-1.375-1.671-.516-.954-.516-2.188 0-1.203.5-2.172.516-.984 1.406-1.672.906-.687 2.125-1.062 1.219-.375 2.656-.375 1.485 0 2.704.437 1.234.422 2.125 1.203.89.782 1.375 1.844.5 1.063.5 2.344h-3.563q-.031-.64-.234-1.172-.203-.531-.61-.906-.39-.39-.984-.61-.578-.218-1.375-.218-.734 0-1.297.187-.562.172-.953.485-.39.312-.594.75-.203.437-.203.953 0 .53.266.968.265.422.765.766.516.344 1.235.64.718.282 1.64.516 1.297.39 2.39.938 1.095.547 1.876 1.297.797.734 1.234 1.703.438.953.438 2.125 0 1.25-.516 2.219-.5.968-1.39 1.64-.875.672-2.094 1.016-1.219.344-2.672.344-.89 0-1.781-.172-.89-.157-1.72-.485-.812-.343-1.515-.843-.703-.516-1.218-1.188-.5-.687-.797-1.547-.297-.86-.297-1.906h3.594q.03.86.296 1.484.282.61.766 1 .484.39 1.172.578.687.172 1.5.172.734 0 1.297-.172.562-.171.953-.468.39-.297.594-.72.218-.421.218-.937zm9.903-7.187q.703-1.031 1.703-1.61 1.016-.593 2.266-.593 1.11 0 2.031.344.922.328 1.578 1.03.672.688 1.047 1.798.375 1.093.375 2.64v8.532h-3.625v-8.547q0-.766-.187-1.313-.188-.547-.547-.875-.344-.344-.844-.5-.484-.172-1.11-.172-.921 0-1.593.328-.656.329-1.094.907v10.172h-3.625v-20h3.625v7.859zm21.184 12.14q-.14-.265-.234-.593-.079-.344-.157-.719-.297.328-.687.61-.39.28-.875.5-.469.218-1.047.343-.563.125-1.219.125-1.078 0-1.984-.312-.906-.313-1.563-.875-.656-.563-1.015-1.328-.36-.782-.36-1.688 0-2.234 1.657-3.453 1.656-1.219 4.953-1.219h2.015v-.828q0-1.016-.672-1.61-.656-.593-1.906-.593-1.11 0-1.625.484-.5.469-.5 1.266h-3.61q0-.906.391-1.703.407-.813 1.157-1.422.765-.61 1.859-.969 1.11-.36 2.531-.36 1.266 0 2.36.313 1.109.313 1.906.922.812.61 1.265 1.547.47.922.47 2.156v6.032q0 1.14.14 1.89.14.735.406 1.266v.219H511.2zm-3.453-2.53q.547 0 1.015-.126.47-.14.844-.343.375-.22.64-.485.282-.265.438-.531v-2.422h-1.843q-.844 0-1.454.156-.593.157-.968.453-.375.297-.563.704-.187.406-.187.89 0 .735.515 1.219.516.484 1.563.484zm23.293-4.376q0 1.532-.36 2.844-.359 1.313-1.062 2.281-.687.953-1.719 1.5-1.015.547-2.343.547-1.141 0-2-.39-.86-.391-1.5-1.094v6.64h-3.61v-19.5h3.344l.125 1.375q.656-.78 1.531-1.203.89-.437 2.078-.437 1.344 0 2.36.515 1.031.516 1.734 1.47.703.937 1.063 2.265.359 1.312.359 2.906v.281zm-3.61-.281q0-.875-.171-1.656-.156-.781-.5-1.344-.344-.562-.89-.89-.548-.329-1.313-.329-.953 0-1.563.375-.594.375-.937 1.047v5.89q.343.657.937 1.063.61.39 1.594.39.766 0 1.297-.327.547-.344.89-.922.344-.594.5-1.375.157-.781.157-1.64v-.282zm13.794 7.453q-1.625 0-2.953-.531-1.328-.547-2.282-1.453-.953-.922-1.468-2.156-.516-1.25-.516-2.672v-.516q0-1.625.5-2.953.516-1.328 1.422-2.297.922-.969 2.172-1.5t2.719-.531q1.515 0 2.703.5 1.203.5 2.031 1.422.828.906 1.25 2.187.437 1.281.437 2.828v1.532h-9.562q.11.718.422 1.312.328.594.812 1.031.5.422 1.141.657.64.234 1.39.234.532 0 1.063-.094.531-.11 1-.312.484-.203.906-.5.422-.313.735-.703l1.797 1.953q-.329.468-.875.937-.532.469-1.282.828-.734.344-1.64.563-.89.234-1.922.234zm-.438-11.687q-.609 0-1.125.218-.5.22-.89.625-.375.407-.64.97-.25.546-.392 1.234h5.938v-.282q-.016-.578-.219-1.078-.187-.515-.562-.875-.36-.375-.89-.594-.532-.218-1.22-.218z"/><path fill="#bdbdbd" d="M437.155 103.689h142.582v59.716H437.155z" fill-rule="evenodd"/><path stroke="#666" stroke-linejoin="round" stroke-linecap="butt" d="M437.155 103.689h142.582v59.716H437.155z"/><path fill="#000" d="M494.499 125.384l-.25 4.312h-1.61v-5.609h1.86v1.297zm14.027 8.719l3.39-4.703h2.532l-4.719 6.28 4.86 6.407h-2.516l-3.5-4.828-3.5 4.828h-2.531l4.843-6.406-4.718-6.281h2.5l3.359 4.703zm14.777-8.719l-.25 4.312h-1.61v-5.609h1.86v1.297z"/><path d="M552 140l88.787-46.016"/><path stroke="#666" stroke-width="4" stroke-linejoin="round" stroke-linecap="butt" d="M565.46 133.024l54.02-27.996"/><path fill="#666" stroke="#666" stroke-width="4" stroke-linecap="butt" d="M553.776 139.08a6.58 6.58 0 1 1 11.684-6.056 6.58 6.58 0 0 1-11.684 6.056z"/><path fill="#666" stroke="#666" stroke-width="4" stroke-linecap="butt" d="M622.52 110.894l13.076-14.219-19.157 2.487z" fill-rule="evenodd"/><path fill="#bdbdbd" d="M36.621 280.43h163.496v59.716H36.621z" fill-rule="evenodd"/><path stroke="#666" stroke-linejoin="round" stroke-linecap="butt" d="M36.621 280.43h163.496v59.716H36.621z"/><path d="M212.976 246.126c53.293 0 79.94-44.189 106.585-88.378 26.646-44.189 53.29-88.378 106.58-88.378"/><path stroke="#595959" stroke-width="4" stroke-linejoin="round" stroke-linecap="butt" d="M212.976 246.126c53.293 0 79.94-44.189 106.585-88.378 13.323-22.094 26.646-44.189 43.299-60.76 8.326-8.285 17.486-15.19 27.894-20.023a80.652 80.652 0 0 1 11.193-4.222l.416-.12"/><path fill="#595959" stroke="#595959" stroke-width="4" stroke-linecap="butt" d="M403.259 79.17l17.09-9.007-18.881-4.085z" fill-rule="evenodd"/><path fill="#673ab7" d="M371.024 271.376c0-6.283 5.093-11.376 11.375-11.376h166.225A11.375 11.375 0 0 1 560 271.376v45.5c0 6.283-5.093 11.376-11.376 11.376H382.4c-6.282 0-11.375-5.093-11.375-11.376z" fill-rule="evenodd"/><path stroke="#666" stroke-linejoin="round" stroke-linecap="butt" d="M371.024 271.376h0c0-6.283 5.093-11.376 11.375-11.376h166.225A11.375 11.375 0 0 1 560 271.376v45.5c0 6.283-5.093 11.376-11.376 11.376H382.4c-6.282 0-11.375-5.093-11.375-11.376z"/><path fill="#fff" d="M420.682 271.103l1.625 6.407 1.828-6.406h4.094v17.062h-3.016v-5.047l.14-7.984-2.25 7.406h-1.624l-2-7.094.14 7.672v5.047h-3.031v-17.063h4.094zm18.558 15.282q-.64.953-1.547 1.5-.906.531-1.984.531-.984 0-1.812-.297-.813-.312-1.407-.969-.578-.671-.906-1.687-.312-1.031-.312-2.485v-7.5h3.25v7.532q0 .765.109 1.297.11.53.36.859.25.313.64.453.406.14.984.14.97 0 1.578-.359.61-.375.922-1.015v-8.906h3.266v12.687h-2.953l-.188-1.781zm12.293-14v3.094h4.735v2.406h-4.735v5.453q0 .687.157 1.156.171.453.453.734.297.282.703.407.422.11.937.11.375 0 .766-.032.406-.047.75-.094.36-.062.672-.11.312-.062.531-.124l.328 2.234q-.344.203-.812.36-.453.14-.97.234-.515.094-1.077.14-.547.063-1.078.063-1.047 0-1.907-.281-.843-.281-1.453-.86-.593-.578-.922-1.468-.328-.907-.328-2.157v-5.765h-2.89v-2.406h2.89v-3.094h3.25zm16.356 15.781q-.125-.234-.203-.531-.078-.313-.141-.656-.266.296-.625.562-.344.25-.781.453-.422.188-.938.297-.515.11-1.11.11-.968 0-1.796-.282-.812-.281-1.406-.781-.578-.516-.906-1.203-.329-.703-.329-1.516 0-2.016 1.5-3.11 1.5-1.093 4.454-1.093h1.828v-.75q0-.906-.61-1.438-.593-.546-1.718-.546-1 0-1.454.437-.453.422-.453 1.14h-3.265q0-.812.359-1.53.36-.735 1.047-1.282.687-.547 1.672-.875 1-.328 2.265-.328 1.157 0 2.141.281 1 .282 1.719.844.734.547 1.14 1.39.407.829.407 1.938v5.438q0 1.015.125 1.687.14.656.375 1.14v.204h-3.297zm-3.11-2.281q.5 0 .922-.11.422-.125.75-.312.344-.188.594-.422.25-.25.39-.5v-2.172h-1.671q-.766 0-1.313.14-.531.141-.875.407-.328.266-.5.64-.156.36-.156.798 0 .656.453 1.093.469.438 1.406.438zm21.012-3.938q0 1.422-.312 2.61-.313 1.187-.938 2.046-.61.844-1.547 1.329-.922.468-2.14.468-1.125 0-1.938-.406-.812-.422-1.39-1.172l-.157 1.344h-2.937v-18h3.265v6.469q.563-.656 1.328-1.016.766-.375 1.797-.375 1.25 0 2.172.484.938.485 1.547 1.344.625.844.938 2.047.312 1.188.312 2.594v.234zm-3.25-.234q0-.781-.125-1.469-.11-.687-.406-1.203-.281-.531-.781-.828-.485-.313-1.22-.313-.89 0-1.452.375-.563.375-.86 1.032v5.046q.297.657.86 1.032.562.375 1.468.375.735 0 1.22-.281.484-.297.765-.797.297-.516.406-1.204.125-.703.125-1.53v-.235zm6.902-11.547h7.094v15.344h3.64v2.656h-10.734v-2.656h3.797v-12.688h-3.797v-2.656zM509.33 288.4q-1.469 0-2.672-.484-1.187-.484-2.047-1.297-.859-.828-1.328-1.953-.453-1.125-.453-2.39v-.47q0-1.452.453-2.656.469-1.203 1.282-2.062.828-.875 1.953-1.36 1.125-.484 2.437-.484 1.375 0 2.438.453 1.078.453 1.828 1.281.75.813 1.125 1.97.39 1.156.39 2.546v1.39h-8.593q.093.641.375 1.173.28.53.718.921.454.391 1.032.61.578.203 1.25.203.484 0 .953-.094.484-.094.906-.281.438-.188.813-.453.375-.266.656-.625l1.64 1.75q-.312.437-.796.86-.485.406-1.157.734-.656.312-1.468.515-.797.203-1.735.203zm-.39-10.515q-.547 0-1.016.203-.453.187-.797.547-.344.36-.578.875-.234.5-.36 1.125h5.344v-.266q-.015-.516-.203-.969-.172-.453-.5-.78-.328-.345-.797-.532-.468-.203-1.093-.203zm-102.643 39.281h-3.25v-7.39h-4.828v7.39h-3.281v-17.063h3.28v7h4.829v-7h3.25v17.063zm9.418.234q-1.469 0-2.672-.484-1.187-.484-2.047-1.297-.86-.828-1.328-1.953-.453-1.125-.453-2.39v-.47q0-1.452.453-2.656.469-1.203 1.281-2.062.828-.875 1.953-1.36 1.125-.484 2.438-.484 1.375 0 2.437.453 1.079.453 1.829 1.281.75.813 1.125 1.97.39 1.156.39 2.546v1.39h-8.594q.094.641.375 1.173.282.53.72.921.452.391 1.03.61.579.203 1.25.203.485 0 .954-.094.484-.094.906-.281.437-.188.812-.453.375-.266.657-.625l1.64 1.75q-.312.437-.797.86-.484.406-1.156.734-.656.312-1.469.515-.797.203-1.734.203zm-.39-10.515q-.548 0-1.016.203-.453.187-.797.547-.344.36-.578.875-.235.5-.36 1.125h5.344v-.266q-.016-.516-.203-.969-.172-.453-.5-.78-.328-.345-.797-.532-.469-.203-1.094-.203zm16.558 10.281q-.125-.234-.203-.531-.078-.313-.14-.656-.266.296-.626.562-.344.25-.781.453-.422.188-.938.297-.515.11-1.109.11-.969 0-1.797-.282-.812-.281-1.406-.781-.578-.516-.906-1.203-.328-.703-.328-1.516 0-2.016 1.5-3.11 1.5-1.093 4.453-1.093h1.828v-.75q0-.906-.61-1.438-.593-.546-1.718-.546-1 0-1.453.437-.454.422-.454 1.14h-3.265q0-.812.36-1.53.359-.735 1.046-1.282.688-.547 1.672-.875 1-.328 2.266-.328 1.156 0 2.14.281 1 .282 1.719.844.734.547 1.14 1.39.407.829.407 1.938v5.438q0 1.015.125 1.687.14.656.375 1.14v.204h-3.297zm-3.11-2.281q.5 0 .922-.11.422-.125.75-.312.344-.188.594-.422.25-.25.39-.5v-2.172h-1.671q-.766 0-1.313.14-.53.141-.875.407-.328.266-.5.64-.156.36-.156.798 0 .656.453 1.093.469.438 1.407.438zm20.981-3.938q0 1.375-.328 2.563-.313 1.187-.953 2.047-.625.859-1.547 1.359-.922.484-2.125.484-1.016 0-1.797-.343-.766-.36-1.344-1v5.984h-3.25v-17.563h3.016l.11 1.25q.593-.703 1.39-1.093.797-.39 1.86-.39 1.202 0 2.124.468.938.469 1.563 1.312.64.844.953 2.047.328 1.188.328 2.625v.25zm-3.266-.25q0-.797-.14-1.484-.14-.703-.453-1.219-.313-.516-.797-.797-.485-.297-1.188-.297-.843 0-1.39.344-.547.328-.86.938v5.296q.313.594.86.954.547.359 1.422.359.687 0 1.171-.297.485-.312.782-.844.312-.53.453-1.218.14-.704.14-1.485v-.25zm17.403 6.469h-3.282l-4.734-11v11h-3.328v-17.063h3.328l4.703 10.954.016-10.954h3.297v17.063zm11.355-1.781q-.64.953-1.547 1.5-.906.531-1.984.531-.984 0-1.813-.297-.812-.312-1.406-.969-.578-.671-.906-1.687-.313-1.031-.313-2.485v-7.5h3.25v7.532q0 .765.11 1.297.11.53.36.859.25.313.64.453.406.14.984.14.969 0 1.578-.359.61-.375.922-1.015v-8.906h3.266v12.687h-2.953l-.188-1.781zm8.356-10.906l.093 1.546q.36-.828 1-1.296.641-.485 1.547-.485 1.532 0 2 1.36.375-.641.953-1 .594-.36 1.407-.36.578 0 1.078.219.5.203.86.672.374.469.577 1.203.203.719.203 1.781v9.047h-2.968v-9.063q0-.359-.078-.593-.063-.235-.204-.36-.125-.14-.296-.187-.172-.063-.344-.063-.344 0-.578.157-.235.156-.36.421v9.688h-2.875v-9.078q0-.36-.078-.594-.062-.234-.187-.36-.11-.124-.282-.171-.156-.063-.343-.063-.375 0-.61.22-.234.202-.36.546v9.5h-2.968v-12.688h2.813zm23.793 6.468q0 1.422-.313 2.61-.312 1.187-.937 2.046-.61.844-1.547 1.329-.922.468-2.14.468-1.126 0-1.938-.406-.813-.422-1.391-1.172l-.156 1.344h-2.938v-18h3.266v6.469q.562-.656 1.328-1.016.766-.375 1.797-.375 1.25 0 2.172.484.937.485 1.547 1.344.625.844.937 2.047.313 1.188.313 2.594v.234zm-3.25-.234q0-.781-.125-1.469-.11-.687-.407-1.203-.28-.531-.78-.828-.485-.313-1.22-.313-.89 0-1.453.375-.562.375-.86 1.032v5.046q.298.657.86 1.032.563.375 1.469.375.734 0 1.219-.281.484-.297.765-.797.297-.516.407-1.204.125-.703.125-1.53v-.235zm12.386 6.687q-1.468 0-2.671-.484-1.188-.484-2.047-1.297-.86-.828-1.329-1.953-.453-1.125-.453-2.39v-.47q0-1.452.453-2.656.47-1.203 1.282-2.062.828-.875 1.953-1.36 1.125-.484 2.437-.484 1.375 0 2.438.453 1.078.453 1.828 1.281.75.813 1.125 1.97.39 1.156.39 2.546v1.39h-8.593q.094.641.375 1.173.281.53.719.921.453.391 1.03.61.579.203 1.25.203.485 0 .954-.094.484-.094.906-.281.438-.188.813-.453.375-.266.656-.625l1.64 1.75q-.312.437-.796.86-.485.406-1.156.734-.657.312-1.47.515-.796.203-1.734.203zm-.39-10.515q-.547 0-1.016.203-.453.187-.797.547-.343.36-.578.875-.234.5-.36 1.125h5.345v-.266q-.016-.516-.204-.969-.171-.453-.5-.78-.328-.345-.796-.532-.47-.203-1.094-.203zm17.746-2.64q.734 0 1.36.108.624.094 1.015.22l-.485 3.234q-.64-.141-1.312-.22-.672-.077-1.281-.077-1.375 0-2.203.531-.829.516-1.235 1.5v7.625h-3.265v-12.688h3.046l.141 2.079q.781-1.079 1.86-1.688 1.078-.625 2.359-.625z"/><path fill="#bdbdbd" d="M384 328.283h163.496V388H384z" fill-rule="evenodd"/><path stroke="#666" stroke-linejoin="round" stroke-linecap="butt" d="M384 328.283h163.496V388H384z"/><path fill="#000" d="M453.223 366.682h-2.172v-14.297l-4.469 1.703v-1.984l6.453-2.485h.188v17.063zm11.136-1.407q0-.359.11-.656.11-.312.312-.531.219-.234.532-.36.328-.124.75-.124.421 0 .734.125.328.125.547.359.219.219.328.531.11.297.11.656 0 .344-.11.641-.11.297-.328.516-.219.218-.547.343-.313.125-.734.125-.422 0-.75-.125-.313-.125-.532-.343-.203-.219-.312-.516-.11-.297-.11-.64zm13.168-8.171h1.547q.813 0 1.438-.22.625-.218 1.047-.609.437-.39.656-.921.234-.547.234-1.188 0-1.484-.765-2.234-.766-.766-2.235-.766-.687 0-1.265.203-.563.203-.97.594-.39.39-.624.937-.219.532-.219 1.188H474.2q0-.969.375-1.828.375-.86 1.063-1.5.703-.64 1.672-1 .968-.375 2.14-.375 1.156 0 2.094.312.953.313 1.625.922.687.61 1.062 1.516.375.89.375 2.078 0 .484-.156 1.016-.14.53-.469 1.03-.312.5-.812.938-.484.438-1.188.735.844.265 1.391.703.563.422.89.969.344.53.47 1.14.14.594.14 1.172 0 1.203-.422 2.125-.406.922-1.14 1.563-.72.64-1.704.984-.984.328-2.14.328-1.125 0-2.125-.312-.985-.329-1.719-.938-.719-.61-1.14-1.484-.422-.875-.422-2h2.156q0 .672.234 1.218.235.547.656.938.422.39 1.016.61.61.202 1.344.202.734 0 1.328-.187.61-.203 1.031-.594.422-.406.64-1 .235-.594.235-1.406 0-.797-.265-1.375-.266-.578-.735-.953-.469-.39-1.156-.578-.672-.188-1.469-.188h-1.547v-1.765z"/><path d="M112 307.984c64.756 0 97.134-3.464 129.512-6.929 32.378-3.464 64.756-6.929 129.512-6.929"/><path stroke="#666" stroke-width="4" stroke-linejoin="round" stroke-linecap="butt" d="M127.16 307.917l2.226-.021c1.842-.02 3.657-.042 5.443-.067 7.146-.102 13.85-.25 20.173-.44 12.648-.38 23.778-.92 33.896-1.57 20.236-1.3 36.425-3.032 52.614-4.764 16.189-1.732 32.378-3.464 52.614-4.764 10.118-.65 21.248-1.19 33.896-1.57a1214.584 1214.584 0 0 1 17.514-.4l1.488-.022"/><path fill="#666" stroke="#666" stroke-width="4" stroke-linecap="butt" d="M114 307.975a6.58 6.58 0 1 1 13.16-.058 6.58 6.58 0 0 1-13.16.058z"/><path fill="#666" stroke="#666" stroke-width="4" stroke-linecap="butt" d="M347.072 300.906l18.104-6.738-18.2-6.475z" fill-rule="evenodd"/><path fill="#34a853" d="M24 223.376C24 217.093 29.093 212 35.376 212H201.6a11.376 11.376 0 0 1 11.375 11.376v45.5c0 6.283-5.093 11.376-11.375 11.376H35.376c-6.283 0-11.376-5.093-11.376-11.376z" fill-rule="evenodd"/><path stroke="#666" stroke-linejoin="round" stroke-linecap="butt" d="M24 223.376h0C24 217.093 29.093 212 35.376 212H201.6a11.376 11.376 0 0 1 11.375 11.376v45.5c0 6.283-5.093 11.376-11.375 11.376H35.376c-6.283 0-11.376-5.093-11.376-11.376z"/><path fill="#fff" d="M53.948 236.773h3.656l.016 13.14q-.016 1.344-.516 2.47-.5 1.109-1.375 1.921-.86.797-2.047 1.25-1.172.438-2.531.438-1.422 0-2.594-.36-1.172-.375-2.015-1.094-.844-.718-1.313-1.812t-.484-2.578h3.672q.015 1.531.671 2.219.672.671 2.063.671.625 0 1.14-.234.532-.234.891-.656.375-.422.563-1 .203-.578.203-1.235v-13.14zm16.902 14q0-.5-.187-.938-.172-.453-.594-.828-.422-.39-1.11-.703-.671-.328-1.687-.594-1.234-.343-2.36-.843-1.124-.516-1.983-1.22-.86-.718-1.375-1.671-.516-.953-.516-2.188 0-1.203.5-2.171.516-.985 1.406-1.672.906-.688 2.125-1.063 1.219-.375 2.656-.375 1.485 0 2.704.438 1.234.422 2.125 1.203.89.781 1.375 1.844.5 1.062.5 2.343h-3.563q-.031-.64-.234-1.172-.203-.53-.61-.906-.39-.39-.984-.61-.578-.218-1.375-.218-.734 0-1.297.188-.562.171-.953.484-.39.312-.594.75-.203.437-.203.953 0 .531.266.969.265.422.765.765.516.344 1.235.641.718.281 1.64.516 1.297.39 2.39.937 1.095.547 1.876 1.297.797.734 1.234 1.703.438.953.438 2.125 0 1.25-.516 2.219-.5.969-1.39 1.64-.875.672-2.094 1.016-1.219.344-2.672.344-.89 0-1.781-.172-.89-.156-1.72-.484-.812-.344-1.515-.844-.703-.516-1.218-1.188-.5-.687-.797-1.546-.297-.86-.297-1.907h3.594q.03.86.296 1.485.282.61.766 1 .484.39 1.172.578.687.172 1.5.172.734 0 1.297-.172.562-.172.953-.469.39-.297.594-.719.218-.422.218-.937zm19.372-3.125q0 1.812-.485 3.36-.468 1.53-1.39 2.64-.906 1.11-2.219 1.734-1.297.61-2.937.61-1.641 0-2.922-.61-1.266-.625-2.141-1.734-.875-1.125-1.328-2.656-.453-1.532-.453-3.344v-2.766q0-1.828.453-3.36.453-1.53 1.328-2.64.875-1.125 2.14-1.75 1.266-.625 2.907-.625 1.656 0 2.953.625 1.313.625 2.219 1.75.922 1.11 1.39 2.64.485 1.532.485 3.36v2.766zm-3.703-2.797q0-1.156-.188-2.125-.187-.984-.594-1.688-.406-.703-1.046-1.093-.625-.39-1.516-.39-.89 0-1.484.39t-.97 1.093q-.359.704-.515 1.688-.156.969-.156 2.125v2.797q0 1.14.156 2.125.156.969.516 1.687.375.72.969 1.125.593.391 1.5.391.875 0 1.5-.39.64-.407 1.03-1.11.407-.719.595-1.688.203-.984.203-2.14v-2.797zm19.309 3.984q0 1.563-.36 2.891-.344 1.312-1.031 2.266-.688.937-1.719 1.468-1.015.532-2.39.532-1.235 0-2.141-.454-.906-.468-1.547-1.312l-.172 1.5h-3.265v-20h3.625v7.187q.625-.718 1.468-1.125.86-.406 2-.406 1.39 0 2.422.531 1.031.532 1.719 1.485.687.953 1.031 2.281.36 1.313.36 2.875v.281zm-3.625-.28q0-.86-.141-1.626-.125-.766-.438-1.344-.312-.578-.859-.922-.547-.343-1.375-.343-.984 0-1.61.422-.609.421-.952 1.14v5.61q.343.734.953 1.156.625.406 1.64.406.813 0 1.344-.312.547-.329.86-.891.312-.563.437-1.328.14-.781.14-1.688v-.28zm9.09-6.907h7.203v14.406q0 1.406-.407 2.406-.39 1.016-1.171 1.672-.766.656-1.875.969-1.094.312-2.516.312-.594 0-1.188-.046-.593-.047-1.14-.172l.172-2.938q.156.031.437.063.281.031.578.047.297.03.563.03.265.016.39.016.532 0 .985-.125.469-.109.797-.39.328-.266.515-.719.203-.453.203-1.125v-11.453h-3.546v-2.953zm3.296-3.61q0-.421.141-.78.156-.36.422-.61.281-.25.656-.39.39-.141.86-.141.953 0 1.515.546.578.532.578 1.375 0 .844-.578 1.391-.562.531-1.515.531-.47 0-.86-.14-.375-.14-.656-.39-.266-.267-.422-.61-.14-.36-.14-.782zm17.372 17.954q-1.625 0-2.953-.532-1.328-.547-2.282-1.453-.953-.922-1.468-2.156-.516-1.25-.516-2.672v-.516q0-1.625.5-2.953.516-1.328 1.422-2.297.922-.968 2.172-1.5 1.25-.53 2.719-.53 1.515 0 2.703.5 1.203.5 2.031 1.421.828.906 1.25 2.188.437 1.28.437 2.828v1.531h-9.562q.11.719.422 1.312.328.594.812 1.032.5.422 1.141.656.64.234 1.39.234.532 0 1.063-.093.531-.11 1-.313.484-.203.906-.5.422-.312.735-.703l1.797 1.953q-.329.469-.875.938-.532.468-1.282.828-.734.343-1.64.562-.89.235-1.922.235zm-.438-11.688q-.609 0-1.125.219-.5.219-.89.625-.375.406-.64.969-.25.546-.392 1.234h5.938v-.281q-.016-.578-.219-1.078-.187-.516-.562-.875-.36-.375-.89-.594-.532-.219-1.22-.219zm15.825 8.797q.547 0 1.015-.156.485-.157.844-.438.375-.297.578-.703.203-.406.172-.89h3.406q.032 1.093-.453 2.03-.468.938-1.297 1.61-.812.672-1.906 1.063-1.078.375-2.281.375-1.64 0-2.89-.547-1.235-.547-2.063-1.516-.813-.969-1.25-2.25-.422-1.297-.422-2.781v-.39q0-1.485.422-2.782t1.25-2.25q.828-.969 2.062-1.531 1.235-.563 2.86-.563 1.297 0 2.406.39 1.11.391 1.906 1.11.797.703 1.235 1.719.453 1 .421 2.25h-3.406q.031-.516-.156-.984-.188-.47-.547-.813-.344-.344-.844-.547-.484-.203-1.062-.203-.86 0-1.422.36-.563.343-.89.937-.329.578-.47 1.344-.14.75-.14 1.562v.39q0 .813.125 1.579.14.766.469 1.344.328.578.89.937.578.344 1.438.344zm16.402-14.906v3.453h5.266v2.656h-5.266v6.063q0 .765.172 1.28.188.516.5.829.328.297.797.437.469.125 1.031.125.422 0 .86-.03.437-.048.828-.11.406-.063.75-.125.344-.063.578-.125l.36 2.484q-.376.219-.891.39-.5.157-1.078.25-.563.11-1.188.157-.625.063-1.219.063-1.156 0-2.109-.297-.937-.313-1.61-.953-.671-.641-1.03-1.641-.36-1-.36-2.39v-6.407h-3.219v-2.656h3.22v-3.453h3.608zm24.364 15.687q.375 0 .719-.11.344-.109.594-.296.25-.203.39-.484.141-.297.125-.641h2.391q.016.766-.328 1.422-.328.656-.906 1.14-.563.47-1.329.735-.75.265-1.609.265-1.14 0-2.016-.375-.859-.39-1.437-1.062-.578-.688-.875-1.594-.297-.906-.297-1.937v-.282q0-1.03.297-1.937.297-.906.875-1.578.578-.672 1.437-1.063.86-.39 2-.39.922 0 1.688.281.781.266 1.328.766.563.484.875 1.187.313.703.297 1.578h-2.39q.015-.36-.11-.687-.125-.328-.375-.563-.25-.234-.594-.375-.344-.14-.75-.14-.61 0-1 .25-.39.234-.625.656-.219.406-.328.937-.094.516-.094 1.078v.282q0 .578.094 1.11.094.53.328.937.235.406.625.656.39.234 1 .234z"/></g></svg>