<svg viewBox="0 0 588.438 437.74" fill="none" stroke-linecap="square" stroke-miterlimit="10" xmlns="http://www.w3.org/2000/svg"><clipPath id="a"><path d="M0 0h588.438v437.74H0V0z"/></clipPath><g clip-path="url(#a)"><path d="M0 0h588.438v437.74H0z"/><path fill="#76a5af" d="M124.28 18.47a8 8 0 0 1 8.001-8h176a8 8 0 0 1 8 8v32a8 8 0 0 1-8 8h-176a8 8 0 0 1-8-8z" fill-rule="evenodd"/><path stroke="#134f5c" stroke-linejoin="round" stroke-linecap="butt" d="M124.28 18.47h0a8 8 0 0 1 8.001-8h176a8 8 0 0 1 8 8v32a8 8 0 0 1-8 8h-176a8 8 0 0 1-8-8z"/><path fill="#fff" d="M204.257 43.01h-3.28l-4.735-11v11h-3.328V25.947h3.328l4.703 10.953.016-10.953h3.296V43.01zm2.825-6.453q0-1.39.39-2.563.406-1.187 1.172-2.047.781-.875 1.875-1.36 1.11-.5 2.547-.5 1.422 0 2.531.5 1.125.485 1.89 1.36.766.86 1.157 2.047.406 1.172.406 2.563v.234q0 1.406-.406 2.578-.39 1.172-1.156 2.047-.75.86-1.875 1.36-1.11.484-2.531.484-1.422 0-2.547-.485-1.11-.5-1.89-1.359-.767-.875-1.173-2.047-.39-1.172-.39-2.578v-.234zm3.265.234q0 .797.14 1.5.157.703.485 1.219.328.515.844.828.531.297 1.266.297.718 0 1.234-.297.516-.313.828-.828.328-.516.484-1.219.157-.703.157-1.5v-.234q0-.782-.157-1.47-.156-.687-.484-1.218-.312-.531-.828-.828-.516-.312-1.25-.312t-1.25.312q-.516.297-.844.828-.328.531-.484 1.219-.14.687-.14 1.469v.234zm14.543-6.469l.203 1.766q.672-.953 1.641-1.469.984-.531 2.156-.531.969 0 1.766.281t1.375.906q.578.61.89 1.579.329.968.329 2.343v7.813H230v-7.766q0-.75-.172-1.234-.172-.485-.485-.766-.312-.281-.765-.39-.438-.11-1-.11-.844 0-1.438.344-.578.328-.937.906v9.016h-3.266V30.322h2.953zm17.606 12.922q-1.47 0-2.672-.484-1.188-.485-2.047-1.297-.86-.828-1.328-1.953-.453-1.125-.453-2.39v-.47q0-1.453.453-2.656.469-1.203 1.281-2.062.828-.875 1.953-1.36 1.125-.484 2.438-.484 1.375 0 2.437.453 1.078.453 1.828 1.281.75.813 1.125 1.97.39 1.155.39 2.546v1.39h-8.593q.094.641.375 1.172.281.532.719.922.453.39 1.031.61.578.203 1.25.203.485 0 .953-.094.485-.094.907-.281.437-.188.812-.453.375-.266.656-.625l1.64 1.75q-.312.437-.796.86-.484.405-1.156.733-.656.313-1.469.516-.797.203-1.734.203zm-.39-10.515q-.548 0-1.017.203-.453.187-.796.547-.344.359-.579.875-.234.5-.359 1.125h5.344v-.266q-.016-.516-.203-.969-.172-.453-.5-.781-.328-.344-.797-.531-.469-.203-1.094-.203z"/><path fill="#e69138" d="M12.28 146.47a8 8 0 0 1 8.001-8h176a8 8 0 0 1 8 8v32a8 8 0 0 1-8 8h-176a8 8 0 0 1-8-8z" fill-rule="evenodd"/><path stroke="#783f04" stroke-linejoin="round" stroke-linecap="butt" d="M12.28 146.47h0a8 8 0 0 1 8.001-8h176a8 8 0 0 1 8 8v32a8 8 0 0 1-8 8h-176a8 8 0 0 1-8-8z"/><path fill="#fff" d="M97.068 166.557q0-.453-.156-.844-.157-.406-.547-.75-.375-.36-.985-.64-.609-.282-1.53-.532-1.11-.312-2.126-.766-1.015-.453-1.797-1.093-.765-.657-1.234-1.5-.453-.86-.453-1.97 0-1.077.453-1.952.453-.89 1.266-1.5.812-.625 1.906-.953 1.11-.344 2.39-.344 1.344 0 2.454.39 1.109.376 1.906 1.079.797.703 1.234 1.672.453.953.453 2.093h-3.218q-.016-.578-.204-1.047-.187-.484-.546-.828-.344-.343-.891-.53-.531-.204-1.234-.204-.657 0-1.172.156-.516.156-.875.453-.344.282-.532.672-.171.39-.171.844 0 .484.234.875.25.39.703.703.453.297 1.11.563.656.25 1.468.484 1.172.328 2.156.828.985.484 1.688 1.172.719.672 1.11 1.531.39.86.39 1.906 0 1.125-.453 2t-1.25 1.485q-.797.594-1.906.906-1.094.313-2.391.313-.813 0-1.61-.157-.796-.14-1.53-.437-.735-.313-1.376-.766-.625-.453-1.093-1.062-.454-.61-.72-1.375-.265-.782-.265-1.72h3.235q.015.767.265 1.33.25.546.688.905.437.344 1.047.516.625.156 1.359.156.656 0 1.156-.156.516-.156.86-.422.359-.266.546-.64.188-.391.188-.844zm7.7-8.235l.093 1.547q.36-.828 1-1.297.64-.484 1.547-.484 1.531 0 2 1.36.375-.641.953-1 .594-.36 1.406-.36.578 0 1.078.219.5.203.86.672.375.468.578 1.203.203.718.203 1.78v9.048h-2.969v-9.063q0-.36-.078-.593-.062-.235-.203-.36-.125-.14-.297-.187-.172-.063-.344-.063-.343 0-.578.156-.234.157-.36.422v9.688h-2.874v-9.078q0-.36-.078-.594-.063-.234-.188-.36-.11-.124-.281-.171-.156-.063-.344-.063-.375 0-.61.219-.234.203-.359.547v9.5h-2.968v-12.688h2.812zm13.23 0h6.906v10.032h3.437v2.656h-10.343v-2.656h3.609v-7.36h-3.61v-2.672zm3.375-3.234q0-.375.14-.703.14-.328.375-.547.25-.234.594-.36.344-.124.766-.124.875 0 1.375.484.515.484.515 1.25 0 .75-.515 1.25-.5.484-1.375.484-.422 0-.766-.125-.344-.14-.594-.36-.234-.233-.375-.546-.14-.328-.14-.703z"/><path fill="#e69138" d="M164.28 234.47a8 8 0 0 1 8.001-8h176a8 8 0 0 1 8 8v32a8 8 0 0 1-8 8h-176a8 8 0 0 1-8-8z" fill-rule="evenodd"/><path stroke="#783f04" stroke-linejoin="round" stroke-linecap="butt" d="M164.28 234.47h0a8 8 0 0 1 8.001-8h176a8 8 0 0 1 8 8v32a8 8 0 0 1-8 8h-176a8 8 0 0 1-8-8z"/><path fill="#fff" d="M218.543 259.01v-17.063h4.421q1.688 0 3.063.578 1.39.579 2.36 1.625.984 1.032 1.515 2.47.531 1.437.531 3.171v1.406q0 1.72-.531 3.157t-1.5 2.468q-.953 1.032-2.313 1.61-1.343.578-2.968.578h-4.578zm3.312-14.39v11.734h1.266q.922 0 1.656-.344.734-.36 1.234-1.016.516-.672.782-1.625.28-.953.28-2.172v-1.437q0-1.14-.265-2.078-.265-.953-.797-1.625-.515-.688-1.28-1.063-.767-.375-1.767-.375h-1.109zm10.824 7.937q0-1.39.39-2.563.407-1.187 1.173-2.047.781-.875 1.875-1.36 1.11-.5 2.547-.5 1.422 0 2.53.5 1.126.485 1.892 1.36.765.86 1.156 2.047.406 1.172.406 2.563v.234q0 1.406-.406 2.578-.39 1.172-1.156 2.047-.75.86-1.875 1.36-1.11.484-2.532.484t-2.547-.485q-1.109-.5-1.89-1.359-.766-.875-1.172-2.047-.39-1.172-.39-2.578v-.234zm3.266.234q0 .797.14 1.5.157.703.485 1.219.328.515.844.828.53.297 1.265.297.719 0 1.235-.297.515-.313.828-.828.328-.516.484-1.219.156-.703.156-1.5v-.234q0-.782-.156-1.47-.156-.687-.484-1.218-.313-.531-.828-.828-.516-.312-1.25-.312-.735 0-1.25.312-.516.297-.844.828-.328.531-.484 1.219-.141.687-.141 1.469v.234zm19.668 4.438q-.64.953-1.547 1.5-.906.53-1.984.53-.985 0-1.813-.296-.812-.313-1.406-.969-.578-.672-.906-1.687-.313-1.032-.313-2.485v-7.5h3.25v7.532q0 .765.11 1.296.109.532.359.86.25.312.64.453.407.14.985.14.969 0 1.578-.359.61-.375.922-1.015v-8.907h3.265v12.688H255.8l-.187-1.781zm17.746-4.438q0 1.422-.313 2.61-.312 1.187-.937 2.046-.61.844-1.547 1.328-.922.47-2.14.47-1.126 0-1.938-.407-.813-.422-1.39-1.172l-.157 1.344H262v-18h3.265v6.469q.563-.657 1.328-1.016.766-.375 1.797-.375 1.25 0 2.172.484.938.485 1.547 1.344.625.844.937 2.047.313 1.187.313 2.594v.234zm-3.25-.234q0-.782-.125-1.47-.11-.687-.406-1.202-.282-.531-.782-.828-.484-.313-1.218-.313-.89 0-1.453.375-.563.375-.86 1.031v5.047q.297.657.86 1.032.562.375 1.468.375.735 0 1.22-.282.483-.297.765-.797.297-.515.406-1.203.125-.703.125-1.53v-.235zm6.902-11.547h7.094v15.344h3.64v2.656h-10.734v-2.656h3.797v-12.688h-3.797v-2.656zm19.887 18.234q-1.469 0-2.672-.484-1.187-.485-2.047-1.297-.86-.828-1.328-1.953-.453-1.125-.453-2.39v-.47q0-1.453.453-2.656.469-1.203 1.281-2.062.829-.875 1.954-1.36 1.125-.484 2.437-.484 1.375 0 2.438.453 1.078.453 1.828 1.281.75.813 1.125 1.97.39 1.155.39 2.546v1.39h-8.593q.093.641.375 1.172.28.532.718.922.453.391 1.032.61.578.203 1.25.203.484 0 .953-.094.484-.094.906-.281.437-.188.812-.453.375-.266.657-.625l1.64 1.75q-.312.437-.797.86-.484.405-1.156.733-.656.313-1.469.516-.796.203-1.734.203zm-.39-10.515q-.547 0-1.016.203-.453.187-.797.547-.344.359-.578.875-.235.5-.36 1.125h5.344v-.266q-.015-.516-.203-.969-.172-.453-.5-.781-.328-.344-.797-.531-.469-.203-1.094-.203z"/><path fill="#76a5af" d="M100.28 378.47a8 8 0 0 1 8.001-8h176a8 8 0 0 1 8 8v32a8 8 0 0 1-8 8h-176a8 8 0 0 1-8-8z" fill-rule="evenodd"/><path stroke="#134f5c" stroke-linejoin="round" stroke-linecap="butt" d="M100.28 378.47h0a8 8 0 0 1 8.001-8h176a8 8 0 0 1 8 8v32a8 8 0 0 1-8 8h-176a8 8 0 0 1-8-8z"/><path fill="#fff" d="M167.152 388.635h-5.266v14.375h-3.297v-14.375h-5.203v-2.688h13.766v2.688zm9.902 14.375q-.125-.235-.203-.531-.078-.313-.14-.657-.266.297-.625.563-.344.25-.782.453-.422.187-.937.297-.516.11-1.11.11-.968 0-1.796-.282-.813-.281-1.407-.781-.578-.516-.906-1.203-.328-.704-.328-1.516 0-2.016 1.5-3.11 1.5-1.093 4.453-1.093h1.828v-.75q0-.906-.61-1.438-.593-.547-1.718-.547-1 0-1.453.438-.453.422-.453 1.14H169.1q0-.812.36-1.53.359-.735 1.046-1.282.688-.547 1.672-.875 1-.328 2.266-.328 1.156 0 2.14.281 1 .281 1.72.844.734.547 1.14 1.39.406.829.406 1.938v5.438q0 1.015.125 1.687.14.656.375 1.14v.204h-3.297zm-3.11-2.281q.5 0 .923-.11.422-.125.75-.312.344-.188.594-.422.25-.25.39-.5v-2.172h-1.672q-.765 0-1.312.14-.531.141-.875.407-.328.265-.5.64-.156.36-.156.797 0 .657.453 1.094.468.438 1.406.438zm9.263-4.157q0-1.437.359-2.625.36-1.203 1.016-2.062.671-.86 1.625-1.328.953-.469 2.14-.469 1.11 0 1.906.375.797.375 1.36 1.078l.14-1.219h2.954v12.282q0 1.28-.438 2.28-.437 1.016-1.234 1.704-.782.703-1.89 1.062-1.11.36-2.438.36-.579 0-1.235-.125-.656-.11-1.312-.36-.64-.25-1.219-.64-.563-.375-.969-.89l1.453-1.985q.625.703 1.407 1.062.796.375 1.703.375 1.375 0 2.14-.734.766-.734.766-2.078v-.735q-.578.641-1.344 1-.765.344-1.765.344-1.188 0-2.141-.484-.938-.485-1.61-1.344-.656-.86-1.015-2.031-.36-1.188-.36-2.563v-.25zm3.265.25q0 .797.156 1.485.157.687.485 1.203.328.5.828.797.516.281 1.203.281.86 0 1.406-.328.563-.328.891-.906v-5.375q-.328-.594-.89-.907-.548-.328-1.376-.328-.703 0-1.203.297-.5.297-.844.828-.328.516-.5 1.219-.156.687-.156 1.484v.25zm11.137-.25q0-1.437.36-2.625.359-1.203 1.015-2.062.672-.86 1.625-1.328.953-.469 2.14-.469 1.11 0 1.907.375.797.375 1.36 1.078l.14-1.219h2.953v12.282q0 1.28-.438 2.28-.437 1.016-1.234 1.704-.781.703-1.89 1.062-1.11.36-2.438.36-.578 0-1.234-.125-.657-.11-1.313-.36-.64-.25-1.219-.64-.562-.375-.968-.89l1.453-1.985q.625.703 1.406 1.062.797.375 1.703.375 1.375 0 2.14-.734.766-.734.766-2.078v-.735q-.578.641-1.343 1-.766.344-1.766.344-1.188 0-2.14-.484-.938-.485-1.61-1.344-.656-.86-1.016-2.031-.359-1.188-.359-2.563v-.25zm3.266.25q0 .797.156 1.485.156.687.484 1.203.328.5.828.797.516.281 1.203.281.86 0 1.407-.328.562-.328.89-.906v-5.375q-.328-.594-.89-.907-.547-.328-1.375-.328-.703 0-1.203.297-.5.297-.844.828-.328.516-.5 1.219-.156.687-.156 1.484v.25zm17.62 6.422q-1.468 0-2.671-.484-1.188-.485-2.047-1.297-.86-.828-1.328-1.953-.453-1.125-.453-2.39v-.47q0-1.453.453-2.656.469-1.203 1.281-2.062.828-.875 1.953-1.36 1.125-.484 2.438-.484 1.375 0 2.437.453 1.078.453 1.828 1.281.75.813 1.125 1.97.39 1.155.39 2.546v1.39h-8.593q.094.641.375 1.172.281.532.719.922.453.391 1.031.61.578.203 1.25.203.485 0 .953-.094.485-.094.907-.281.437-.188.812-.453.375-.266.656-.625l1.64 1.75q-.312.437-.796.86-.484.405-1.156.733-.656.313-1.469.516-.797.203-1.734.203zm-.39-10.515q-.547 0-1.016.203-.453.187-.796.547-.344.359-.579.875-.234.5-.359 1.125h5.344v-.266q-.016-.516-.203-.969-.172-.453-.5-.781-.328-.344-.797-.531-.469-.203-1.094-.203zm8.293 3.843q0-1.437.328-2.625.344-1.203.985-2.062.64-.86 1.562-1.328.922-.469 2.11-.469 1 0 1.75.36.75.359 1.343 1.015v-6.453h3.266v18h-2.938l-.172-1.328q-.593.734-1.406 1.156-.797.406-1.875.406-1.156 0-2.078-.484-.922-.485-1.562-1.344-.625-.86-.97-2.031-.343-1.188-.343-2.563v-.25zm3.266.25q0 .797.125 1.485.14.687.437 1.203.313.5.781.797.485.281 1.188.281.844 0 1.39-.36.563-.359.891-1v-5.124q-.328-.641-.89-1-.547-.36-1.375-.36-.688 0-1.172.297-.485.297-.797.828-.297.516-.438 1.219-.14.687-.14 1.484v.25z"/><path fill="#e69138" d="M380.28 186.47a8 8 0 0 1 8.001-8h176a8 8 0 0 1 8 8v32a8 8 0 0 1-8 8h-176a8 8 0 0 1-8-8z" fill-rule="evenodd"/><path stroke="#783f04" stroke-linejoin="round" stroke-linecap="butt" d="M380.28 186.47h0a8 8 0 0 1 8.001-8h176a8 8 0 0 1 8 8v32a8 8 0 0 1-8 8h-176a8 8 0 0 1-8-8z"/><path fill="#fff" d="M417.066 211.01h-3.25v-7.39h-4.828v7.39h-3.281v-17.063h3.28v7h4.829v-7h3.25v17.063zm9.418.234q-1.469 0-2.672-.484-1.187-.485-2.047-1.297-.86-.828-1.328-1.953-.453-1.125-.453-2.39v-.47q0-1.453.453-2.656.469-1.203 1.281-2.062.828-.875 1.953-1.36 1.125-.484 2.438-.484 1.375 0 2.437.453 1.079.453 1.829 1.281.75.813 1.125 1.97.39 1.155.39 2.546v1.39h-8.594q.094.641.375 1.172.282.532.72.922.452.39 1.03.61.579.203 1.25.203.485 0 .954-.094.484-.094.906-.281.437-.188.812-.453.375-.266.657-.625l1.64 1.75q-.312.437-.797.86-.484.405-1.156.733-.656.313-1.469.516-.797.203-1.734.203zm-.39-10.515q-.548 0-1.016.203-.453.187-.797.547-.344.359-.578.875-.235.5-.36 1.125h5.344v-.266q-.016-.516-.203-.969-.172-.453-.5-.781-.328-.344-.797-.531-.469-.203-1.094-.203zm16.558 10.28q-.125-.234-.203-.53-.078-.313-.14-.657-.266.297-.626.563-.344.25-.781.453-.422.187-.938.297-.515.11-1.109.11-.969 0-1.797-.282-.812-.281-1.406-.781-.578-.516-.906-1.203-.328-.704-.328-1.516 0-2.016 1.5-3.11 1.5-1.093 4.453-1.093h1.828v-.75q0-.906-.61-1.438-.593-.547-1.718-.547-1 0-1.453.438-.454.422-.454 1.14H434.7q0-.812.36-1.53.359-.735 1.046-1.282.688-.547 1.672-.875 1-.328 2.266-.328 1.156 0 2.14.281 1 .281 1.719.844.734.547 1.14 1.39.407.829.407 1.938v5.438q0 1.015.125 1.687.14.656.375 1.14v.204h-3.297zm-3.11-2.28q.5 0 .922-.11.422-.125.75-.312.344-.188.594-.422.25-.25.39-.5v-2.172h-1.671q-.766 0-1.313.14-.53.141-.875.407-.328.265-.5.64-.156.36-.156.797 0 .657.453 1.094.469.438 1.407.438zm20.981-3.938q0 1.375-.328 2.563-.313 1.187-.953 2.046-.625.86-1.547 1.36-.922.484-2.125.484-1.016 0-1.797-.344-.766-.359-1.344-1v5.985h-3.25v-17.563h3.016l.11 1.25q.593-.703 1.39-1.093.797-.391 1.86-.391 1.202 0 2.124.469.938.468 1.563 1.312.64.844.953 2.047.328 1.188.328 2.625v.25zm-3.266-.25q0-.797-.14-1.484-.14-.703-.453-1.22-.313-.515-.797-.796-.485-.297-1.188-.297-.843 0-1.39.344-.547.328-.86.937v5.297q.313.594.86.953.547.36 1.422.36.687 0 1.171-.297.485-.313.782-.844.312-.531.453-1.219.14-.703.14-1.484v-.25zm18.059-.812q0 1.64-.438 3.03-.421 1.376-1.25 2.376-.812 1-2 1.562-1.171.547-2.64.547-1.485 0-2.64-.547-1.141-.562-1.923-1.562-.78-1.016-1.203-2.39-.406-1.376-.406-3.016v-2.485q0-1.64.406-3.015.422-1.391 1.203-2.391.782-1 1.922-1.563 1.14-.562 2.625-.562t2.656.562q1.188.563 2 1.563.829 1 1.25 2.39.438 1.376.438 3.016v2.485zm-3.328-2.5q0-1.047-.172-1.922-.172-.89-.547-1.516-.36-.64-.922-.984-.562-.36-1.375-.36-.797 0-1.344.36-.53.343-.859.984-.328.625-.469 1.516-.14.875-.14 1.922v2.5q0 1.03.14 1.921.141.875.47 1.516.327.64.858 1.016.547.36 1.36.36.797 0 1.36-.36.562-.375.921-1.016.36-.64.531-1.516.188-.875.188-1.921v-2.5zm17.37 3.562q0 1.422-.312 2.61-.312 1.187-.937 2.046-.61.844-1.547 1.328-.922.47-2.14.47-1.126 0-1.938-.407-.813-.422-1.39-1.172l-.157 1.344H478v-18h3.265v6.469q.563-.657 1.328-1.016.766-.375 1.797-.375 1.25 0 2.172.484.938.485 1.547 1.344.625.844.937 2.047.313 1.187.313 2.594v.234zm-3.25-.234q0-.782-.124-1.47-.11-.687-.406-1.202-.282-.531-.782-.828-.484-.313-1.218-.313-.89 0-1.453.375-.563.375-.86 1.031v5.047q.297.657.86 1.032.562.375 1.468.375.735 0 1.22-.282.483-.297.765-.797.297-.515.406-1.203.125-.703.125-1.53v-.235zm8.169-6.235h6.5v12.985q0 1.265-.375 2.172-.36.906-1.047 1.5-.687.593-1.687.875-1 .28-2.266.28-.531 0-1.078-.046-.531-.031-1.031-.156l.171-2.64q.141.03.391.062.25.03.516.046.265.016.5.016.25.016.359.016.469 0 .875-.11.422-.11.719-.36.312-.233.484-.64.172-.406.172-1.015v-10.313h-3.203v-2.672zm2.984-3.234q0-.375.125-.703.14-.328.375-.547.25-.234.594-.36.344-.124.766-.124.875 0 1.375.484.515.484.515 1.25 0 .75-.515 1.25-.5.484-1.375.484-.422 0-.766-.125-.344-.14-.594-.36-.234-.233-.375-.546-.125-.328-.125-.703zm15.637 16.156q-1.469 0-2.672-.484-1.187-.485-2.047-1.297-.86-.828-1.328-1.953-.453-1.125-.453-2.39v-.47q0-1.453.453-2.656.469-1.203 1.281-2.062.829-.875 1.954-1.36 1.125-.484 2.437-.484 1.375 0 2.438.453 1.078.453 1.828 1.281.75.813 1.125 1.97.39 1.155.39 2.546v1.39h-8.593q.093.641.375 1.172.28.532.718.922.453.39 1.032.61.578.203 1.25.203.484 0 .953-.094.484-.094.906-.281.437-.188.812-.453.375-.266.657-.625l1.64 1.75q-.312.437-.797.86-.484.405-1.156.733-.656.313-1.469.516-.796.203-1.734.203zm-.39-10.515q-.547 0-1.016.203-.453.187-.797.547-.344.359-.578.875-.235.5-.36 1.125h5.344v-.266q-.015-.516-.203-.969-.172-.453-.5-.781-.328-.344-.797-.531-.469-.203-1.094-.203zm14.245 7.906q.485 0 .907-.14.437-.141.765-.391.328-.266.516-.625.187-.36.156-.813h3.078q.016.984-.422 1.828-.421.844-1.156 1.453-.734.61-1.719.97-.968.343-2.062.343-1.484 0-2.594-.5-1.11-.5-1.86-1.36-.734-.875-1.124-2.03-.375-1.173-.375-2.516v-.344q0-1.344.375-2.5.375-1.172 1.125-2.031.75-.875 1.86-1.375 1.109-.516 2.562-.516 1.172 0 2.172.36 1 .343 1.718.984.72.64 1.11 1.547.406.906.39 2.03h-3.078q.031-.468-.14-.89-.157-.422-.485-.719-.312-.312-.765-.484-.438-.187-.97-.187-.765 0-1.28.328-.5.312-.797.843-.297.516-.422 1.204-.125.671-.125 1.406v.344q0 .734.11 1.421.124.688.421 1.22.313.515.813.827.515.313 1.296.313zm14.762-13.406v3.093h4.735v2.407h-4.735v5.453q0 .687.156 1.156.172.453.454.734.296.282.703.407.422.109.937.109.375 0 .766-.031.406-.047.75-.094.36-.063.672-.11.312-.062.531-.124l.328 2.234q-.344.203-.812.36-.454.14-.97.234-.515.093-1.077.14-.547.063-1.078.063-1.047 0-1.907-.281-.843-.282-1.453-.86-.594-.578-.922-1.469-.328-.906-.328-2.156v-5.765h-2.89v-2.407h2.89v-3.093h3.25z"/><path d="M220.28 58.47c0 20-28 30-56 40s-56 20-56 40"/><path stroke="#134f5c" stroke-width="3" stroke-linejoin="round" stroke-linecap="butt" d="M220.28 58.47c0 20-28 30-56 40-14 5-28 10-38.5 16.25-2.624 1.562-5.03 3.203-7.163 4.941a42.806 42.806 0 0 0-2.281 1.998c-.12.113-.24.227-.357.341l-.137.135"/><path fill="#134f5c" stroke="#134f5c" stroke-width="3" stroke-linecap="butt" d="M111.345 120.053l-1.222 14.437 10.216-10.273z" fill-rule="evenodd"/><path d="M220.28 58.47c0 42 10 63 20 84s20 42 20 84"/><path stroke="#134f5c" stroke-width="3" stroke-linejoin="round" stroke-linecap="butt" d="M220.28 58.47c0 42 10 63 20 84 5 10.5 10 21 13.75 34.125 1.876 6.562 3.438 13.781 4.532 21.984.274 2.051.518 4.163.73 6.342.106 1.09.205 2.196.295 3.32l.018.242"/><path fill="#134f5c" stroke="#134f5c" stroke-width="3" stroke-linecap="butt" d="M254.653 208.669l5.463 13.418 4.44-13.79z" fill-rule="evenodd"/><path d="M220.28 58.47c0 30 64 45 128 60s128 30 128 60"/><path stroke="#134f5c" stroke-width="3" stroke-linejoin="round" stroke-linecap="butt" d="M220.28 58.47c0 30 64 45 128 60 32 7.5 64 15 88 24.375 12 4.687 22 9.844 29 15.703a46.03 46.03 0 0 1 2.483 2.23c.39.378.767.758 1.132 1.142l.09.095"/><path fill="#134f5c" stroke="#134f5c" stroke-width="3" stroke-linecap="butt" d="M464.455 164.023l10.048 10.438-.988-14.455z" fill-rule="evenodd"/><path d="M108.28 186.47c0 10 38 15 76 20s76 10 76 20"/><path stroke="#134f5c" stroke-width="3" stroke-linejoin="round" stroke-linecap="butt" d="M108.28 186.47c0 10 38 15 76 20 19 2.5 38 5 52.25 8.125 1.782.39 3.49.79 5.113 1.202.811.206 1.602.414 2.371.626l1.124.315"/><path fill="#134f5c" stroke="#134f5c" stroke-width="3" stroke-linecap="butt" d="M242.46 220.907l14.131 3.192-8.774-11.53z" fill-rule="evenodd"/><path d="M476.28 226.47c0 36-70 54-140 72s-140 36-140 72"/><path stroke="#134f5c" stroke-width="3" stroke-linejoin="round" stroke-linecap="butt" d="M476.28 226.47c0 36-70 54-140 72-35 9-70 18-96.25 29.25-13.124 5.625-24.062 11.812-31.718 18.844-1.914 1.757-3.623 3.568-5.11 5.436-.371.467-.73.937-1.073 1.411l-.02.028"/><path fill="#134f5c" stroke="#134f5c" stroke-width="3" stroke-linecap="butt" d="M197.42 351.835l.28 14.485 9.097-11.276z" fill-rule="evenodd"/><path d="M260.28 274.47c0 24-16 36-32 48s-32 24-32 48"/><path stroke="#134f5c" stroke-width="3" stroke-linejoin="round" stroke-linecap="butt" d="M260.28 274.47c0 24-16 36-32 48-8 6-16 12-22 19.5a49.33 49.33 0 0 0-4.093 5.93 43.703 43.703 0 0 0-2.465 4.9v.002"/><path fill="#134f5c" stroke="#134f5c" stroke-width="3" stroke-linecap="butt" d="M194.857 351.855l2.262 14.31 7.466-12.416z" fill-rule="evenodd"/><path d="M108.28 186.47c0 46 22 69 44 92s44 46 44 92"/><path stroke="#134f5c" stroke-width="3" stroke-linejoin="round" stroke-linecap="butt" d="M108.28 186.47c0 46 22 69 44 92 11 11.5 22 23 30.25 37.375 4.126 7.187 7.563 15.094 9.97 24.078a105.17 105.17 0 0 1 1.606 6.946 109.336 109.336 0 0 1 .93 5.495l.021.147"/><path fill="#134f5c" stroke="#134f5c" stroke-width="3" stroke-linecap="butt" d="M190.114 352.848l5.869 13.246 4.018-13.92z" fill-rule="evenodd"/></g></svg>