<svg viewBox="0 0 876 438" fill="none" stroke-linecap="square" stroke-miterlimit="10" xmlns="http://www.w3.org/2000/svg"><clipPath id="a"><path d="M0 0h876v438H0V0z"/></clipPath><g clip-path="url(#a)"><path d="M0 0h876v438H0z"/><path fill="#fbbc05" fill-opacity=".377" d="M639.19 33.657c0-11.417 9.256-20.673 20.673-20.673H833.73a20.672 20.672 0 0 1 20.672 20.673v82.686c0 11.417-9.255 20.673-20.672 20.673H659.863c-11.417 0-20.673-9.256-20.673-20.673z" fill-rule="evenodd"/><path stroke="#666" stroke-linejoin="round" stroke-linecap="butt" d="M639.19 33.657h0c0-11.417 9.256-20.673 20.673-20.673H833.73a20.672 20.672 0 0 1 20.672 20.673v82.686c0 11.417-9.255 20.673-20.672 20.673H659.863c-11.417 0-20.673-9.256-20.673-20.673z"/><path fill="#000" d="M657.042 30.331V33.8h-1.828v-9.469h3.234q.781 0 1.406.219.625.219 1.063.625.437.406.672.969.25.547.25 1.234 0 .64-.25 1.188-.235.53-.672.921-.438.391-1.063.625-.625.22-1.406.22h-1.406zm0-1.484h1.406q.39 0 .672-.11.297-.124.484-.328.204-.203.297-.468.094-.266.094-.547 0-.328-.094-.61-.093-.296-.297-.515-.187-.219-.484-.328-.281-.125-.672-.125h-1.406v3.03zm11.17-2.219q.422 0 .766.063.343.047.562.109l-.266 1.813q-.359-.094-.734-.125-.375-.047-.719-.047-.75 0-1.218.297-.454.28-.688.828V33.8h-1.797v-7.047h1.672l.094 1.156q.422-.593 1.015-.937.61-.344 1.313-.344zm2.701 3.594q0-.781.219-1.422.219-.656.64-1.14.438-.485 1.048-.75.625-.282 1.406-.282.797 0 1.406.281.625.266 1.047.75.437.485.656 1.141.219.64.219 1.422v.125q0 .781-.219 1.437-.219.657-.64 1.141-.422.469-1.047.75-.61.266-1.407.266-.796 0-1.421-.266-.61-.281-1.047-.75-.422-.484-.641-1.14-.219-.657-.219-1.438v-.125zm1.813.125q0 .453.078.844.094.375.266.672.187.28.468.453.297.171.703.171.407 0 .688-.171.281-.172.453-.454.188-.296.266-.671.093-.391.093-.844v-.125q0-.438-.093-.813-.078-.39-.266-.687-.172-.297-.453-.453-.281-.172-.703-.172-.406 0-.688.172-.281.156-.468.453-.172.297-.266.687-.078.375-.078.813v.125zm12.764 0q0 .765-.188 1.422-.172.656-.531 1.14-.344.47-.86.75-.515.266-1.171.266-.563 0-1-.188-.422-.203-.75-.546v3.312h-1.813v-9.75h1.672l.078.688q.313-.375.75-.594.453-.219 1.047-.219.672 0 1.187.266.516.25.86.718.36.47.531 1.141.188.656.188 1.453v.14zm-1.813-.14q0-.438-.094-.829-.078-.39-.25-.672-.172-.281-.437-.437-.266-.172-.656-.172-.47 0-.782.187-.297.188-.468.532v2.937q.171.328.468.531.313.188.797.188.39 0 .656-.156.266-.172.438-.47.172-.296.25-.671.078-.39.078-.828v-.14zm6.889 3.718q-.813 0-1.484-.266-.657-.265-1.125-.718-.47-.47-.735-1.079-.25-.625-.25-1.343v-.25q0-.813.25-1.469.25-.672.703-1.156.453-.485 1.078-.75.625-.266 1.36-.266.765 0 1.36.25.593.25 1 .703.421.453.64 1.094.219.64.219 1.422v.765H688.8q.047.36.203.657.172.297.407.515.25.203.562.328.328.11.703.11.282 0 .532-.047.265-.047.5-.14.25-.11.453-.25.218-.157.375-.36l.906.969q-.172.25-.453.484-.266.219-.64.406-.36.172-.813.282-.438.109-.97.109zm-.203-5.828q-.313 0-.563.11-.25.093-.453.296-.187.203-.328.484-.125.282-.187.625h2.968v-.14q-.015-.281-.11-.531-.093-.266-.28-.454-.188-.187-.453-.28-.25-.11-.594-.11zm9.842-1.469q.422 0 .765.063.344.046.563.109l-.266 1.812q-.36-.093-.734-.125-.375-.046-.719-.046-.75 0-1.219.296-.453.282-.687.829V33.8h-1.797v-7.047h1.672l.094 1.156q.421-.593 1.015-.937.61-.344 1.313-.344zm6.264-1.594v1.72h2.625v1.343h-2.625v3.015q0 .391.078.657.093.25.25.406.172.14.406.219.234.062.516.062.203 0 .421-.015.22-.032.422-.047.203-.032.375-.063.172-.047.297-.078l.172 1.25q-.187.11-.453.188-.25.078-.531.125-.282.062-.594.093-.313.032-.61.032-.578 0-1.046-.157-.47-.156-.813-.468-.328-.329-.515-.829-.188-.5-.188-1.187v-3.203h-1.61v-1.344h1.61v-1.719h1.813zm7.685 5.813l.203.75 1.875-4.844h2l-3.578 8.094q-.11.281-.297.594-.187.312-.468.578-.282.265-.688.437-.39.188-.937.188-.125 0-.25-.016-.11 0-.22-.016-.093-.015-.202-.046-.094-.016-.203-.047l.218-1.39q.11 0 .282.015.171.015.28.015.204 0 .376-.14.172-.125.281-.282.125-.156.188-.296.078-.125.109-.125l.422-.813-2.969-6.75h1.969l1.61 4.094zm13.48-4.094h3.829v5.578h1.906V33.8h-5.734v-1.469h2v-4.094h-2v-1.484zm1.876-1.797q0-.203.062-.375.079-.187.22-.312.14-.14.327-.203.188-.079.422-.079.485 0 .766.282.281.265.281.687 0 .422-.281.703-.281.266-.766.266-.234 0-.422-.078-.187-.078-.328-.203-.14-.125-.219-.297-.062-.188-.062-.39zm7.28 1.797l.109.984q.375-.53.906-.812.547-.297 1.203-.297.531 0 .969.156.453.157.766.5.328.344.5.875.187.532.187 1.313V33.8h-1.812v-4.313q0-.406-.094-.671-.094-.282-.266-.438-.172-.156-.422-.219-.25-.062-.562-.062-.469 0-.797.187-.313.188-.516.516v5h-1.812v-7.047h1.64zm8.107 7.047v-5.703h-1.86v-1.344h1.86v-.375q0-.703.219-1.234.218-.532.625-.89.422-.376 1-.548.593-.187 1.312-.187.219 0 .422.015.219.016.422.047.203.016.406.047t.438.078l-.125 1.406q-.25-.046-.563-.078-.312-.047-.734-.047-.844 0-1.235.36-.375.36-.375 1.031v.375h2.532v1.344h-2.532V33.8h-1.812zm5.998-3.578q0-.781.219-1.422.219-.656.64-1.14.438-.485 1.047-.75.625-.282 1.407-.282.796 0 1.406.281.625.266 1.047.75.437.485.656 1.141.219.64.219 1.422v.125q0 .781-.219 1.437-.219.657-.64 1.141-.423.469-1.048.75-.609.266-1.406.266-.797 0-1.422-.266-.609-.281-1.047-.75-.421-.484-.64-1.14-.219-.657-.219-1.438v-.125zm1.813.125q0 .453.078.844.093.375.265.671.188.282.47.454.296.171.702.171.406 0 .688-.171.281-.172.453-.454.187-.296.265-.671.094-.391.094-.844v-.125q0-.438-.094-.813-.078-.39-.265-.687-.172-.297-.453-.453-.282-.172-.703-.172-.407 0-.688.172-.281.156-.469.453-.172.297-.265.687-.078.375-.078.813v.125zm11.482-3.719q.422 0 .766.063.344.046.562.109l-.265 1.812q-.36-.093-.735-.125-.375-.046-.718-.046-.75 0-1.22.296-.452.282-.687.829V33.8h-1.797v-7.047h1.672l.094 1.156q.422-.593 1.016-.937.609-.344 1.312-.344zm4.077.125l.046.86q.204-.454.547-.72.36-.265.875-.265.844 0 1.11.75.203-.36.53-.547.329-.203.782-.203.313 0 .594.125.281.11.484.375.203.25.313.656.11.407.11.985V33.8h-1.641v-5.031q0-.203-.047-.328-.032-.141-.11-.204-.062-.078-.172-.109-.093-.031-.187-.031-.188 0-.328.094-.125.078-.188.234V33.8h-1.593v-5.031q0-.203-.047-.328-.032-.141-.11-.204-.062-.078-.156-.109t-.187-.031q-.22 0-.344.125-.125.11-.188.312V33.8h-1.656v-7.047h1.563zM779.53 33.8q-.062-.125-.11-.297-.046-.172-.077-.36-.14.157-.344.313-.187.14-.437.25-.235.094-.516.156-.281.063-.625.063-.531 0-.984-.156-.454-.157-.782-.422-.328-.281-.515-.672-.172-.39-.172-.844 0-1.11.828-1.719t2.469-.609h1.015v-.422q0-.5-.328-.797-.328-.297-.953-.297-.562 0-.812.235-.25.234-.25.625h-1.813q0-.438.188-.844.203-.406.578-.703.39-.313.937-.484.547-.188 1.266-.188.64 0 1.187.156.547.157.953.47.407.296.625.765.235.468.235 1.078v3.015q0 .563.062.938.078.375.22.64v.11h-1.845zm-1.718-1.266q.265 0 .5-.062.234-.078.421-.172.204-.11.329-.234.14-.141.218-.282v-1.203h-.922q-.421 0-.718.078t-.5.235q-.188.14-.282.343-.078.204-.078.454 0 .359.25.609.266.234.782.234zm8.638-7.5v1.72h2.625v1.343h-2.625v3.015q0 .391.078.657.094.25.25.406.172.14.407.219.234.062.515.062.203 0 .422-.015.219-.032.422-.047.203-.032.375-.063.172-.047.297-.078l.172 1.25q-.188.11-.453.188-.25.078-.532.125-.28.062-.593.093-.313.032-.61.032-.578 0-1.047-.157-.468-.156-.812-.468-.328-.329-.516-.829-.187-.5-.187-1.187v-3.203h-1.61v-1.344h1.61v-1.719h1.812zm5.17 1.72h3.829v5.577h1.906V33.8h-5.735v-1.469h2v-4.094h-2v-1.484zm1.875-1.798q0-.203.063-.375.078-.187.219-.312.14-.14.328-.203.187-.079.422-.079.484 0 .765.282.282.265.282.687 0 .422-.282.703-.281.266-.765.266-.235 0-.422-.078-.188-.078-.328-.203-.141-.125-.22-.297-.062-.188-.062-.39zm5.39 5.266q0-.781.218-1.422.219-.656.64-1.14.438-.485 1.047-.75.625-.282 1.407-.282.797 0 1.406.281.625.266 1.047.75.437.485.656 1.141.219.64.219 1.422v.125q0 .781-.219 1.437-.219.657-.64 1.141-.422.469-1.047.75-.61.266-1.407.266t-1.422-.266q-.609-.281-1.046-.75-.422-.484-.641-1.14-.219-.657-.219-1.438v-.125zm1.812.125q0 .453.078.844.094.375.265.671.188.282.47.454.296.171.702.171.407 0 .688-.171.281-.172.453-.454.187-.296.266-.671.093-.391.093-.844v-.125q0-.438-.093-.813-.079-.39-.266-.687-.172-.297-.453-.453-.281-.172-.703-.172-.407 0-.688.172-.281.156-.469.453-.171.297-.265.687-.078.375-.078.813v.125zm8.076-3.594l.11.984q.374-.53.906-.812.547-.297 1.203-.297.531 0 .969.156.453.157.765.5.328.344.5.875.188.532.188 1.313V33.8H811.6v-4.313q0-.406-.094-.671-.093-.282-.265-.438-.172-.156-.422-.219-.25-.062-.563-.062-.468 0-.796.187-.313.188-.516.516v5h-1.813v-7.047h1.641z"/><path fill="#673ab7" d="M661.542 65.612q-.016.5-.094 1.016t-.25 1q-.172.484-.437.906-.25.407-.625.72-.36.312-.828.5-.47.171-1.063.171-.578 0-1.062-.172-.47-.187-.829-.5-.359-.312-.64-.719-.266-.422-.438-.906-.172-.484-.25-1-.078-.516-.093-1.016v-1.078q.015-.515.093-1.03.078-.517.25-1 .172-.485.438-.892.265-.421.625-.734.36-.328.828-.5.484-.187 1.062-.187.594 0 1.063.187.484.172.844.484.359.313.625.735.265.422.437.906.172.484.25 1 .078.516.094 1.031v1.078zm-1.188-1.093q-.015-.344-.062-.703-.031-.375-.125-.735t-.25-.687q-.156-.328-.39-.578-.235-.25-.563-.391-.313-.156-.735-.156-.406 0-.734.156-.312.14-.547.39-.234.25-.39.579-.157.328-.25.687-.094.36-.141.735-.047.375-.047.703v1.093q0 .329.047.704.047.359.14.734.094.36.25.687.157.329.391.579.235.25.547.406.328.14.75.14t.734-.14q.329-.156.563-.406.234-.25.39-.579.157-.328.25-.687.094-.36.126-.734.03-.375.046-.704V64.52zm4.811 5.281v-6.11h-1.937v-.937h1.937v-.484q0-.688.203-1.188.203-.515.563-.86.36-.343.86-.515.515-.187 1.14-.187.437 0 .843.078.407.078.829.187l-.141.985q-.266-.094-.625-.157-.36-.062-.75-.062-.86 0-1.281.422-.422.422-.422 1.297v.484h2.719v.938h-2.72V69.8h-1.218zm8.005 0v-6.11h-1.938v-.937h1.938v-.484q0-.688.203-1.188.203-.515.562-.86.36-.343.86-.515.515-.187 1.14-.187.438 0 .844.078.406.078.828.187l-.14.985q-.266-.094-.625-.157-.36-.062-.75-.062-.86 0-1.282.422-.421.422-.421 1.297v.484h2.718v.938h-2.718V69.8h-1.22zm10.895-1.875q0-.203-.094-.375-.078-.172-.28-.313-.204-.156-.532-.265-.328-.125-.828-.219-.61-.125-1.11-.297-.484-.187-.843-.422-.36-.25-.563-.578-.187-.328-.187-.765 0-.422.203-.797.203-.375.562-.657.375-.28.875-.437.5-.172 1.11-.172.656 0 1.171.172.516.172.875.469.375.297.563.703.203.39.203.86h-1.203q0-.235-.125-.454-.11-.219-.313-.375-.203-.172-.5-.281-.296-.11-.671-.11-.391 0-.688.094-.281.078-.469.219-.187.14-.297.344-.093.187-.093.39t.078.375q.078.157.265.282.204.125.516.234.328.11.828.203.64.14 1.156.328.516.172.86.422.36.25.547.578.187.328.187.766 0 .469-.219.86-.203.374-.578.655-.375.266-.906.422-.531.141-1.156.141-.719 0-1.281-.188-.547-.187-.938-.5-.39-.328-.594-.734-.203-.422-.203-.875h1.203q.032.375.203.64.172.25.422.407.266.156.578.219.313.062.61.062.765 0 1.203-.281.453-.281.453-.75zm6.436 2q-.75 0-1.375-.25-.61-.25-1.063-.703-.437-.453-.687-1.078-.25-.625-.25-1.375v-.266q0-.86.265-1.531.282-.672.735-1.125.453-.469 1.031-.719.578-.25 1.188-.25.75 0 1.312.266.578.265.953.734.375.453.563 1.094.187.625.187 1.36v.546h-5.031q.031.484.187.906.172.422.454.735.296.312.687.5.406.172.906.172.64 0 1.14-.25.5-.266.829-.688l.734.563q-.171.265-.437.515t-.61.438q-.343.187-.78.297-.438.109-.938.109zm-.156-6.313q-.375 0-.704.141-.312.125-.578.39-.265.25-.453.626-.172.375-.234.86h3.781v-.079q-.016-.36-.14-.703-.11-.344-.329-.61-.218-.28-.562-.453-.328-.172-.781-.172zm7.888-2.562v1.703h2.688v.938h-2.688v3.828q0 .406.094.672.11.265.297.437.187.156.422.219.234.062.5.062.203 0 .406-.015l.406-.063q.203-.031.375-.062.172-.047.282-.063l.171.844q-.156.094-.375.172-.203.062-.468.11-.25.046-.532.062-.28.031-.562.031-.469 0-.875-.125-.406-.14-.703-.422-.297-.297-.485-.75-.171-.469-.171-1.11v-3.827h-1.844v-.938h1.844V61.05h1.218z"/><path fill="#e67c73" d="M705.481 69.019q0-.188.047-.36.063-.172.172-.297.125-.125.297-.203.188-.078.422-.078.234 0 .406.078.188.078.297.203.125.125.188.297.062.172.062.36 0 .187-.062.36-.063.155-.188.28-.11.125-.297.188-.172.078-.406.078-.234 0-.422-.078-.172-.063-.297-.188-.11-.125-.172-.28-.047-.173-.047-.36zm0-6q0-.188.047-.36.063-.172.172-.297.125-.125.297-.203.188-.078.422-.078.234 0 .406.078.188.078.297.203.125.125.188.297.062.172.062.36 0 .187-.062.36-.063.155-.188.28-.11.125-.297.203-.172.063-.406.063-.234 0-.422-.063-.172-.078-.297-.203-.11-.125-.172-.28-.047-.173-.047-.36z"/><path fill="#db4437" d="M725.322 66.175q0 .906-.204 1.61-.203.687-.593 1.171-.39.485-.969.735-.563.234-1.297.234-.719 0-1.297-.234-.562-.25-.969-.735-.39-.484-.609-1.172-.203-.703-.203-1.609v-2.219q0-.906.203-1.594.219-.703.61-1.187.39-.484.953-.734.578-.25 1.312-.25.719 0 1.281.25.578.25.97.734.405.484.608 1.187.204.688.204 1.594v2.219zm-4.922-.234l3.687-2.844q-.11-.938-.562-1.422-.438-.5-1.266-.5-.953 0-1.406.64-.453.641-.453 1.876v2.25zm3.718-1.688l-3.687 2.813q.11.921.562 1.406.454.484 1.266.484.969 0 1.406-.64.453-.657.453-1.891v-2.172z"/><path fill="#e67c73" d="M659.589 77.956h-1.438v10.89h1.438v.985h-2.578v-12.86h2.578v.985zm7.998 0h-1.438v10.89h1.438v.985h-2.578v-12.86h2.578v.985z"/><path fill="#673ab7" d="M676.07 85.237l.718-6.906h1.14l-1.14 9.469h-1.234l-1.219-7.14-1.234 7.14h-1.235l-1.156-9.469h1.156l.72 6.906 1.218-6.906h1.047l1.218 6.906zm7.92-4.609q.171 0 .343.016.188 0 .344.031.172.016.313.047.14.031.234.078l-.172 1.172q-.344-.078-.656-.11-.313-.03-.656-.03-.86 0-1.391.39-.516.375-.766 1.062V87.8h-1.203v-7.047h1.14l.063 1.125q.438-.578 1.032-.906.609-.344 1.375-.344zm3.576.125h3.594v6h2.296V87.8h-5.89v-1.047h2.39V81.8h-2.39v-1.047zm2.234-1.844q0-.297.172-.5.188-.203.547-.203.36 0 .531.203.188.203.188.5t-.188.5q-.172.188-.531.188-.36 0-.547-.188-.172-.203-.172-.5zm8.42.141v1.703h2.688v.938h-2.688v3.828q0 .406.094.672.11.265.297.437.187.156.422.219.234.062.5.062.203 0 .406-.015l.406-.063q.203-.031.375-.062.172-.047.282-.063l.171.844q-.156.094-.375.172-.203.062-.468.11-.25.046-.532.062-.28.031-.562.031-.469 0-.875-.125-.406-.14-.703-.422-.297-.297-.485-.75-.171-.469-.171-1.11v-3.827h-1.844v-.938h1.844V79.05h1.218zM708 87.8q-.078-.14-.125-.344-.032-.203-.063-.422-.172.188-.406.344-.219.156-.5.281-.266.125-.578.188-.297.078-.64.078-.563 0-1.016-.156-.454-.157-.766-.438-.313-.281-.484-.656-.172-.39-.172-.828 0-.578.234-1.016.234-.437.656-.719.422-.296 1.016-.437.594-.14 1.328-.14h1.313v-.563q0-.313-.125-.563-.11-.265-.329-.437-.203-.172-.515-.266-.313-.11-.703-.11-.344 0-.64.095-.282.093-.485.25-.188.14-.297.343-.094.203-.094.422h-1.219q.016-.375.203-.75.188-.375.547-.672.36-.297.875-.468.532-.188 1.188-.188.594 0 1.11.156.515.141.89.438.375.297.578.734.219.438.219 1.031v3.282q0 .343.062.75.063.39.188.672v.109H708zm-2.14-.922q.358 0 .655-.078.313-.094.563-.25.25-.156.422-.344.187-.187.297-.39v-1.438h-1.125q-1.047 0-1.641.313-.578.312-.578.984 0 .266.078.484.094.22.266.391.187.156.453.25.265.078.61.078zm11.466-2.516q0 .75-.187 1.407-.172.656-.532 1.14-.343.47-.86.75-.515.266-1.187.266-.671 0-1.171-.234-.5-.235-.86-.688l-.047.797h-1.11v-10h1.204v3.719q.344-.438.828-.657.485-.234 1.14-.234.673 0 1.188.266.532.265.875.75.36.468.532 1.14.187.657.187 1.438v.14zm-1.203-.14q0-.516-.11-.984-.093-.47-.312-.813-.219-.36-.578-.563-.36-.218-.875-.218-.313 0-.578.093-.25.079-.469.235-.203.14-.36.344-.156.187-.265.421v3.079q.11.234.266.437.172.188.375.344.218.156.468.234.266.078.579.078.484 0 .843-.203.36-.203.578-.547.235-.359.329-.812.109-.469.109-.984v-.141zm3.436-6.422h3.593v8.953h2.297V87.8h-5.89v-1.047h2.39v-7.906h-2.39V77.8zm10.92 10.125q-.75 0-1.375-.25-.61-.25-1.063-.703-.437-.453-.687-1.078-.25-.625-.25-1.375v-.266q0-.86.265-1.531.281-.672.735-1.125.453-.469 1.03-.719.579-.25 1.188-.25.75 0 1.313.266.578.265.953.734.375.453.562 1.094.188.625.188 1.36v.546h-5.031q.031.484.187.906.172.422.453.735.297.312.688.5.406.172.906.172.64 0 1.14-.25.5-.266.829-.688l.734.563q-.172.265-.437.515-.266.25-.61.438-.343.187-.78.297-.438.109-.938.109zm-.157-6.313q-.375 0-.703.141-.312.125-.578.39-.266.25-.453.626-.172.375-.234.86h3.78v-.079q-.015-.36-.14-.703-.11-.344-.328-.61-.219-.28-.562-.453-.329-.172-.782-.172z"/><path fill="#e67c73" d="M736.867 76.972h2.579v12.86h-2.579v-.985h1.438v-10.89h-1.438v-.985zm7.999 0h2.578v12.86h-2.578v-.985h1.437v-10.89h-1.437v-.985zm8.592 10.047q0-.188.046-.36.063-.171.172-.296.125-.125.297-.204.188-.078.422-.078.234 0 .406.078.188.079.297.204.125.125.188.296.062.172.062.36 0 .187-.062.36-.063.155-.188.28-.11.125-.297.188-.172.078-.406.078-.234 0-.422-.078-.172-.063-.297-.188-.109-.125-.172-.28-.046-.173-.046-.36zm0-6q0-.188.046-.36.063-.171.172-.296.125-.125.297-.204.188-.078.422-.078.234 0 .406.078.188.079.297.204.125.125.188.296.062.172.062.36 0 .187-.062.36-.063.155-.188.28-.11.125-.297.204-.172.062-.406.062-.234 0-.422-.062-.172-.079-.297-.204-.109-.125-.172-.28-.046-.173-.046-.36z"/><path fill="#4285f4" d="M770.204 79.05v1.703h2.688v.938h-2.688v3.828q0 .406.094.672.11.265.297.437.187.156.421.219.235.062.5.062.204 0 .407-.015l.406-.063q.203-.031.375-.062.172-.047.281-.063l.172.844q-.156.094-.375.172-.203.062-.469.11-.25.046-.53.062-.282.031-.563.031-.47 0-.875-.125-.407-.14-.704-.422-.296-.297-.484-.75-.172-.469-.172-1.11v-3.827h-1.844v-.938h1.844V79.05h1.219zm9.764 1.578q.172 0 .344.016.187 0 .343.031.172.016.313.047.14.031.234.078l-.172 1.172q-.343-.078-.656-.11-.312-.03-.656-.03-.86 0-1.39.39-.516.375-.766 1.062V87.8h-1.204v-7.047h1.141l.063 1.125q.437-.578 1.03-.906.61-.344 1.376-.344zm7.951 6.203q-.36.516-.89.813-.516.281-1.204.281-.562 0-1.015-.172-.438-.172-.766-.531-.312-.36-.484-.922-.172-.563-.172-1.36v-4.187h1.203v4.203q0 .578.094.953.093.375.265.61.188.218.453.312.266.078.61.078.734 0 1.187-.297.453-.296.672-.796v-5.063h1.203V87.8h-1.093l-.063-.969zm6.545 1.094q-.75 0-1.375-.25-.61-.25-1.062-.703-.438-.453-.688-1.078-.25-.625-.25-1.375v-.266q0-.86.266-1.531.281-.672.734-1.125.453-.469 1.031-.719.579-.25 1.188-.25.75 0 1.312.266.579.265.954.734.375.453.562 1.094.188.625.188 1.36v.546h-5.032q.032.484.188.906.172.422.453.735.297.312.687.5.407.172.907.172.64 0 1.14-.25.5-.266.828-.688l.735.563q-.172.265-.438.515-.265.25-.61.438-.343.187-.78.297-.438.109-.938.109zm-.156-6.313q-.375 0-.703.141-.313.125-.578.39-.266.25-.453.626-.172.375-.235.86h3.781v-.079q-.015-.36-.14-.703-.11-.344-.328-.61-.22-.28-.563-.453-.328-.172-.781-.172z"/><path fill="#e67c73" d="M659.589 95.956h-1.438v10.89h1.438v.985h-2.578v-12.86h2.578v.985zm7.998 0h-1.438v10.89h1.438v.985h-2.578v-12.86h2.578v.985z"/><path fill="#673ab7" d="M676.585 101.425h-3.953v3.36h4.61v1.015h-5.813v-9.469h5.75v1.016h-4.547v3.047h3.953v1.031zm3.873-2.672l.078 1.047q.391-.547.938-.86.562-.312 1.25-.312.562 0 1.016.156.453.157.765.485.328.328.5.843.172.516.172 1.22v4.468h-1.203v-4.438q0-.468-.11-.796-.109-.329-.312-.532t-.5-.297q-.297-.093-.687-.093-.594 0-1.063.312-.453.297-.719.797v5.047h-1.218v-7.047h1.093zm11.483 6.078q-.36.516-.89.813-.516.281-1.204.281-.562 0-1.016-.172-.437-.172-.765-.531-.313-.36-.485-.922-.171-.563-.171-1.36v-4.187h1.203v4.203q0 .578.093.953.094.375.266.61.188.218.453.312.266.078.61.078.734 0 1.187-.297.453-.296.672-.796v-5.063h1.203v7.047h-1.094l-.062-.969zm3.982-6.078l.032.672q.218-.375.562-.578.344-.219.844-.219.969 0 1.297.75.203-.328.547-.531.343-.219.828-.219.781 0 1.187.484.422.47.422 1.422v5.266h-1.14v-5.266q0-.89-.813-.89-.219 0-.375.062-.156.063-.266.172-.093.094-.156.234-.062.126-.078.266v5.422h-1.156v-5.281q0-.422-.188-.64-.187-.235-.593-.235-.375 0-.594.156-.203.156-.297.39v5.61h-1.14v-7.047h1.077zm10.561 7.172q-.75 0-1.375-.25-.61-.25-1.062-.703-.438-.453-.688-1.078-.25-.625-.25-1.375v-.266q0-.86.266-1.531.281-.672.734-1.125.453-.469 1.031-.719.579-.25 1.188-.25.75 0 1.312.266.579.265.954.734.375.453.562 1.094.188.625.188 1.36v.546h-5.032q.032.484.188.906.172.422.453.735.297.312.687.5.407.172.907.172.64 0 1.14-.25.5-.266.828-.688l.735.563q-.172.265-.438.515-.265.25-.61.438-.343.187-.78.297-.438.109-.938.109zm-.156-6.313q-.375 0-.703.141-.313.125-.578.39-.266.25-.453.626-.172.375-.235.86h3.781v-.079q-.015-.36-.14-.703-.11-.344-.328-.61-.22-.28-.563-.453-.328-.172-.781-.172zm9.654-.984q.172 0 .344.016.188 0 .344.031.172.016.312.047t.235.078l-.172 1.172q-.344-.078-.656-.11-.313-.03-.657-.03-.86 0-1.39.39-.516.375-.766 1.062v4.516h-1.203v-7.047h1.14l.063 1.125q.438-.578 1.031-.906.61-.344 1.375-.344zm8.014 7.172q-.078-.14-.125-.344-.031-.203-.062-.422-.172.188-.407.344-.218.156-.5.281-.265.125-.578.188-.297.078-.64.078-.563 0-1.016-.156-.453-.157-.766-.438-.312-.281-.484-.656-.172-.39-.172-.828 0-.578.234-1.016.235-.437.657-.719.422-.296 1.015-.437.594-.14 1.328-.14h1.313v-.563q0-.313-.125-.563-.11-.265-.328-.437-.203-.172-.516-.266-.312-.11-.703-.11-.344 0-.64.095-.282.093-.485.25-.187.14-.297.343-.094.203-.094.422h-1.218q.015-.375.203-.75.187-.375.547-.672.36-.297.875-.468.531-.188 1.187-.188.594 0 1.11.156.515.141.89.438.375.297.578.734.22.438.22 1.031v3.282q0 .343.062.75.062.39.187.672v.109h-1.25zm-2.14-.922q.359 0 .656-.078.312-.094.562-.25.25-.156.422-.344.188-.187.297-.39v-1.438h-1.125q-1.047 0-1.64.313-.579.312-.579.984 0 .266.078.484.094.22.266.391.187.156.453.25.266.078.61.078zm11.466-2.516q0 .75-.187 1.407-.172.656-.531 1.14-.344.47-.86.75-.515.266-1.187.266t-1.172-.234q-.5-.235-.86-.688l-.046.797h-1.11v-10h1.203v3.719q.344-.438.829-.657.484-.234 1.14-.234.672 0 1.188.266.53.265.875.75.359.468.53 1.14.188.657.188 1.438v.14zm-1.203-.14q0-.516-.11-.984-.093-.47-.312-.813-.218-.36-.578-.563-.36-.218-.875-.218-.312 0-.578.093-.25.079-.469.235-.203.14-.359.344-.156.187-.266.421v3.079q.11.234.266.437.172.188.375.344.219.156.469.234.265.078.578.078.484 0 .844-.203.359-.203.578-.547.234-.359.328-.812.11-.469.11-.984v-.141zm3.436-6.422h3.594v8.953h2.297v1.047h-5.891v-1.047h2.39v-7.906h-2.39V95.8zm10.92 10.125q-.75 0-1.375-.25-.61-.25-1.062-.703-.438-.453-.688-1.078-.25-.625-.25-1.375v-.266q0-.86.266-1.531.28-.672.734-1.125.453-.469 1.031-.719.578-.25 1.188-.25.75 0 1.312.266.578.265.953.734.375.453.563 1.094.187.625.187 1.36v.546h-5.03q.03.484.187.906.172.422.453.735.297.312.687.5.407.172.907.172.64 0 1.14-.25.5-.266.828-.688l.735.563q-.172.265-.438.515-.265.25-.61.438-.343.187-.78.297-.438.109-.938.109zm-.156-6.313q-.375 0-.703.141-.313.125-.578.39-.266.25-.454.626-.171.375-.234.86h3.781v-.079q-.015-.36-.14-.703-.11-.344-.328-.61-.22-.28-.563-.453-.328-.172-.781-.172z"/><path fill="#e67c73" d="M752.864 94.972h2.578v12.86h-2.578v-.985h1.437v-10.89h-1.437v-.985zm7.998 0h2.578v12.86h-2.578v-.985h1.437v-10.89h-1.437v-.985zm8.592 10.047q0-.188.047-.36.062-.171.172-.296.125-.125.297-.204.187-.078.421-.078.235 0 .407.078.187.079.297.204.125.125.187.296.063.172.063.36 0 .187-.063.36-.062.155-.187.28-.11.125-.297.188-.172.078-.407.078-.234 0-.421-.078-.172-.063-.297-.188-.11-.125-.172-.28-.047-.173-.047-.36zm0-6q0-.188.047-.36.062-.171.172-.296.125-.125.297-.204.187-.078.421-.078.235 0 .407.078.187.079.297.204.125.125.187.296.063.172.063.36 0 .187-.063.36-.062.155-.187.28-.11.125-.297.204-.172.062-.407.062-.234 0-.421-.062-.172-.079-.297-.204-.11-.125-.172-.28-.047-.173-.047-.36z"/><path fill="#4285f4" d="M786.2 97.05v1.703h2.688v.938H786.2v3.828q0 .406.094.672.11.265.297.437.187.156.422.219.234.062.5.062.203 0 .406-.015l.406-.063q.203-.031.375-.062.172-.047.282-.063l.171.844q-.156.094-.375.172-.203.062-.468.11-.25.046-.532.062-.28.031-.562.031-.469 0-.875-.125-.406-.14-.703-.422-.297-.297-.485-.75-.171-.469-.171-1.11v-3.827h-1.844v-.938h1.844V97.05h1.218zm9.764 1.578q.172 0 .344.016.187 0 .344.031.171.016.312.047.14.031.234.078l-.171 1.172q-.344-.078-.657-.11-.312-.03-.656-.03-.86 0-1.39.39-.516.375-.766 1.062v4.516h-1.203v-7.047h1.14l.063 1.125q.437-.578 1.031-.906.61-.344 1.375-.344zm7.951 6.203q-.359.516-.89.813-.516.281-1.203.281-.563 0-1.016-.172-.437-.172-.766-.531-.312-.36-.484-.922-.172-.563-.172-1.36v-4.187h1.203v4.203q0 .578.094.953t.266.61q.187.218.453.312.265.078.61.078.734 0 1.187-.297.453-.296.672-.796v-5.063h1.203v7.047h-1.094l-.063-.969zm6.545 1.094q-.75 0-1.375-.25-.609-.25-1.062-.703-.438-.453-.688-1.078-.25-.625-.25-1.375v-.266q0-.86.266-1.531.281-.672.734-1.125.454-.469 1.032-.719.578-.25 1.187-.25.75 0 1.313.266.578.265.953.734.375.453.562 1.094.188.625.188 1.36v.546h-5.031q.03.484.187.906.172.422.453.735.297.312.688.5.406.172.906.172.64 0 1.14-.25.5-.266.829-.688l.734.563q-.172.265-.437.515-.266.25-.61.438-.344.187-.781.297-.438.109-.938.109zm-.156-6.313q-.375 0-.703.141-.312.125-.578.39-.266.25-.453.626-.172.375-.235.86h3.782v-.079q-.016-.36-.14-.703-.11-.344-.329-.61-.219-.28-.563-.453-.328-.172-.78-.172z"/><path fill="#e67c73" d="M659.589 113.956h-1.438v10.89h1.438v.985h-2.578v-12.86h2.578v.985zm7.998 0h-1.438v10.89h1.438v.985h-2.578v-12.86h2.578v.985z"/><path fill="#673ab7" d="M677.507 120.956q-.078.656-.344 1.203-.25.547-.656.938-.406.39-.969.61-.547.218-1.234.218-.578 0-1.063-.156-.468-.172-.843-.453-.375-.297-.657-.688-.265-.406-.453-.875-.172-.469-.265-.984-.079-.516-.079-1.047v-1.313q0-.53.079-1.047.093-.515.265-.984.188-.469.453-.86.282-.406.657-.702.375-.297.843-.454.47-.171 1.063-.171.719 0 1.265.218.563.22.97.625.405.391.64.953.25.563.328 1.235h-1.203q-.063-.422-.203-.797-.14-.375-.39-.64-.235-.282-.579-.438-.344-.172-.828-.172-.422 0-.75.14-.328.141-.578.391-.235.235-.39.563-.157.312-.267.672-.093.343-.14.718-.031.375-.031.735v1.328q0 .36.03.734.048.375.141.735.11.359.266.687.156.313.39.563.25.234.563.375.328.14.766.14.484 0 .828-.14.344-.157.578-.422.25-.282.39-.64.141-.376.204-.798h1.203zm1.53-.734q0-.766.218-1.422.219-.656.625-1.14.422-.485 1.016-.75.594-.282 1.328-.282.75 0 1.344.281.593.266 1 .75.422.485.64 1.141.235.656.235 1.422v.14q0 .75-.235 1.407-.218.656-.64 1.14-.407.47-1 .75-.578.266-1.328.266-.75 0-1.344-.266-.594-.28-1.016-.75-.406-.484-.625-1.14-.219-.657-.219-1.407v-.14zm1.203.14q0 .516.125.985t.375.828q.25.36.625.578.375.203.875.203t.875-.203q.375-.219.625-.578.25-.36.375-.828.125-.469.125-.984v-.141q0-.516-.141-.984-.125-.485-.375-.844-.25-.36-.625-.563-.375-.219-.875-.219t-.875.22q-.36.202-.61.562-.25.36-.374.843-.125.47-.125.985v.14zm8.216-3.609l.079 1.047q.39-.547.937-.86.563-.312 1.25-.312.563 0 1.016.156.453.157.765.485.328.328.5.843.172.516.172 1.22v4.468h-1.203v-4.438q0-.468-.11-.796-.109-.329-.312-.532t-.5-.297q-.297-.093-.687-.093-.594 0-1.063.312-.453.297-.719.797v5.047h-1.218v-7.047h1.093zm8.702 7.047v-6.11h-1.938v-.937h1.938v-.484q0-.688.203-1.188.203-.515.562-.86.36-.343.86-.515.515-.187 1.14-.187.438 0 .844.078.406.078.828.187l-.14.985q-.266-.094-.625-.157-.36-.062-.75-.062-.86 0-1.282.422-.421.422-.421 1.297v.484h2.718v.938h-2.718v6.109h-1.22zm6.41-7.047h3.594v6h2.297v1.047h-5.89v-1.047h2.39V117.8h-2.39v-1.047zm2.235-1.844q0-.297.172-.5.187-.203.547-.203.36 0 .531.203.188.203.188.5t-.188.5q-.172.188-.531.188-.36 0-.547-.188-.172-.203-.172-.5zm5.342 5.313q0-.781.188-1.438.203-.672.562-1.14.375-.485.89-.75.516-.266 1.173-.266.656 0 1.14.234.5.235.844.657l.062-.766h1.094v6.89q0 .704-.219 1.235-.218.547-.625.922-.39.375-.937.563-.547.203-1.203.203-.281 0-.64-.063-.345-.047-.704-.187-.36-.141-.703-.375-.328-.235-.563-.579l.625-.734q.22.266.454.453.234.188.468.297.25.11.485.156.25.063.484.063.422 0 .766-.125.359-.125.593-.375.25-.234.375-.594.141-.344.141-.797v-.61q-.36.407-.844.626-.468.203-1.11.203-.64 0-1.155-.266-.516-.28-.891-.75-.36-.484-.562-1.14-.188-.657-.188-1.407v-.14zm1.203.14q0 .516.11.985.109.453.343.812.235.344.578.547.36.203.875.203.313 0 .563-.078.25-.078.437-.203.204-.14.36-.328t.281-.422v-3.219q-.125-.234-.281-.406-.156-.187-.36-.312-.203-.141-.453-.22-.234-.077-.547-.077-.5 0-.859.218-.36.204-.594.563-.234.344-.343.813-.11.468-.11.984v.14zm11.592 2.47q-.36.515-.89.812-.516.281-1.204.281-.562 0-1.015-.172-.438-.172-.766-.531-.312-.36-.484-.922-.172-.563-.172-1.36v-4.187h1.203v4.203q0 .578.094.953.093.375.265.61.188.218.453.312.266.078.61.078.734 0 1.187-.297.453-.296.672-.796v-5.063h1.203v7.047h-1.093l-.063-.969zm8.045-6.204q.172 0 .344.016.187 0 .344.031.172.016.312.047t.235.078l-.172 1.172q-.344-.078-.657-.11-.312-.03-.656-.03-.86 0-1.39.39-.516.375-.766 1.062v4.516h-1.203v-7.047h1.14l.063 1.125q.437-.578 1.031-.906.61-.344 1.375-.344zM740 123.8q-.078-.14-.125-.344l-.063-.422q-.171.188-.406.344-.219.156-.5.281-.265.125-.578.188-.297.078-.64.078-.563 0-1.016-.156-.453-.157-.766-.438-.312-.281-.484-.656-.172-.39-.172-.828 0-.578.234-1.016.235-.437.657-.719.421-.296 1.015-.437.594-.14 1.328-.14h1.313v-.563q0-.313-.125-.563-.11-.265-.328-.437-.203-.172-.516-.266-.312-.11-.703-.11-.344 0-.64.095-.282.093-.485.25-.188.14-.297.343-.094.203-.094.422h-1.218q.015-.375.203-.75.187-.375.547-.672.359-.297.875-.468.53-.188 1.187-.188.594 0 1.11.156.515.141.89.438.375.297.578.734.219.438.219 1.031v3.282q0 .343.062.75.063.39.188.672v.109H740zm-2.14-.922q.359 0 .656-.078.312-.094.562-.25.25-.156.422-.344.187-.187.297-.39v-1.438h-1.125q-1.047 0-1.64.313-.579.312-.579.984 0 .266.078.484.094.22.266.391.187.156.453.25.266.078.61.078zm11.466-2.516q0 .75-.187 1.407-.172.656-.532 1.14-.343.47-.859.75-.516.266-1.187.266-.672 0-1.172-.234-.5-.235-.86-.688l-.047.797h-1.109v-10h1.203v3.719q.344-.438.828-.657.485-.234 1.141-.234.672 0 1.187.266.532.265.875.75.36.468.532 1.14.187.657.187 1.438v.14zm-1.203-.14q0-.516-.11-.984-.093-.47-.312-.813-.219-.36-.578-.563-.36-.218-.875-.218-.312 0-.578.093-.25.079-.469.235-.203.14-.36.344-.155.187-.265.421v3.079q.11.234.266.437.172.188.375.344.219.156.469.234.265.078.578.078.484 0 .843-.203.36-.203.579-.547.234-.359.328-.812.11-.469.11-.984v-.141zm3.436-6.422h3.594v8.953h2.296v1.047h-5.89v-1.047h2.39v-7.906h-2.39V113.8zm10.92 10.125q-.75 0-1.375-.25-.61-.25-1.063-.703-.437-.453-.687-1.078-.25-.625-.25-1.375v-.266q0-.86.266-1.531.28-.672.734-1.125.453-.469 1.031-.719.578-.25 1.188-.25.75 0 1.312.266.578.265.953.734.375.453.563 1.094.187.625.187 1.36v.546h-5.031q.031.484.188.906.171.422.453.735.297.312.687.5.406.172.906.172.641 0 1.141-.25.5-.266.828-.688l.735.563q-.172.265-.438.515t-.61.438q-.343.187-.78.297-.438.109-.938.109zm-.156-6.313q-.375 0-.703.141-.313.125-.579.39-.265.25-.453.626-.172.375-.234.86h3.781v-.079q-.015-.36-.14-.703-.11-.344-.329-.61-.218-.28-.562-.453-.328-.172-.781-.172z"/><path fill="#e67c73" d="M768.867 112.972h2.578v12.86h-2.578v-.985h1.437v-10.89h-1.437v-.985zm7.998 0h2.578v12.86h-2.578v-.985h1.437v-10.89h-1.437v-.985zm8.592 10.047q0-.188.047-.36.062-.171.172-.296.125-.125.296-.204.188-.078.422-.078.235 0 .407.078.187.079.296.204.125.125.188.296.062.172.062.36 0 .187-.062.36-.063.155-.188.28-.109.125-.296.188-.172.078-.407.078-.234 0-.422-.078-.171-.063-.296-.188-.11-.125-.172-.28-.047-.173-.047-.36zm0-6q0-.188.047-.36.062-.171.172-.296.125-.125.296-.204.188-.078.422-.078.235 0 .407.078.187.079.296.204.125.125.188.296.062.172.062.36 0 .187-.062.36-.063.155-.188.28-.109.125-.296.204-.172.062-.407.062-.234 0-.422-.062-.171-.079-.296-.204-.11-.125-.172-.28-.047-.173-.047-.36z"/><path fill="#4285f4" d="M802.203 115.05v1.703h2.688v.938h-2.688v3.828q0 .406.094.672.11.265.297.437.187.156.422.219.234.062.5.062.203 0 .406-.015l.406-.063q.203-.031.375-.062.172-.047.281-.063l.172.844q-.156.094-.375.172-.203.062-.468.11-.25.046-.532.062-.28.031-.562.031-.469 0-.875-.125-.406-.14-.703-.422-.297-.297-.485-.75-.172-.469-.172-1.11v-3.827h-1.843v-.938h1.843v-1.703h1.22zm9.764 1.578q.172 0 .344.016.187 0 .343.031.172.016.313.047.14.031.234.078l-.172 1.172q-.343-.078-.656-.11-.312-.03-.656-.03-.86 0-1.39.39-.516.375-.766 1.062v4.516h-1.203v-7.047h1.14l.063 1.125q.437-.578 1.031-.906.61-.344 1.375-.344zm7.951 6.203q-.359.516-.89.813-.516.281-1.203.281-.563 0-1.016-.172-.438-.172-.766-.531-.312-.36-.484-.922-.172-.563-.172-1.36v-4.187h1.203v4.203q0 .578.094.953t.266.61q.187.218.453.312.265.078.61.078.733 0 1.187-.297.453-.296.671-.796v-5.063h1.204v7.047h-1.094l-.063-.969zm6.545 1.094q-.75 0-1.375-.25-.609-.25-1.062-.703-.438-.453-.688-1.078-.25-.625-.25-1.375v-.266q0-.86.266-1.531.281-.672.734-1.125.454-.469 1.032-.719.578-.25 1.187-.25.75 0 1.313.266.578.265.953.734.375.453.562 1.094.188.625.188 1.36v.546h-5.031q.03.484.187.906.172.422.453.735.297.312.688.5.406.172.906.172.64 0 1.14-.25.5-.266.829-.688l.734.563q-.172.265-.437.515-.266.25-.61.438-.344.187-.781.297-.438.109-.938.109zm-.156-6.313q-.375 0-.703.141-.312.125-.578.39-.266.25-.453.626-.172.375-.235.86h3.782v-.079q-.016-.36-.141-.703-.11-.344-.328-.61-.219-.28-.563-.453-.328-.172-.78-.172z"/><path fill="#ff9800" d="M424.55 27.65c0-6.283 5.093-11.376 11.375-11.376h142.068A11.375 11.375 0 0 1 589.37 27.65v45.5c0 6.283-5.093 11.376-11.376 11.376H435.925c-6.282 0-11.375-5.093-11.375-11.375z" fill-rule="evenodd"/><path stroke="#666" stroke-linejoin="round" stroke-linecap="butt" d="M424.55 27.65h0c0-6.283 5.093-11.376 11.375-11.376h142.068A11.375 11.375 0 0 1 589.37 27.65v45.5c0 6.283-5.093 11.376-11.376 11.376H435.925c-6.282 0-11.375-5.093-11.375-11.375z"/><path fill="#fff" d="M478.515 55.047q0-.5-.187-.937-.172-.453-.594-.828-.422-.391-1.11-.704-.671-.328-1.687-.593-1.234-.344-2.36-.844-1.124-.516-1.984-1.219-.859-.719-1.375-1.672-.515-.953-.515-2.187 0-1.203.5-2.172.515-.984 1.406-1.672.906-.687 2.125-1.062 1.219-.375 2.656-.375 1.485 0 2.703.437 1.235.422 2.125 1.203.891.781 1.375 1.844.5 1.062.5 2.344h-3.562q-.031-.641-.234-1.172-.204-.531-.61-.906-.39-.391-.984-.61-.578-.219-1.375-.219-.735 0-1.297.188-.563.172-.953.484-.39.313-.594.75-.203.438-.203.953 0 .532.266.97.265.421.765.765.516.344 1.235.64.718.282 1.64.516 1.297.39 2.39.938 1.095.546 1.876 1.296.797.735 1.234 1.704.438.953.438 2.125 0 1.25-.516 2.218-.5.969-1.39 1.64-.876.673-2.094 1.017-1.22.343-2.672.343-.89 0-1.781-.172-.891-.156-1.72-.484-.812-.344-1.515-.844-.703-.515-1.219-1.187-.5-.688-.796-1.547-.297-.86-.297-1.906h3.593q.032.859.297 1.484.282.61.766 1 .484.39 1.172.578.687.172 1.5.172.734 0 1.297-.172.562-.172.953-.469.39-.296.594-.718.218-.422.218-.938zm9.903-7.187q.703-1.032 1.703-1.61 1.016-.593 2.266-.593 1.109 0 2.03.343.923.328 1.579 1.032.672.687 1.047 1.796.375 1.094.375 2.641V60h-3.625v-8.547q0-.765-.188-1.312-.187-.547-.546-.875-.344-.344-.844-.5-.485-.172-1.11-.172-.921 0-1.593.328-.657.328-1.094.906V60h-3.625V40h3.625v7.86zM509.602 60q-.14-.265-.235-.593-.078-.344-.156-.72-.297.329-.687.61-.391.281-.875.5-.47.219-1.047.344-.563.125-1.219.125-1.078 0-1.984-.313-.907-.312-1.563-.875-.656-.562-1.015-1.328-.36-.781-.36-1.687 0-2.235 1.656-3.453 1.657-1.22 4.954-1.22h2.015v-.827q0-1.016-.672-1.61-.656-.593-1.906-.593-1.11 0-1.625.484-.5.469-.5 1.266h-3.61q0-.907.391-1.703.407-.813 1.157-1.422.765-.61 1.859-.97 1.11-.358 2.531-.358 1.266 0 2.36.312 1.109.313 1.906.922.812.61 1.265 1.547.47.922.47 2.156v6.031q0 1.14.14 1.89.14.735.406 1.267V60h-3.656zm-3.453-2.531q.547 0 1.015-.125.469-.14.844-.344.375-.218.64-.484.282-.266.438-.531v-2.422h-1.844q-.843 0-1.453.156-.593.156-.968.453-.375.297-.563.703-.187.407-.187.89 0 .735.515 1.22.516.484 1.563.484zm23.293-4.375q0 1.531-.36 2.844-.359 1.312-1.062 2.281-.687.953-1.719 1.5-1.015.547-2.343.547-1.141 0-2-.39-.86-.391-1.5-1.094v6.64h-3.61v-19.5h3.344l.125 1.375q.656-.781 1.531-1.203.89-.437 2.078-.437 1.344 0 2.36.515 1.03.516 1.734 1.469.703.937 1.063 2.266.359 1.312.359 2.906v.281zm-3.61-.281q0-.875-.171-1.656-.157-.782-.5-1.344-.344-.563-.891-.89-.547-.329-1.312-.329-.954 0-1.563.375-.594.375-.937 1.047v5.89q.343.657.937 1.063.61.39 1.594.39.765 0 1.297-.327.547-.344.89-.922.344-.594.5-1.375.157-.782.157-1.641v-.281zm13.794 7.453q-1.625 0-2.953-.531-1.329-.547-2.282-1.453-.953-.922-1.468-2.157-.516-1.25-.516-2.672v-.515q0-1.625.5-2.953.516-1.328 1.422-2.297.922-.969 2.172-1.5t2.718-.531q1.516 0 2.704.5 1.203.5 2.03 1.421.829.907 1.25 2.188.438 1.281.438 2.828v1.531h-9.562q.11.719.422 1.313.328.594.812 1.031.5.422 1.14.656.641.235 1.391.235.532 0 1.063-.094.531-.11 1-.313.484-.203.906-.5.422-.312.735-.703l1.796 1.953q-.328.47-.875.938-.53.469-1.28.828-.735.344-1.641.563-.891.234-1.922.234zm-.438-11.688q-.61 0-1.125.22-.5.218-.89.624-.375.406-.641.969-.25.547-.39 1.234h5.937v-.281q-.016-.578-.219-1.078-.187-.516-.562-.875-.36-.375-.891-.594-.531-.219-1.219-.219z"/><path fill="#bdbdbd" d="M435.557 84.705H578.14v59.716H435.557z" fill-rule="evenodd"/><path stroke="#666" stroke-linejoin="round" stroke-linecap="butt" d="M435.557 84.705H578.14v59.716H435.557z"/><path fill="#000" d="M492.902 106.4l-.25 4.312h-1.61v-5.609h1.86v1.297zm14.027 8.718l3.39-4.703h2.532l-4.719 6.282 4.86 6.406h-2.516l-3.5-4.828-3.5 4.828h-2.532l4.844-6.406-4.719-6.282h2.5l3.36 4.703zm14.777-8.718l-.25 4.312h-1.61v-5.609h1.86v1.297z"/><path fill="#bdbdbd" d="M435.557 144.408H578.14v59.717H435.557z" fill-rule="evenodd"/><path stroke="#666" stroke-linejoin="round" stroke-linecap="butt" d="M435.557 144.408H578.14v59.717H435.557z"/><path fill="#000" d="M492.902 166.103l-.25 4.313h-1.61v-5.61h1.86v1.297zm13.449 12.203l.562 1.532 3.875-9.72h2.422l-6.437 14.641q-.22.5-.563 1.047-.344.547-.844 1.016-.484.469-1.14.781-.657.328-1.516.328-.156 0-.344-.015-.187-.016-.375-.047-.187-.031-.359-.078-.156-.032-.266-.047l.36-1.766h.218q.141.016.297.031.157.016.297.016h.219q.437 0 .812-.25.375-.234.657-.578.281-.344.484-.703.219-.36.328-.594l.875-1.687-5.469-12.094h2.422l3.485 8.187zm15.355-12.203l-.25 4.313h-1.61v-5.61h1.86v1.297z"/><path d="M550.403 121.016L639.19 75"/><path stroke="#666" stroke-width="4" stroke-linejoin="round" stroke-linecap="butt" d="M563.863 114.04l54.019-27.997"/><path fill="#666" stroke="#666" stroke-width="4" stroke-linecap="butt" d="M552.179 120.095a6.58 6.58 0 1 1 11.684-6.055 6.58 6.58 0 0 1-11.684 6.055z"/><path fill="#666" stroke="#666" stroke-width="4" stroke-linecap="butt" d="M620.922 91.91L634 77.69l-19.157 2.487z" fill-rule="evenodd"/><path fill="#fbbc05" fill-opacity=".377" d="M639.19 169.859c0-11.394 9.237-20.63 20.63-20.63h173.953a20.63 20.63 0 0 1 20.63 20.63v82.519c0 11.393-9.237 20.63-20.63 20.63H659.82c-11.394 0-20.63-9.237-20.63-20.63z" fill-rule="evenodd"/><path stroke="#666" stroke-linejoin="round" stroke-linecap="butt" d="M639.19 169.859h0c0-11.394 9.237-20.63 20.63-20.63h173.953a20.63 20.63 0 0 1 20.63 20.63v82.519c0 11.393-9.237 20.63-20.63 20.63H659.82c-11.394 0-20.63-9.237-20.63-20.63z"/><path fill="#000" d="M657.03 166.45v3.468h-1.83v-9.469h3.235q.781 0 1.406.22.625.218 1.063.624.437.406.671.969.25.547.25 1.234 0 .64-.25 1.188-.234.531-.671.922-.438.39-1.063.625-.625.218-1.406.218h-1.406zm0-1.485h1.406q.39 0 .672-.11.297-.124.484-.328.203-.203.297-.468.094-.266.094-.547 0-.328-.094-.61-.094-.296-.297-.515-.187-.219-.484-.328-.282-.125-.672-.125h-1.406v3.031zm11.17-2.219q.422 0 .765.063.344.047.563.11l-.266 1.812q-.36-.094-.734-.125-.375-.047-.719-.047-.75 0-1.219.297-.453.28-.687.828v4.234h-1.797v-7.047h1.672l.094 1.156q.421-.593 1.015-.937.61-.344 1.313-.344zm2.7 3.594q0-.781.22-1.422.218-.656.64-1.14.438-.485 1.047-.75.625-.282 1.406-.282.797 0 1.407.281.625.266 1.047.75.437.485.656 1.141.219.64.219 1.422v.125q0 .781-.22 1.437-.218.657-.64 1.141-.422.469-1.047.75-.61.266-1.406.266-.797 0-1.422-.266-.61-.281-1.047-.75-.422-.484-.64-1.14-.22-.657-.22-1.438v-.125zm1.813.125q0 .453.079.844.093.375.265.672.188.28.469.453.297.172.703.172.406 0 .688-.172.28-.172.453-.453.187-.297.265-.672.094-.39.094-.844v-.125q0-.438-.094-.813-.078-.39-.265-.687-.172-.297-.453-.453-.282-.172-.704-.172-.406 0-.687.172-.281.156-.469.453-.172.297-.265.687-.079.375-.079.813v.125zm12.764 0q0 .766-.187 1.422-.172.656-.532 1.14-.343.47-.859.75-.516.266-1.172.266-.562 0-1-.187-.422-.204-.75-.547v3.312h-1.812v-9.75h1.672l.078.688q.312-.375.75-.594.453-.219 1.047-.219.671 0 1.187.266.516.25.86.719.359.468.53 1.14.188.656.188 1.453v.141zm-1.812-.14q0-.438-.094-.829-.078-.39-.25-.672-.172-.28-.438-.437-.265-.172-.656-.172-.469 0-.781.187-.297.188-.469.532v2.937q.172.328.469.531.312.188.797.188.39 0 .656-.156.266-.172.438-.469.171-.297.25-.672.078-.39.078-.828v-.14zm6.889 3.718q-.813 0-1.485-.266-.656-.265-1.125-.718-.469-.469-.734-1.078-.25-.625-.25-1.344v-.25q0-.813.25-1.469.25-.672.703-1.156.453-.485 1.078-.75.625-.266 1.36-.266.765 0 1.359.25t1 .703q.422.453.64 1.094.22.64.22 1.422v.766h-4.782q.047.359.203.656.172.297.406.515.25.204.563.329.328.109.703.109.281 0 .531-.047.266-.047.5-.14.25-.11.453-.25.22-.157.375-.36l.907.969q-.172.25-.454.484-.265.219-.64.406-.36.172-.813.282-.437.11-.968.11zm-.204-5.828q-.312 0-.562.11-.25.093-.453.296-.188.203-.328.485-.125.28-.188.625h2.969v-.141q-.016-.281-.11-.531-.093-.266-.28-.453-.188-.188-.454-.282-.25-.109-.594-.109zm9.842-1.469q.422 0 .766.063.344.047.563.11l-.266 1.812q-.36-.094-.734-.125-.375-.047-.72-.047-.75 0-1.218.297-.453.28-.687.828v4.234h-1.797v-7.047h1.672l.093 1.156q.422-.593 1.016-.937.61-.344 1.312-.344zm6.264-1.594v1.72h2.625v1.343h-2.625v3.016q0 .39.078.656.094.25.25.406.172.14.407.219.234.062.515.062.203 0 .422-.015.219-.032.422-.047.203-.031.375-.063.172-.047.297-.078l.172 1.25q-.188.11-.453.188-.25.078-.532.125-.281.062-.593.093-.313.032-.61.032-.578 0-1.047-.157-.468-.156-.812-.468-.328-.328-.516-.828-.187-.5-.187-1.188v-3.203h-1.61v-1.344h1.61v-1.719h1.812zm7.686 5.813l.203.75 1.875-4.844h2l-3.578 8.094q-.11.281-.297.594-.188.312-.469.578-.281.265-.687.437-.39.188-.938.188-.125 0-.25-.016-.11 0-.219-.015-.093-.016-.203-.047-.093-.016-.203-.047l.219-1.39q.11 0 .281.015.172.015.281.015.204 0 .375-.14.172-.125.282-.281.125-.157.187-.297.078-.125.11-.125l.421-.813-2.968-6.75h1.968l1.61 4.094zm13.48-4.094h3.829v5.578h1.906v1.47h-5.734v-1.47h2v-4.093h-2v-1.485zm1.876-1.797q0-.203.062-.375.078-.187.219-.312.14-.14.328-.203.187-.078.422-.078.484 0 .765.28.282.266.282.688 0 .422-.282.703-.28.266-.765.266-.235 0-.422-.078-.188-.078-.328-.203t-.219-.297q-.062-.188-.062-.39zm7.279 1.797l.11.985q.374-.532.906-.813.547-.297 1.203-.297.531 0 .969.156.453.157.765.5.328.344.5.875.188.532.188 1.313v4.328h-1.813v-4.312q0-.407-.094-.672-.093-.282-.265-.438-.172-.156-.422-.219-.25-.062-.563-.062-.468 0-.796.187-.313.188-.516.516v5h-1.813v-7.047h1.641zm8.108 7.047v-5.703h-1.86v-1.344h1.86v-.375q0-.703.218-1.234.22-.531.625-.89.422-.376 1-.548.594-.187 1.313-.187.219 0 .422.015.218.016.422.047.203.016.406.047t.437.078l-.125 1.407q-.25-.047-.562-.079-.313-.046-.735-.046-.843 0-1.234.359-.375.36-.375 1.031v.375h2.531v1.344h-2.53v5.703h-1.813zm5.998-3.578q0-.781.219-1.422.218-.656.64-1.14.438-.485 1.047-.75.625-.282 1.406-.282.797 0 1.407.281.625.266 1.046.75.438.485.657 1.141.218.64.218 1.422v.125q0 .781-.218 1.437-.22.657-.64 1.141-.423.469-1.048.75-.61.266-1.406.266-.797 0-1.422-.266-.61-.281-1.047-.75-.422-.484-.64-1.14-.22-.657-.22-1.438v-.125zm1.812.125q0 .453.078.844.094.375.266.672.188.28.469.453.297.172.703.172.406 0 .687-.172.282-.172.454-.453.187-.297.265-.672.094-.39.094-.844v-.125q0-.438-.094-.813-.078-.39-.265-.687-.172-.297-.454-.453-.28-.172-.703-.172-.406 0-.687.172-.281.156-.469.453-.172.297-.266.687-.078.375-.078.813v.125zm11.483-3.719q.422 0 .765.063.344.047.563.11l-.266 1.812q-.359-.094-.734-.125-.375-.047-.719-.047-.75 0-1.219.297-.453.28-.687.828v4.234h-1.797v-7.047h1.672l.094 1.156q.422-.593 1.015-.937.61-.344 1.313-.344zm4.076.125l.047.86q.203-.454.547-.72.36-.265.875-.265.844 0 1.11.75.202-.36.53-.547.329-.203.782-.203.312 0 .594.125.28.11.484.375.203.25.312.656.11.407.11.985v5.031h-1.64v-5.031q0-.203-.048-.328-.031-.14-.11-.203-.062-.079-.171-.11-.094-.031-.187-.031-.188 0-.329.094-.125.078-.187.234v5.375h-1.594v-5.031q0-.203-.047-.328-.031-.14-.11-.203-.062-.079-.155-.11-.094-.031-.188-.031-.219 0-.344.125-.125.11-.187.312v5.266h-1.656v-7.047h1.562zm11.264 7.047q-.063-.125-.11-.297-.046-.172-.078-.36-.14.157-.343.313-.188.141-.438.25-.234.094-.515.157-.282.062-.625.062-.532 0-.985-.156-.453-.156-.781-.422-.328-.281-.516-.672-.172-.39-.172-.844 0-1.109.829-1.718.828-.61 2.468-.61h1.016v-.422q0-.5-.328-.797-.328-.296-.953-.296-.563 0-.813.234t-.25.625h-1.812q0-.438.187-.844.203-.406.578-.703.39-.312.938-.484.547-.188 1.265-.188.641 0 1.188.156.547.157.953.47.406.296.625.765.234.469.234 1.078v3.016q0 .562.063.937.078.375.219.64v.11h-1.844zm-1.719-1.266q.266 0 .5-.062.235-.078.422-.172.203-.11.328-.234.14-.14.219-.282V166.7h-.922q-.422 0-.719.078-.297.079-.5.235-.187.14-.28.344-.08.203-.08.453 0 .36.25.61.267.233.782.233zm8.639-7.5v1.72h2.625v1.343h-2.625v3.016q0 .39.078.656.094.25.25.406.172.14.406.219.235.062.516.062.203 0 .422-.015.219-.032.422-.047.203-.031.375-.063.172-.047.297-.078l.172 1.25q-.188.11-.454.188-.25.078-.53.125-.282.062-.595.093-.312.032-.609.032-.578 0-1.047-.157-.469-.156-.812-.468-.328-.328-.516-.828-.187-.5-.187-1.188v-3.203h-1.61v-1.344h1.61v-1.719h1.812zm5.17 1.72h3.828v5.577h1.906v1.47h-5.734v-1.47h2v-4.093h-2v-1.485zm1.875-1.798q0-.203.063-.375.078-.187.218-.312.141-.14.328-.203.188-.078.422-.078.485 0 .766.28.281.266.281.688 0 .422-.281.703-.281.266-.766.266-.234 0-.422-.078-.187-.078-.328-.203-.14-.125-.218-.297-.063-.188-.063-.39zm5.389 5.266q0-.781.219-1.422.218-.656.64-1.14.438-.485 1.047-.75.625-.282 1.406-.282.797 0 1.407.281.625.266 1.047.75.437.485.656 1.141.219.64.219 1.422v.125q0 .781-.22 1.437-.218.657-.64 1.141-.422.469-1.047.75-.61.266-1.406.266-.797 0-1.422-.266-.61-.281-1.047-.75-.422-.484-.64-1.14-.22-.657-.22-1.438v-.125zm1.812.125q0 .453.079.844.093.375.265.672.188.28.469.453.297.172.703.172.406 0 .688-.172.28-.172.453-.453.187-.297.265-.672.094-.39.094-.844v-.125q0-.438-.094-.813-.078-.39-.265-.687-.172-.297-.453-.453-.282-.172-.704-.172-.406 0-.687.172-.281.156-.469.453-.172.297-.265.687-.079.375-.079.813v.125zm8.077-3.594l.11.985q.374-.532.905-.813.547-.297 1.203-.297.532 0 .97.156.452.157.765.5.328.344.5.875.187.532.187 1.313v4.328h-1.812v-4.312q0-.407-.094-.672-.094-.282-.266-.438-.171-.156-.421-.219-.25-.062-.563-.062-.469 0-.797.187-.312.188-.515.516v5h-1.813v-7.047h1.64z"/><path fill="#673ab7" d="M661.53 201.73q-.016.5-.094 1.016t-.25 1q-.172.485-.438.906-.25.407-.625.72-.359.312-.828.5-.469.171-1.062.171-.578 0-1.063-.172-.469-.187-.828-.5-.36-.312-.64-.719-.266-.421-.438-.906-.172-.484-.25-1-.078-.515-.094-1.015v-1.079q.016-.515.094-1.03.078-.516.25-1 .172-.485.437-.891.266-.422.625-.735.36-.328.829-.5.484-.187 1.062-.187.594 0 1.063.187.484.172.843.485.36.312.625.734.266.422.438.906.172.485.25 1 .078.516.094 1.031v1.079zm-1.188-1.093q-.016-.344-.062-.703-.032-.375-.125-.735-.094-.359-.25-.687-.157-.328-.391-.578-.234-.25-.563-.39-.312-.157-.734-.157-.406 0-.734.156-.313.14-.547.39-.235.25-.39.579-.157.328-.25.687-.095.36-.141.735-.047.375-.047.703v1.094q0 .328.047.703.046.36.14.734.094.36.25.688.156.328.39.578.235.25.548.406.328.14.75.14t.734-.14q.328-.156.563-.406.234-.25.39-.578.156-.329.25-.688.094-.36.125-.734.031-.375.047-.703v-1.094zm4.81 5.281v-6.11h-1.937v-.937h1.938v-.484q0-.688.203-1.188.203-.515.562-.859.36-.344.86-.516.515-.187 1.14-.187.438 0 .844.078.406.078.828.187l-.14.985q-.266-.094-.625-.156-.36-.063-.75-.063-.86 0-1.282.422-.421.422-.421 1.297v.484h2.718v.938h-2.718v6.11h-1.22zm8.005 0v-6.11h-1.937v-.937h1.937v-.484q0-.688.204-1.188.203-.515.562-.859.36-.344.86-.516.515-.187 1.14-.187.438 0 .844.078.406.078.828.187l-.14.985q-.266-.094-.626-.156-.359-.063-.75-.063-.859 0-1.28.422-.423.422-.423 1.297v.484h2.719v.938h-2.719v6.11h-1.219zm10.896-1.875q0-.203-.094-.375-.078-.172-.281-.312-.203-.157-.532-.266-.328-.125-.828-.219-.609-.125-1.109-.297-.484-.187-.844-.422-.36-.25-.562-.578-.188-.328-.188-.765 0-.422.203-.797.203-.375.563-.656.375-.282.875-.438.5-.172 1.11-.172.655 0 1.171.172t.875.469q.375.297.563.703.203.39.203.86h-1.203q0-.235-.125-.454-.11-.219-.313-.375-.203-.172-.5-.281-.297-.11-.672-.11-.39 0-.687.094-.282.078-.469.22-.188.14-.297.343-.094.187-.094.39 0 .204.078.375.079.157.266.282.203.125.516.234.328.11.828.203.64.14 1.156.328.516.172.86.422.359.25.546.578.188.328.188.766 0 .469-.219.86-.203.374-.578.656-.375.265-.906.421-.532.141-1.157.141-.718 0-1.28-.187-.548-.188-.938-.5-.39-.329-.594-.735-.203-.422-.203-.875h1.203q.031.375.203.64.172.25.422.407.266.156.578.219.313.062.61.062.765 0 1.203-.28.453-.282.453-.75zm6.435 2q-.75 0-1.375-.25-.609-.25-1.062-.703-.438-.453-.688-1.078-.25-.625-.25-1.375v-.266q0-.86.266-1.531.281-.672.734-1.125.454-.469 1.032-.719.578-.25 1.187-.25.75 0 1.313.266.578.265.953.734.375.453.562 1.094.188.625.188 1.36v.546h-5.031q.03.485.187.906.172.422.453.735.297.312.688.5.406.172.906.172.64 0 1.14-.25.5-.266.829-.688l.734.563q-.172.265-.437.515-.266.25-.61.438-.344.187-.781.297-.438.11-.938.11zm-.156-6.312q-.375 0-.703.14-.312.125-.578.39-.266.25-.453.626-.172.375-.235.86h3.782v-.079q-.016-.36-.14-.703-.11-.344-.329-.61-.219-.28-.563-.453-.328-.171-.78-.171zm7.889-2.563v1.703h2.688v.938h-2.688v3.828q0 .406.094.672.11.265.297.437.187.156.422.219.234.062.5.062.203 0 .406-.015l.406-.063q.203-.03.375-.062.172-.047.281-.063l.172.844q-.156.094-.375.172-.203.062-.469.11-.25.046-.53.062-.282.031-.563.031-.47 0-.875-.125-.407-.14-.703-.422-.297-.297-.485-.75-.172-.469-.172-1.11v-3.827h-1.843v-.938h1.843v-1.703h1.219z"/><path fill="#e67c73" d="M705.47 205.137q0-.188.046-.36.063-.171.172-.296.125-.125.297-.204.187-.078.422-.078.234 0 .406.078.187.079.297.204.125.125.187.296.063.172.063.36 0 .187-.063.36-.062.155-.187.28-.11.125-.297.188-.172.078-.406.078-.235 0-.422-.078-.172-.063-.297-.188-.11-.125-.172-.28-.047-.173-.047-.36zm0-6q0-.188.046-.36.063-.171.172-.296.125-.125.297-.204.187-.078.422-.078.234 0 .406.078.187.079.297.204.125.125.187.296.063.172.063.36 0 .187-.063.36-.062.155-.187.28-.11.125-.297.204-.172.062-.406.062-.235 0-.422-.062-.172-.079-.297-.204-.11-.125-.172-.28-.047-.173-.047-.36z"/><path fill="#db4437" d="M723.262 205.918h-1.203v-7.937l-2.468.937v-1.094l3.578-1.375h.093v9.47z"/><path fill="#e67c73" d="M659.577 214.074h-1.438v10.891h1.438v.984h-2.579V213.09h2.578v.984zm7.998 0h-1.438v10.891h1.438v.984h-2.578V213.09h2.578v.984z"/><path fill="#673ab7" d="M676.057 221.356l.719-6.907h1.14l-1.14 9.47h-1.234l-1.22-7.142-1.234 7.141h-1.234l-1.156-9.469h1.156l.719 6.907 1.219-6.907h1.046l1.22 6.907zm7.92-4.61q.172 0 .344.016.187 0 .344.031.172.016.312.047t.235.078l-.172 1.172q-.344-.078-.657-.11-.312-.03-.656-.03-.86 0-1.39.39-.516.375-.766 1.062v4.516h-1.203v-7.047h1.14l.063 1.125q.437-.578 1.031-.906.61-.344 1.375-.344zm3.577.125h3.593v6h2.297v1.047h-5.89v-1.047h2.39v-4.953h-2.39v-1.047zm2.234-1.844q0-.296.172-.5.187-.203.547-.203.36 0 .531.203.187.204.187.5 0 .297-.187.5-.172.188-.531.188-.36 0-.547-.188-.172-.203-.172-.5zm8.42.141v1.703h2.688v.938h-2.688v3.828q0 .406.094.672.11.265.297.437.187.156.422.219.234.062.5.062.203 0 .406-.015l.406-.063q.203-.03.375-.062.172-.047.281-.063l.172.844q-.156.094-.375.172-.203.062-.469.11-.25.046-.53.062-.282.031-.563.031-.47 0-.875-.125-.407-.14-.703-.422-.297-.297-.485-.75-.172-.469-.172-1.11v-3.827h-1.843v-.938h1.843v-1.703h1.219zm9.78 8.75q-.079-.14-.126-.344l-.062-.422q-.172.188-.406.344-.22.156-.5.281-.266.125-.578.188-.297.078-.641.078-.563 0-1.016-.156-.453-.156-.765-.438-.313-.28-.485-.656-.172-.39-.172-.828 0-.578.235-1.016.234-.437.656-.718.422-.297 1.016-.438.593-.14 1.328-.14h1.312v-.563q0-.313-.125-.563-.11-.265-.328-.437-.203-.172-.515-.266-.313-.109-.704-.109-.343 0-.64.094-.281.093-.485.25-.187.14-.296.343-.094.204-.094.422h-1.219q.016-.375.203-.75.188-.375.547-.672.36-.296.875-.468.531-.188 1.188-.188.593 0 1.109.156.516.141.89.438.376.297.579.734.218.438.218 1.032v3.28q0 .345.063.75.062.391.187.673v.11h-1.25zm-2.141-.922q.36 0 .656-.078.313-.094.563-.25.25-.156.421-.344.188-.187.297-.39v-1.438h-1.125q-1.047 0-1.64.313-.578.312-.578.984 0 .266.078.484.093.22.265.391.188.156.453.25.266.078.61.078zm11.467-2.515q0 .75-.188 1.406-.172.656-.531 1.14-.344.47-.86.75-.515.266-1.187.266t-1.172-.234q-.5-.235-.86-.688l-.046.797h-1.11v-10h1.204v3.719q.343-.438.828-.656.484-.235 1.14-.235.672 0 1.188.266.531.265.875.75.36.469.531 1.14.188.657.188 1.438v.14zm-1.203-.141q0-.516-.11-.984-.094-.47-.312-.813-.219-.36-.578-.562-.36-.22-.875-.22-.313 0-.579.095-.25.078-.468.234-.203.14-.36.344-.156.187-.265.422v3.078q.11.234.265.437.172.188.375.344.22.156.47.234.265.078.577.078.485 0 .844-.203.36-.203.578-.547.234-.359.328-.812.11-.469.11-.984v-.141zm3.435-6.422h3.594v8.953h2.297v1.047h-5.89v-1.047h2.39v-7.906h-2.39v-1.047zm10.92 10.125q-.75 0-1.375-.25-.609-.25-1.062-.703-.438-.453-.688-1.078-.25-.625-.25-1.375v-.266q0-.86.266-1.531.281-.672.734-1.125.454-.469 1.032-.719.578-.25 1.187-.25.75 0 1.313.266.578.265.953.734.375.453.562 1.094.188.625.188 1.36v.546h-5.031q.03.485.187.906.172.422.453.735.297.312.688.5.406.172.906.172.64 0 1.14-.25.5-.266.829-.688l.734.563q-.172.265-.437.515-.266.25-.61.438-.344.187-.781.297-.438.11-.938.11zm-.156-6.312q-.375 0-.703.14-.312.125-.578.39-.266.25-.453.626-.172.375-.235.86h3.782v-.079q-.016-.36-.141-.703-.11-.344-.328-.61-.219-.28-.563-.453-.328-.171-.78-.171z"/><path fill="#e67c73" d="M736.855 213.09h2.578v12.86h-2.578v-.985h1.438v-10.89h-1.438v-.985zm7.998 0h2.578v12.86h-2.578v-.985h1.438v-10.89h-1.438v-.985zm8.592 10.047q0-.188.047-.36.063-.171.172-.296.125-.125.297-.204.187-.078.422-.078.234 0 .406.078.188.079.297.204.125.125.187.296.063.172.063.36 0 .187-.063.36-.062.155-.187.28-.11.125-.297.188-.172.078-.406.078-.235 0-.422-.078-.172-.063-.297-.188-.11-.125-.172-.28-.047-.173-.047-.36zm0-6q0-.188.047-.36.063-.171.172-.296.125-.125.297-.204.187-.078.422-.078.234 0 .406.078.188.079.297.204.125.125.187.296.063.172.063.36 0 .187-.063.36-.062.155-.187.28-.11.125-.297.204-.172.062-.406.062-.235 0-.422-.062-.172-.079-.297-.204-.11-.125-.172-.28-.047-.173-.047-.36z"/><path fill="#4285f4" d="M770.192 215.168v1.703h2.687v.938h-2.687v3.828q0 .406.093.672.11.265.297.437.188.156.422.219.235.062.5.062.203 0 .406-.015l.407-.063q.203-.03.375-.062.172-.047.28-.063l.173.844q-.156.094-.375.172-.203.062-.469.11-.25.046-.531.062-.281.031-.563.031-.468 0-.875-.125-.406-.14-.703-.422-.297-.297-.484-.75-.172-.469-.172-1.11v-3.827h-1.844v-.938h1.844v-1.703h1.219zm9.763 1.578q.172 0 .344.016.188 0 .344.031.172.016.312.047.141.031.235.078l-.172 1.172q-.344-.078-.656-.11-.313-.03-.657-.03-.859 0-1.39.39-.516.375-.766 1.062v4.516h-1.203v-7.047h1.14l.063 1.125q.438-.578 1.031-.906.61-.344 1.375-.344zm7.952 6.203q-.36.516-.89.813-.516.281-1.204.281-.562 0-1.016-.172-.437-.172-.765-.531-.313-.36-.485-.922-.171-.562-.171-1.36v-4.187h1.203v4.203q0 .578.093.953.094.375.266.61.188.219.453.312.266.078.61.078.734 0 1.187-.296.453-.297.672-.797v-5.063h1.203v7.047h-1.094l-.062-.969zm6.545 1.094q-.75 0-1.375-.25-.61-.25-1.063-.703-.437-.453-.687-1.078-.25-.625-.25-1.375v-.266q0-.86.265-1.531.282-.672.735-1.125.453-.469 1.031-.719.578-.25 1.188-.25.75 0 1.312.266.578.265.953.734.375.453.563 1.094.187.625.187 1.36v.546h-5.031q.031.485.187.906.172.422.454.735.296.312.687.5.406.172.906.172.641 0 1.141-.25.5-.266.828-.688l.734.563q-.171.265-.437.515t-.61.438q-.343.187-.78.297-.438.11-.938.11zm-.156-6.312q-.375 0-.704.14-.312.125-.578.39-.265.25-.453.626-.172.375-.234.86h3.781v-.079q-.016-.36-.14-.703-.11-.344-.329-.61-.218-.28-.562-.453-.328-.171-.781-.171z"/><path fill="#e67c73" d="M659.577 232.074h-1.438v10.891h1.438v.984h-2.579V231.09h2.578v.984zm7.998 0h-1.438v10.891h1.438v.984h-2.578V231.09h2.578v.984z"/><path fill="#673ab7" d="M676.573 237.543h-3.953v3.36h4.61v1.015h-5.813v-9.469h5.75v1.016h-4.547v3.047h3.953v1.031zm3.873-2.672l.078 1.047q.39-.547.938-.86.562-.312 1.25-.312.562 0 1.015.156.453.157.766.485.328.328.5.844.172.515.172 1.218v4.47h-1.203v-4.438q0-.47-.11-.797-.11-.328-.312-.532-.203-.203-.5-.296-.297-.094-.688-.094-.594 0-1.062.312-.453.297-.719.797v5.047h-1.219v-7.047h1.094zm11.483 6.078q-.36.516-.891.813-.516.281-1.203.281-.563 0-1.016-.172-.437-.172-.765-.531-.313-.36-.485-.922t-.172-1.36v-4.187h1.203v4.203q0 .578.094.953t.266.61q.187.219.453.312.266.078.61.078.734 0 1.187-.296.453-.297.672-.797v-5.063h1.203v7.047h-1.094l-.062-.969zm3.982-6.078l.031.672q.22-.375.563-.578.344-.219.844-.219.968 0 1.296.75.204-.328.547-.531.344-.219.828-.219.782 0 1.188.485.422.468.422 1.421v5.266h-1.14v-5.266q0-.89-.813-.89-.219 0-.375.062-.157.063-.266.172-.094.094-.156.235-.063.125-.078.265v5.422h-1.157v-5.281q0-.422-.187-.64-.188-.235-.594-.235-.375 0-.594.156-.203.156-.296.39v5.61h-1.141v-7.047h1.078zm10.56 7.172q-.75 0-1.374-.25-.61-.25-1.063-.703-.437-.453-.687-1.078-.25-.625-.25-1.375v-.266q0-.86.265-1.531.282-.672.735-1.125.453-.469 1.031-.719.578-.25 1.188-.25.75 0 1.312.266.578.265.953.734.375.453.563 1.094.187.625.187 1.36v.546H704.3q.031.485.187.906.172.422.454.735.296.312.687.5.406.172.906.172.64 0 1.14-.25.5-.266.829-.688l.734.563q-.171.265-.437.515t-.61.438q-.343.187-.78.297-.438.11-.938.11zm-.155-6.312q-.375 0-.704.14-.312.125-.578.39-.265.25-.453.626-.172.375-.234.86h3.781v-.079q-.016-.36-.14-.703-.11-.344-.329-.61-.218-.28-.562-.453-.328-.171-.781-.171zm9.654-.985q.172 0 .344.016.187 0 .343.031.172.016.313.047.14.031.234.078l-.172 1.172q-.343-.078-.656-.11-.312-.03-.656-.03-.86 0-1.39.39-.516.375-.766 1.062v4.516h-1.203v-7.047h1.14l.063 1.125q.437-.578 1.031-.906.61-.344 1.375-.344zm8.014 7.172q-.078-.14-.125-.344l-.063-.422q-.172.188-.406.344-.219.156-.5.281-.266.125-.578.188-.297.078-.64.078-.563 0-1.016-.156-.453-.156-.766-.438-.312-.28-.484-.656-.172-.39-.172-.828 0-.578.234-1.016.235-.437.656-.718.422-.297 1.016-.438.594-.14 1.328-.14h1.313v-.563q0-.313-.125-.563-.11-.265-.328-.437-.204-.172-.516-.266-.313-.109-.703-.109-.344 0-.64.094-.282.093-.485.25-.188.14-.297.343-.094.204-.094.422h-1.219q.016-.375.204-.75.187-.375.546-.672.36-.296.875-.468.532-.188 1.188-.188.594 0 1.11.156.515.141.89.438.375.297.578.734.219.438.219 1.032v3.28q0 .345.062.75.063.391.188.673v.11h-1.25zm-2.14-.922q.359 0 .655-.078.313-.094.563-.25.25-.156.422-.344.187-.187.297-.39v-1.438h-1.125q-1.047 0-1.64.313-.58.312-.58.984 0 .266.08.484.093.22.265.391.187.156.453.25.265.078.61.078zm11.466-2.515q0 .75-.187 1.406-.172.656-.532 1.14-.343.47-.859.75-.516.266-1.188.266-.671 0-1.171-.234-.5-.235-.86-.688l-.047.797h-1.109v-10h1.203v3.719q.344-.438.828-.656.485-.235 1.14-.235.673 0 1.188.266.532.265.875.75.36.469.532 1.14.187.657.187 1.438v.14zm-1.203-.141q0-.516-.11-.984-.093-.47-.312-.813-.219-.36-.578-.562-.36-.22-.875-.22-.313 0-.578.095-.25.078-.469.234-.203.14-.36.344-.156.187-.265.422v3.078q.11.234.266.437.172.188.375.344.218.156.468.234.266.078.579.078.484 0 .843-.203.36-.203.578-.547.235-.359.329-.812.109-.469.109-.984v-.141zm3.436-6.422h3.593v8.953h2.297v1.047h-5.89v-1.047h2.39v-7.906h-2.39v-1.047zm10.92 10.125q-.75 0-1.375-.25-.61-.25-1.063-.703-.437-.453-.687-1.078-.25-.625-.25-1.375v-.266q0-.86.265-1.531.282-.672.735-1.125.453-.469 1.03-.719.58-.25 1.188-.25.75 0 1.313.266.578.265.953.734.375.453.563 1.094.187.625.187 1.36v.546h-5.031q.031.485.187.906.172.422.453.735.297.312.688.5.406.172.906.172.64 0 1.14-.25.5-.266.829-.688l.734.563q-.172.265-.437.515-.266.25-.61.438-.343.187-.78.297-.438.11-.938.11zm-.157-6.312q-.375 0-.703.14-.312.125-.578.39-.265.25-.453.626-.172.375-.234.86h3.78v-.079q-.015-.36-.14-.703-.11-.344-.328-.61-.219-.28-.562-.453-.328-.171-.782-.171z"/><path fill="#e67c73" d="M752.852 231.09h2.578v12.86h-2.578v-.985h1.437v-10.89h-1.437v-.985zm7.998 0h2.578v12.86h-2.578v-.985h1.437v-10.89h-1.437v-.985zm8.592 10.047q0-.188.047-.36.062-.171.171-.296.125-.125.297-.204.188-.078.422-.078.235 0 .406.078.188.079.297.204.125.125.188.296.062.172.062.36 0 .187-.062.36-.063.155-.188.28-.11.125-.297.188-.171.078-.406.078-.234 0-.422-.078-.172-.063-.297-.188-.109-.125-.171-.28-.047-.173-.047-.36zm0-6q0-.188.047-.36.062-.171.171-.296.125-.125.297-.204.188-.078.422-.078.235 0 .406.078.188.079.297.204.125.125.188.296.062.172.062.36 0 .187-.062.36-.063.155-.188.28-.11.125-.297.204-.171.062-.406.062-.234 0-.422-.062-.172-.079-.297-.204-.109-.125-.171-.28-.047-.173-.047-.36z"/><path fill="#4285f4" d="M786.188 233.168v1.703h2.688v.938h-2.688v3.828q0 .406.094.672.11.265.297.437.187.156.422.219.234.062.5.062.203 0 .406-.015l.406-.063q.203-.03.375-.062.172-.047.281-.063l.172.844q-.156.094-.375.172-.203.062-.469.11-.25.046-.53.062-.282.031-.563.031-.47 0-.875-.125-.407-.14-.703-.422-.297-.297-.485-.75-.172-.469-.172-1.11v-3.827h-1.843v-.938h1.843v-1.703h1.219zm9.764 1.578q.172 0 .344.016.187 0 .343.031.172.016.313.047.14.031.234.078l-.172 1.172q-.343-.078-.656-.11-.312-.03-.656-.03-.86 0-1.39.39-.516.375-.766 1.062v4.516h-1.204v-7.047h1.141l.063 1.125q.437-.578 1.03-.906.61-.344 1.376-.344zm7.951 6.203q-.36.516-.89.813-.516.281-1.204.281-.562 0-1.015-.172-.438-.172-.766-.531-.312-.36-.484-.922t-.172-1.36v-4.187h1.203v4.203q0 .578.094.953t.265.61q.188.219.454.312.265.078.609.078.734 0 1.187-.296.454-.297.672-.797v-5.063h1.203v7.047h-1.093l-.063-.969zm6.545 1.094q-.75 0-1.375-.25-.61-.25-1.062-.703-.438-.453-.688-1.078-.25-.625-.25-1.375v-.266q0-.86.266-1.531.281-.672.734-1.125.453-.469 1.031-.719.579-.25 1.188-.25.75 0 1.312.266.579.265.954.734.375.453.562 1.094.188.625.188 1.36v.546h-5.032q.032.485.188.906.172.422.453.735.297.312.687.5.407.172.907.172.64 0 1.14-.25.5-.266.828-.688l.735.563q-.172.265-.438.515-.265.25-.61.438-.343.187-.78.297-.438.11-.938.11zm-.156-6.312q-.375 0-.703.14-.313.125-.578.39-.266.25-.453.626-.172.375-.235.86h3.781v-.079q-.015-.36-.14-.703-.11-.344-.328-.61-.22-.28-.563-.453-.328-.171-.781-.171z"/><path fill="#e67c73" d="M659.577 250.074h-1.438v10.891h1.438v.984h-2.579V249.09h2.578v.984zm7.998 0h-1.438v10.891h1.438v.984h-2.578V249.09h2.578v.984z"/><path fill="#673ab7" d="M677.495 257.074q-.078.657-.344 1.203-.25.547-.656.938-.407.39-.97.61-.546.218-1.233.218-.579 0-1.063-.156-.469-.172-.844-.453-.375-.297-.656-.688-.266-.406-.453-.875-.172-.469-.266-.984-.078-.516-.078-1.047v-1.313q0-.53.078-1.046.094-.516.266-.985.187-.469.453-.86.281-.405.656-.702.375-.297.844-.453.469-.172 1.063-.172.718 0 1.265.218.563.22.969.625.406.391.64.954.25.562.329 1.234h-1.203q-.063-.422-.204-.797-.14-.375-.39-.64-.235-.282-.578-.438-.344-.172-.828-.172-.422 0-.75.14-.329.141-.579.391-.234.235-.39.563-.156.312-.266.672-.094.343-.14.718-.032.375-.032.735v1.328q0 .36.032.734.046.375.14.735.11.36.266.687.156.313.39.563.25.234.563.375.328.14.766.14.484 0 .828-.14.343-.157.578-.422.25-.281.39-.64.141-.376.204-.798h1.203zm1.53-.734q0-.766.218-1.422.219-.656.625-1.14.422-.485 1.015-.75.594-.282 1.329-.282.75 0 1.343.281.594.266 1 .75.422.485.641 1.141.234.656.234 1.422v.14q0 .75-.234 1.407-.219.656-.64 1.14-.407.47-1 .75-.579.266-1.329.266t-1.344-.266q-.593-.28-1.015-.75-.406-.484-.625-1.14-.219-.656-.219-1.406v-.141zm1.202.14q0 .516.125.985t.375.828q.25.36.625.578.375.203.875.203t.875-.203q.375-.219.625-.578.25-.36.375-.828.125-.469.125-.984v-.141q0-.516-.14-.984-.125-.485-.375-.844-.25-.36-.625-.563-.375-.218-.875-.218t-.875.218q-.36.203-.61.563-.25.36-.375.844-.125.468-.125.984v.14zm8.217-3.609l.078 1.047q.391-.547.938-.86.562-.312 1.25-.312.562 0 1.015.156.454.157.766.485.328.328.5.844.172.515.172 1.218v4.47h-1.203v-4.438q0-.47-.11-.797-.109-.328-.312-.532-.203-.203-.5-.296-.297-.094-.688-.094-.593 0-1.062.312-.453.297-.719.797v5.047h-1.219v-7.047h1.094zm8.702 7.047v-6.11h-1.938v-.937h1.938v-.484q0-.688.203-1.188.203-.515.562-.859.36-.344.86-.516.515-.187 1.14-.187.438 0 .844.078.406.078.828.187l-.14.985q-.266-.094-.626-.156-.359-.063-.75-.063-.859 0-1.28.422-.423.422-.423 1.297v.484h2.719v.938h-2.719v6.11h-1.218zm6.41-7.047h3.594v6h2.297v1.047h-5.89v-1.047h2.39v-4.953h-2.39v-1.047zm2.235-1.844q0-.296.172-.5.187-.203.547-.203.359 0 .53.203.188.204.188.5 0 .297-.187.5-.172.188-.531.188-.36 0-.547-.188-.172-.203-.172-.5zm5.342 5.313q0-.781.187-1.438.203-.671.563-1.14.375-.485.89-.75.516-.266 1.172-.266.657 0 1.14.235.5.234.845.656l.062-.766h1.094v6.89q0 .704-.219 1.235-.219.547-.625.922-.39.375-.937.563-.547.203-1.203.203-.282 0-.641-.063-.344-.047-.703-.187-.36-.14-.703-.375-.328-.235-.563-.578l.625-.735q.219.266.453.453.235.188.469.297.25.11.484.156.25.063.485.063.422 0 .765-.125.36-.125.594-.375.25-.234.375-.594.14-.344.14-.797v-.609q-.359.406-.843.625-.469.203-1.11.203-.64 0-1.156-.266-.515-.28-.89-.75-.36-.484-.563-1.14-.187-.656-.187-1.406v-.141zm1.203.14q0 .516.11.985.109.453.343.812.234.344.578.547.36.203.875.203.313 0 .563-.078.25-.078.437-.203.203-.14.36-.328.156-.187.28-.422v-3.219q-.124-.234-.28-.406-.157-.187-.36-.312-.203-.14-.453-.219-.234-.078-.547-.078-.5 0-.86.219-.359.203-.593.562-.234.344-.344.813-.11.468-.11.984v.14zm11.592 2.47q-.36.515-.89.812-.516.281-1.204.281-.562 0-1.016-.172-.437-.172-.765-.531-.313-.36-.485-.922-.171-.562-.171-1.36v-4.187h1.203v4.203q0 .578.093.953.094.375.266.61.188.219.453.312.266.078.61.078.734 0 1.187-.296.453-.297.672-.797v-5.063h1.203v7.047h-1.094l-.062-.969zm8.045-6.204q.172 0 .344.016.187 0 .343.031.172.016.313.047.14.031.234.078l-.172 1.172q-.343-.078-.656-.11-.312-.03-.656-.03-.86 0-1.39.39-.516.375-.766 1.062v4.516h-1.204v-7.047h1.141l.063 1.125q.437-.578 1.03-.906.61-.344 1.376-.344zm8.014 7.172q-.078-.14-.125-.344-.032-.203-.063-.422-.172.188-.406.344-.219.156-.5.281-.266.125-.578.188-.297.078-.64.078-.563 0-1.016-.156-.454-.156-.766-.438-.313-.28-.484-.656-.172-.39-.172-.828 0-.578.234-1.016.234-.437.656-.718.422-.297 1.016-.438.594-.14 1.328-.14h1.313v-.563q0-.313-.125-.563-.11-.265-.329-.437-.203-.172-.515-.266-.313-.109-.703-.109-.344 0-.64.094-.282.093-.485.25-.188.14-.297.343-.094.204-.094.422h-1.219q.016-.375.203-.75.188-.375.547-.672.36-.296.875-.468.532-.188 1.188-.188.594 0 1.11.156.515.141.89.438.375.297.578.734.219.438.219 1.032v3.28q0 .345.062.75.063.391.188.673v.11h-1.25zm-2.14-.922q.358 0 .655-.078.313-.094.563-.25.25-.156.422-.344.187-.187.297-.39v-1.438h-1.125q-1.047 0-1.641.313-.578.312-.578.984 0 .266.078.484.094.22.266.391.187.156.453.25.265.078.61.078zm11.466-2.515q0 .75-.188 1.406-.171.656-.53 1.14-.345.47-.86.75-.516.266-1.188.266-.672 0-1.172-.234-.5-.235-.859-.688l-.047.797h-1.11v-10h1.204v3.719q.344-.438.828-.656.484-.235 1.14-.235.673 0 1.188.266.531.265.875.75.36.469.531 1.14.188.657.188 1.438v.14zm-1.203-.141q0-.516-.11-.984-.093-.47-.312-.813-.219-.36-.578-.562-.36-.22-.875-.22-.313 0-.578.095-.25.078-.469.234-.203.14-.36.344-.156.187-.265.422v3.078q.11.234.266.437.171.188.375.344.218.156.468.234.266.078.578.078.485 0 .844-.203.36-.203.578-.547.235-.359.328-.812.11-.469.11-.984v-.141zm3.436-6.422h3.593v8.953h2.297v1.047h-5.89v-1.047h2.39v-7.906h-2.39v-1.047zm10.92 10.125q-.75 0-1.375-.25-.61-.25-1.063-.703-.437-.453-.687-1.078-.25-.625-.25-1.375v-.266q0-.86.265-1.531.281-.672.735-1.125.453-.469 1.03-.719.579-.25 1.188-.25.75 0 1.313.266.578.265.953.734.375.453.562 1.094.188.625.188 1.36v.546h-5.031q.031.485.187.906.172.422.453.735.297.312.688.5.406.172.906.172.64 0 1.14-.25.5-.266.829-.688l.734.563q-.172.265-.437.515-.266.25-.61.438-.343.187-.78.297-.438.11-.938.11zm-.157-6.312q-.375 0-.703.14-.312.125-.578.39-.266.25-.453.626-.172.375-.234.86h3.78v-.079q-.015-.36-.14-.703-.11-.344-.328-.61-.219-.28-.562-.453-.329-.171-.782-.171z"/><path fill="#e67c73" d="M768.854 249.09h2.579v12.86h-2.579v-.985h1.438v-10.89h-1.438v-.985zm7.999 0h2.578v12.86h-2.578v-.985h1.437v-10.89h-1.437v-.985zm8.592 10.047q0-.188.046-.36.063-.171.172-.296.125-.125.297-.204.188-.078.422-.078.234 0 .406.078.188.079.297.204.125.125.188.296.062.172.062.36 0 .187-.062.36-.063.155-.188.28-.11.125-.297.188-.172.078-.406.078-.234 0-.422-.078-.172-.063-.297-.188-.11-.125-.172-.28-.046-.173-.046-.36zm0-6q0-.188.046-.36.063-.171.172-.296.125-.125.297-.204.188-.078.422-.078.234 0 .406.078.188.079.297.204.125.125.188.296.062.172.062.36 0 .187-.062.36-.063.155-.188.28-.11.125-.297.204-.172.062-.406.062-.234 0-.422-.062-.172-.079-.297-.204-.11-.125-.172-.28-.046-.173-.046-.36z"/><path fill="#4285f4" d="M802.19 251.168v1.703h2.688v.938h-2.687v3.828q0 .406.094.672.109.265.297.437.187.156.421.219.235.062.5.062.204 0 .407-.015l.406-.063q.203-.03.375-.062.172-.047.281-.063l.172.844q-.156.094-.375.172-.203.062-.469.11-.25.046-.531.062-.281.031-.562.031-.47 0-.875-.125-.407-.14-.704-.422-.296-.297-.484-.75-.172-.469-.172-1.11v-3.827h-1.844v-.938h1.844v-1.703h1.219zm9.765 1.578q.172 0 .343.016.188 0 .344.031.172.016.313.047.14.031.234.078l-.172 1.172q-.344-.078-.656-.11-.313-.03-.656-.03-.86 0-1.39.39-.517.375-.767 1.062v4.516h-1.203v-7.047h1.14l.063 1.125q.438-.578 1.032-.906.61-.344 1.375-.344zm7.951 6.203q-.36.516-.89.813-.516.281-1.204.281-.562 0-1.015-.172-.438-.172-.766-.531-.313-.36-.484-.922-.172-.562-.172-1.36v-4.187h1.203v4.203q0 .578.094.953.093.375.265.61.188.219.453.312.266.078.61.078.734 0 1.187-.296.453-.297.672-.797v-5.063h1.203v7.047h-1.094l-.062-.969zm6.545 1.094q-.75 0-1.375-.25-.61-.25-1.062-.703-.438-.453-.688-1.078-.25-.625-.25-1.375v-.266q0-.86.266-1.531.28-.672.734-1.125.453-.469 1.031-.719.578-.25 1.188-.25.75 0 1.312.266.578.265.953.734.375.453.563 1.094.187.625.187 1.36v.546h-5.03q.03.485.187.906.172.422.453.735.297.312.687.5.407.172.907.172.64 0 1.14-.25.5-.266.828-.688l.735.563q-.172.265-.438.515-.265.25-.61.438-.343.187-.78.297-.438.11-.938.11zm-.156-6.312q-.375 0-.703.14-.313.125-.578.39-.266.25-.454.626-.171.375-.234.86h3.781v-.079q-.015-.36-.14-.703-.11-.344-.328-.61-.22-.28-.563-.453-.328-.171-.781-.171z"/><path fill="#34a853" d="M21.597 116.034c0-6.282 5.093-11.375 11.376-11.375h166.225a11.376 11.376 0 0 1 11.375 11.375v45.501c0 6.283-5.093 11.376-11.375 11.376H32.973c-6.283 0-11.376-5.093-11.376-11.376z" fill-rule="evenodd"/><path stroke="#666" stroke-linejoin="round" stroke-linecap="butt" d="M21.597 116.034h0c0-6.282 5.093-11.375 11.376-11.375h166.225a11.376 11.376 0 0 1 11.375 11.375v45.501c0 6.283-5.093 11.376-11.375 11.376H32.973c-6.283 0-11.376-5.093-11.376-11.376z"/><path fill="#fff" d="M51.545 129.432H55.2l.016 13.14q-.016 1.344-.516 2.469-.5 1.11-1.375 1.922-.86.797-2.047 1.25-1.172.437-2.53.437-1.423 0-2.595-.359-1.172-.375-2.015-1.094-.844-.718-1.313-1.812t-.484-2.578h3.672q.015 1.53.672 2.218.671.672 2.062.672.625 0 1.14-.234.532-.234.891-.656.375-.422.563-1 .203-.578.203-1.235v-13.14zm16.903 14q0-.5-.188-.938-.172-.453-.594-.828-.422-.39-1.11-.703-.671-.328-1.687-.594-1.234-.344-2.359-.844-1.125-.515-1.984-1.218-.86-.72-1.375-1.672-.516-.953-.516-2.188 0-1.203.5-2.172.516-.984 1.406-1.671.907-.688 2.125-1.063 1.219-.375 2.657-.375 1.484 0 2.703.438 1.234.421 2.125 1.203.89.78 1.375 1.843.5 1.063.5 2.344h-3.563q-.031-.64-.234-1.172-.203-.531-.61-.906-.39-.39-.984-.61-.578-.218-1.375-.218-.734 0-1.297.187-.562.172-.953.485-.39.312-.594.75-.203.437-.203.953 0 .531.266.969.265.422.765.765.516.344 1.235.64.719.282 1.64.517 1.297.39 2.391.937t1.875 1.297q.797.734 1.234 1.703.438.953.438 2.125 0 1.25-.516 2.219-.5.969-1.39 1.64-.875.672-2.094 1.016-1.219.344-2.672.344-.89 0-1.781-.172-.89-.156-1.719-.484-.812-.344-1.516-.844-.703-.516-1.218-1.188-.5-.687-.797-1.547-.297-.859-.297-1.906h3.594q.03.86.297 1.485.28.609.765 1 .485.39 1.172.578.688.172 1.5.172.734 0 1.297-.172.562-.172.953-.47.39-.296.594-.718.219-.422.219-.937zm19.37-3.125q0 1.812-.483 3.359-.47 1.531-1.391 2.64-.906 1.11-2.219 1.735-1.297.61-2.937.61-1.641 0-2.922-.61-1.266-.625-2.14-1.734-.876-1.125-1.329-2.657-.453-1.53-.453-3.343v-2.766q0-1.828.453-3.36.453-1.53 1.328-2.64.875-1.125 2.14-1.75 1.266-.625 2.907-.625 1.656 0 2.953.625 1.313.625 2.219 1.75.922 1.11 1.39 2.64.485 1.532.485 3.36v2.766zm-3.702-2.797q0-1.156-.188-2.125-.187-.985-.593-1.688-.407-.703-1.047-1.093-.625-.391-1.516-.391-.89 0-1.484.39-.594.391-.97 1.094-.358.703-.515 1.688-.156.969-.156 2.125v2.797q0 1.14.156 2.125.157.968.516 1.687.375.719.969 1.125.593.39 1.5.39.875 0 1.5-.39.64-.406 1.03-1.11.407-.718.595-1.687.203-.984.203-2.14v-2.797zm19.309 3.984q0 1.563-.36 2.89-.343 1.313-1.031 2.266-.687.938-1.719 1.47-1.015.53-2.39.53-1.235 0-2.141-.453-.906-.468-1.547-1.312l-.172 1.5H90.8v-20h3.625v7.187q.625-.718 1.468-1.125.86-.406 2-.406 1.391 0 2.422.531 1.032.532 1.719 1.485.688.953 1.031 2.28.36 1.313.36 2.876v.281zm-3.625-.281q0-.86-.141-1.625-.125-.766-.437-1.344-.313-.578-.86-.922-.547-.343-1.375-.343-.984 0-1.61.421-.609.422-.952 1.141v5.61q.343.734.953 1.156.625.406 1.64.406.813 0 1.344-.313.547-.328.86-.89.312-.563.437-1.328.14-.782.14-1.688v-.281zm9.09-6.906h7.203v14.406q0 1.406-.406 2.406-.391 1.016-1.172 1.672-.766.656-1.875.969-1.094.312-2.516.312-.594 0-1.187-.047-.594-.046-1.141-.171l.172-2.938q.156.031.437.063.282.03.578.046.297.032.563.032.266.015.39.015.532 0 .985-.125.469-.11.797-.39.328-.266.515-.72.204-.452.204-1.124V137.26h-3.547v-2.953zm3.297-3.61q0-.422.14-.781.156-.36.422-.61.281-.25.656-.39.391-.14.86-.14.953 0 1.515.546.578.532.578 1.375 0 .844-.578 1.39-.562.532-1.515.532-.469 0-.86-.14-.375-.141-.656-.391-.266-.266-.422-.61-.14-.359-.14-.78zm17.371 17.953q-1.625 0-2.953-.53-1.328-.548-2.281-1.454-.954-.922-1.47-2.156-.515-1.25-.515-2.672v-.516q0-1.625.5-2.953.516-1.328 1.422-2.297.922-.968 2.172-1.5 1.25-.531 2.719-.531 1.515 0 2.703.5 1.203.5 2.031 1.422.828.906 1.25 2.187.438 1.282.438 2.829v1.53h-9.563q.11.72.422 1.313.328.594.812 1.032.5.421 1.141.656.64.234 1.39.234.532 0 1.063-.094.531-.109 1-.312.485-.203.906-.5.422-.313.735-.703l1.797 1.953q-.328.469-.875.937-.532.47-1.282.829-.734.343-1.64.562-.89.234-1.922.234zm-.438-11.687q-.609 0-1.125.219-.5.218-.89.625-.375.406-.64.968-.25.547-.391 1.235h5.937v-.281q-.016-.579-.219-1.079-.187-.515-.562-.875-.36-.375-.89-.593-.532-.22-1.22-.22zm15.825 8.797q.547 0 1.016-.156.484-.157.843-.438.375-.297.578-.703.204-.406.172-.89h3.407q.03 1.093-.454 2.03-.468.938-1.296 1.61-.813.672-1.907 1.062-1.078.375-2.28.375-1.642 0-2.892-.546-1.234-.547-2.062-1.516-.813-.969-1.25-2.25-.422-1.297-.422-2.781v-.391q0-1.484.422-2.781.422-1.297 1.25-2.25.828-.969 2.062-1.531 1.235-.563 2.86-.563 1.297 0 2.406.39 1.11.391 1.906 1.11.797.703 1.235 1.719.453 1 .422 2.25h-3.407q.032-.516-.156-.985-.187-.468-.547-.812-.344-.344-.844-.547-.484-.203-1.062-.203-.86 0-1.422.36-.562.343-.89.937-.329.578-.47 1.344-.14.75-.14 1.562v.39q0 .813.125 1.579.14.765.469 1.344.328.578.89.937.579.344 1.438.344zm16.403-14.906v3.453h5.265v2.656h-5.265v6.062q0 .766.171 1.282.188.515.5.828.329.297.797.437.469.125 1.032.125.421 0 .859-.031.437-.047.828-.11.406-.062.75-.124.344-.063.578-.125l.36 2.484q-.375.219-.891.39-.5.157-1.078.25-.563.11-1.188.157-.625.062-1.218.062-1.157 0-2.11-.296-.937-.313-1.61-.954-.671-.64-1.03-1.64-.36-1-.36-2.39v-6.407h-3.219v-2.656h3.22v-3.453h3.609zm26.16 17.531q-.094-.188-.156-.422-.063-.234-.11-.5-.203.234-.484.437-.265.188-.61.344-.327.156-.734.235-.39.093-.859.093-.75 0-1.39-.218-.626-.22-1.079-.61-.453-.39-.718-.937-.25-.547-.25-1.188 0-1.547 1.156-2.39 1.172-.86 3.469-.86h1.421v-.594q0-.703-.468-1.109-.469-.422-1.344-.422-.766 0-1.125.328-.36.328-.36.89h-2.53q0-.624.28-1.187.282-.578.813-1 .531-.421 1.297-.671.766-.25 1.766-.25.89 0 1.656.218.781.219 1.344.64.562.423.875 1.079.328.656.328 1.5v4.234q0 .797.093 1.313.094.516.297.89v.157h-2.578zm-2.406-1.781q.375 0 .703-.079.328-.093.594-.234.265-.156.453-.344.203-.187.312-.375v-1.703h-1.296q-.594 0-1.016.125-.422.11-.688.313-.265.203-.39.5-.125.28-.125.625 0 .5.36.843.359.329 1.093.329z"/><path fill="#bdbdbd" d="M34.218 173.088h163.496v59.717H34.218z" fill-rule="evenodd"/><path stroke="#666" stroke-linejoin="round" stroke-linecap="butt" d="M34.218 173.088h163.496v59.717H34.218z"/><path fill="#000" d="M112.392 205.752h2.375v1.766h-2.375v3.968h-2.172v-3.968h-7.781v-1.266l7.64-11.828h2.313v11.328zm-7.547 0h5.375v-8.453l-.344.656-5.031 7.797zm23.621 5.734h-11.172v-1.562l5.594-6.203q.75-.844 1.25-1.485.5-.64.797-1.187.312-.547.437-1.031.141-.485.141-1 0-.641-.219-1.188-.203-.562-.594-.969-.39-.406-.953-.64-.547-.25-1.25-.25-.859 0-1.484.25-.625.234-1.047.687-.406.453-.625 1.11-.203.64-.203 1.437h-2.172q0-1.078.375-2.031.375-.969 1.078-1.672.719-.719 1.735-1.14 1.03-.422 2.343-.422 1.203 0 2.172.359.969.36 1.625 1 .672.625 1.031 1.5.36.86.36 1.875 0 .766-.266 1.516-.25.734-.687 1.468-.438.719-1.016 1.438-.578.703-1.234 1.406l-4.578 4.969h8.562v1.765z"/><path fill="#bdbdbd" d="M34.218 232.79h163.496v59.717H34.218z" fill-rule="evenodd"/><path stroke="#666" stroke-linejoin="round" stroke-linecap="butt" d="M34.218 232.79h163.496v59.717H34.218z"/><path d="M550.403 169.008l88.787 42.11"/><path stroke="#666" stroke-width="4" stroke-linejoin="round" stroke-linecap="butt" d="M564.1 175.504l53.406 25.33"/><path fill="#666" stroke="#666" stroke-width="4" stroke-linecap="butt" d="M552.21 169.865a6.58 6.58 0 1 1 11.89 5.64 6.58 6.58 0 0 1-11.89-5.64z"/><path fill="#666" stroke="#666" stroke-width="4" stroke-linecap="butt" d="M614.674 206.803l19.233 1.81-13.57-13.75z" fill-rule="evenodd"/><path d="M210.573 138.785c53.494 0 80.24-22.095 106.988-44.19 26.748-22.094 53.499-44.188 106.997-44.188"/><path stroke="#595959" stroke-width="4" stroke-linejoin="round" stroke-linecap="butt" d="M210.573 138.785c53.494 0 80.24-22.095 106.988-44.19 13.374-11.046 26.749-22.094 43.467-30.38a126.905 126.905 0 0 1 28.003-10.01 137.767 137.767 0 0 1 10.176-1.952c.353-.055.706-.108 1.061-.16l.346-.049"/><path fill="#595959" stroke="#595959" stroke-width="4" stroke-linecap="butt" d="M401.064 58.636l17.66-7.83-18.561-5.353z" fill-rule="evenodd"/><path fill="#673ab7" d="M345.426 308.391c0-6.282 5.094-11.375 11.376-11.375h166.225a11.375 11.375 0 0 1 11.376 11.375v45.501c0 6.283-5.093 11.376-11.376 11.376H356.802c-6.282 0-11.375-5.093-11.375-11.376z" fill-rule="evenodd"/><path stroke="#666" stroke-linejoin="round" stroke-linecap="butt" d="M345.426 308.391h0c0-6.282 5.094-11.375 11.376-11.375h166.225a11.375 11.375 0 0 1 11.376 11.375v45.501c0 6.283-5.093 11.376-11.376 11.376H356.802c-6.282 0-11.375-5.093-11.375-11.376z"/><path fill="#fff" d="M403.473 335.789q0-.5-.188-.938-.172-.453-.594-.828-.422-.39-1.11-.703-.671-.328-1.687-.594-1.234-.344-2.359-.844-1.125-.515-1.984-1.218-.86-.72-1.375-1.672-.516-.953-.516-2.188 0-1.203.5-2.172.516-.984 1.406-1.672.907-.687 2.125-1.062 1.219-.375 2.657-.375 1.484 0 2.703.437 1.234.422 2.125 1.204.89.78 1.375 1.843.5 1.063.5 2.344h-3.563q-.031-.64-.234-1.172-.203-.531-.61-.906-.39-.39-.984-.61-.578-.218-1.375-.218-.734 0-1.297.187-.562.172-.953.485-.39.312-.594.75-.203.437-.203.953 0 .531.266.969.265.421.765.765.516.344 1.235.64.719.282 1.64.516 1.297.391 2.391.938 1.094.547 1.875 1.297.797.734 1.234 1.703.438.953.438 2.125 0 1.25-.516 2.219-.5.968-1.39 1.64-.875.672-2.094 1.016-1.219.344-2.672.344-.89 0-1.781-.172-.89-.156-1.719-.485-.813-.343-1.516-.843-.703-.516-1.218-1.188-.5-.687-.797-1.547-.297-.859-.297-1.906h3.594q.03.86.297 1.484.28.61.765 1 .485.391 1.172.579.688.171 1.5.171.734 0 1.297-.171.562-.172.953-.47.39-.296.594-.718.219-.422.219-.937zm12.918-12.579v3.454h5.265v2.656h-5.265v6.062q0 .766.172 1.282.187.515.5.828.328.297.796.437.47.125 1.032.125.422 0 .86-.031.437-.047.827-.11.406-.062.75-.124.344-.063.578-.125l.36 2.484q-.375.219-.89.39-.5.157-1.079.25-.563.11-1.188.157-.625.062-1.218.062-1.157 0-2.11-.297-.937-.312-1.609-.953-.672-.64-1.031-1.64-.36-1-.36-2.39v-6.407h-3.218v-2.656h3.218v-3.454h3.61zm19.48 3.188q.813 0 1.5.11.704.109 1.141.25l-.531 3.593q-.719-.172-1.469-.25-.75-.078-1.422-.078-1.531 0-2.453.594-.906.578-1.36 1.672v8.453h-3.624v-14.078h3.375l.172 2.296q.859-1.203 2.046-1.875 1.204-.687 2.625-.687zm6.84.266h7.672v11.14h3.813v2.938h-11.484v-2.938h4.015v-8.187h-4.015v-2.953zm3.75-3.61q0-.422.141-.781.156-.36.422-.61.281-.25.656-.39.39-.14.86-.14.968 0 1.53.546.563.531.563 1.375t-.562 1.39q-.563.532-1.531.532-.47 0-.86-.14-.375-.141-.656-.391-.266-.266-.422-.61-.14-.359-.14-.78zm14.56 3.61l.234 1.953q.75-1.063 1.828-1.64 1.078-.579 2.39-.579 1.079 0 1.954.312.89.313 1.53 1 .642.672 1 1.75.36 1.079.36 2.61v8.672h-3.61v-8.61q0-.843-.202-1.375-.188-.547-.547-.859-.344-.313-.844-.438-.484-.125-1.11-.125-.921 0-1.577.375-.641.375-1.047 1.016v10.016h-3.64v-14.078h3.28zm12.355 6.937q0-1.61.39-2.937.407-1.329 1.141-2.266.75-.953 1.797-1.469 1.063-.531 2.39-.531 1.235 0 2.11.422.89.406 1.516 1.172l.14-1.328h3.297v13.625q0 1.421-.484 2.546-.484 1.125-1.375 1.891-.875.766-2.11 1.156-1.218.407-2.702.407-.641 0-1.375-.141-.72-.125-1.438-.406-.719-.266-1.36-.688-.64-.422-1.093-1l1.625-2.203q.703.781 1.562 1.188.875.406 1.891.406 1.531 0 2.375-.813.86-.812.86-2.312v-.797q-.641.703-1.5 1.094-.844.39-1.97.39-1.312 0-2.359-.53-1.047-.548-1.797-1.5-.734-.954-1.14-2.267-.39-1.312-.39-2.843v-.266zm3.64.266q0 .89.173 1.656.172.75.53 1.328.376.563.923.89.562.313 1.328.313.953 0 1.562-.36.625-.359 1-1.015v-5.953q-.375-.672-1-1.031-.609-.36-1.53-.36-.766 0-1.329.344-.562.328-.937.906-.36.579-.547 1.36-.172.765-.172 1.656v.266z"/><path fill="#bdbdbd" d="M358.403 365.3h163.496v59.716H358.403z" fill-rule="evenodd"/><path stroke="#666" stroke-linejoin="round" stroke-linecap="butt" d="M358.403 365.3h163.496v59.716H358.403z"/><path fill="#000" d="M395.665 386.979l-.25 4.328h-1.516v-5.61h1.766v1.282zm4.187 0l-.25 4.328h-1.516l.016-4.14v-1.47h1.75v1.282zm17.027 16.718h-2.046v-7.89h-7v7.89H405.8v-17.062h2.032v7.328h7v-7.328h2.046v17.062zm9.309.235q-1.328 0-2.453-.453-1.125-.469-1.922-1.282-.797-.828-1.25-1.953-.437-1.125-.437-2.437v-.5q0-1.531.484-2.735.5-1.218 1.312-2.062.829-.844 1.86-1.281 1.031-.453 2.125-.453 1.375 0 2.39.484 1.032.469 1.704 1.312.687.829 1.015 1.97.344 1.14.344 2.468v.969h-9.063q.032.86.329 1.625.312.765.828 1.343.515.563 1.234.891.734.328 1.625.328 1.156 0 2.047-.469.906-.468 1.516-1.25l1.312 1.032q-.312.484-.797.922-.469.437-1.094.78-.609.345-1.406.548-.781.203-1.703.203zm-.281-11.375q-.656 0-1.25.25-.578.234-1.047.703-.469.453-.797 1.14-.312.672-.437 1.547h6.812v-.171q-.031-.625-.234-1.25t-.61-1.11q-.39-.5-1-.797-.61-.312-1.437-.312zm9.418-6.86h6.484v16.125h4.14v1.875h-10.624v-1.875h4.312v-14.234h-4.312v-1.89zm14.402 0h6.484v16.125h4.141v1.875h-10.625v-1.875h4.313v-14.234h-4.313v-1.89zm13.465 11.547q0-1.375.39-2.547.407-1.187 1.141-2.046.75-.875 1.813-1.375 1.062-.5 2.406-.5t2.406.5q1.078.5 1.828 1.375.75.859 1.14 2.046.407 1.172.407 2.547v.25q0 1.375-.406 2.547-.39 1.172-1.14 2.047-.75.86-1.813 1.36-1.063.484-2.406.484-1.344 0-2.422-.485-1.063-.5-1.813-1.359-.734-.875-1.14-2.047-.391-1.172-.391-2.547v-.25zm2.156.25q0 .938.219 1.797.234.844.687 1.485.454.64 1.125 1.015.688.375 1.579.375.89 0 1.562-.375.688-.375 1.125-1.015.453-.641.672-1.485.234-.86.234-1.797v-.25q0-.937-.234-1.78-.219-.845-.672-1.485-.453-.657-1.125-1.032-.672-.39-1.578-.39t-1.578.39q-.656.375-1.11 1.032-.453.64-.687 1.484-.219.844-.219 1.781v.25zm16.73-10.515l-.25 4.328h-1.515v-5.61h1.766v1.282zm4.188 0l-.25 4.328h-1.515l.015-4.14v-1.47h1.75v1.282z"/><path d="M102.403 265.031c60.756 0 91.134 16.528 121.512 33.056 30.378 16.527 60.756 33.055 121.512 33.055"/><path stroke="#666" stroke-width="4" stroke-linejoin="round" stroke-linecap="butt" d="M117.559 265.395l1.156.059c1.729.092 3.43.199 5.107.32a240.653 240.653 0 0 1 18.927 2.098c11.866 1.808 22.308 4.39 31.802 7.49 18.986 6.197 34.175 14.46 49.364 22.725 15.189 8.263 30.378 16.527 49.364 22.725 9.493 3.099 19.935 5.681 31.802 7.49 2.966.451 6.022.854 9.174 1.206a246.028 246.028 0 0 0 6.025.595l1.165.098"/><path fill="#666" stroke="#666" stroke-width="4" stroke-linecap="butt" d="M104.402 265.08a6.58 6.58 0 1 1 13.157.315 6.58 6.58 0 0 1-13.157-.316z"/><path fill="#666" stroke="#666" stroke-width="4" stroke-linecap="butt" d="M321.186 336.803l18.397-5.89-17.88-7.313z" fill-rule="evenodd"/></g></svg>