<svg viewBox="0 0 818.871 284.651" fill="none" stroke-linecap="square" stroke-miterlimit="10" xmlns="http://www.w3.org/2000/svg"><clipPath id="a"><path d="M0 0h818.871v284.65H0V0z"/></clipPath><g clip-path="url(#a)"><path d="M0 0h818.871v284.65H0z"/><path fill="#e6b8af" d="M748.289 151.675h23.78v23.086h-23.78z" fill-rule="evenodd"/><path stroke="#cc4125" stroke-linejoin="round" stroke-linecap="butt" d="M748.289 151.675h23.78v23.086h-23.78z"/><path fill="#000" d="M762.028 163.726q0 .531-.125.953-.125.422-.36.719-.234.281-.577.437-.329.141-.766.141-.438 0-.781-.14-.344-.157-.578-.438-.235-.297-.375-.719-.125-.422-.125-.953v-1.344q0-.531.125-.953.125-.422.359-.703.25-.297.578-.438.344-.156.781-.156.438 0 .782.156.343.141.578.438.234.281.36.703.124.422.124.953v1.344zm-2.953-.156l2.219-1.688q-.063-.578-.344-.86-.266-.296-.766-.296-.562 0-.843.39-.266.376-.266 1.11v1.344zm2.234-1l-2.218 1.687q.062.547.328.844.281.281.781.281.562 0 .828-.39.281-.391.281-1.125v-1.297z"/><path fill="#e6b8af" d="M772.068 151.675h23.78v23.086h-23.78z" fill-rule="evenodd"/><path stroke="#cc4125" stroke-linejoin="round" stroke-linecap="butt" d="M772.068 151.675h23.78v23.086h-23.78z"/><path fill="#000" d="M784.589 165.898h-.735v-4.766l-1.484.563v-.657l2.156-.828h.063v5.688z"/><path fill="#cfe2f3" d="M700.73 151.675h23.78v23.086h-23.78z" fill-rule="evenodd"/><path stroke="#6fa8dc" stroke-linejoin="round" stroke-linecap="butt" d="M700.73 151.675h23.78v23.086h-23.78z"/><path fill="#cfe2f3" d="M676.95 151.675h23.78v23.086h-23.78z" fill-rule="evenodd"/><path stroke="#6fa8dc" stroke-linejoin="round" stroke-linecap="butt" d="M676.95 151.675h23.78v23.086h-23.78z"/><path fill="#cfe2f3" d="M653.17 151.675h23.78v23.086h-23.78z" fill-rule="evenodd"/><path stroke="#6fa8dc" stroke-linejoin="round" stroke-linecap="butt" d="M653.17 151.675h23.78v23.086h-23.78z"/><path fill="#cfe2f3" d="M629.391 151.675h23.78v23.086h-23.78z" fill-rule="evenodd"/><path stroke="#6fa8dc" stroke-linejoin="round" stroke-linecap="butt" d="M629.391 151.675h23.78v23.086h-23.78z"/><path fill="#cfe2f3" d="M605.612 151.675h23.78v23.086h-23.78z" fill-rule="evenodd"/><path stroke="#6fa8dc" stroke-linejoin="round" stroke-linecap="butt" d="M605.612 151.675h23.78v23.086h-23.78z"/><path fill="#cfe2f3" d="M581.832 151.675h23.78v23.086h-23.78z" fill-rule="evenodd"/><path stroke="#6fa8dc" stroke-linejoin="round" stroke-linecap="butt" d="M581.832 151.675h23.78v23.086h-23.78z"/><path fill="#cfe2f3" d="M558.053 151.675h23.779v23.086h-23.78z" fill-rule="evenodd"/><path stroke="#6fa8dc" stroke-linejoin="round" stroke-linecap="butt" d="M558.053 151.675h23.779v23.086h-23.78z"/><path fill="#cfe2f3" d="M534.273 151.675h23.78v23.086h-23.78z" fill-rule="evenodd"/><path stroke="#6fa8dc" stroke-linejoin="round" stroke-linecap="butt" d="M534.273 151.675h23.78v23.086h-23.78z"/><path fill="#cfe2f3" d="M510.493 151.675h23.78v23.086h-23.78z" fill-rule="evenodd"/><path stroke="#6fa8dc" stroke-linejoin="round" stroke-linecap="butt" d="M510.493 151.675h23.78v23.086h-23.78z"/><path fill="#cfe2f3" d="M486.714 151.675h23.78v23.086h-23.78z" fill-rule="evenodd"/><path stroke="#6fa8dc" stroke-linejoin="round" stroke-linecap="butt" d="M486.714 151.675h23.78v23.086h-23.78z"/><path fill="#cfe2f3" d="M462.934 151.675h23.78v23.086h-23.78z" fill-rule="evenodd"/><path stroke="#6fa8dc" stroke-linejoin="round" stroke-linecap="butt" d="M462.934 151.675h23.78v23.086h-23.78z"/><path fill="#cfe2f3" d="M439.155 151.675h23.78v23.086h-23.78z" fill-rule="evenodd"/><path stroke="#6fa8dc" stroke-linejoin="round" stroke-linecap="butt" d="M439.155 151.675h23.78v23.086h-23.78z"/><path fill="#cfe2f3" d="M415.375 151.675h23.78v23.086h-23.78z" fill-rule="evenodd"/><path stroke="#6fa8dc" stroke-linejoin="round" stroke-linecap="butt" d="M415.375 151.675h23.78v23.086h-23.78z"/><path fill="#cfe2f3" d="M391.596 151.675h23.78v23.086h-23.78z" fill-rule="evenodd"/><path stroke="#6fa8dc" stroke-linejoin="round" stroke-linecap="butt" d="M391.596 151.675h23.78v23.086h-23.78z"/><path fill="#cfe2f3" d="M367.816 151.675h23.78v23.086h-23.78z" fill-rule="evenodd"/><path stroke="#6fa8dc" stroke-linejoin="round" stroke-linecap="butt" d="M367.816 151.675h23.78v23.086h-23.78z"/><path fill="#cfe2f3" d="M344.037 151.675h23.78v23.086h-23.78z" fill-rule="evenodd"/><path stroke="#6fa8dc" stroke-linejoin="round" stroke-linecap="butt" d="M344.037 151.675h23.78v23.086h-23.78z"/><path fill="#cfe2f3" d="M320.257 151.675h23.78v23.086h-23.78z" fill-rule="evenodd"/><path stroke="#6fa8dc" stroke-linejoin="round" stroke-linecap="butt" d="M320.257 151.675h23.78v23.086h-23.78z"/><path fill="#cfe2f3" d="M296.478 151.675h23.78v23.086h-23.78z" fill-rule="evenodd"/><path stroke="#6fa8dc" stroke-linejoin="round" stroke-linecap="butt" d="M296.478 151.675h23.78v23.086h-23.78z"/><path fill="#cfe2f3" d="M272.698 151.675h23.78v23.086h-23.78z" fill-rule="evenodd"/><path stroke="#6fa8dc" stroke-linejoin="round" stroke-linecap="butt" d="M272.698 151.675h23.78v23.086h-23.78z"/><path fill="#cfe2f3" d="M248.919 151.675h23.78v23.086h-23.78z" fill-rule="evenodd"/><path stroke="#6fa8dc" stroke-linejoin="round" stroke-linecap="butt" d="M248.919 151.675h23.78v23.086h-23.78z"/><path fill="#cfe2f3" d="M225.14 151.675h23.779v23.086h-23.78z" fill-rule="evenodd"/><path stroke="#6fa8dc" stroke-linejoin="round" stroke-linecap="butt" d="M225.14 151.675h23.779v23.086h-23.78z"/><path fill="#cfe2f3" d="M201.36 151.675h23.78v23.086h-23.78z" fill-rule="evenodd"/><path stroke="#6fa8dc" stroke-linejoin="round" stroke-linecap="butt" d="M201.36 151.675h23.78v23.086h-23.78z"/><path fill="#cfe2f3" d="M177.58 151.675h23.78v23.086h-23.78z" fill-rule="evenodd"/><path stroke="#6fa8dc" stroke-linejoin="round" stroke-linecap="butt" d="M177.58 151.675h23.78v23.086h-23.78z"/><path fill="#cfe2f3" d="M153.8 151.675h23.78v23.086H153.8z" fill-rule="evenodd"/><path stroke="#6fa8dc" stroke-linejoin="round" stroke-linecap="butt" d="M153.8 151.675h23.78v23.086H153.8z"/><path fill="#cfe2f3" d="M130.021 151.675h23.78v23.086h-23.78z" fill-rule="evenodd"/><path stroke="#6fa8dc" stroke-linejoin="round" stroke-linecap="butt" d="M130.021 151.675h23.78v23.086h-23.78z"/><path fill="#cfe2f3" d="M106.241 151.675h23.78v23.086h-23.78z" fill-rule="evenodd"/><path stroke="#6fa8dc" stroke-linejoin="round" stroke-linecap="butt" d="M106.241 151.675h23.78v23.086h-23.78z"/><path fill="#cfe2f3" d="M82.462 151.675h23.78v23.086h-23.78z" fill-rule="evenodd"/><path stroke="#6fa8dc" stroke-linejoin="round" stroke-linecap="butt" d="M82.462 151.675h23.78v23.086h-23.78z"/><path fill="#cfe2f3" d="M58.682 151.675h23.78v23.086h-23.78z" fill-rule="evenodd"/><path stroke="#6fa8dc" stroke-linejoin="round" stroke-linecap="butt" d="M58.682 151.675h23.78v23.086h-23.78z"/><path fill="#cfe2f3" d="M34.903 151.675h23.78v23.086h-23.78z" fill-rule="evenodd"/><path stroke="#6fa8dc" stroke-linejoin="round" stroke-linecap="butt" d="M34.903 151.675h23.78v23.086h-23.78z"/><path fill="#cfe2f3" d="M724.51 151.675h23.779v23.086h-23.78z" fill-rule="evenodd"/><path stroke="#6fa8dc" stroke-linejoin="round" stroke-linecap="butt" d="M724.51 151.675h23.779v23.086h-23.78z"/><path d="M34.903 103.234h415.275v48.44H34.903z"/><path fill="#000" d="M53.81 130.154h-1.595v-6.125h-5.437v6.125h-1.594v-13.266h1.594v5.703h5.437v-5.703h1.594v13.266zm7.226.187q-1.031 0-1.906-.36-.875-.359-1.5-.984-.61-.64-.953-1.515-.344-.875-.344-1.907v-.39q0-1.188.375-2.125.39-.953 1.015-1.594.641-.656 1.438-1 .812-.344 1.656-.344 1.063 0 1.86.375.796.36 1.328 1.016.531.64.781 1.531.266.875.266 1.906v.75H58.02q.016.688.25 1.282.235.578.641 1.031.406.437.969.703.562.25 1.25.25.906 0 1.593-.36.704-.374 1.172-.968l1.032.797q-.25.375-.625.719-.36.328-.844.593-.485.266-1.094.422-.61.172-1.328.172zm-.219-8.844q-.515 0-.969.188-.453.187-.812.547-.36.36-.625.89-.25.516-.344 1.203h5.297v-.125q-.016-.5-.187-.984-.157-.484-.47-.86-.296-.39-.765-.624-.469-.235-1.125-.235zm13.54 8.657q-.094-.188-.157-.47-.062-.296-.093-.609-.25.266-.563.5-.312.22-.703.391-.375.172-.813.266-.421.11-.89.11-.797 0-1.438-.22-.625-.234-1.062-.625-.438-.39-.688-.922-.234-.53-.234-1.156 0-.812.312-1.422.329-.609.922-1.015.594-.407 1.422-.594.844-.203 1.875-.203h1.828v-.781q0-.454-.172-.797-.156-.36-.453-.61-.297-.25-.734-.39-.422-.14-.969-.14-.5 0-.906.14-.39.125-.672.343-.266.204-.422.485-.14.281-.14.594h-1.688q0-.532.266-1.047.28-.532.78-.938.5-.422 1.22-.672.734-.25 1.656-.25.844 0 1.562.203.72.204 1.235.625.531.407.828 1.032.297.61.297 1.437v4.578q0 .5.094 1.047.093.547.25.969v.14h-1.75zm-2.985-1.282q.5 0 .922-.125.438-.14.781-.343.344-.204.594-.47.266-.28.406-.562v-2h-1.562q-1.469 0-2.297.438-.813.437-.813 1.375 0 .36.125.672.125.312.36.531.25.219.625.36.375.124.86.124zm16.024-3.53q0 1.046-.266 1.968-.25.906-.75 1.594-.484.671-1.219 1.062-.718.375-1.64.375-.906 0-1.594-.297-.687-.297-1.172-.844v4.75h-1.687v-13.656h1.531l.094 1.078q.484-.609 1.172-.922.703-.328 1.625-.328.953 0 1.671.375.735.36 1.22 1.032.5.656.75 1.593.265.922.265 2.016v.203zm-1.688-.204q0-.719-.172-1.36-.156-.656-.484-1.156-.328-.5-.844-.78-.5-.298-1.218-.298-.813 0-1.36.375-.547.375-.875.969v4.75q.328.578.875.953.547.375 1.375.375.703 0 1.203-.297.516-.297.844-.797.328-.5.484-1.156.172-.656.172-1.375v-.203zm13.196-.844q-.016.703-.14 1.438-.11.718-.344 1.39-.235.672-.61 1.266-.36.578-.875 1.016-.5.437-1.172.687-.656.25-1.468.25-.829 0-1.485-.25-.656-.25-1.172-.687-.515-.438-.89-1.032-.375-.593-.61-1.265-.234-.672-.36-1.39-.124-.72-.124-1.423v-1.515q0-.72.11-1.438.124-.719.359-1.39.25-.688.609-1.266.375-.594.875-1.031.516-.438 1.172-.688.672-.266 1.484-.266.828 0 1.485.266.672.25 1.172.688.515.437.875 1.03.375.579.609 1.25.25.673.36 1.407.124.719.14 1.438v1.515zm-1.672-1.531q-.016-.484-.078-1-.047-.516-.188-1.016-.125-.5-.343-.953-.22-.469-.547-.812-.328-.36-.781-.563-.438-.203-1.032-.203-.578 0-1.031.203-.437.203-.766.563-.328.343-.546.812-.22.453-.36.969-.125.5-.187 1.016-.063.515-.063.984v1.531q0 .453.063.985.062.515.203 1.015.14.5.36.969.218.469.546.828.328.344.766.563.453.203 1.047.203.578 0 1.03-.203.454-.22.782-.563.328-.36.531-.812.219-.47.344-.97.14-.515.188-1.03.046-.516.062-.985v-1.531zm12.586 2.578q0 1.047-.265 1.969-.25.906-.75 1.594-.485.671-1.204 1.062-.718.375-1.656.375-.953 0-1.656-.328-.688-.344-1.188-.984l-.078 1.125h-1.547v-14h1.688v5.203q.484-.61 1.156-.922.688-.313 1.61-.313.937 0 1.656.375.734.36 1.219 1.032.5.656.75 1.593.265.922.265 2.016v.203zm-1.687-.203q0-.719-.14-1.36-.142-.656-.454-1.156-.313-.5-.813-.78-.5-.298-1.218-.298-.438 0-.813.125-.36.11-.656.313-.281.203-.5.484-.219.266-.375.594v4.312q.156.328.375.61.234.281.516.5.296.203.656.312.375.11.812.11.688 0 1.188-.282.5-.297.812-.78.313-.5.453-1.142.157-.64.157-1.359v-.203zm5.664-4.844h4.984v9.922q0 .953-.265 1.672-.266.734-.766 1.234-.484.5-1.203.75-.719.266-1.625.266-.516 0-.969-.031-.453-.032-.953-.125l.125-1.39q.156.03.39.046.235.031.47.047.25.015.468.015h.344q.484 0 .89-.125.423-.109.735-.406.313-.297.484-.781.188-.469.188-1.172v-8.453h-3.297v-1.469zm3.063-2.594q0-.406.234-.687.25-.297.766-.297.5 0 .75.297.265.281.265.687 0 .407-.265.688-.25.281-.75.281-.516 0-.766-.281-.234-.281-.234-.688zm11.351 12.641q-1.03 0-1.906-.36-.875-.359-1.5-.984-.61-.64-.953-1.515-.344-.875-.344-1.907v-.39q0-1.188.375-2.125.39-.953 1.016-1.594.64-.656 1.437-1 .813-.344 1.657-.344 1.062 0 1.859.375.797.36 1.328 1.016.531.64.781 1.531.266.875.266 1.906v.75h-7.031q.015.688.25 1.282.234.578.64 1.031.407.437.97.703.562.25 1.25.25.905 0 1.593-.36.703-.374 1.172-.968l1.031.797q-.25.375-.625.719-.36.328-.844.593-.484.266-1.093.422-.61.172-1.329.172zm-.218-8.844q-.516 0-.97.188-.452.187-.812.547-.359.36-.625.89-.25.516-.343 1.203h5.297v-.125q-.016-.5-.188-.984-.156-.484-.469-.86-.297-.39-.765-.624-.47-.235-1.125-.235zm11.258 7.47q.453 0 .89-.142.438-.14.766-.406.344-.265.547-.61.203-.359.219-.765h1.593q-.015.656-.343 1.266-.329.594-.891 1.047-.563.437-1.281.718-.719.266-1.5.266-1.11 0-1.953-.406-.844-.406-1.407-1.078-.547-.688-.843-1.563-.282-.89-.282-1.875v-.39q0-.97.282-1.86.296-.89.843-1.562.563-.688 1.407-1.078.843-.407 1.953-.407.875 0 1.61.282.733.265 1.265.75.531.468.828 1.125.312.656.312 1.406h-1.593q-.016-.453-.204-.844-.187-.39-.515-.687-.313-.313-.75-.485-.438-.172-.953-.172-.782 0-1.313.313-.531.312-.86.828-.327.5-.468 1.14-.14.626-.14 1.25v.391q0 .64.14 1.281.14.625.453 1.141.328.5.86.813.53.312 1.328.312zm10.992-11.063v2.39h3.75v1.313h-3.75v5.343q0 .579.14.954.141.375.391.593.266.22.594.313.344.094.719.094.266 0 .547-.032.297-.03.578-.078.281-.047.516-.094.25-.046.406-.093l.234 1.203q-.219.125-.515.219-.297.093-.657.156-.343.078-.75.11-.39.046-.781.046-.656 0-1.234-.187-.563-.188-.985-.594-.422-.406-.672-1.047-.234-.64-.234-1.563v-5.343h-2.578v-1.313h2.578v-2.39h1.703z"/><path fill="#e6b8af" d="M772.068 73.948h23.78v23.086h-23.78z" fill-rule="evenodd"/><path stroke="#cc4125" stroke-linejoin="round" stroke-linecap="butt" d="M772.068 73.948h23.78v23.086h-23.78z"/><path fill="#000" d="M785.808 85.999q0 .531-.125.953-.125.422-.36.719-.234.281-.578.437-.328.14-.766.14-.437 0-.78-.14-.345-.156-.579-.437-.234-.297-.375-.719-.125-.422-.125-.953v-1.344q0-.531.125-.953.125-.422.36-.703.25-.297.578-.438.343-.156.78-.156.438 0 .782.156.344.141.578.438.235.281.36.703.125.422.125.953V86zm-2.954-.156l2.22-1.688q-.063-.578-.345-.86-.265-.296-.765-.296-.563 0-.844.39-.266.376-.266 1.11v1.344zm2.235-1l-2.219 1.687q.063.547.328.844.281.281.781.281.563 0 .829-.39.28-.391.28-1.125v-1.297z"/><path fill="#cfe2f3" d="M700.73 73.948h23.78v23.086h-23.78z" fill-rule="evenodd"/><path stroke="#6fa8dc" stroke-linejoin="round" stroke-linecap="butt" d="M700.73 73.948h23.78v23.086h-23.78z"/><path fill="#cfe2f3" d="M676.95 73.948h23.78v23.086h-23.78z" fill-rule="evenodd"/><path stroke="#6fa8dc" stroke-linejoin="round" stroke-linecap="butt" d="M676.95 73.948h23.78v23.086h-23.78z"/><path fill="#cfe2f3" d="M653.17 73.948h23.78v23.086h-23.78z" fill-rule="evenodd"/><path stroke="#6fa8dc" stroke-linejoin="round" stroke-linecap="butt" d="M653.17 73.948h23.78v23.086h-23.78z"/><path fill="#cfe2f3" d="M629.391 73.948h23.78v23.086h-23.78z" fill-rule="evenodd"/><path stroke="#6fa8dc" stroke-linejoin="round" stroke-linecap="butt" d="M629.391 73.948h23.78v23.086h-23.78z"/><path fill="#cfe2f3" d="M605.612 73.948h23.78v23.086h-23.78z" fill-rule="evenodd"/><path stroke="#6fa8dc" stroke-linejoin="round" stroke-linecap="butt" d="M605.612 73.948h23.78v23.086h-23.78z"/><path fill="#cfe2f3" d="M581.832 73.948h23.78v23.086h-23.78z" fill-rule="evenodd"/><path stroke="#6fa8dc" stroke-linejoin="round" stroke-linecap="butt" d="M581.832 73.948h23.78v23.086h-23.78z"/><path fill="#cfe2f3" d="M558.053 73.948h23.779v23.086h-23.78z" fill-rule="evenodd"/><path stroke="#6fa8dc" stroke-linejoin="round" stroke-linecap="butt" d="M558.053 73.948h23.779v23.086h-23.78z"/><path fill="#cfe2f3" d="M534.273 73.948h23.78v23.086h-23.78z" fill-rule="evenodd"/><path stroke="#6fa8dc" stroke-linejoin="round" stroke-linecap="butt" d="M534.273 73.948h23.78v23.086h-23.78z"/><path fill="#cfe2f3" d="M510.493 73.948h23.78v23.086h-23.78z" fill-rule="evenodd"/><path stroke="#6fa8dc" stroke-linejoin="round" stroke-linecap="butt" d="M510.493 73.948h23.78v23.086h-23.78z"/><path fill="#cfe2f3" d="M486.714 73.948h23.78v23.086h-23.78z" fill-rule="evenodd"/><path stroke="#6fa8dc" stroke-linejoin="round" stroke-linecap="butt" d="M486.714 73.948h23.78v23.086h-23.78z"/><path fill="#cfe2f3" d="M462.934 73.948h23.78v23.086h-23.78z" fill-rule="evenodd"/><path stroke="#6fa8dc" stroke-linejoin="round" stroke-linecap="butt" d="M462.934 73.948h23.78v23.086h-23.78z"/><path fill="#cfe2f3" d="M439.155 73.948h23.78v23.086h-23.78z" fill-rule="evenodd"/><path stroke="#6fa8dc" stroke-linejoin="round" stroke-linecap="butt" d="M439.155 73.948h23.78v23.086h-23.78z"/><path fill="#cfe2f3" d="M415.375 73.948h23.78v23.086h-23.78z" fill-rule="evenodd"/><path stroke="#6fa8dc" stroke-linejoin="round" stroke-linecap="butt" d="M415.375 73.948h23.78v23.086h-23.78z"/><path fill="#cfe2f3" d="M391.596 73.948h23.78v23.086h-23.78z" fill-rule="evenodd"/><path stroke="#6fa8dc" stroke-linejoin="round" stroke-linecap="butt" d="M391.596 73.948h23.78v23.086h-23.78z"/><path fill="#cfe2f3" d="M367.816 73.948h23.78v23.086h-23.78z" fill-rule="evenodd"/><path stroke="#6fa8dc" stroke-linejoin="round" stroke-linecap="butt" d="M367.816 73.948h23.78v23.086h-23.78z"/><path fill="#cfe2f3" d="M344.037 73.948h23.78v23.086h-23.78z" fill-rule="evenodd"/><path stroke="#6fa8dc" stroke-linejoin="round" stroke-linecap="butt" d="M344.037 73.948h23.78v23.086h-23.78z"/><path fill="#cfe2f3" d="M320.257 73.948h23.78v23.086h-23.78z" fill-rule="evenodd"/><path stroke="#6fa8dc" stroke-linejoin="round" stroke-linecap="butt" d="M320.257 73.948h23.78v23.086h-23.78z"/><path fill="#cfe2f3" d="M296.478 73.948h23.78v23.086h-23.78z" fill-rule="evenodd"/><path stroke="#6fa8dc" stroke-linejoin="round" stroke-linecap="butt" d="M296.478 73.948h23.78v23.086h-23.78z"/><path fill="#cfe2f3" d="M272.698 73.948h23.78v23.086h-23.78z" fill-rule="evenodd"/><path stroke="#6fa8dc" stroke-linejoin="round" stroke-linecap="butt" d="M272.698 73.948h23.78v23.086h-23.78z"/><path fill="#cfe2f3" d="M248.919 73.948h23.78v23.086h-23.78z" fill-rule="evenodd"/><path stroke="#6fa8dc" stroke-linejoin="round" stroke-linecap="butt" d="M248.919 73.948h23.78v23.086h-23.78z"/><path fill="#cfe2f3" d="M225.14 73.948h23.779v23.086h-23.78z" fill-rule="evenodd"/><path stroke="#6fa8dc" stroke-linejoin="round" stroke-linecap="butt" d="M225.14 73.948h23.779v23.086h-23.78z"/><path fill="#cfe2f3" d="M201.36 73.948h23.78v23.086h-23.78z" fill-rule="evenodd"/><path stroke="#6fa8dc" stroke-linejoin="round" stroke-linecap="butt" d="M201.36 73.948h23.78v23.086h-23.78z"/><path fill="#cfe2f3" d="M177.58 73.948h23.78v23.086h-23.78z" fill-rule="evenodd"/><path stroke="#6fa8dc" stroke-linejoin="round" stroke-linecap="butt" d="M177.58 73.948h23.78v23.086h-23.78z"/><path fill="#cfe2f3" d="M153.8 73.948h23.78v23.086H153.8z" fill-rule="evenodd"/><path stroke="#6fa8dc" stroke-linejoin="round" stroke-linecap="butt" d="M153.8 73.948h23.78v23.086H153.8z"/><path fill="#cfe2f3" d="M130.021 73.948h23.78v23.086h-23.78z" fill-rule="evenodd"/><path stroke="#6fa8dc" stroke-linejoin="round" stroke-linecap="butt" d="M130.021 73.948h23.78v23.086h-23.78z"/><path fill="#cfe2f3" d="M106.241 73.948h23.78v23.086h-23.78z" fill-rule="evenodd"/><path stroke="#6fa8dc" stroke-linejoin="round" stroke-linecap="butt" d="M106.241 73.948h23.78v23.086h-23.78z"/><path fill="#cfe2f3" d="M82.462 73.948h23.78v23.086h-23.78z" fill-rule="evenodd"/><path stroke="#6fa8dc" stroke-linejoin="round" stroke-linecap="butt" d="M82.462 73.948h23.78v23.086h-23.78z"/><path fill="#cfe2f3" d="M58.682 73.948h23.78v23.086h-23.78z" fill-rule="evenodd"/><path stroke="#6fa8dc" stroke-linejoin="round" stroke-linecap="butt" d="M58.682 73.948h23.78v23.086h-23.78z"/><path fill="#cfe2f3" d="M34.903 73.948h23.78v23.086h-23.78z" fill-rule="evenodd"/><path stroke="#6fa8dc" stroke-linejoin="round" stroke-linecap="butt" d="M34.903 73.948h23.78v23.086h-23.78z"/><path fill="#cfe2f3" d="M724.51 73.948h23.779v23.086h-23.78z" fill-rule="evenodd"/><path stroke="#6fa8dc" stroke-linejoin="round" stroke-linecap="butt" d="M724.51 73.948h23.779v23.086h-23.78z"/><path fill="#cfe2f3" d="M748.289 73.948h23.78v23.086h-23.78z" fill-rule="evenodd"/><path stroke="#6fa8dc" stroke-linejoin="round" stroke-linecap="butt" d="M748.289 73.948h23.78v23.086h-23.78z"/><path d="M34.903 25.507h415.275v48.44H34.903z"/><path fill="#000" d="M52.434 49.067q0-.61-.281-1.015-.281-.422-.719-.704-.437-.296-.969-.484-.515-.187-1-.344-.703-.234-1.421-.547-.72-.328-1.329-.78-.593-.47-.968-1.095-.375-.64-.375-1.5 0-.859.375-1.53.375-.673.984-1.141.61-.47 1.375-.704.781-.25 1.578-.25.86 0 1.656.297.813.282 1.422.813.625.515 1 1.25.375.734.39 1.64H52.42q-.079-.562-.282-1.03-.203-.47-.562-.813-.344-.344-.828-.516-.47-.187-1.063-.187-.484 0-.953.14-.453.125-.812.406-.36.266-.579.672-.218.39-.218.922.015.578.297.985.28.39.718.671.438.266.938.454.5.171.953.312.484.156.984.36.5.187.969.437t.86.578q.406.313.703.719.312.406.468.89.172.485.172 1.079 0 .89-.406 1.562-.39.672-1.016 1.11-.625.437-1.422.671-.78.22-1.578.22-.89 0-1.734-.267-.844-.28-1.516-.796t-1.093-1.25q-.407-.75-.438-1.704H46.7q.078.625.328 1.11.266.469.656.812.406.328.922.5.531.157 1.156.157.485 0 .969-.125t.844-.375q.375-.266.61-.657.25-.406.25-.953zm5.024-6.5l.047.938q.297-.532.781-.813.5-.297 1.187-.297 1.36 0 1.813 1.047.297-.469.766-.75.484-.297 1.156-.297 1.094 0 1.672.672.578.656.578 2v7.36h-1.594v-7.375q0-1.25-1.14-1.235-.297 0-.516.094-.219.078-.375.219-.14.14-.219.328-.078.187-.11.375v7.594h-1.609v-7.391q0-.594-.265-.906-.266-.328-.828-.313-.532 0-.829.219-.28.203-.421.547v7.844h-1.61v-9.86h1.516zm10.68 0h5.047v8.406h3.218v1.454h-8.265v-1.454h3.36v-6.937h-3.36v-1.469zm3.14-2.578q0-.422.25-.703.25-.297.766-.297.5 0 .75.297.25.281.25.703 0 .406-.25.688-.25.265-.75.265-.516 0-.766-.265-.25-.282-.25-.688z"/><path fill="#e6b8af" d="M748.289 229.402h23.78v23.086h-23.78z" fill-rule="evenodd"/><path stroke="#cc4125" stroke-linejoin="round" stroke-linecap="butt" d="M748.289 229.402h23.78v23.086h-23.78z"/><path fill="#000" d="M760.81 243.625h-.735v-4.766l-1.484.563v-.656l2.156-.829h.062v5.688z"/><path fill="#e6b8af" d="M772.068 229.402h23.78v23.086h-23.78z" fill-rule="evenodd"/><path stroke="#cc4125" stroke-linejoin="round" stroke-linecap="butt" d="M772.068 229.402h23.78v23.086h-23.78z"/><path fill="#000" d="M784.589 243.625h-.735v-4.766l-1.484.563v-.656l2.156-.829h.063v5.688z"/><path fill="#cfe2f3" d="M700.73 229.402h23.78v23.086h-23.78z" fill-rule="evenodd"/><path stroke="#6fa8dc" stroke-linejoin="round" stroke-linecap="butt" d="M700.73 229.402h23.78v23.086h-23.78z"/><path fill="#cfe2f3" d="M676.95 229.402h23.78v23.086h-23.78z" fill-rule="evenodd"/><path stroke="#6fa8dc" stroke-linejoin="round" stroke-linecap="butt" d="M676.95 229.402h23.78v23.086h-23.78z"/><path fill="#cfe2f3" d="M653.17 229.402h23.78v23.086h-23.78z" fill-rule="evenodd"/><path stroke="#6fa8dc" stroke-linejoin="round" stroke-linecap="butt" d="M653.17 229.402h23.78v23.086h-23.78z"/><path fill="#cfe2f3" d="M629.391 229.402h23.78v23.086h-23.78z" fill-rule="evenodd"/><path stroke="#6fa8dc" stroke-linejoin="round" stroke-linecap="butt" d="M629.391 229.402h23.78v23.086h-23.78z"/><path fill="#cfe2f3" d="M605.612 229.402h23.78v23.086h-23.78z" fill-rule="evenodd"/><path stroke="#6fa8dc" stroke-linejoin="round" stroke-linecap="butt" d="M605.612 229.402h23.78v23.086h-23.78z"/><path fill="#cfe2f3" d="M581.832 229.402h23.78v23.086h-23.78z" fill-rule="evenodd"/><path stroke="#6fa8dc" stroke-linejoin="round" stroke-linecap="butt" d="M581.832 229.402h23.78v23.086h-23.78z"/><path fill="#cfe2f3" d="M558.053 229.402h23.779v23.086h-23.78z" fill-rule="evenodd"/><path stroke="#6fa8dc" stroke-linejoin="round" stroke-linecap="butt" d="M558.053 229.402h23.779v23.086h-23.78z"/><path fill="#cfe2f3" d="M534.273 229.402h23.78v23.086h-23.78z" fill-rule="evenodd"/><path stroke="#6fa8dc" stroke-linejoin="round" stroke-linecap="butt" d="M534.273 229.402h23.78v23.086h-23.78z"/><path fill="#cfe2f3" d="M510.493 229.402h23.78v23.086h-23.78z" fill-rule="evenodd"/><path stroke="#6fa8dc" stroke-linejoin="round" stroke-linecap="butt" d="M510.493 229.402h23.78v23.086h-23.78z"/><path fill="#cfe2f3" d="M486.714 229.402h23.78v23.086h-23.78z" fill-rule="evenodd"/><path stroke="#6fa8dc" stroke-linejoin="round" stroke-linecap="butt" d="M486.714 229.402h23.78v23.086h-23.78z"/><path fill="#cfe2f3" d="M462.934 229.402h23.78v23.086h-23.78z" fill-rule="evenodd"/><path stroke="#6fa8dc" stroke-linejoin="round" stroke-linecap="butt" d="M462.934 229.402h23.78v23.086h-23.78z"/><path fill="#cfe2f3" d="M439.155 229.402h23.78v23.086h-23.78z" fill-rule="evenodd"/><path stroke="#6fa8dc" stroke-linejoin="round" stroke-linecap="butt" d="M439.155 229.402h23.78v23.086h-23.78z"/><path fill="#cfe2f3" d="M415.375 229.402h23.78v23.086h-23.78z" fill-rule="evenodd"/><path stroke="#6fa8dc" stroke-linejoin="round" stroke-linecap="butt" d="M415.375 229.402h23.78v23.086h-23.78z"/><path fill="#cfe2f3" d="M391.596 229.402h23.78v23.086h-23.78z" fill-rule="evenodd"/><path stroke="#6fa8dc" stroke-linejoin="round" stroke-linecap="butt" d="M391.596 229.402h23.78v23.086h-23.78z"/><path fill="#cfe2f3" d="M367.816 229.402h23.78v23.086h-23.78z" fill-rule="evenodd"/><path stroke="#6fa8dc" stroke-linejoin="round" stroke-linecap="butt" d="M367.816 229.402h23.78v23.086h-23.78z"/><path fill="#cfe2f3" d="M344.037 229.402h23.78v23.086h-23.78z" fill-rule="evenodd"/><path stroke="#6fa8dc" stroke-linejoin="round" stroke-linecap="butt" d="M344.037 229.402h23.78v23.086h-23.78z"/><path fill="#cfe2f3" d="M320.257 229.402h23.78v23.086h-23.78z" fill-rule="evenodd"/><path stroke="#6fa8dc" stroke-linejoin="round" stroke-linecap="butt" d="M320.257 229.402h23.78v23.086h-23.78z"/><path fill="#cfe2f3" d="M296.478 229.402h23.78v23.086h-23.78z" fill-rule="evenodd"/><path stroke="#6fa8dc" stroke-linejoin="round" stroke-linecap="butt" d="M296.478 229.402h23.78v23.086h-23.78z"/><path fill="#cfe2f3" d="M272.698 229.402h23.78v23.086h-23.78z" fill-rule="evenodd"/><path stroke="#6fa8dc" stroke-linejoin="round" stroke-linecap="butt" d="M272.698 229.402h23.78v23.086h-23.78z"/><path fill="#cfe2f3" d="M248.919 229.402h23.78v23.086h-23.78z" fill-rule="evenodd"/><path stroke="#6fa8dc" stroke-linejoin="round" stroke-linecap="butt" d="M248.919 229.402h23.78v23.086h-23.78z"/><path fill="#cfe2f3" d="M225.14 229.402h23.779v23.086h-23.78z" fill-rule="evenodd"/><path stroke="#6fa8dc" stroke-linejoin="round" stroke-linecap="butt" d="M225.14 229.402h23.779v23.086h-23.78z"/><path fill="#cfe2f3" d="M201.36 229.402h23.78v23.086h-23.78z" fill-rule="evenodd"/><path stroke="#6fa8dc" stroke-linejoin="round" stroke-linecap="butt" d="M201.36 229.402h23.78v23.086h-23.78z"/><path fill="#cfe2f3" d="M177.58 229.402h23.78v23.086h-23.78z" fill-rule="evenodd"/><path stroke="#6fa8dc" stroke-linejoin="round" stroke-linecap="butt" d="M177.58 229.402h23.78v23.086h-23.78z"/><path fill="#cfe2f3" d="M153.8 229.402h23.78v23.086H153.8z" fill-rule="evenodd"/><path stroke="#6fa8dc" stroke-linejoin="round" stroke-linecap="butt" d="M153.8 229.402h23.78v23.086H153.8z"/><path fill="#cfe2f3" d="M130.021 229.402h23.78v23.086h-23.78z" fill-rule="evenodd"/><path stroke="#6fa8dc" stroke-linejoin="round" stroke-linecap="butt" d="M130.021 229.402h23.78v23.086h-23.78z"/><path fill="#cfe2f3" d="M106.241 229.402h23.78v23.086h-23.78z" fill-rule="evenodd"/><path stroke="#6fa8dc" stroke-linejoin="round" stroke-linecap="butt" d="M106.241 229.402h23.78v23.086h-23.78z"/><path fill="#cfe2f3" d="M82.462 229.402h23.78v23.086h-23.78z" fill-rule="evenodd"/><path stroke="#6fa8dc" stroke-linejoin="round" stroke-linecap="butt" d="M82.462 229.402h23.78v23.086h-23.78z"/><path fill="#cfe2f3" d="M58.682 229.402h23.78v23.086h-23.78z" fill-rule="evenodd"/><path stroke="#6fa8dc" stroke-linejoin="round" stroke-linecap="butt" d="M58.682 229.402h23.78v23.086h-23.78z"/><path fill="#cfe2f3" d="M34.903 229.402h23.78v23.086h-23.78z" fill-rule="evenodd"/><path stroke="#6fa8dc" stroke-linejoin="round" stroke-linecap="butt" d="M34.903 229.402h23.78v23.086h-23.78z"/><path fill="#cfe2f3" d="M724.51 229.402h23.779v23.086h-23.78z" fill-rule="evenodd"/><path stroke="#6fa8dc" stroke-linejoin="round" stroke-linecap="butt" d="M724.51 229.402h23.779v23.086h-23.78z"/><path d="M34.903 180.96h415.275v48.442H34.903z"/><path fill="#000" d="M52.06 204.287l1.015-9.672h1.594l-1.61 13.266H51.34l-1.703-10-1.718 10h-1.735l-1.61-13.266h1.595l1.015 9.672 1.703-9.672h1.469l1.703 9.672zm8.976 3.781q-1.031 0-1.906-.36-.875-.359-1.5-.984-.61-.64-.953-1.515-.344-.875-.344-1.906v-.391q0-1.188.375-2.125.39-.953 1.015-1.594.641-.656 1.438-1 .812-.344 1.656-.344 1.063 0 1.86.375.796.36 1.328 1.016.531.64.781 1.531.266.875.266 1.907v.75H58.02q.016.687.25 1.28.235.579.641 1.032.406.438.969.703.562.25 1.25.25.906 0 1.593-.36.704-.374 1.172-.968l1.032.797q-.25.375-.625.719-.36.328-.844.593-.485.266-1.094.422-.61.172-1.328.172zm-.219-8.844q-.515 0-.969.188-.453.187-.812.547-.36.36-.625.89-.25.516-.344 1.204h5.297v-.125q-.016-.5-.187-.985-.157-.484-.47-.86-.296-.39-.765-.624-.469-.235-1.125-.235zm13.54 8.657q-.094-.188-.157-.47-.062-.296-.093-.608-.25.265-.563.5-.312.218-.703.39-.375.172-.813.266-.421.11-.89.11-.797 0-1.438-.22-.625-.234-1.062-.625-.438-.39-.688-.921-.234-.532-.234-1.157 0-.812.312-1.422.329-.609.922-1.015.594-.406 1.422-.594.844-.203 1.875-.203h1.828v-.781q0-.453-.172-.797-.156-.36-.453-.61-.297-.25-.734-.39-.422-.14-.969-.14-.5 0-.906.14-.39.125-.672.344-.266.203-.422.484-.14.281-.14.594h-1.688q0-.532.266-1.047.28-.531.78-.938.5-.422 1.22-.672.734-.25 1.656-.25.844 0 1.562.204.72.203 1.235.625.531.406.828 1.03.297.61.297 1.438v4.578q0 .5.094 1.047.093.547.25.969v.14h-1.75zm-2.985-1.282q.5 0 .922-.125.438-.14.781-.343.344-.203.594-.47.266-.28.406-.562v-2h-1.562q-1.469 0-2.297.438-.813.437-.813 1.375 0 .36.125.672.125.312.36.531.25.219.625.36.375.124.86.124zm10.649-3.312l-1.235 1.187v3.407H79.1v-14h1.687v8.578l1.11-1.188 3.234-3.25h2.047l-4 4.11 4.61 5.75h-2.141l-3.625-4.594zm16.57 4.594h-1.593v-6.125H91.56v6.125h-1.594v-13.266h1.594v5.703h5.438v-5.703h1.593v13.266zm7.227.187q-1.031 0-1.906-.36-.875-.359-1.5-.984-.61-.64-.953-1.515-.344-.875-.344-1.906v-.391q0-1.188.375-2.125.39-.953 1.016-1.594.64-.656 1.437-1 .813-.344 1.656-.344 1.063 0 1.86.375.797.36 1.328 1.016.531.64.781 1.531.266.875.266 1.907v.75h-7.031q.015.687.25 1.28.234.579.64 1.032.406.438.969.703.562.25 1.25.25.906 0 1.594-.36.703-.374 1.172-.968l1.03.797q-.25.375-.624.719-.36.328-.844.593-.484.266-1.094.422-.609.172-1.328.172zm-.219-8.844q-.515 0-.968.188-.453.187-.813.547-.36.36-.625.89-.25.516-.344 1.204h5.297v-.125q-.015-.5-.187-.985-.156-.484-.469-.86-.297-.39-.766-.624-.468-.235-1.125-.235zm13.54 8.657q-.094-.188-.156-.47-.063-.296-.094-.608-.25.265-.563.5-.312.218-.703.39-.375.172-.812.266-.422.11-.89.11-.798 0-1.438-.22-.625-.234-1.063-.625-.437-.39-.687-.921-.235-.532-.235-1.157 0-.812.313-1.422.328-.609.922-1.015.593-.406 1.421-.594.844-.203 1.875-.203h1.829v-.781q0-.453-.172-.797-.157-.36-.453-.61-.297-.25-.735-.39-.422-.14-.969-.14-.5 0-.906.14-.39.125-.672.344-.265.203-.422.484-.14.281-.14.594H112.7q0-.532.266-1.047.281-.531.781-.938.5-.422 1.219-.672.734-.25 1.656-.25.844 0 1.563.204.718.203 1.234.625.531.406.828 1.03.297.61.297 1.438v4.578q0 .5.094 1.047.094.547.25.969v.14h-1.75zm-2.985-1.282q.5 0 .922-.125.438-.14.782-.343.343-.203.593-.47.266-.28.407-.562v-2h-1.563q-1.469 0-2.297.438-.812.437-.812 1.375 0 .36.125.672.125.312.36.531.25.219.624.36.375.124.86.124zm16.024-3.53q0 1.046-.265 1.968-.25.906-.75 1.594-.485.672-1.22 1.062-.718.375-1.64.375-.906 0-1.594-.297-.687-.297-1.171-.843v4.75h-1.688V198.02h1.531l.094 1.078q.484-.609 1.172-.921.703-.329 1.625-.329.953 0 1.672.375.734.36 1.219 1.032.5.656.75 1.593.265.922.265 2.016v.203zm-1.687-.204q0-.719-.172-1.36-.156-.656-.485-1.156-.328-.5-.843-.78-.5-.298-1.22-.298-.812 0-1.358.375-.547.375-.875.969v4.75q.328.578.875.953.546.375 1.375.375.703 0 1.203-.297.515-.297.843-.797.329-.5.485-1.156.172-.656.172-1.375v-.203zm13.195-.844q-.015.703-.14 1.438-.11.719-.344 1.39-.235.672-.61 1.266-.359.578-.875 1.016-.5.437-1.171.687-.657.25-1.47.25-.827 0-1.484-.25-.656-.25-1.171-.687-.516-.438-.891-1.032-.375-.593-.61-1.265-.234-.672-.359-1.39-.125-.72-.125-1.423v-1.515q0-.72.11-1.438.125-.719.359-1.39.25-.688.61-1.266.374-.594.874-1.031.516-.438 1.172-.688.672-.265 1.485-.265.828 0 1.484.265.672.25 1.172.688.515.437.875 1.03.375.579.61 1.25.25.673.359 1.407.125.719.14 1.438v1.515zm-1.672-1.531q-.015-.484-.078-1-.047-.516-.187-1.016-.125-.5-.344-.953-.219-.468-.547-.812-.328-.36-.781-.563-.438-.203-1.031-.203-.579 0-1.032.203-.437.203-.765.563-.328.344-.547.812-.219.453-.36.969-.125.5-.187 1.016-.063.515-.063.984v1.531q0 .453.063.985.062.515.203 1.015.14.5.36.969.218.469.546.828.328.344.766.563.453.203 1.047.203.578 0 1.031-.203.453-.22.781-.563.328-.36.532-.812.218-.47.343-.97.141-.515.188-1.03.047-.516.062-.985v-1.531zm12.587 2.578q0 1.047-.266 1.969-.25.906-.75 1.594-.484.672-1.203 1.062-.719.375-1.656.375-.954 0-1.657-.328-.687-.344-1.187-.984l-.078 1.125h-1.547v-14h1.687v5.203q.485-.61 1.157-.922.687-.313 1.609-.313.937 0 1.656.375.735.36 1.219 1.032.5.656.75 1.593.266.922.266 2.016v.203zm-1.688-.203q0-.719-.14-1.36-.141-.656-.454-1.156-.312-.5-.812-.78-.5-.298-1.219-.298-.437 0-.812.125-.36.11-.657.313-.281.203-.5.484-.218.266-.375.594v4.312q.157.329.375.61.235.281.516.5.297.203.656.312.375.11.813.11.687 0 1.187-.282.5-.296.813-.78.312-.5.453-1.141.156-.641.156-1.36v-.203zm5.664-4.844h4.985v9.922q0 .953-.266 1.672-.266.734-.766 1.234-.484.5-1.203.75-.718.266-1.625.266-.515 0-.968-.031-.454-.031-.954-.125l.125-1.39q.157.03.391.046.234.031.469.047.25.016.469.016h.343q.485 0 .891-.125.422-.11.734-.407.313-.297.485-.781.187-.469.187-1.172v-8.453h-3.297v-1.469zm3.063-2.593q0-.407.234-.688.25-.297.766-.297.5 0 .75.297.265.281.265.688 0 .406-.265.687-.25.281-.75.281-.516 0-.766-.281-.234-.281-.234-.687zm11.352 12.64q-1.032 0-1.907-.36-.875-.359-1.5-.984-.609-.64-.953-1.515-.343-.875-.343-1.906v-.391q0-1.188.375-2.125.39-.953 1.015-1.594.64-.656 1.438-1 .812-.344 1.656-.344 1.062 0 1.86.375.796.36 1.327 1.016.532.64.782 1.531.265.875.265 1.907v.75h-7.03q.015.687.25 1.28.233.579.64 1.032.406.438.968.703.563.25 1.25.25.907 0 1.594-.36.703-.374 1.172-.968l1.031.797q-.25.375-.625.719-.36.328-.843.593-.485.266-1.094.422-.61.172-1.328.172zm-.22-8.844q-.515 0-.968.188-.453.187-.812.547-.36.36-.625.89-.25.516-.344 1.204h5.297v-.125q-.016-.5-.188-.985-.156-.484-.468-.86-.297-.39-.766-.624-.469-.235-1.125-.235zm11.259 7.47q.453 0 .89-.141.438-.141.766-.407.344-.265.547-.61.203-.358.219-.765h1.594q-.016.657-.344 1.266-.328.594-.89 1.047-.563.437-1.282.719-.719.265-1.5.265-1.11 0-1.953-.406-.844-.406-1.406-1.078-.547-.688-.844-1.563-.281-.89-.281-1.875v-.39q0-.97.28-1.86.298-.89.845-1.562.562-.688 1.406-1.078.844-.407 1.953-.407.875 0 1.61.282.734.265 1.265.75.531.468.828 1.125.313.656.313 1.406h-1.594q-.016-.453-.203-.844-.188-.39-.516-.687-.312-.313-.75-.485-.437-.172-.953-.172-.781 0-1.312.313-.532.312-.86.828-.328.5-.469 1.14-.14.626-.14 1.25v.391q0 .64.14 1.282.141.625.454 1.14.328.5.859.813.531.312 1.328.312zm10.992-11.063v2.39h3.75v1.313h-3.75v5.344q0 .578.141.953.14.375.39.593.266.22.594.313.344.094.72.094.265 0 .546-.032.297-.03.578-.078.281-.047.516-.093.25-.047.406-.094l.234 1.203q-.218.125-.515.219-.297.093-.656.156-.344.078-.75.11-.391.046-.782.046-.656 0-1.234-.187-.563-.188-.984-.594-.422-.406-.672-1.047-.235-.64-.235-1.562v-5.344h-2.578v-1.313h2.578v-2.39h1.703z"/></g></svg>