<svg height="514pt" viewBox="0 0 512 512" width="514pt" xmlns="http://www.w3.org/2000/svg"><path d="m512 256c0 141.386719-114.613281 256-256 256s-256-114.613281-256-256 114.613281-256 256-256 256 114.613281 256 256zm0 0" fill="#ffab50"/><path d="m162.757812 293.09375c-54.179687-53.632812-62.636718-178.730469-63.398437-239.59375-60.441406 46.828125-99.359375 120.121094-99.359375 202.5 0 141.386719 114.613281 256 256 256 53.382812 0 102.953125-16.339844 143.976562-44.292969-66.289062-78.890625-179.46875-117.445312-237.21875-174.613281zm0 0" fill="#ff9429"/><path d="m256 475.945312c-58.75 0-113.980469-22.878906-155.523438-64.421874-41.542968-41.542969-64.421874-96.773438-64.421874-155.523438 0-121.277344 98.667968-219.945312 219.945312-219.945312s219.945312 98.667968 219.945312 219.945312c0 58.75-22.878906 113.980469-64.421874 155.523438-41.542969 41.542968-96.773438 64.421874-155.523438 64.421874zm0 0" fill="#ffe3bd"/><path d="m162.757812 293.09375c-42.636718-42.207031-56.957031-128.671875-61.496093-193.253906-40.242188 39.878906-65.207031 95.160156-65.207031 156.160156 0 58.75 22.878906 113.980469 64.421874 155.523438 41.542969 41.542968 96.773438 64.421874 155.523438 64.421874 42.707031 0 83.554688-12.089843 118.636719-34.652343-66.964844-61.855469-160.964844-97.796875-211.878907-148.199219zm0 0" fill="#ffd4a1"/><g fill="#ffab50"><path d="m187.335938 89.191406c-27.253907 10.648438-32.570313 44.175782-13.164063 63.582032l43.667969 43.664062c8.496094 8.5 23.027344 2.480469 23.027344-9.539062v-61.742188c0-27.597656-27.824219-46.003906-53.53125-35.964844zm0 0"/><path d="m325.480469 89.496094c-26.800781-11.742188-54.265625 8.207031-54.265625 35.652344v61.75c0 12.019531 14.53125 18.039062 23.027344 9.539062l43.660156-43.65625c19.515625-19.515625 12.859375-52.207031-12.421875-63.285156zm0 0"/><path d="m422.808594 187.335938c-10.648438-27.253907-44.179688-32.570313-63.582032-13.164063l-43.667968 43.667969c-8.496094 8.496094-2.476563 23.027344 9.539062 23.027344h61.742188c27.601562 0 46.007812-27.824219 35.96875-53.53125zm0 0"/><path d="m422.324219 325.484375c11.742187-26.804687-8.207031-54.269531-35.652344-54.269531h-61.75c-12.019531 0-18.039063 14.53125-9.542969 23.03125l43.660156 43.65625c19.515626 19.515625 52.207032 12.859375 63.285157-12.417969zm0 0"/><path d="m324.664062 422.984375c27.253907-10.644531 32.570313-44.175781 13.164063-63.582031l-43.667969-43.664063c-8.496094-8.5-23.027344-2.480469-23.027344 9.539063v61.742187c0 27.597657 27.820313 46.007813 53.53125 35.964844zm0 0"/><path d="m186.601562 422.324219c26.800782 11.742187 54.265626-8.207031 54.265626-35.652344v-61.75c0-12.019531-14.53125-18.039063-23.027344-9.542969l-43.660156 43.660156c-19.515626 19.515626-12.859376 52.207032 12.421874 63.285157zm0 0"/><path d="m89.015625 324.480469c10.644531 27.253906 44.175781 32.570312 63.582031 13.164062l43.664063-43.664062c8.5-8.5 2.480469-23.03125-9.539063-23.03125h-61.742187c-27.597657 0-46.007813 27.824219-35.964844 53.53125zm0 0"/><path d="m89.675781 186.601562c-11.742187 26.800782 8.207031 54.265626 35.652344 54.265626h61.75c12.019531 0 18.039063-14.53125 9.542969-23.027344l-43.660156-43.660156c-19.515626-19.515626-52.207032-12.859376-63.285157 12.421874zm0 0"/></g><path d="m324.660156 422.984375c6.152344-2.402344 11.1875-5.972656 15.070313-10.277344-22.101563-16.265625-45.597657-30.8125-68.597657-44.710937v19.023437c0 27.597657 27.820313 46.007813 53.527344 35.964844zm0 0" fill="#ff9429"/><path d="m186.601562 422.324219c26.800782 11.742187 54.265626-8.207031 54.265626-35.652344v-36.953125c-12.179688-7.433594-23.964844-14.8125-35.042969-22.324219l-31.640625 31.644531c-19.519532 19.515626-12.863282 52.207032 12.417968 63.285157zm0 0" fill="#ff9429"/><path d="m89.015625 324.480469c10.644531 27.253906 44.175781 32.570312 63.578125 13.164062l28.410156-28.410156c-6.539062-5.242187-12.652344-10.605469-18.246094-16.140625-6.496093-6.429688-12.339843-13.894531-17.585937-22.144531h-20.191406c-27.597657 0-46.007813 27.824219-35.964844 53.53125zm0 0" fill="#ff9429"/><path d="m89.675781 186.601562c-11.742187 26.800782 8.207031 54.265626 35.652344 54.265626h4.476563c-9.4375-22.851563-16.003907-48.65625-20.554688-74.371094-8.324219 3.859375-15.449219 10.691406-19.574219 20.105468zm0 0" fill="#ff9429"/></svg>
